<?xml version="1.0" encoding="UTF-8"?>
<svg id="Layer_1" data-name="Layer 1" xmlns="http://www.w3.org/2000/svg" xmlns:xlink="http://www.w3.org/1999/xlink" viewBox="0 0 346 346.38">
  <defs>
    <style>
      .cls-1 {
        mask: url(#mask);
      }

      .cls-2 {
        stroke: #9e9fa6;
        stroke-width: 2px;
      }

      .cls-2, .cls-3, .cls-4 {
        fill: none;
      }

      .cls-5 {
        fill: #abdde3;
        stroke-width: .77px;
      }

      .cls-5, .cls-4 {
        stroke: rgba(0, 152, 165, .1);
      }

      .cls-6 {
        fill: #0098a5;
        stroke: #fff;
        stroke-width: 1.54px;
      }

      .cls-7 {
        fill: #fff;
      }

      .cls-3 {
        stroke: #000;
        stroke-linecap: round;
        stroke-width: 5px;
      }

      .cls-8 {
        fill: #f7f7f7;
      }

      .cls-4 {
        stroke-width: .38px;
      }
    </style>
    <mask id="mask" x="172.62" y="0" width="151.51" height="174.04" maskUnits="userSpaceOnUse">
      <g id="path-26-inside-3_3937_741" data-name="path-26-inside-3 3937 741">
        <path class="cls-7" d="M173,.38c30.63,0,60.71,8.13,87.17,23.57,26.46,15.44,48.35,37.62,63.43,64.28l-150.6,85.15V.38Z"/>
      </g>
    </mask>
  </defs>
  <circle class="cls-8" cx="173" cy="173.38" r="173"/>
  <circle class="cls-4" cx="173" cy="173.38" r="172.81"/>
  <g class="cls-1">
    <path class="cls-5" d="M173,.38c30.63,0,60.71,8.13,87.17,23.57,26.46,15.44,48.35,37.62,63.43,64.28l-150.6,85.15V.38Z"/>
  </g>
  <line class="cls-2" x1="174" y1="10.88" x2="174" y2="30.88"/>
  <circle class="cls-6" cx="173" cy="173.38" r="9.01"/>
  <line class="cls-3" x1="172.28" y1="170.66" x2="244.54" y2="60.6"/>
  <line class="cls-3" x1="173.74" y1="168.49" x2="173.51" y2="86.39"/>
  <circle class="cls-6" cx="173.25" cy="173.63" r="9.02"/>
  <line class="cls-2" x1="174" y1="316.88" x2="174" y2="336.88"/>
  <line class="cls-2" x1="316" y1="172.88" x2="336" y2="172.88"/>
  <line class="cls-2" x1="10" y1="172.88" x2="30" y2="172.88"/>
</svg>