<?xml version="1.0" encoding="UTF-8"?>
<svg id="Layer_1" xmlns="http://www.w3.org/2000/svg" version="1.1" viewBox="0 0 419.8 298.9">
  <!-- Generator: Adobe Illustrator 29.7.1, SVG Export Plug-In . SVG Version: 2.1.1 Build 8)  -->
  <defs>
    <style>
      .st0 {
        fill: #00808d;
      }

      .st1 {
        fill: #fff;
      }

      .st2 {
        fill: #eb5f28;
      }

      .st3 {
        fill: #868786;
      }

      .st4 {
        fill: #005059;
      }

      .st5 {
        fill: #181716;
      }

      .st6 {
        fill: #00aabe;
      }
    </style>
  </defs>
  <path class="st2" d="M210.5,292.4c0-.3.2-.5.5-.5h0c.3,0,.5.2.5.5h0c0,.3-.2.5-.5.5h0c-.3,0-.5-.2-.5-.5ZM213.5,292.3c0-.3.2-.5.5-.5h0c.3,0,.5.2.5.5h0c0,.3-.2.5-.5.5h0c-.3,0-.5-.2-.5-.5ZM216.6,292.2c0-.3.2-.5.5-.5h0c.3,0,.5.2.5.5h0c0,.3-.2.5-.5.5h0c-.3,0-.5-.2-.5-.5ZM219.6,292c0-.3.2-.5.5-.5h0c.3,0,.5.2.6.5h0c0,.3-.2.5-.5.5h0c-.2,0-.5-.2-.5-.5ZM222.6,291.7c0-.3.2-.5.4-.5h0c.3,0,.5.2.6.4h0c0,.3-.2.5-.5.6h0c-.3,0-.5-.2-.5-.5ZM225.6,291.3c0-.3.2-.5.4-.6h0c.3,0,.5.2.6.4h0c0,.3-.2.5-.4.6h0s0,0,0,0h0c-.2,0-.5-.2-.5-.4ZM228.6,290.9c0-.3.1-.5.4-.6h0c.3,0,.5.1.6.4h0c0,.3-.1.5-.4.6h0s0,0,0,0h0c-.2,0-.5-.2-.5-.4ZM231.6,290.4c0-.3.1-.5.4-.6h0c.3,0,.5.1.6.4h0c0,.3-.1.5-.4.6h0s0,0,0,0h0c-.2,0-.4-.2-.5-.4ZM234.6,289.9c0-.3.1-.5.4-.6h0c.3,0,.5.1.6.4h0c0,.3-.1.5-.4.6h0s0,0,0,0h0c-.2,0-.4-.2-.5-.4ZM237.5,289.3c0-.3.1-.5.4-.6h0c.3,0,.5.1.6.4h0c0,.3-.1.5-.4.6h0s0,0-.1,0h0c-.2,0-.4-.2-.5-.4ZM240.5,288.6c0-.3,0-.5.4-.6h0c.3,0,.6.1.6.4h0c0,.3,0,.5-.4.6h0s0,0-.1,0h0c-.2,0-.4-.2-.5-.4ZM243.4,287.8c0-.3,0-.5.3-.6h0c.3,0,.6,0,.6.4h0c0,.3,0,.5-.3.6h0s0,0-.1,0h0c-.2,0-.4-.2-.5-.4ZM246.3,287c0-.3,0-.5.3-.6h0c.3,0,.5,0,.6.4h0c0,.3,0,.5-.3.6h0s0,0-.2,0h0c-.2,0-.4-.1-.5-.4ZM249.2,286.1c0-.3,0-.5.3-.6h0c.3,0,.6,0,.6.3h0c0,.3,0,.5-.3.6h0s-.1,0-.2,0h0c-.2,0-.4-.1-.5-.4ZM252.1,285.2c0-.3,0-.5.3-.6h0c.3,0,.6,0,.7.3h0c0,.3,0,.5-.3.6h0s-.1,0-.2,0h0c-.2,0-.4-.1-.5-.3ZM255,284.2c-.1-.3,0-.5.3-.6h0c.3-.1.5,0,.6.3h0c.1.3,0,.5-.3.6h0s-.1,0-.2,0h0c-.2,0-.4-.1-.5-.3ZM257.8,283.1c-.1-.3,0-.6.3-.7h0c.3-.1.5,0,.6.3h0c.1.3,0,.5-.3.6h0c0,0-.1,0-.2,0h0c-.2,0-.4-.1-.5-.3ZM260.6,282c-.1-.2,0-.5.3-.7h0c.3-.1.6,0,.7.3h0c.1.3,0,.5-.3.7h0c0,0-.1,0-.2,0h0c-.2,0-.4-.1-.5-.3ZM263.4,280.8c-.1-.2,0-.6.3-.7h0c.2-.1.6,0,.7.2h0c.1.3,0,.6-.2.7h0c0,0-.1,0-.2,0h0c-.2,0-.4-.1-.5-.3ZM266.2,279.5c-.1-.2,0-.5.2-.7h0c.2-.1.5,0,.7.2h0c.1.2,0,.5-.2.7h0c0,0-.1,0-.2,0h0c-.2,0-.4-.1-.5-.3ZM268.9,278.2c-.1-.2,0-.5.2-.7h0c.2-.1.6,0,.7.2h0c.1.2,0,.6-.2.7h0c0,0-.1,0-.2,0h0c-.2,0-.4,0-.5-.3ZM271.6,276.8c-.1-.2,0-.6.2-.7h0c.2-.1.5,0,.7.2h0c.1.2,0,.6-.2.7h0c0,0-.2,0-.2,0h0c-.2,0-.3-.1-.4-.3ZM274.3,275.4c-.1-.2,0-.6.2-.7h0c.2-.1.5,0,.7.2h0c.1.2,0,.5-.2.7h0c0,0-.2,0-.2,0h0c-.2,0-.3,0-.4-.2ZM276.9,273.9c-.1-.2,0-.6.2-.7h0c.2-.1.5,0,.7.2h0c.1.2,0,.5-.2.7h0c0,0-.2,0-.3,0h0c-.2,0-.3,0-.4-.2ZM279.5,272.3c-.1-.2,0-.6.2-.7h0c.2-.2.5,0,.7.2h0c.1.2,0,.6-.2.7h0c0,0-.2,0-.3,0h0c-.2,0-.3,0-.4-.2ZM282.1,270.7c-.2-.2,0-.5.1-.7h0c.2-.1.5,0,.7.1h0c.2.2,0,.5-.2.7h0c0,0-.2,0-.3,0h0c-.2,0-.3,0-.4-.2ZM284.6,269c-.2-.2,0-.5.1-.7h0c.2-.2.5-.1.7.1h0c.2.2.1.5-.1.7h0c0,0-.2,0-.3,0h0c-.2,0-.3,0-.4-.2ZM287.1,267.3c-.2-.2-.1-.5.1-.7h0c.2-.2.5-.1.7.1h0c.2.2.1.5-.1.7h0c0,0-.2,0-.3,0h0c-.2,0-.3,0-.4-.2ZM289.5,265.5c-.2-.2-.1-.5,0-.7h0c.2-.2.5-.1.7.1h0c.2.2.1.5-.1.7h0c0,0-.2,0-.3,0h0c-.2,0-.3,0-.4-.2ZM291.9,263.7c-.2-.2-.1-.5,0-.7h0c.2-.2.5-.1.7,0h0c.2.2.1.5,0,.7h0c0,0-.2.1-.3.1h0c-.1,0-.3,0-.4-.2ZM294.3,261.8c-.2-.2-.2-.5,0-.7h0c.2-.2.5-.1.7,0h0c.2.2.2.5,0,.7h0c-.1,0-.2.1-.3.1h0c-.2,0-.3,0-.4-.2ZM296.6,259.9c-.2-.2-.1-.5,0-.7h0c.2-.2.5-.1.7,0h0c.2.2.2.5,0,.7h0c0,0-.2.1-.3.1h0c-.1,0-.3,0-.4-.2ZM298.9,257.9c-.2-.2-.2-.5,0-.7h0c.2-.2.5-.2.7,0h0c.2.2.2.5,0,.7h0c0,0-.2.1-.3.1h0c-.1,0-.3,0-.4-.2ZM301.1,255.8c-.2-.2-.2-.5,0-.7h0c.2-.2.5-.2.7,0h0c.2.2.2.5,0,.7h0c0,0-.2.1-.3.1h0c-.1,0-.3,0-.4-.2ZM303.3,253.7c-.2-.2-.2-.5,0-.7h0c.2-.2.5-.2.7,0h0c.2.2.2.5,0,.7h0c-.1.1-.2.2-.4.2h0c-.1,0-.3,0-.4-.2ZM305.5,251.6c-.2-.2-.2-.5,0-.7h0c.2-.2.5-.2.7,0h0c.2.2.2.5,0,.7h0c0,.1-.2.2-.4.2h0c-.1,0-.2,0-.3-.1ZM307.6,249.4c-.2-.2-.2-.5,0-.7h0c.2-.2.5-.2.7,0h0c.2.2.2.5,0,.7h0c0,.1-.2.2-.4.2h0c-.1,0-.2,0-.3-.1ZM309.6,247.2c-.2-.2-.2-.5,0-.7h0c.2-.2.5-.2.7,0h0c.2.2.2.5,0,.7h0c0,.1-.2.2-.4.2h0c-.1,0-.2,0-.3-.1ZM311.6,244.9c-.2-.2-.2-.5,0-.7h0c.2-.2.5-.2.7,0h0c.2.2.2.5,0,.7h0c0,.1-.2.2-.4.2h0c-.1,0-.2,0-.3-.1ZM313.6,242.6c-.2-.2-.2-.5,0-.7h0c.2-.2.5-.2.7,0h0c.2.2.2.5,0,.7h0c0,.1-.2.2-.4.2h0c-.1,0-.2,0-.3-.1ZM315.5,240.3c-.2-.2-.3-.5,0-.7h0c.2-.2.5-.3.7,0h0c.2.2.3.5,0,.7h0c-.1.1-.2.2-.4.2h0c-.1,0-.2,0-.3-.1ZM317.3,237.9c-.2-.2-.3-.5,0-.7h0c.2-.2.5-.3.7-.1h0c.2.2.3.5,0,.7h0c0,.1-.2.2-.4.2h0c-.1,0-.2,0-.3,0ZM319.1,235.5c-.2-.2-.3-.5-.1-.7h0c.2-.2.5-.3.7-.1h0c.2.2.3.5.1.7h0c0,.1-.2.2-.4.2h0c0,0-.2,0-.3,0ZM320.8,233c-.2-.2-.3-.5-.1-.7h0c.2-.2.5-.3.7-.1h0c.2.2.3.5.1.7h0c0,.1-.2.2-.4.2h0c-.1,0-.2,0-.3,0ZM322.5,230.5c-.2-.1-.3-.5-.2-.7h0c.2-.2.5-.3.7-.1h0c.2.1.3.5.2.7h0c-.1.1-.3.2-.4.2h0c-.1,0-.2,0-.3,0ZM324.1,227.9c-.2-.2-.3-.5-.2-.7h0c.1-.2.5-.3.7-.2h0c.2.1.3.5.2.7h0c0,.1-.3.2-.4.2h0c0,0-.2,0-.3,0ZM325.7,225.3c-.2-.1-.3-.5-.2-.7h0c.1-.2.5-.3.7-.2h0c.2.1.3.5.2.7h0c0,.2-.3.2-.4.2h0c0,0-.2,0-.2,0ZM327.2,222.7c-.2-.1-.3-.4-.2-.7h0c.1-.2.5-.3.7-.2h0c.2.1.3.4.2.7h0c0,.2-.3.3-.4.3h0c0,0-.2,0-.2,0ZM328.7,220.1c-.2-.1-.3-.4-.2-.7h0c.1-.2.4-.3.7-.2h0c.2.1.3.4.2.7h0c0,.2-.3.3-.4.3h0c0,0-.2,0-.2,0ZM330.1,217.4c-.2-.1-.3-.4-.2-.7h0c.1-.2.4-.3.7-.2h0c.2.1.4.4.2.7h0c0,.2-.3.3-.4.3h0c0,0-.2,0-.2,0ZM331.4,214.7c-.2-.1-.4-.4-.2-.7h0c.1-.2.4-.4.7-.2h0c.2.1.4.4.2.7h0c0,.2-.3.3-.5.3h0c0,0-.1,0-.2,0ZM332.7,212c-.2-.1-.4-.4-.2-.7h0c.1-.2.4-.4.7-.2h0c.2.1.4.4.2.7h0c0,.2-.3.3-.5.3h0c0,0-.1,0-.2,0ZM333.9,209.2c-.3-.1-.4-.4-.3-.7h0c.1-.2.4-.4.7-.3h0c.3.1.4.4.3.7h0c0,.2-.3.3-.5.3h0c0,0-.1,0-.2,0ZM335,206.4c-.3-.1-.4-.4-.3-.7h0c0-.3.4-.4.6-.3h0c.3.1.4.4.3.7h0c0,.2-.3.3-.5.3h0c0,0-.1,0-.2,0ZM336.1,203.6c-.3-.1-.4-.4-.3-.6h0c.1-.3.4-.4.7-.3h0c.3,0,.4.4.3.6h0c0,.2-.3.3-.5.3h0c0,0-.1,0-.2,0ZM337.2,200.8c-.3,0-.4-.4-.3-.6h0c0-.3.4-.4.6-.3h0c.3,0,.4.4.3.6h0c0,.2-.3.3-.5.3h0s-.1,0-.2,0ZM338.1,197.9c-.3,0-.4-.4-.3-.6h0c0-.3.4-.4.6-.3h0c.3,0,.4.4.3.6h0c0,.2-.3.4-.5.4h0s0,0-.1,0ZM339,195c-.3,0-.4-.4-.3-.6h0c0-.3.3-.4.6-.3h0c.3,0,.4.4.3.6h0c0,.2-.3.4-.5.4h0c0,0-.1,0-.1,0ZM339.9,192.1c-.3,0-.4-.4-.3-.6h0c0-.3.3-.4.6-.4h0c.3,0,.4.3.4.6h0c0,.2-.3.4-.5.4h0s0,0-.1,0ZM340.6,189.2c-.3,0-.4-.3-.4-.6h0c0-.3.3-.4.6-.4h0c.3,0,.4.3.4.6h0c0,.2-.3.4-.5.4h0s0,0-.1,0ZM341.3,186.2c-.3,0-.4-.3-.4-.6h0c0-.3.3-.4.6-.4h0c.3,0,.4.3.4.6h0c0,.2-.3.4-.5.4h0s0,0-.1,0ZM342,183.3c-.3,0-.5-.3-.4-.6h0c0-.3.3-.5.6-.4h0c.3,0,.4.3.4.6h0c0,.2-.3.4-.5.4h0s0,0,0,0ZM342.6,180.3c-.3,0-.5-.3-.4-.6h0c0-.3.3-.5.6-.4h0c.3,0,.5.3.4.6h0c0,.2-.3.4-.5.4h0s0,0,0,0ZM343.1,177.3c-.3,0-.5-.3-.4-.6h0c0-.3.3-.5.6-.4h0c.3,0,.5.3.4.6h0c0,.2-.2.4-.5.4h0ZM343.5,174.3c-.3,0-.5-.3-.4-.6h0c0-.3.3-.5.6-.4h0c.3,0,.5.3.4.6h0c0,.3-.3.4-.5.4h0ZM343.9,171.3c-.3,0-.5-.3-.4-.5h0c0-.3.3-.5.5-.5h0c.3,0,.5.3.5.6h0c0,.3-.2.5-.5.5h0s0,0,0,0ZM344.2,168.3c-.3,0-.5-.3-.5-.5h0c0-.3.3-.5.5-.5h0c.3,0,.5.3.5.5h0c0,.3-.2.5-.5.5h0s0,0,0,0ZM344.4,165.3c-.3,0-.5-.3-.5-.5h0c0-.3.3-.5.5-.5h0c.3,0,.5.3.5.5h0c0,.3-.2.5-.5.5h0ZM344.6,162.3c-.3,0-.5-.2-.5-.5h0c0-.3.2-.5.5-.5h0c.3,0,.5.2.5.5h0c0,.3-.2.5-.5.5h0ZM344.7,159.3c-.3,0-.5-.2-.5-.5h0c0-.3.2-.5.5-.5h0c.3,0,.5.2.5.5h0c0,.3-.2.5-.5.5h0Z"/>
  <path class="st2" d="M344.2,152.7c0-.3.2-.5.5-.5h0c.3,0,.5.2.5.5h0c0,.3-.2.5-.5.5h0c-.3,0-.5-.2-.5-.5ZM344.1,149.7c0-.3.2-.5.5-.5h0c.3,0,.5.2.5.5h0c0,.3-.2.5-.5.5h0c-.3,0-.5-.2-.5-.5ZM343.9,146.7c0-.3.2-.5.5-.5h0c.3,0,.5.2.5.5h0c0,.3-.2.5-.5.5h0c-.3,0-.5-.2-.5-.5ZM343.7,143.7c0-.3.2-.5.5-.5h0c.3,0,.5.2.5.4h0c0,.3-.2.5-.5.6h0c-.3,0-.5-.2-.5-.5ZM343.4,140.7c0-.3.2-.5.5-.6h0c.3,0,.5.2.5.4h0c0,.3-.2.5-.5.6h0c-.2,0-.5-.2-.5-.4ZM343.1,137.7c0-.3.2-.5.4-.6h0c.3,0,.5.2.6.4h0c0,.3-.2.5-.4.6h0s0,0,0,0h0c-.2,0-.5-.2-.5-.4ZM342.6,134.7c0-.3.1-.5.4-.6h0c.3,0,.5.1.6.4h0c0,.3-.2.5-.4.6h0c-.2,0-.5-.2-.5-.4ZM342.1,131.7c0-.3.1-.5.4-.6h0c.3,0,.5.1.6.4h0c0,.3-.1.5-.4.6h0s0,0,0,0h0c-.2,0-.5-.2-.5-.4ZM341.6,128.7c0-.3.1-.5.4-.6h0c.3,0,.5.1.6.4h0c0,.3-.1.5-.4.6h0s0,0-.1,0h0c-.2,0-.4-.2-.5-.4ZM341,125.8c0-.3.1-.5.4-.6h0c.3,0,.5.1.6.4h0c0,.3-.1.5-.4.6h0s0,0-.1,0h0c-.2,0-.4-.2-.5-.4ZM340.3,122.9c0-.3,0-.6.4-.6h0c.3,0,.5,0,.6.4h0c0,.3,0,.5-.4.6h0s0,0-.1,0h0c-.2,0-.4-.1-.5-.4ZM339.5,119.9c0-.3,0-.5.4-.6h0c.3,0,.5,0,.6.4h0c0,.3,0,.5-.3.6h0s0,0-.1,0h0c-.2,0-.4-.1-.5-.4ZM338.7,117c0-.3,0-.5.3-.6h0c.3,0,.5,0,.6.3h0c0,.3,0,.5-.3.6h0s0,0-.1,0h0c-.2,0-.4-.1-.5-.4ZM337.8,114.2h0c0-.3,0-.6.3-.6h0c.3,0,.5,0,.6.3h0c0,.3,0,.5-.3.6h0s-.1,0-.2,0h0c-.2,0-.4-.1-.5-.3ZM336.9,111.3c0-.3,0-.6.3-.6h0c.3,0,.6,0,.6.3h0c0,.3,0,.5-.3.6h0c0,0-.1,0-.2,0h0c-.2,0-.4-.1-.5-.3ZM335.8,108.4c0-.3,0-.5.3-.6h0c.3,0,.5,0,.6.3h0c0,.3,0,.6-.3.6h0c0,0-.1,0-.2,0h0c-.2,0-.4-.1-.5-.3ZM334.7,105.6c0-.3,0-.6.3-.7h0c.3-.1.5,0,.7.3h0c0,.3,0,.6-.3.7h0c0,0-.1,0-.2,0h0c-.2,0-.4-.1-.5-.3ZM333.6,102.8c-.1-.3,0-.6.3-.7h0c.3-.1.6,0,.7.3h0c.1.3,0,.6-.3.7h0c0,0-.1,0-.2,0h0c-.2,0-.4-.1-.5-.3ZM332.4,100c-.1-.3,0-.6.3-.7h0c.2-.1.6,0,.7.2h0c.1.3,0,.6-.2.7h0c0,0-.1,0-.2,0h0c-.2,0-.4-.1-.5-.3ZM331.1,97.3c-.1-.2,0-.5.2-.7h0c.3-.1.6,0,.7.2h0c.1.2,0,.5-.2.7h0c0,0-.2,0-.2,0h0c-.2,0-.4-.1-.5-.3ZM329.8,94.6h0c-.1-.2,0-.5.2-.7h0c.2-.1.5,0,.7.2h0c.1.2,0,.6-.2.7h0c0,0-.2,0-.2,0h0c-.2,0-.4-.1-.5-.3ZM328.4,91.9c-.1-.2,0-.5.2-.7h0c.2-.1.5,0,.7.2h0c.1.2,0,.5-.2.7h0c0,0-.2,0-.2,0h0c-.2,0-.4-.1-.4-.3ZM327,89.2h0c-.1-.2,0-.6.2-.7h0c.2-.1.5,0,.7.2h0c.1.2,0,.6-.2.7h0c0,0-.2,0-.2,0h0c-.2,0-.4,0-.4-.3ZM325.5,86.6c-.1-.2,0-.6.2-.7h0c.2-.1.5,0,.7.2h0c.1.2,0,.5-.2.7h0c0,0-.2,0-.2,0h0c-.2,0-.3,0-.4-.2ZM323.9,84c-.1-.2,0-.5.2-.7h0c.2-.1.5,0,.7.2h0c.1.2,0,.5-.2.7h0c0,0-.2,0-.3,0h0c-.2,0-.3,0-.4-.2ZM322.3,81.5h0c-.1-.2,0-.5.2-.7h0c.2-.2.5,0,.7.1h0c.1.2,0,.6-.2.7h0c0,0-.2,0-.3,0h0c-.2,0-.3,0-.4-.2ZM320.6,79h0c-.2-.2,0-.5.1-.7h0c.2-.2.6-.1.7.1h0c.2.2.1.5-.1.7h0c0,0-.2,0-.3,0h0c-.2,0-.3,0-.4-.2ZM318.9,76.5c-.2-.2-.1-.5.1-.7h0c.2-.2.5-.1.7.1h0c.2.2.1.5-.1.7h0c0,0-.2.1-.3.1h0c-.2,0-.3,0-.4-.2ZM317.1,74.1c-.2-.2-.1-.5.1-.7h0c.2-.2.5-.1.7.1h0c.2.2.1.5,0,.7h0c0,0-.2.1-.3.1h0c-.2,0-.3,0-.4-.2ZM315.3,71.7c-.2-.2-.1-.5,0-.7h0c.2-.2.5-.1.7,0h0c.2.2.1.5,0,.7h0c0,0-.2.1-.3.1h0c-.2,0-.3,0-.4-.2ZM313.4,69.3c-.2-.2-.2-.5,0-.7h0c.2-.2.5-.1.7,0h0c.2.2.1.5,0,.7h0c0,0-.2.1-.3.1h0c-.1,0-.3,0-.4-.2ZM311.4,67c-.2-.2-.2-.5,0-.7h0c.2-.2.5-.2.7,0h0c.2.2.2.5,0,.7h0c0,0-.2.1-.3.1h0c-.1,0-.3,0-.4-.2ZM309.5,64.8c-.2-.2-.2-.5,0-.7h0c.2-.2.5-.2.7,0h0c.2.2.2.5,0,.7h0c-.1,0-.2.1-.3.1h0c-.1,0-.3,0-.4-.2ZM307.4,62.5c-.2-.2-.2-.5,0-.7h0c.2-.2.5-.2.7,0h0c.2.2.2.5,0,.7h0c0,0-.2.1-.3.1h0c-.1,0-.3,0-.4-.2ZM305.3,60.4h0c-.2-.2-.2-.5,0-.7h0c.2-.2.5-.2.7,0h0c.2.2.2.5,0,.7h0c-.1,0-.2.1-.4.1h0c-.1,0-.3,0-.4-.1ZM303.2,58.2c-.2-.2-.2-.5,0-.7h0c.2-.2.5-.2.7,0h0c.2.2.2.5,0,.7h0c-.1.1-.2.2-.4.2h0c-.1,0-.3,0-.4-.1ZM301,56.1h0c-.2-.2-.2-.5,0-.7h0c.2-.2.5-.2.7,0h0c.2.2.2.5,0,.7h0c0,.1-.2.2-.4.2h0c-.1,0-.2,0-.3-.1ZM298.8,54.1h0c-.2-.2-.2-.5,0-.7h0c.2-.2.5-.2.7,0h0c.2.2.2.5,0,.7h0c-.1.1-.2.2-.4.2h0c-.1,0-.2,0-.3-.1ZM296.5,52.1h0c-.2-.2-.2-.5,0-.7h0c.2-.2.5-.2.7,0h0c.2.2.2.5,0,.7h0c0,.1-.2.2-.4.2h0c-.1,0-.2,0-.3-.1ZM294.2,50.2c-.2-.2-.2-.5,0-.7h0c.2-.2.5-.2.7,0h0c.2.2.2.5,0,.7h0c-.1.1-.2.2-.4.2h0c-.1,0-.2,0-.3-.1ZM291.9,48.3c-.2-.2-.3-.5,0-.7h0c.2-.2.5-.3.7,0h0c.2.2.3.5,0,.7h0c0,.1-.2.2-.4.2h0c-.1,0-.2,0-.3-.1ZM289.5,46.5c-.2-.2-.3-.5,0-.7h0c.2-.2.5-.3.7-.1h0c.2.2.3.5.1.7h0c0,.1-.2.2-.4.2h0c0,0-.2,0-.3-.1ZM287.1,44.7c-.2-.2-.3-.5-.1-.7h0c.2-.2.5-.3.7-.1h0c.2.2.3.5.1.7h0c0,.1-.2.2-.4.2h0c-.1,0-.2,0-.3-.1ZM284.6,43h0c-.2-.1-.3-.5-.1-.7h0c.2-.2.5-.3.7-.1h0c.2.2.3.5.1.7h0c0,.1-.2.2-.4.2h0c0,0-.2,0-.3,0ZM282.1,41.3c-.2-.1-.3-.5-.1-.7h0c.2-.2.5-.3.7-.1h0c.2.1.3.5.2.7h0c0,.1-.3.2-.4.2h0c-.1,0-.2,0-.3,0ZM279.5,39.7c-.2-.1-.3-.5-.2-.7h0c.2-.2.5-.3.7-.2h0c.2.1.3.5.2.7h0c0,.2-.3.2-.4.2h0c0,0-.2,0-.3,0ZM277,38.2h0c-.2-.1-.3-.5-.2-.7h0c.1-.2.5-.3.7-.2h0c.2.1.3.4.2.7h0c0,.2-.3.2-.4.2h0c0,0-.2,0-.2,0ZM274.4,36.7c-.2-.1-.3-.4-.2-.7h0c.1-.2.4-.3.7-.2h0c.2.1.3.4.2.7h0c0,.2-.3.3-.4.3h0c0,0-.2,0-.2,0ZM271.7,35.2c-.2-.1-.3-.4-.2-.7h0c.1-.2.4-.3.7-.2h0c.2.1.3.4.2.7h0c0,.2-.3.3-.5.3h0c0,0-.2,0-.2,0ZM269,33.8h0c-.2-.1-.3-.4-.2-.7h0c.1-.2.4-.4.7-.2h0c.2.1.3.4.2.7h0c0,.2-.3.3-.5.3h0c0,0-.2,0-.2,0ZM266.3,32.5c-.2-.1-.4-.4-.2-.7h0c.1-.2.4-.4.7-.2h0c.3.1.4.4.2.7h0c0,.2-.3.3-.4.3h0c0,0-.2,0-.2,0ZM263.6,31.3c-.2-.1-.4-.4-.2-.7h0c.1-.2.4-.4.7-.2h0c.3.1.4.4.3.7h0c0,.2-.3.3-.5.3h0c0,0-.1,0-.2,0ZM260.9,30.1c-.3-.1-.4-.4-.3-.7h0c.1-.3.4-.4.7-.3h0c.3.1.4.4.3.7h0c0,.2-.3.3-.5.3h0c0,0-.1,0-.2,0ZM258.1,28.9c-.3-.1-.4-.4-.3-.7h0c.1-.3.4-.4.7-.3h0c.3.1.4.4.3.7h0c0,.2-.3.3-.5.3h0c0,0-.1,0-.2,0ZM255.2,27.9c-.3-.1-.4-.4-.3-.7h0c0-.3.4-.4.6-.3h0c.3.1.4.4.3.6h0c0,.2-.3.3-.5.3h0c0,0-.1,0-.2,0ZM252.4,26.9c-.3-.1-.4-.4-.3-.6h0c0-.3.4-.4.6-.3h0c.3,0,.4.4.3.6h0c0,.2-.3.3-.5.3h0c0,0-.1,0-.2,0ZM249.6,25.9c-.3,0-.4-.4-.3-.6h0c0-.3.4-.4.6-.3h0c.3,0,.4.4.3.6h0c0,.2-.3.4-.5.4h0c0,0-.1,0-.2,0ZM246.7,25c-.3,0-.4-.4-.3-.6h0c0-.3.4-.4.6-.3h0c.3,0,.4.4.3.6h0c0,.2-.3.4-.5.4h0s0,0-.1,0ZM243.8,24.2h0c-.3,0-.4-.3-.3-.6h0c0-.3.3-.4.6-.4h0c.3,0,.4.4.4.6h0c0,.2-.3.4-.5.4h0s0,0-.1,0ZM240.9,23.4h0c-.3,0-.4-.3-.4-.6h0c0-.3.3-.4.6-.4h0c.3,0,.4.3.4.6h0c0,.2-.3.4-.5.4h0s0,0-.1,0ZM237.9,22.7h0c-.3,0-.4-.3-.4-.6h0c0-.3.3-.5.6-.4h0c.3,0,.4.3.4.6h0c0,.2-.3.4-.5.4h0s0,0-.1,0ZM235,22.1c-.3,0-.5-.3-.4-.6h0c0-.3.3-.4.6-.4h0c.3,0,.4.3.4.6h0c0,.2-.3.4-.5.4h0s0,0,0,0ZM232,21.6c-.3,0-.5-.3-.4-.6h0c0-.3.3-.5.6-.4h0c.3,0,.5.3.4.6h0c0,.2-.3.4-.5.4h0s0,0,0,0ZM229,21.1c-.3,0-.5-.3-.4-.6h0c0-.3.3-.5.6-.4h0c.3,0,.5.3.4.6h0c0,.2-.2.4-.5.4h0ZM226.1,20.6c-.3,0-.5-.3-.4-.6h0c0-.3.3-.5.6-.4h0c.3,0,.5.3.4.6h0c0,.3-.2.4-.5.4h0ZM223.1,20.3c-.3,0-.5-.3-.4-.6h0c0-.3.3-.5.6-.4h0c.3,0,.5.3.4.6h0c0,.3-.2.4-.5.4h0ZM220.1,20c-.3,0-.5-.3-.5-.5h0c0-.3.3-.5.5-.5h0c.3,0,.5.3.5.6h0c0,.3-.2.5-.5.5h0ZM217.1,19.7c-.3,0-.5-.3-.5-.5h0c0-.3.3-.5.5-.5h0c.3,0,.5.3.5.5h0c0,.3-.2.5-.5.5h0ZM214,19.6c-.3,0-.5-.2-.5-.5h0c0-.3.2-.5.5-.5h0c.3,0,.5.2.5.5h0c0,.3-.2.5-.5.5h0ZM211,19.5c-.3,0-.5-.2-.5-.5h0c0-.3.2-.5.5-.5h0c.3,0,.5.2.5.5h0c0,.3-.2.5-.5.5h0Z"/>
  <path class="st2" d="M71.3,153.2c-.3,0-.5-.2-.5-.5h0c0-.3.2-.5.5-.5h0c.3,0,.5.2.5.5h0c0,.3-.2.5-.5.5h0ZM71.4,150.1c-.3,0-.5-.2-.5-.5h0c0-.3.2-.5.5-.5h0c.3,0,.5.2.5.5h0c0,.3-.2.5-.5.5h0ZM71.5,147.1c-.3,0-.5-.3-.5-.5h0c0-.3.3-.5.5-.5h0c.3,0,.5.3.5.5h0c0,.3-.2.5-.5.5h0ZM71.7,144.1c-.3,0-.5-.3-.5-.6h0c0-.3.3-.5.5-.5h0c.3,0,.5.3.5.6h0c0,.3-.2.5-.5.5h0ZM72,141.1c-.3,0-.5-.3-.4-.6h0c0-.3.3-.5.6-.4h0c.3,0,.5.3.4.6h0c0,.3-.2.4-.5.4h0ZM72.4,138.1c-.3,0-.5-.3-.4-.6h0c0-.3.3-.5.6-.4h0c.3,0,.5.3.4.6h0c0,.2-.2.4-.5.4h0s0,0,0,0ZM72.8,135.1c-.3,0-.5-.3-.4-.6h0c0-.3.3-.5.6-.4h0c.3,0,.5.3.4.6h0c0,.2-.2.4-.5.4h0ZM73.3,132.1c-.3,0-.5-.3-.4-.6h0c0-.3.3-.5.6-.4h0c.3,0,.4.3.4.6h0c0,.2-.2.4-.5.4h0s0,0,0,0ZM73.8,129.1c-.3,0-.4-.3-.4-.6h0c0-.3.3-.4.6-.4h0c.3,0,.5.3.4.6h0c0,.2-.2.4-.5.4h0s0,0-.1,0ZM74.4,126.2c-.3,0-.4-.3-.4-.6h0c0-.3.3-.4.6-.4h0c.3,0,.4.3.4.6h0c0,.2-.3.4-.5.4h0s0,0-.1,0ZM75.1,123.2c-.3,0-.4-.3-.4-.6h0c0-.3.3-.4.6-.4h0c.3,0,.4.3.4.6h0c0,.2-.3.4-.5.4h0s0,0-.1,0ZM75.9,120.3c-.3,0-.4-.4-.4-.6h0c0-.3.4-.4.6-.4h0c.3,0,.4.4.4.6h0c0,.2-.3.4-.5.4h0s0,0-.1,0ZM76.7,117.4c-.3,0-.4-.4-.3-.6h0c0-.3.4-.4.6-.4h0c.3,0,.4.4.3.6h0c0,.2-.3.4-.5.4h0c0,0-.1,0-.1,0ZM77.6,114.5c-.3,0-.4-.4-.3-.6h0c0-.3.4-.4.6-.3h0c.3,0,.4.4.3.6h0c0,.2-.3.4-.5.4h0c0,0-.1,0-.2,0ZM78.5,111.6c-.3,0-.4-.4-.3-.6h0c0-.3.4-.4.6-.3h0c.3,0,.4.4.3.6h0c0,.2-.3.3-.5.3h0s-.1,0-.2,0ZM79.5,108.7c-.3-.1-.4-.4-.3-.6h0c0-.3.4-.4.6-.3h0c.3.1.4.4.3.6h0c0,.2-.3.3-.5.3h0c0,0-.1,0-.2,0ZM80.6,105.9c-.3-.1-.4-.4-.3-.6h0c.1-.3.4-.4.7-.3h0c.2.1.4.4.3.6h0c0,.2-.3.3-.5.3h0c0,0-.1,0-.2,0ZM81.7,103.1c-.3-.1-.4-.4-.3-.7h0c0-.2.4-.4.7-.3h0c.2.1.4.4.3.7h0c0,.2-.3.3-.5.3h0c0,0-.1,0-.2,0ZM82.9,100.3c-.3-.1-.4-.4-.3-.7h0c.1-.3.4-.4.7-.3h0c.2.1.4.4.2.7h0c0,.2-.3.3-.5.3h0c0,0-.1,0-.2,0ZM84.2,97.6c-.2-.1-.4-.4-.2-.7h0c.1-.2.4-.4.7-.2h0c.2.1.4.4.2.7h0c0,.2-.3.3-.5.3h0c0,0-.1,0-.2,0ZM85.5,94.9c-.2-.1-.4-.4-.2-.7h0c.1-.2.4-.3.7-.2h0c.2.1.4.4.2.7h0c0,.2-.3.3-.4.3h0c0,0-.2,0-.2,0ZM86.9,92.2c-.2-.1-.3-.4-.2-.7h0c.1-.2.4-.3.7-.2h0c.2.1.3.4.2.7h0c0,.2-.3.3-.4.3h0c0,0-.2,0-.2,0ZM88.3,89.5c-.2-.1-.3-.4-.2-.7h0c.1-.2.4-.3.7-.2h0c.2.1.3.4.2.7h0c0,.2-.3.2-.4.2h0c0,0-.2,0-.2,0ZM89.8,86.9c-.2-.1-.3-.5-.2-.7h0c.1-.2.5-.3.7-.2h0c.2.1.3.4.2.7h0c0,.2-.3.2-.4.2h0c0,0-.2,0-.2,0ZM91.3,84.3c-.2-.1-.3-.5-.2-.7h0c.1-.2.5-.3.7-.2h0c.2.1.3.5.2.7h0c0,.2-.3.2-.4.2h0c0,0-.2,0-.3,0ZM92.9,81.8c-.2-.1-.3-.5-.1-.7h0c.2-.2.5-.3.7-.1h0c.2.1.3.5.1.7h0c0,.1-.3.2-.4.2h0c-.1,0-.2,0-.3,0ZM94.6,79.3c-.2-.2-.3-.5-.1-.7h0c.2-.2.5-.3.7-.1h0c.2.2.3.5.1.7h0c-.1.1-.3.2-.4.2h0c-.1,0-.2,0-.3,0ZM96.3,76.8c-.2-.2-.3-.5-.1-.7h0c.2-.2.5-.3.7-.1h0c.2.2.3.5.1.7h0c0,.1-.2.2-.4.2h0c-.1,0-.2,0-.3,0ZM98.1,74.3c-.2-.2-.3-.5-.1-.7h0c.2-.2.5-.3.7-.1h0c.2.2.3.5,0,.7h0c-.1.1-.3.2-.4.2h0c-.1,0-.2,0-.3-.1ZM99.9,71.9c-.2-.2-.3-.5,0-.7h0c.2-.2.5-.3.7,0h0c.2.2.2.5,0,.7h0c-.1.1-.2.2-.4.2h0c-.1,0-.2,0-.3-.1ZM101.8,69.5c-.2-.2-.2-.5,0-.7h0c.2-.2.5-.2.7,0h0c.2.2.2.5,0,.7h0c0,.1-.2.2-.4.2h0c-.1,0-.2,0-.3-.1ZM103.7,67.2c-.2-.2-.2-.5,0-.7h0c.2-.2.5-.2.7,0h0c.2.2.2.5,0,.7h0c-.1.1-.2.2-.4.2h0c-.1,0-.2,0-.3-.1ZM105.7,64.9c-.2-.2-.2-.5,0-.7h0c.2-.2.5-.2.7,0h0c.2.2.2.5,0,.7h0c-.1.1-.2.2-.4.2h0c-.1,0-.2,0-.3-.1ZM107.7,62.7c-.2-.2-.2-.5,0-.7h0c.2-.2.5-.2.7,0h0c.2.2.2.5,0,.7h0c0,0-.2.2-.4.2h0c-.1,0-.2,0-.4-.1ZM109.8,60.5c-.2-.2-.2-.5,0-.7h0c.2-.2.5-.2.7,0h0c.2.2.2.5,0,.7h0c0,.1-.2.1-.4.1h0c-.1,0-.3,0-.4-.1ZM111.9,58.4c-.2-.2-.2-.5,0-.7h0c.2-.2.5-.2.7,0h0c.2.2.2.5,0,.7h0c-.1,0-.2.1-.4.1h0c-.1,0-.3,0-.4-.1ZM114.1,56.3c-.2-.2-.2-.5,0-.7h0c.2-.2.5-.2.7,0h0c.2.2.2.5,0,.7h0c0,0-.2.1-.3.1h0c-.1,0-.3,0-.4-.2ZM116.3,54.2c-.2-.2-.2-.5,0-.7h0c.2-.2.5-.2.7,0h0c.2.2.2.5,0,.7h0c-.1,0-.2.1-.3.1h0c-.1,0-.3,0-.4-.2ZM118.6,52.2c-.2-.2-.2-.5,0-.7h0c.2-.2.5-.2.7,0h0c.2.2.1.5,0,.7h0c0,0-.2.1-.3.1h0c-.1,0-.3,0-.4-.2ZM120.9,50.2c-.2-.2-.1-.5,0-.7h0c.2-.2.5-.1.7,0h0c.2.2.1.5,0,.7h0c0,0-.2.1-.3.1h0c-.1,0-.3,0-.4-.2ZM123.3,48.3c-.2-.2-.1-.5,0-.7h0c.2-.2.5-.1.7,0h0c.2.2.1.5,0,.7h0c0,0-.2.1-.3.1h0c-.1,0-.3,0-.4-.2ZM125.7,46.5c-.2-.2-.1-.5.1-.7h0c.2-.2.5-.1.7.1h0c.2.2.1.5-.1.7h0c0,0-.2.1-.3.1h0c-.2,0-.3,0-.4-.2ZM128.1,44.7c-.2-.2-.1-.5.1-.7h0c.2-.2.5-.1.7.1h0c.2.2.1.5-.1.7h0c0,0-.2.1-.3.1h0c-.2,0-.3,0-.4-.2ZM130.6,42.9c-.2-.2,0-.5.1-.7h0c.2-.2.5-.1.7.1h0c.2.2.1.6-.1.7h0c0,0-.2,0-.3,0h0c-.2,0-.3,0-.4-.2ZM133.1,41.3c-.1-.2,0-.5.1-.7h0c.2-.2.5,0,.7.1h0c.2.2,0,.5-.1.7h0c0,0-.2,0-.3,0h0c-.2,0-.3,0-.4-.2ZM135.6,39.6c-.1-.2,0-.5.2-.7h0c.2-.1.5,0,.7.2h0c.1.2,0,.5-.2.7h0c0,0-.2,0-.3,0h0c-.2,0-.3,0-.4-.2ZM138.2,38c-.1-.2,0-.5.2-.7h0c.2-.1.6,0,.7.2h0c.1.2,0,.5-.2.7h0c0,0-.2,0-.3,0h0c-.2,0-.3,0-.4-.2ZM140.9,36.5c-.1-.2,0-.5.2-.7h0c.2-.1.6,0,.7.2h0c.1.2,0,.5-.2.7h0c0,0-.2,0-.2,0h0c-.2,0-.3,0-.4-.3ZM143.5,35.1c-.1-.2,0-.5.2-.7h0c.2-.1.5,0,.7.2h0c.1.2,0,.5-.2.7h0c0,0-.2,0-.2,0h0c-.2,0-.4-.1-.4-.3ZM146.2,33.7c-.1-.2,0-.5.2-.7h0c.2-.1.5,0,.7.2h0c.1.2,0,.6-.2.7h0c0,0-.1,0-.2,0h0c-.2,0-.4,0-.5-.3ZM148.9,32.3c-.1-.2,0-.6.2-.7h0c.3-.1.6,0,.7.2h0c.1.2,0,.5-.2.7h0c0,0-.1,0-.2,0h0c-.2,0-.4-.1-.5-.3ZM151.7,31c-.1-.3,0-.5.3-.7h0c.2-.1.5,0,.7.3h0c.1.2,0,.5-.2.7h0c0,0-.1,0-.2,0h0c-.2,0-.4-.1-.5-.3ZM154.5,29.8c-.1-.3,0-.6.3-.7h0c.3-.1.5,0,.7.3h0c.1.2,0,.5-.3.7h0c0,0-.1,0-.2,0h0c-.2,0-.4-.1-.5-.3ZM157.3,28.7c-.1-.3,0-.5.3-.6h0c.3-.1.5,0,.6.3h0c.1.3,0,.6-.3.6h0c0,0-.1,0-.2,0h0c-.2,0-.4-.1-.5-.3ZM160.1,27.6c0-.3,0-.5.3-.6h0c.3-.1.6,0,.6.3h0c.1.3,0,.5-.3.6h0c0,0-.1,0-.2,0h0c-.2,0-.4-.1-.5-.3ZM162.9,26.5c0-.3,0-.6.3-.6h0c.3,0,.5,0,.6.3h0c0,.3,0,.6-.3.6h0c0,0-.1,0-.2,0h0c-.2,0-.4-.1-.5-.3ZM165.8,25.6c0-.3,0-.6.3-.6h0c.3,0,.5,0,.6.3h0c0,.3,0,.5-.3.6h0c0,0-.1,0-.2,0h0c-.2,0-.4-.1-.5-.4ZM168.7,24.7c0-.3,0-.5.3-.6h0c.3,0,.5,0,.6.3h0c0,.3,0,.5-.3.6h0s0,0-.1,0h0c-.2,0-.4-.1-.5-.4ZM171.6,23.8c0-.3,0-.5.4-.6h0c.3,0,.5,0,.6.4h0c0,.3,0,.6-.4.6h0s0,0-.1,0h0c-.2,0-.4-.1-.5-.4ZM174.5,23.1c0-.3.1-.5.4-.6h0c.3,0,.5.1.6.4h0c0,.3,0,.6-.4.6h0s0,0-.1,0h0c-.2,0-.4-.1-.5-.4ZM177.5,22.4c0-.3.1-.5.4-.6h0c.3,0,.5.1.6.4h0c0,.3-.1.5-.4.6h0s0,0-.1,0h0c-.2,0-.4-.2-.5-.4ZM180.5,21.7c0-.3.1-.5.4-.6h0c.3,0,.5.1.6.4h0c0,.3-.1.5-.4.6h0s0,0,0,0h0c-.2,0-.5-.2-.5-.4ZM183.4,21.1c0-.3.1-.5.4-.6h0c.3,0,.5.1.6.4h0c0,.3-.1.5-.4.6h0s0,0,0,0h0c-.2,0-.4-.2-.5-.4ZM186.4,20.6c0-.3.1-.5.4-.6h0c.3,0,.5.1.6.4h0c0,.3-.1.5-.4.6h0s0,0,0,0h0c-.2,0-.5-.2-.5-.4ZM189.4,20.2c0-.3.1-.5.4-.6h0c.3,0,.5.1.6.4h0c0,.3-.2.5-.4.6h0c-.2,0-.5-.2-.5-.4ZM192.4,19.8c0-.3.2-.5.5-.6h0c.3,0,.5.2.5.4h0c0,.3-.2.5-.4.6h0s0,0,0,0h0c-.2,0-.5-.2-.5-.4ZM195.4,19.5c0-.3.2-.5.5-.6h0c.3,0,.5.2.5.5h0c0,.3-.2.5-.5.5h0c-.3,0-.5-.2-.5-.5ZM198.4,19.3c0-.3.2-.5.5-.5h0c.3,0,.5.2.5.5h0c0,.3-.2.5-.5.5h0c-.3,0-.5-.2-.5-.5ZM201.5,19.1c0-.3.2-.5.5-.5h0c.3,0,.5.2.5.5h0c0,.3-.2.5-.5.5h0c-.3,0-.5-.2-.5-.5ZM204.5,19c0-.3.2-.5.5-.5h0c.3,0,.5.2.5.5h0c0,.3-.2.5-.5.5h0c-.3,0-.5-.2-.5-.5Z"/>
  <path class="st2" d="M204.9,292.9c-.3,0-.5-.2-.5-.5h0c0-.3.2-.5.5-.5h0c.3,0,.5.2.5.5h0c0,.3-.2.5-.5.5h0ZM201.9,292.8c-.3,0-.5-.2-.5-.5h0c0-.3.2-.5.5-.5h0c.3,0,.5.2.5.5h0c0,.3-.2.5-.5.5h0ZM198.9,292.7c-.3,0-.5-.3-.5-.5h0c0-.3.3-.5.5-.5h0c.3,0,.5.3.5.5h0c0,.3-.2.5-.5.5h0ZM195.9,292.4c-.3,0-.5-.3-.5-.5h0c0-.3.3-.5.5-.5h0c.3,0,.5.3.5.5h0c0,.3-.2.5-.5.5h0s0,0,0,0ZM192.8,292.1c-.3,0-.5-.3-.5-.6h0c0-.3.3-.5.6-.5h0c.3,0,.5.3.4.6h0c0,.3-.2.5-.5.5h0ZM189.8,291.8h0c-.3,0-.5-.3-.4-.6h0c0-.3.3-.5.6-.4h0c.3,0,.5.3.4.6h0c0,.2-.2.4-.5.4h0ZM186.8,291.3c-.3,0-.5-.3-.4-.6h0c0-.3.3-.5.6-.4h0c.3,0,.5.3.4.6h0c0,.2-.2.4-.5.4h0ZM183.8,290.8h0c-.3,0-.5-.3-.4-.6h0c0-.3.3-.5.6-.4h0c.3,0,.4.3.4.6h0c0,.2-.2.4-.5.4h0s0,0,0,0ZM180.8,290.3h0c-.3,0-.5-.3-.4-.6h0c0-.3.3-.5.6-.4h0c.3,0,.5.3.4.6h0c0,.2-.3.4-.5.4h0s0,0,0,0ZM177.9,289.6h0c-.3,0-.4-.3-.4-.6h0c0-.3.3-.4.6-.4h0c.3,0,.4.3.4.6h0c0,.2-.3.4-.5.4h0s0,0-.1,0ZM174.9,288.9c-.3,0-.4-.3-.4-.6h0c0-.3.3-.4.6-.4h0c.3,0,.4.3.4.6h0c0,.2-.3.4-.5.4h0s0,0-.1,0ZM172,288.2c-.3,0-.4-.3-.4-.6h0c0-.3.4-.4.6-.4h0c.3,0,.4.3.4.6h0c0,.2-.3.4-.5.4h0s0,0-.1,0ZM169,287.4c-.3,0-.4-.4-.3-.6h0c0-.3.4-.4.6-.3h0c.3,0,.4.4.4.6h0c0,.2-.3.4-.5.4h0c0,0,0,0-.1,0ZM166.1,286.5c-.3,0-.4-.4-.3-.6h0c0-.3.4-.4.6-.3h0c.3,0,.4.4.3.6h0c0,.2-.3.4-.5.4h0s-.1,0-.1,0ZM163.3,285.5h0c-.3,0-.4-.4-.3-.6h0c0-.3.4-.4.6-.3h0c.3,0,.4.4.3.6h0c0,.2-.3.3-.5.3h0s-.1,0-.2,0ZM160.4,284.5c-.3-.1-.4-.4-.3-.7h0c0-.3.4-.4.6-.3h0c.3,0,.4.4.3.6h0c0,.2-.3.3-.5.3h0c0,0-.1,0-.2,0ZM157.6,283.4c-.3-.1-.4-.4-.3-.7h0c.1-.3.4-.4.7-.3h0c.3,0,.4.4.3.7h0c0,.2-.3.3-.5.3h0c0,0-.1,0-.2,0ZM154.8,282.3h0c-.3-.1-.4-.4-.3-.7h0c.1-.3.4-.4.7-.3h0c.3.1.4.4.3.7h0c0,.2-.3.3-.5.3h0c0,0-.1,0-.2,0ZM152,281c-.2-.1-.4-.4-.2-.7h0c.1-.2.4-.4.7-.2h0c.3.1.4.4.3.7h0c0,.2-.3.3-.5.3h0c0,0-.1,0-.2,0ZM149.2,279.8c-.2-.1-.4-.4-.2-.7h0c.1-.2.4-.4.7-.2h0c.3.1.4.4.2.7h0c0,.2-.3.3-.4.3h0c0,0-.2,0-.2,0ZM146.5,278.5c-.2-.1-.3-.4-.2-.7h0c.1-.2.4-.3.7-.2h0c.2.1.4.4.2.7h0c0,.2-.3.3-.4.3h0c0,0-.2,0-.2,0ZM143.8,277.1c-.2-.1-.3-.4-.2-.7h0c.1-.2.4-.3.7-.2h0c.2.1.3.4.2.7h0c0,.2-.3.3-.5.3h0c0,0-.1,0-.2,0ZM141.2,275.6c-.2-.1-.3-.4-.2-.7h0c.1-.2.4-.3.7-.2h0c.2.1.3.4.2.7h0c-.1.2-.3.2-.4.2h0c0,0-.2,0-.2,0ZM138.5,274.1c-.2-.1-.3-.4-.2-.7h0c.1-.2.4-.3.7-.2h0c.2.2.3.5.2.7h0c0,.2-.3.2-.4.2h0c0,0-.2,0-.3,0ZM135.9,272.5c-.2-.1-.3-.5-.2-.7h0c.1-.2.5-.3.7-.2h0c.2.1.3.5.2.7h0c-.1.2-.3.2-.4.2h0c0,0-.2,0-.3,0ZM133.4,270.9c-.2-.2-.3-.5-.1-.7h0c.1-.2.5-.3.7-.1h0c.2.1.3.5.1.7h0c0,.2-.3.2-.4.2h0c-.1,0-.2,0-.3,0ZM130.9,269.2c-.2-.2-.3-.5-.1-.7h0c.1-.2.5-.3.7-.1h0c.2.2.3.5.1.7h0c0,.1-.2.2-.4.2h0c0,0-.2,0-.3,0ZM128.4,267.5h0c-.2-.2-.3-.5-.1-.7h0c.2-.2.5-.3.7-.1h0c.2.2.3.5.1.7h0c0,.1-.3.2-.4.2h0c-.1,0-.2,0-.3-.1ZM125.9,265.7h0c-.2-.2-.3-.5-.1-.7h0c.2-.2.5-.3.7-.1h0c.2.2.3.5.1.7h0c-.1.1-.2.2-.4.2h0c-.1,0-.2,0-.3-.1ZM123.5,263.9c-.2-.2-.2-.5,0-.7h0c.2-.2.5-.3.7,0h0c.2.2.3.5,0,.7h0c-.1.1-.2.2-.4.2h0c-.1,0-.2,0-.3-.1ZM121.1,262c-.2-.2-.2-.5,0-.7h0c.2-.2.5-.2.7,0h0c.2.2.2.5,0,.7h0c0,.1-.2.2-.4.2h0c-.1,0-.2,0-.3-.1ZM118.8,260c-.2-.2-.2-.5,0-.7h0c.2-.2.5-.2.7,0h0c.2.2.2.5,0,.7h0c-.1.1-.2.2-.4.2h0c-.1,0-.2,0-.3-.1ZM116.5,258c-.2-.2-.2-.5,0-.7h0c.2-.2.5-.2.7,0h0c.2.2.2.5,0,.7h0c-.1.1-.2.2-.4.2h0c-.1,0-.2,0-.3-.1ZM114.3,256c-.2-.2-.2-.5,0-.7h0c.2-.2.5-.2.7,0h0c.2.2.2.5,0,.7h0c-.1.1-.2.2-.4.2h0c-.1,0-.2,0-.4-.1ZM112.1,253.9c-.2-.2-.2-.5,0-.7h0c.2-.2.5-.2.7,0h0c.2.2.2.5,0,.7h0c0,0-.2.1-.4.1h0c-.1,0-.2,0-.4-.1ZM109.9,251.7c-.2-.2-.2-.5,0-.7h0c.2-.2.5-.2.7,0h0c.2.2.2.5,0,.7h0c0,0-.2.1-.4.1h0c-.1,0-.3,0-.4-.1ZM107.8,249.6c-.2-.2-.2-.5,0-.7h0c.2-.2.5-.2.7,0h0c.2.2.2.5,0,.7h0c0,0-.2.1-.3.1h0c-.1,0-.3,0-.4-.2ZM105.8,247.3c-.2-.2-.2-.5,0-.7h0c.2-.2.5-.2.7,0h0c.2.2.2.5,0,.7h0c-.1,0-.2.1-.3.1h0c-.1,0-.3,0-.4-.2ZM103.8,245h0c-.2-.2-.2-.5,0-.7h0c.2-.2.5-.2.7,0h0c.2.2.2.5,0,.7h0c-.1,0-.2.1-.3.1h0c-.1,0-.3,0-.4-.2ZM101.8,242.7h0c-.2-.2-.1-.5,0-.7h0c.2-.2.5-.1.7,0h0c.2.2.1.5,0,.7h0c0,0-.2.1-.3.1h0c-.1,0-.3,0-.4-.2ZM99.9,240.3c-.2-.2-.1-.5,0-.7h0c.2-.2.5-.1.7,0h0c.2.2.1.5,0,.7h0c0,0-.2,0-.3,0h0c-.1,0-.3,0-.4-.2ZM98.1,237.9c-.2-.2-.1-.5.1-.7h0c.2-.2.5-.1.7.1h0c.2.2.1.5-.1.7h0c0,0-.2.1-.3.1h0c-.2,0-.3,0-.4-.2ZM96.3,235.5h0c-.2-.2-.1-.5.1-.7h0c.2-.2.5-.1.7.1h0c.2.2.1.5-.1.7h0c0,0-.2.1-.3.1h0c-.2,0-.3,0-.4-.2ZM94.5,233c-.2-.2,0-.5.1-.7h0c.2-.2.5-.1.7.1h0c.1.2.1.5-.1.7h0c0,0-.2,0-.3,0h0c-.2,0-.3,0-.4-.2ZM92.9,230.5c-.1-.2,0-.5.1-.7h0c.2-.1.5,0,.7.2h0c.2.2,0,.5-.1.7h0c0,0-.2,0-.3,0h0c-.2,0-.3,0-.4-.2ZM91.2,227.9c-.1-.2,0-.6.2-.7h0c.2-.1.5,0,.7.2h0c.1.2,0,.5-.2.7h0c0,0-.2,0-.3,0h0c-.2,0-.3,0-.4-.2ZM89.7,225.3c-.1-.2,0-.6.2-.7h0c.2-.2.5,0,.7.2h0c.1.2,0,.5-.2.7h0c0,0-.2,0-.3,0h0c-.2,0-.3,0-.4-.2ZM88.1,222.6c-.1-.2,0-.5.2-.7h0c.2-.1.5,0,.7.2h0c.1.2,0,.6-.2.7h0c0,0-.2,0-.2,0h0c-.2,0-.4,0-.4-.2ZM86.7,220c-.1-.2,0-.6.2-.7h0c.2-.1.6,0,.7.2h0c.1.2,0,.5-.2.7h0c0,0-.2,0-.2,0h0c-.2,0-.4,0-.4-.3ZM85.3,217.3c-.1-.2,0-.6.2-.7h0c.2-.1.6,0,.7.2h0c.1.2,0,.6-.2.7h0c0,0-.2,0-.2,0h0c-.2,0-.4-.1-.5-.3ZM84,214.5c-.1-.2,0-.6.2-.7h0c.2-.1.6,0,.7.2h0c.1.2,0,.6-.2.7h0c0,0-.1,0-.2,0h0c-.2,0-.4-.1-.5-.3ZM82.7,211.8c-.1-.2,0-.6.2-.7h0c.2-.1.5,0,.7.2h0c.1.3,0,.6-.3.7h0c0,0-.1,0-.2,0h0c-.2,0-.4-.1-.5-.3ZM81.5,209c-.1-.2,0-.5.3-.7h0c.3-.1.5,0,.7.3h0c.1.3,0,.6-.3.7h0c0,0-.1,0-.2,0h0c-.2,0-.4-.1-.5-.3ZM80.3,206.2h0c-.1-.3,0-.6.3-.7h0c.3,0,.6,0,.7.3h0c.1.3,0,.5-.3.7h0c0,0-.1,0-.2,0h0c-.2,0-.4-.1-.5-.3ZM79.2,203.3c0-.3,0-.5.3-.6h0c.3-.1.5,0,.6.3h0c0,.3,0,.6-.3.7h0c0,0-.1,0-.2,0h0c-.2,0-.4-.1-.5-.3ZM78.2,200.4c0-.3,0-.5.3-.6h0c.3,0,.6,0,.6.3h0c0,.3,0,.5-.3.6h0c0,0-.1,0-.2,0h0c-.2,0-.4-.1-.5-.3ZM77.2,197.6c0-.3,0-.6.3-.6h0c.3,0,.5,0,.6.3h0c0,.3,0,.5-.3.6h0c0,0-.1,0-.1,0h0c-.2,0-.4-.1-.5-.4ZM76.3,194.6c0-.3,0-.5.3-.6h0c.3,0,.5,0,.6.3h0c0,.3,0,.6-.3.6h0c0,0-.1,0-.2,0h0c-.2,0-.4-.1-.5-.4ZM75.5,191.7c0-.3,0-.5.4-.6h0c.3,0,.5,0,.6.4h0c0,.3,0,.5-.4.6h0s0,0-.1,0h0c-.2,0-.4-.1-.5-.4ZM74.8,188.8c0-.3.1-.5.4-.6h0c.3,0,.5.1.6.4h0c0,.3-.1.5-.4.6h0s0,0-.1,0h0c-.2,0-.4-.2-.5-.4ZM74,185.8c0-.3.1-.6.4-.6h0c.3,0,.5.1.6.4h0c0,.3-.1.5-.4.6h0s0,0-.1,0h0c-.2,0-.4-.2-.5-.4ZM73.4,182.8c0-.3.1-.5.4-.6h0c.3,0,.5.1.6.4h0c0,.3-.1.5-.4.6h0s0,0-.1,0h0c-.2,0-.4-.2-.5-.4ZM72.9,179.9c0-.3.1-.5.4-.6h0c.3,0,.5.1.6.4h0c0,.3-.1.5-.4.6h0s0,0,0,0h0c-.2,0-.5-.2-.5-.4ZM72.4,176.9c0-.3.1-.5.4-.6h0c.3,0,.5.1.6.4h0c0,.3-.1.5-.4.6h0c-.2,0-.5-.2-.5-.4ZM71.9,173.9h0c0-.3.2-.5.4-.6h0c.3,0,.5.2.6.4h0c0,.3-.2.5-.4.6h0c-.2,0-.5-.2-.5-.4ZM71.6,170.9c0-.3.2-.5.4-.6h0c.3,0,.5.2.6.5h0c0,.3-.2.5-.4.5h0s0,0,0,0h0c-.3,0-.5-.2-.5-.5ZM71.3,167.8c0-.3.2-.5.5-.5h0c.3,0,.5.2.5.5h0c0,.3-.2.5-.5.5h0s0,0,0,0h0c-.3,0-.5-.2-.5-.5ZM71,164.8c0-.3.2-.5.5-.5h0c.3,0,.5.2.5.5h0c0,.3-.2.5-.5.5h0c-.3,0-.5-.2-.5-.5ZM70.9,161.8c0-.3.2-.5.5-.5h0c.3,0,.5.2.5.5h0c0,.3-.2.5-.5.5h0c-.3,0-.5-.2-.5-.5ZM70.8,158.7c0-.3.2-.5.5-.5h0c.3,0,.5.2.5.5h0c0,.3-.2.5-.5.5h0c-.3,0-.5-.2-.5-.5Z"/>
  <path class="st2" d="M95.7,60.6c.7,0,1.6-.3,2.2-1,.4-.5.5-.9.2-1.2-.3-.3-.7,0-1.4.4-1,.7-2.3,1.7-3.6.6-.9-.8-1-2.3.3-3.6.8-.8,1.7-1.3,2.7-1.5l.3,1.6c-.8.1-1.5.5-1.9,1-.4.4-.4.8-.2,1,.3.3.7,0,1.3-.5,1-.7,2.3-1.7,3.5-.6,1.1,1,1,2.4-.3,3.8-1,1.1-2,1.5-3,1.6l-.4-1.7Z"/>
  <path class="st2" d="M98.8,52.7l-1.4,1.4-1.1-1.1,4.2-4.1,1.1,1.1-1.4,1.4,3.9,3.9-1.3,1.3-3.9-3.9Z"/>
  <path class="st2" d="M106.5,49.7l-.7.6,1.6,1.8-1.4,1.2-4.8-5.3,2.7-2.4c1.2-1.1,2.6-.9,3.4.1.8.9.7,1.9.4,2.5l2.8,1-1.6,1.4-2.5-1ZM104.8,47l-1.1,1,1.1,1.2,1.1-1c.4-.3.5-.8.1-1.2-.3-.4-.8-.3-1.2,0Z"/>
  <path class="st2" d="M106.8,43l1.5-1.2,2.6,3.2c.5.7,1.3.8,2,.2.8-.6.7-1.4.2-2l-2.6-3.2,1.5-1.2,2.7,3.3c1.1,1.4,1.1,3-.7,4.4-1.8,1.4-3.4,1.1-4.5-.2l-2.7-3.3Z"/>
  <path class="st2" d="M115.2,40.9c-1.3-1.8-.8-4,.9-5.2,1.4-1.1,2.8-.8,3.7-.3l-.8,1.5c-.5-.3-1.3-.3-1.9.1-.9.7-1,1.9-.3,2.8.7.9,1.9,1.2,2.8.5.6-.4.8-1.2.7-1.8l1.7-.3c.2,1,0,2.4-1.4,3.4-1.7,1.3-4,1.1-5.3-.7Z"/>
  <path class="st2" d="M122,33.6l-1.7,1.1-.9-1.3,4.9-3.2.9,1.3-1.7,1.1,3.1,4.6-1.5,1-3.1-4.6Z"/>
  <path class="st2" d="M125.3,29.5l1.6-1,2.1,3.6c.4.7,1.1,1,2,.5.8-.5.9-1.3.5-2l-2.1-3.6,1.6-1,2.2,3.6c.9,1.5.7,3.1-1.3,4.3-2,1.2-3.5.6-4.4-.9l-2.2-3.7Z"/>
  <path class="st2" d="M137.2,28.1l-.8.4,1.1,2.1-1.6.9-3.3-6.3,3.2-1.7c1.4-.7,2.7-.2,3.3.9.6,1.1.2,2-.3,2.6l2.5,1.6-1.9,1-2.2-1.6ZM136.1,25l-1.3.7.8,1.4,1.3-.7c.4-.2.6-.7.4-1.1-.2-.4-.7-.5-1.2-.3Z"/>
  <path class="st2" d="M146,25.2l-2.7,1.3v1.1c.1,0-1.7.8-1.7.8l-.6-7.6,2.1-1,5.5,5.3-1.8.8-.8-.8ZM143.1,24.9l1.8-.8-2.1-2.2.3,3.1Z"/>
  <path class="st2" d="M146.6,18.3l1.7-.7,2.1,5.1,2.7-1.1.6,1.5-4.4,1.8-2.7-6.6Z"/>
  <path class="st2" d="M154.8,15.1l1.7-.6,2.4,6.7-1.7.6-2.4-6.7Z"/>
  <path class="st2" d="M159.8,18.4c.6.3,1.5.5,2.5.2.6-.2.9-.6.8-.9-.1-.4-.6-.4-1.4-.3-1.2.1-2.9.4-3.4-1.3-.4-1.1.3-2.4,2-3,1.1-.4,2.1-.3,3.1,0l-.6,1.6c-.7-.3-1.5-.3-2.1,0-.6.2-.7.5-.6.8.1.4.6.3,1.4.2,1.2-.1,2.9-.3,3.3,1.2.4,1.4-.3,2.6-2.1,3.2-1.4.4-2.5.3-3.4-.1l.5-1.6Z"/>
  <path class="st2" d="M166.1,16.4c.6.4,1.5.6,2.4.3.6-.2.9-.5.8-.9-.1-.4-.6-.4-1.4-.4-1.2,0-2.9.2-3.3-1.4-.3-1.2.4-2.4,2.2-2.9,1.1-.3,2.2-.2,3.1.2l-.6,1.5c-.7-.3-1.5-.4-2.1-.2-.6.2-.8.5-.7.8,0,.4.6.4,1.4.3,1.2,0,2.9-.2,3.3,1.4.4,1.4-.4,2.6-2.3,3.1-1.4.4-2.5.2-3.4-.3l.6-1.6Z"/>
  <path class="st2" d="M171,10.2l1.8-.4.9,4.1c.2.8.8,1.3,1.7,1.1,1-.2,1.3-.9,1.1-1.7l-.9-4.1,1.8-.4.9,4.1c.4,1.7-.3,3.2-2.6,3.7-2.2.5-3.5-.5-3.9-2.2l-.9-4.1Z"/>
  <path class="st2" d="M179.1,8.4l5.2-.9.3,1.5-3.3.6.2,1.2,3.3-.6.3,1.5-3.3.6.2,1.3,3.3-.6.3,1.5-5.2.9-1.2-7Z"/>
  <path class="st2" d="M186.7,12c.6.4,1.4.8,2.4.7.6,0,1-.4.9-.7,0-.4-.5-.5-1.3-.6-1.2,0-2.9-.2-3.1-1.9-.1-1.2.7-2.3,2.6-2.6,1.1-.1,2.2,0,3,.6l-.8,1.4c-.7-.4-1.5-.6-2.1-.5-.6,0-.8.3-.8.7,0,.4.5.4,1.3.5,1.2.1,2.9.2,3.1,1.8.2,1.4-.8,2.5-2.7,2.7-1.4.2-2.5-.1-3.3-.7l.8-1.5Z"/>
  <path class="st4" d="M315.9,185.4l-2.2-.5c6.5-30.7.7-62-16.4-88.3-17.1-26.3-43.4-44.4-74.1-50.9l.5-2.2c31.3,6.6,58.1,25.1,75.5,51.8s23.3,58.7,16.7,90Z"/>
  <path class="st0" d="M102.6,188.2c-7.7-30.9-2.9-62.6,13.5-89.3,16.3-26.5,42.4-45.4,73.6-53.2l.5,2.2c-30.6,7.6-56.2,26.1-72.2,52.2-16.1,26.1-20.8,57.2-13.2,87.6l-2.2.5Z"/>
  <path class="st6" d="M208,265.3c-31.9,0-62-12.6-84.6-35.4l1.6-1.6c22.2,22.4,51.6,34.8,83,34.8,31.3,0,60.8-12.3,83-34.8l1.6,1.6c-22.6,22.8-52.6,35.4-84.6,35.4Z"/>
  <path class="st4" d="M239.6,64c0,17.4-14,31.6-31.5,31.7-17.4,0-31.6-14-31.7-31.5s14-31.6,31.5-31.7c17.4,0,31.6,14,31.7,31.5"/>
  <path class="st1" d="M208,91.1c-7.2,0-14-2.8-19.1-7.9-5.1-5.1-8-11.9-8-19.1,0-7.2,2.8-14,7.9-19.2,5.1-5.1,11.9-8,19.1-8h0c7.2,0,14,2.8,19.1,7.9,5.1,5.1,8,11.9,8,19.1,0,14.9-12.1,27.1-27,27.2h0ZM208,37.7h0c-7,0-13.7,2.8-18.6,7.8-5,5-7.7,11.6-7.7,18.7,0,7,2.8,13.7,7.8,18.6,5,4.9,11.6,7.7,18.6,7.7h0c14.5,0,26.3-11.9,26.3-26.5,0-7-2.8-13.7-7.8-18.6-5-4.9-11.6-7.7-18.6-7.7Z"/>
  <g>
    <path class="st1" d="M192.5,53.9h1.7c1.3,0,2.3.9,2.3,2.1s-.9,2.1-2.3,2.1h-1.7v-4.3ZM194.2,57.4c.8,0,1.3-.6,1.3-1.3s-.5-1.3-1.3-1.3h-.8v2.7h.8Z"/>
    <path class="st1" d="M198.5,55c.9,0,1.6.7,1.6,1.7v.2h-2.3c0,.4.4.7.9.7s.6-.1.8-.3l.4.5c-.3.3-.8.4-1.3.4-.9,0-1.7-.6-1.7-1.6s.7-1.6,1.6-1.6ZM197.7,56.3h1.5c0-.3-.2-.7-.8-.7s-.7.4-.8.7Z"/>
    <path class="st1" d="M202.1,55c.9,0,1.6.7,1.6,1.7v.2h-2.3c0,.4.4.7.9.7s.6-.1.8-.3l.4.5c-.3.3-.8.4-1.3.4-.9,0-1.7-.6-1.7-1.6s.7-1.6,1.6-1.6ZM201.3,56.3h1.5c0-.3-.2-.7-.8-.7s-.7.4-.8.7Z"/>
    <path class="st1" d="M204.2,59.4v-4.3h.8v.4c.2-.3.6-.5,1-.5.8,0,1.4.6,1.4,1.6s-.6,1.6-1.4,1.6-.7-.2-1-.5v1.6h-.8ZM205.7,55.7c-.3,0-.6.2-.7.4v1.1c.1.2.4.4.7.4.5,0,.8-.4.8-.9s-.3-.9-.8-.9Z"/>
    <path class="st1" d="M209.4,55c.9,0,1.6.7,1.6,1.7v.2h-2.3c0,.4.4.7.9.7s.6-.1.8-.3l.4.5c-.3.3-.8.4-1.3.4-.9,0-1.7-.6-1.7-1.6s.7-1.6,1.6-1.6ZM208.6,56.3h1.5c0-.3-.2-.7-.8-.7s-.7.4-.8.7Z"/>
    <path class="st1" d="M213.6,56.3c0-.4-.2-.6-.6-.6s-.6.2-.7.4v2.1h-.8v-3.1h.8v.4c.2-.2.6-.5,1.1-.5s1,.4,1,1v2.2h-.8v-1.9Z"/>
    <path class="st1" d="M215.2,54.1c0-.3.2-.5.5-.5s.5.2.5.5-.2.5-.5.5-.5-.2-.5-.5ZM215.2,55.1h.8v3.1h-.8v-3.1Z"/>
    <path class="st1" d="M219,56.3c0-.4-.2-.6-.6-.6s-.6.2-.7.4v2.1h-.8v-3.1h.8v.4c.2-.2.6-.5,1.1-.5s1,.4,1,1v2.2h-.8v-1.9Z"/>
    <path class="st1" d="M220.9,58.4c.2.3.6.4,1,.4s.9-.2.9-.8v-.3c-.2.3-.6.5-1,.5-.8,0-1.4-.5-1.4-1.6s.6-1.6,1.4-1.6.7.2,1,.5v-.4h.8v2.9c0,1.2-.9,1.5-1.7,1.5s-1-.1-1.3-.5l.4-.6ZM222.7,56.1c-.1-.2-.4-.4-.7-.4-.5,0-.8.3-.8.9s.3.9.8.9.6-.2.7-.4v-1Z"/>
  </g>
  <g>
    <path class="st1" d="M200.1,64.7c.2.2.7.4,1.1.4s.5-.1.5-.3-.3-.3-.6-.4c-.5-.1-1.2-.2-1.2-1s.5-1,1.3-1,.9.2,1.2.4l-.3.6c-.2-.2-.5-.4-.9-.4s-.5.1-.5.3.2.3.6.3c.5.1,1.2.2,1.2,1s-.5,1-1.3,1-1.1-.2-1.4-.5l.4-.6Z"/>
    <path class="st1" d="M202.9,64.1c0-.9.6-1.6,1.6-1.6s1.6.7,1.6,1.6-.6,1.6-1.6,1.6-1.6-.7-1.6-1.6ZM205.3,64.1c0-.5-.3-.9-.8-.9s-.8.4-.8.9.3.9.8.9.8-.4.8-.9Z"/>
    <path class="st1" d="M208.2,62.5c.6,0,1,.3,1.2.6l-.5.5c-.1-.2-.4-.3-.7-.3-.5,0-.8.4-.8.9s.3.9.8.9.5-.1.7-.3l.5.5c-.2.3-.6.6-1.2.6-1,0-1.6-.7-1.6-1.6s.7-1.6,1.6-1.6Z"/>
    <path class="st1" d="M209.9,61.6c0-.3.2-.5.5-.5s.5.2.5.5-.2.5-.5.5-.5-.2-.5-.5ZM210,62.6h.8v3.1h-.8v-3.1Z"/>
    <path class="st1" d="M213.5,65.3c-.2.3-.6.4-1,.4s-1.1-.3-1.1-1,.6-1,1.1-1,.8.1,1,.4v-.4c0-.3-.3-.5-.7-.5s-.6.1-.9.4l-.3-.5c.4-.3.9-.5,1.4-.5.7,0,1.4.3,1.4,1.2v2h-.8v-.3ZM213.5,64.5c-.1-.2-.4-.3-.7-.3s-.6.2-.6.5.3.5.6.5.5,0,.7-.3v-.4Z"/>
    <path class="st1" d="M215.1,61.4h.8v4.3h-.8v-4.3Z"/>
  </g>
  <g>
    <path class="st1" d="M187.9,70.8h-.5v-.7h.5v-.2c0-.7.4-1.1,1-1.1s.4,0,.6.1l-.2.6c0,0-.2,0-.3,0-.2,0-.4.2-.4.4v.2h.6v.7h-.6v2.4h-.8v-2.4Z"/>
    <path class="st1" d="M189.9,70.1h.8v.4c.2-.3.6-.5,1-.5v.8c0,0-.1,0-.2,0-.3,0-.6.1-.8.3v2h-.8v-3.1Z"/>
    <path class="st1" d="M194,72.8c-.2.3-.6.4-1,.4s-1.1-.3-1.1-1,.6-1,1.1-1,.8.1,1,.4v-.4c0-.3-.3-.5-.7-.5s-.6.1-.9.4l-.3-.5c.4-.3.9-.5,1.4-.5.7,0,1.4.3,1.4,1.2v2h-.8v-.3ZM194,72c-.1-.2-.4-.3-.7-.3s-.6.2-.6.5.3.5.6.5.5,0,.7-.3v-.4Z"/>
    <path class="st1" d="M196,73.4c.3.3.6.4,1,.4s.9-.2.9-.8v-.3c-.2.3-.6.5-1,.5-.8,0-1.4-.5-1.4-1.6s.6-1.6,1.4-1.6.7.2,1,.5v-.4h.8v2.9c0,1.2-.9,1.5-1.7,1.5s-1-.1-1.3-.5l.4-.6ZM197.8,71.1c-.1-.2-.4-.4-.7-.4-.5,0-.8.3-.8.9s.3.9.8.9.6-.2.7-.4v-1Z"/>
    <path class="st1" d="M203.3,71.2c0-.3-.1-.5-.5-.5s-.5.2-.6.4v2.1h-.8v-2c0-.3-.1-.5-.5-.5s-.5.2-.6.4v2.1h-.8v-3.1h.8v.4c.1-.2.5-.5,1-.5s.7.2.9.6c.2-.3.6-.6,1.1-.6s.9.3.9.9v2.2h-.8v-2Z"/>
    <path class="st1" d="M206.3,70c.9,0,1.6.7,1.6,1.7v.2h-2.3c0,.4.4.7.9.7s.6-.1.8-.3l.4.5c-.3.3-.8.4-1.3.4-.9,0-1.7-.6-1.7-1.6s.7-1.6,1.6-1.6ZM205.5,71.3h1.5c0-.3-.2-.7-.8-.7s-.7.4-.8.7Z"/>
    <path class="st1" d="M210.5,71.3c0-.4-.2-.6-.6-.6s-.6.2-.7.4v2.1h-.8v-3.1h.8v.4c.2-.2.6-.5,1.1-.5s1,.4,1,1v2.2h-.8v-1.9Z"/>
    <path class="st1" d="M212.3,72.4v-1.6h-.5v-.7h.5v-.8h.8v.8h.6v.7h-.6v1.4c0,.2.1.3.3.3s.2,0,.3,0l.2.6c-.1.1-.3.2-.7.2-.6,0-.9-.3-.9-.8Z"/>
    <path class="st1" d="M216.2,72.8c-.2.3-.6.4-1,.4s-1.1-.3-1.1-1,.6-1,1.1-1,.8.1,1,.4v-.4c0-.3-.3-.5-.7-.5s-.6.1-.9.4l-.3-.5c.4-.3.9-.5,1.4-.5.7,0,1.4.3,1.4,1.2v2h-.8v-.3ZM216.2,72c-.1-.2-.4-.3-.7-.3s-.6.2-.6.5.3.5.6.5.5,0,.7-.3v-.4Z"/>
    <path class="st1" d="M218,72.4v-1.6h-.5v-.7h.5v-.8h.8v.8h.6v.7h-.6v1.4c0,.2.1.3.3.3s.2,0,.3,0l.2.6c-.1.1-.3.2-.7.2-.6,0-.9-.3-.9-.8Z"/>
    <path class="st1" d="M219.9,69.1c0-.3.2-.5.5-.5s.5.2.5.5-.2.5-.5.5-.5-.2-.5-.5ZM220,70.1h.8v3.1h-.8v-3.1Z"/>
    <path class="st1" d="M221.4,71.6c0-.9.6-1.6,1.6-1.6s1.6.7,1.6,1.6-.6,1.6-1.6,1.6-1.6-.7-1.6-1.6ZM223.9,71.6c0-.5-.3-.9-.8-.9s-.8.4-.8.9.3.9.8.9.8-.4.8-.9Z"/>
    <path class="st1" d="M227.4,71.3c0-.4-.2-.6-.6-.6s-.6.2-.7.4v2.1h-.8v-3.1h.8v.4c.2-.2.6-.5,1.1-.5s1,.4,1,1v2.2h-.8v-1.9Z"/>
  </g>
  <path class="st6" d="M321.8,203c0,17.4-14,31.6-31.5,31.7-17.4,0-31.6-14-31.7-31.5,0-17.4,14-31.6,31.5-31.7,17.4,0,31.6,14,31.7,31.5"/>
  <path class="st1" d="M290.2,230.2c-7.2,0-14-2.8-19.1-7.9-5.1-5.1-8-11.9-8-19.1,0-14.9,12.1-27.1,27-27.2h0c7.2,0,14,2.8,19.1,7.9,5.1,5.1,8,11.9,8,19.1h0c0,14.9-12.1,27.1-27,27.2h0ZM290.2,176.7h0c-14.5,0-26.3,11.9-26.3,26.5,0,7,2.8,13.7,7.8,18.6,5,5,11.6,7.7,18.7,7.7,14.5,0,26.3-11.9,26.3-26.5h0c0-7-2.8-13.7-7.8-18.6-5-4.9-11.6-7.7-18.6-7.7Z"/>
  <g>
    <path class="st1" d="M274,194h.9v4.3h-.9v-4.3Z"/>
    <path class="st1" d="M277.8,196.5c0-.4-.2-.6-.6-.6s-.6.2-.7.4v2.1h-.8v-3.1h.8v.4c.2-.2.6-.5,1.1-.5s1,.4,1,1v2.2h-.8v-1.9Z"/>
    <path class="st1" d="M280.9,195.1c.6,0,1,.3,1.2.6l-.5.5c-.1-.2-.4-.3-.7-.3-.5,0-.8.4-.8.9s.3.9.8.9.5-.1.7-.3l.5.5c-.2.3-.6.6-1.2.6-1,0-1.6-.7-1.6-1.6s.7-1.6,1.6-1.6Z"/>
    <path class="st1" d="M282.7,195.2h.8v.4c.2-.3.6-.5,1-.5v.8c0,0-.1,0-.2,0-.3,0-.6.1-.8.3v2h-.8v-3.1Z"/>
    <path class="st1" d="M286.4,195.1c.9,0,1.6.7,1.6,1.7v.2h-2.3c0,.4.4.7.9.7s.6-.1.8-.3l.4.5c-.3.3-.8.4-1.3.4-.9,0-1.7-.6-1.7-1.6s.7-1.6,1.6-1.6ZM285.6,196.5h1.5c0-.3-.2-.7-.8-.7s-.7.4-.8.7Z"/>
    <path class="st1" d="M290.4,198c-.2.3-.6.4-1,.4s-1.1-.3-1.1-1,.6-1,1.1-1,.8.1,1,.4v-.4c0-.3-.3-.5-.7-.5s-.6.1-.9.4l-.3-.5c.4-.3.9-.5,1.4-.5.7,0,1.4.3,1.4,1.2v2h-.8v-.3ZM290.4,197.2c-.1-.2-.4-.3-.7-.3s-.6.2-.6.5.3.5.6.5.5,0,.7-.3v-.4Z"/>
    <path class="st1" d="M292.1,197.4c.2.2.7.4,1.1.4s.5-.1.5-.3-.3-.3-.6-.4c-.5-.1-1.2-.2-1.2-1s.5-1,1.3-1,.9.2,1.2.4l-.3.6c-.2-.2-.5-.4-.9-.4s-.5.1-.5.3.2.3.6.3c.5.1,1.2.2,1.2,1s-.5,1-1.3,1-1.1-.2-1.4-.5l.4-.6Z"/>
    <path class="st1" d="M295,194.3c0-.3.2-.5.5-.5s.5.2.5.5-.2.5-.5.5-.5-.2-.5-.5ZM295.1,195.2h.8v3.1h-.8v-3.1Z"/>
    <path class="st1" d="M298.8,196.5c0-.4-.2-.6-.6-.6s-.6.2-.7.4v2.1h-.8v-3.1h.8v.4c.2-.2.6-.5,1.1-.5s1,.4,1,1v2.2h-.8v-1.9Z"/>
    <path class="st1" d="M300.8,198.5c.2.3.6.4,1,.4s.9-.2.9-.8v-.3c-.2.3-.6.5-1,.5-.8,0-1.4-.5-1.4-1.6s.6-1.6,1.4-1.6.7.2,1,.5v-.4h.8v2.9c0,1.2-.9,1.5-1.7,1.5s-1-.1-1.3-.5l.4-.6ZM302.6,196.2c-.1-.2-.4-.4-.7-.4-.5,0-.8.3-.8.9s.3.9.8.9.6-.2.7-.4v-1Z"/>
    <path class="st1" d="M304.2,194h.8v4.3h-.8v-4.3Z"/>
    <path class="st1" d="M306.1,198.9c.2,0,.4,0,.4-.2v-.3c.1,0-1.1-3.1-1.1-3.1h.9l.8,2.2.8-2.2h.9l-1.5,3.6c-.2.6-.6.7-1.2.8,0,0-.3,0-.4,0v-.7c.2,0,.3,0,.4,0Z"/>
  </g>
  <g>
    <path class="st1" d="M279.5,202.6c.6,0,1,.3,1.2.6l-.5.5c-.1-.2-.4-.3-.7-.3-.5,0-.8.4-.8.9s.3.9.8.9.5-.1.7-.3l.5.5c-.2.3-.6.6-1.2.6-1,0-1.6-.7-1.6-1.6s.7-1.6,1.6-1.6Z"/>
    <path class="st1" d="M283.4,203.9c0-.4-.2-.6-.6-.6s-.6.2-.7.4v2.1h-.8v-4.3h.8v1.6c.2-.2.6-.5,1.1-.5s1,.4,1,1v2.2h-.8v-1.9Z"/>
    <path class="st1" d="M286.8,205.5c-.2.3-.6.4-1,.4s-1.1-.3-1.1-1,.6-1,1.1-1,.8.1,1,.4v-.4c0-.3-.3-.5-.7-.5s-.6.1-.9.4l-.3-.5c.4-.3.9-.5,1.4-.5.7,0,1.4.3,1.4,1.2v2h-.8v-.3ZM286.8,204.7c-.1-.2-.4-.3-.7-.3s-.6.2-.6.5.3.5.6.5.5,0,.7-.3v-.4Z"/>
    <path class="st1" d="M290.6,204c0-.4-.2-.6-.6-.6s-.6.2-.7.4v2.1h-.8v-3.1h.8v.4c.2-.2.6-.5,1.1-.5s1,.4,1,1v2.2h-.8v-1.9Z"/>
    <path class="st1" d="M292.5,206c.2.3.6.4,1,.4s.9-.2.9-.8v-.3c-.2.3-.6.5-1,.5-.8,0-1.4-.5-1.4-1.6s.6-1.6,1.4-1.6.7.2,1,.5v-.4h.8v2.9c0,1.2-.9,1.5-1.7,1.5s-1-.1-1.3-.5l.4-.6ZM294.3,203.7c-.1-.2-.4-.4-.7-.4-.5,0-.8.3-.8.9s.3.9.8.9.6-.2.7-.4v-1Z"/>
    <path class="st1" d="M295.9,201.8c0-.3.2-.5.5-.5s.5.2.5.5-.2.5-.5.5-.5-.2-.5-.5ZM296,202.7h.8v3.1h-.8v-3.1Z"/>
    <path class="st1" d="M299.7,204c0-.4-.2-.6-.6-.6s-.6.2-.7.4v2.1h-.8v-3.1h.8v.4c.2-.2.6-.5,1.1-.5s1,.4,1,1v2.2h-.8v-1.9Z"/>
    <path class="st1" d="M301.6,206c.2.3.6.4,1,.4s.9-.2.9-.8v-.3c-.2.3-.6.5-1,.5-.8,0-1.4-.5-1.4-1.6s.6-1.6,1.4-1.6.7.2,1,.5v-.4h.8v2.9c0,1.2-.9,1.5-1.7,1.5s-1-.1-1.3-.5l.4-.6ZM303.4,203.7c-.1-.2-.4-.4-.7-.4-.5,0-.8.3-.8.9s.3.9.8.9.6-.2.7-.4v-1Z"/>
  </g>
  <g>
    <path class="st1" d="M282.4,210.1c.6,0,1,.3,1.2.6l-.5.5c-.1-.2-.4-.3-.7-.3-.5,0-.8.4-.8.9s.3.9.8.9.5-.1.7-.3l.5.5c-.2.3-.6.6-1.2.6-1,0-1.6-.7-1.6-1.6s.7-1.6,1.6-1.6Z"/>
    <path class="st1" d="M284.2,209h.8v4.3h-.8v-4.3Z"/>
    <path class="st1" d="M285.7,209.3c0-.3.2-.5.5-.5s.5.2.5.5-.2.5-.5.5-.5-.2-.5-.5ZM285.8,210.2h.8v3.1h-.8v-3.1Z"/>
    <path class="st1" d="M291.3,211.4c0-.3-.1-.5-.5-.5s-.5.2-.6.4v2.1h-.8v-2c0-.3-.1-.5-.5-.5s-.5.2-.6.4v2.1h-.8v-3.1h.8v.4c.1-.2.5-.5,1-.5s.7.2.9.6c.2-.3.6-.6,1.1-.6s.9.3.9.9v2.2h-.8v-2Z"/>
    <path class="st1" d="M294.8,213c-.2.3-.6.4-1,.4s-1.1-.3-1.1-1,.6-1,1.1-1,.8.1,1,.4v-.4c0-.3-.3-.5-.7-.5s-.6.1-.9.4l-.3-.5c.4-.3.9-.5,1.4-.5.7,0,1.4.3,1.4,1.2v2h-.8v-.3ZM294.8,212.2c-.1-.2-.4-.3-.7-.3s-.6.2-.6.5.3.5.6.5.5,0,.7-.3v-.4Z"/>
    <path class="st1" d="M296.6,212.6v-1.6h-.5v-.7h.5v-.8h.8v.8h.6v.7h-.6v1.4c0,.2.1.3.3.3s.2,0,.3,0l.2.6c-.1.1-.3.2-.7.2-.6,0-.9-.3-.9-.8Z"/>
    <path class="st1" d="M300,210.1c.9,0,1.6.7,1.6,1.7v.2h-2.3c0,.4.4.7.9.7s.6-.1.8-.3l.4.5c-.3.3-.8.4-1.3.4-.9,0-1.7-.6-1.7-1.6s.7-1.6,1.6-1.6ZM299.2,211.5h1.5c0-.3-.2-.7-.8-.7s-.7.4-.8.7Z"/>
  </g>
  <path class="st0" d="M160,203c0,17.4-14,31.6-31.5,31.7-17.4,0-31.6-14-31.7-31.5,0-17.4,14-31.6,31.5-31.7,17.4,0,31.6,14,31.7,31.5"/>
  <path class="st1" d="M128.4,230.2c-7.2,0-14-2.8-19.1-7.9-5.1-5.1-8-11.9-8-19.1s2.8-14,7.9-19.2c5.1-5.1,11.9-8,19.1-8h0c7.2,0,14,2.8,19.1,7.9,5.1,5.1,8,11.9,8,19.1h0c0,7.2-2.8,14-7.9,19.2s-11.9,8-19.1,8h0ZM128.4,176.7h0c-7,0-13.7,2.8-18.6,7.8-5,5-7.7,11.6-7.7,18.7,0,7,2.8,13.7,7.8,18.6,5,4.9,11.6,7.7,18.6,7.7h0c7,0,13.7-2.8,18.6-7.8s7.7-11.6,7.7-18.7h0c0-7-2.8-13.7-7.8-18.6-5-4.9-11.6-7.7-18.6-7.7Z"/>
  <g>
    <path class="st1" d="M119.8,193h-.7v1.5h-.9v-4.3h2c.9,0,1.4.6,1.4,1.4s-.5,1.2-.9,1.3l1,1.6h-1l-.8-1.5ZM120,191h-1v1.2h1c.4,0,.6-.2.6-.6s-.3-.6-.6-.6Z"/>
    <path class="st1" d="M124,194.2c-.2.3-.6.4-1,.4s-1.1-.3-1.1-1,.6-1,1.1-1,.8.1,1,.4v-.4c0-.3-.3-.5-.7-.5s-.6.1-.9.4l-.3-.5c.4-.3.9-.5,1.4-.5.7,0,1.4.3,1.4,1.2v2h-.8v-.3ZM124,193.4c-.1-.2-.4-.3-.7-.3s-.6.2-.6.5.3.5.6.5.5,0,.7-.3v-.4Z"/>
    <path class="st1" d="M125.7,195.7v-4.3h.8v.4c.2-.3.6-.5,1-.5.8,0,1.4.6,1.4,1.6s-.6,1.6-1.4,1.6-.7-.2-1-.5v1.6h-.8ZM127.2,192.1c-.3,0-.6.2-.7.4v1.1c.1.2.4.4.7.4.5,0,.8-.4.8-.9s-.3-.9-.8-.9Z"/>
    <path class="st1" d="M129.3,190.5c0-.3.2-.5.5-.5s.5.2.5.5-.2.5-.5.5-.5-.2-.5-.5ZM129.4,191.4h.8v3.1h-.8v-3.1Z"/>
    <path class="st1" d="M133.2,194.1c-.2.3-.6.5-1,.5-.8,0-1.4-.6-1.4-1.6s.6-1.6,1.4-1.6.7.2,1,.5v-1.6h.8v4.3h-.8v-.4ZM133.2,192.4c-.1-.2-.4-.4-.7-.4-.5,0-.8.4-.8.9s.3.9.8.9.6-.1.7-.4v-1.1Z"/>
    <path class="st1" d="M134.8,190.2h.8v4.3h-.8v-4.3Z"/>
    <path class="st1" d="M136.7,195.1c.2,0,.4,0,.4-.2v-.3c.1,0-1.1-3.1-1.1-3.1h.9l.8,2.2.8-2.2h.9l-1.5,3.6c-.2.6-.6.7-1.2.8,0,0-.3,0-.4,0v-.7c.2,0,.3,0,.4,0Z"/>
  </g>
  <g>
    <path class="st1" d="M118,198.8c.9,0,1.6.7,1.6,1.7v.2h-2.3c0,.4.4.7.9.7s.6-.1.8-.3l.4.5c-.3.3-.8.4-1.3.4-.9,0-1.7-.6-1.7-1.6s.7-1.6,1.6-1.6ZM117.3,200.2h1.5c0-.3-.2-.7-.8-.7s-.7.4-.8.7Z"/>
    <path class="st1" d="M119.8,198.9h.9l.8,2.2.8-2.2h.9l-1.2,3.1h-.9l-1.2-3.1Z"/>
    <path class="st1" d="M123.3,200.5c0-.9.6-1.6,1.6-1.6s1.6.7,1.6,1.6-.6,1.6-1.6,1.6-1.6-.7-1.6-1.6ZM125.7,200.5c0-.5-.3-.9-.8-.9s-.8.4-.8.9.3.9.8.9.8-.4.8-.9Z"/>
    <path class="st1" d="M127.2,197.7h.8v4.3h-.8v-4.3Z"/>
    <path class="st1" d="M128.4,198.9h.9l.8,2.2.8-2.2h.9l-1.2,3.1h-.9l-1.2-3.1Z"/>
    <path class="st1" d="M132,198c0-.3.2-.5.5-.5s.5.2.5.5-.2.5-.5.5-.5-.2-.5-.5ZM132.1,198.9h.8v3.1h-.8v-3.1Z"/>
    <path class="st1" d="M135.8,200.1c0-.4-.2-.6-.6-.6s-.6.2-.7.4v2.1h-.8v-3.1h.8v.4c.2-.2.6-.5,1.1-.5s1,.4,1,1v2.2h-.8v-1.9Z"/>
    <path class="st1" d="M137.8,202.2c.3.3.6.4,1,.4s.9-.2.9-.8v-.3c-.2.3-.6.5-1,.5-.8,0-1.4-.5-1.4-1.6s.6-1.6,1.4-1.6.7.2,1,.5v-.4h.8v2.9c0,1.2-.9,1.5-1.7,1.5s-1-.1-1.3-.5l.4-.6ZM139.6,199.9c-.1-.2-.4-.4-.7-.4-.5,0-.8.3-.8.9s.3.9.8.9.6-.2.7-.4v-1Z"/>
  </g>
  <g>
    <path class="st1" d="M110.4,208.8v-1.6h-.5v-.7h.5v-.8h.8v.8h.6v.7h-.6v1.4c0,.2.1.3.3.3s.2,0,.3,0l.2.6c-.1.1-.3.2-.7.2-.6,0-.9-.3-.9-.8Z"/>
    <path class="st1" d="M113.8,206.3c.9,0,1.6.7,1.6,1.7v.2h-2.3c0,.4.4.7.9.7s.6-.1.8-.3l.4.5c-.3.3-.8.4-1.3.4-.9,0-1.7-.6-1.7-1.6s.7-1.6,1.6-1.6ZM113,207.7h1.5c0-.3-.2-.7-.8-.7s-.7.4-.8.7Z"/>
    <path class="st1" d="M117.4,206.3c.6,0,1,.3,1.2.6l-.5.5c-.1-.2-.4-.3-.7-.3-.5,0-.8.4-.8.9s.3.9.8.9.5-.1.7-.3l.5.5c-.2.3-.6.6-1.2.6-1,0-1.6-.7-1.6-1.6s.7-1.6,1.6-1.6Z"/>
    <path class="st1" d="M121.3,207.6c0-.4-.2-.6-.6-.6s-.6.2-.7.4v2.1h-.8v-4.3h.8v1.6c.2-.2.6-.5,1.1-.5s1,.4,1,1v2.2h-.8v-1.9Z"/>
    <path class="st1" d="M125,207.6c0-.4-.2-.6-.6-.6s-.6.2-.7.4v2.1h-.8v-3.1h.8v.4c.2-.2.6-.5,1.1-.5s1,.4,1,1v2.2h-.8v-1.9Z"/>
    <path class="st1" d="M126.4,208c0-.9.6-1.6,1.6-1.6s1.6.7,1.6,1.6-.6,1.6-1.6,1.6-1.6-.7-1.6-1.6ZM128.8,208c0-.5-.3-.9-.8-.9s-.8.4-.8.9.3.9.8.9.8-.4.8-.9Z"/>
    <path class="st1" d="M130.3,205.2h.8v4.3h-.8v-4.3Z"/>
    <path class="st1" d="M131.7,208c0-.9.6-1.6,1.6-1.6s1.6.7,1.6,1.6-.6,1.6-1.6,1.6-1.6-.7-1.6-1.6ZM134.2,208c0-.5-.3-.9-.8-.9s-.8.4-.8.9.3.9.8.9.8-.4.8-.9Z"/>
    <path class="st1" d="M135.9,209.7c.3.3.6.4,1,.4s.9-.2.9-.8v-.3c-.2.3-.6.5-1,.5-.8,0-1.4-.5-1.4-1.6s.6-1.6,1.4-1.6.7.2,1,.5v-.4h.8v2.9c0,1.2-.9,1.5-1.7,1.5s-1-.1-1.3-.5l.4-.6ZM137.7,207.4c-.1-.2-.4-.4-.7-.4-.5,0-.8.3-.8.9s.3.9.8.9.6-.2.7-.4v-1Z"/>
    <path class="st1" d="M139.3,205.5c0-.3.2-.5.5-.5s.5.2.5.5-.2.5-.5.5-.5-.2-.5-.5ZM139.4,206.4h.8v3.1h-.8v-3.1Z"/>
    <path class="st1" d="M142.4,206.3c.9,0,1.6.7,1.6,1.7v.2h-2.3c0,.4.4.7.9.7s.6-.1.8-.3l.4.5c-.3.3-.8.4-1.3.4-.9,0-1.7-.6-1.7-1.6s.7-1.6,1.6-1.6ZM141.6,207.7h1.5c0-.3-.2-.7-.8-.7s-.7.4-.8.7Z"/>
    <path class="st1" d="M144.6,208.5c.2.2.7.4,1.1.4s.5-.1.5-.3-.3-.3-.6-.4c-.5-.1-1.2-.2-1.2-1s.5-1,1.3-1,.9.2,1.2.4l-.3.6c-.2-.2-.5-.4-.9-.4s-.5.1-.5.3.2.3.6.3c.5.1,1.2.2,1.2,1s-.5,1-1.3,1-1.1-.2-1.4-.5l.4-.6Z"/>
  </g>
  <path class="st5" d="M91.2,137.1l3.8.8v.7c-.1,0-5-1-5-1v-.7c.1,0,4.3-1.7,4.3-1.7l-3.7-.7v-.7c.1,0,5,1,5,1v.6c-.1,0-4.4,1.7-4.4,1.7Z"/>
  <path class="st5" d="M91.5,129.8c.3-1.3,1.6-1.9,3.1-1.6,1.4.4,2.3,1.5,2,2.8-.3,1.3-1.6,1.9-3.1,1.6-1.4-.4-2.3-1.5-2-2.8ZM92.1,130c-.2.9.4,1.7,1.5,2,1.1.3,2-.1,2.2-1.1.2-.9-.4-1.7-1.5-2-1.1-.3-2,.1-2.2,1.1Z"/>
  <path class="st5" d="M92.4,126.5l.2-.7,4.4-.2-3.6-2.6.2-.7,4.3,3.2-.2.8-5.3.3Z"/>
  <path class="st5" d="M94.1,120.8l1-2.9.6.2-.8,2.2,1.4.5.7-2.2.6.2-.7,2.2,1.5.5.8-2.2.6.2-1,2.9-4.7-1.6Z"/>
  <path class="st5" d="M95.7,116.3l.2-.6,4.1,1.5.7-1.9.6.2-1,2.5-4.7-1.8Z"/>
  <path class="st5" d="M99.3,109.1l-.6,1.3-.6-.3,1.4-3.2.6.3-.6,1.3,4,1.8-.3.6-4-1.8Z"/>
  <path class="st5" d="M104.1,103.9l-1.1,2.2,2,1-.3.6-4.5-2.2.3-.6,1.9.9,1.1-2.2-1.9-.9.3-.6,4.5,2.2-.3.6-2-1Z"/>
  <path class="st5" d="M106.2,100.4l-.4.7,1.7.9-.3.6-4.4-2.4.9-1.7c.4-.8,1.2-1,2-.5.8.4,1,1.1.8,1.7h2.3c0,0-.4.6-.4.6h-2.2ZM104.2,99l-.5,1,1.5.8.5-1c.2-.4,0-.9-.4-1.2-.5-.2-.9-.1-1.2.3Z"/>
  <path class="st5" d="M105.2,95.8l1.5-2.6.6.3-1.2,2,1.3.7,1.2-2,.6.3-1.2,2,1.3.8,1.2-2,.6.3-1.5,2.6-4.3-2.5Z"/>
  <path class="st5" d="M112.5,91.4l-1.2,1.9.7.9-.4.6-3.3-4.2.4-.7,5.2,1.1-.4.6-1.1-.2ZM110.9,92.8l1-1.5-2.7-.6,1.8,2.2Z"/>
  <path class="st5" d="M111.5,87l-.8,1.2-.5-.4,2-2.9.5.4-.8,1.1,3.6,2.5-.4.6-3.6-2.5Z"/>
  <path class="st5" d="M116.1,85.7c.5,0,1-.2,1.4-.7.4-.6.2-1,0-1.3-.4-.3-.8,0-1.3.4-.6.5-1.3,1-2.1.4-.7-.5-.8-1.4-.2-2.1.4-.6.9-.9,1.5-.9l.2.6c-.5,0-1,.3-1.2.7-.3.4-.3.8,0,1.1.4.3.8,0,1.2-.4.6-.5,1.3-1,2.2-.4.6.5.9,1.3.2,2.3-.5.6-1.1.9-1.7,1l-.2-.7Z"/>
  <path class="st5" d="M172.7,267.1l-1.1,3.7-.6-.2,1.4-4.8.7.2,1.3,4.3,1-3.6.6.2-1.4,4.8-.6-.2-1.3-4.4Z"/>
  <path class="st5" d="M179.6,267.8c1.3.3,1.9,1.6,1.6,3.1s-1.5,2.3-2.8,2-1.9-1.6-1.6-3.1,1.5-2.3,2.8-2ZM179.4,268.4c-.9-.2-1.7.4-2,1.5-.3,1.1.1,2,1.1,2.2.9.2,1.7-.4,2-1.5.3-1.1-.1-2-1.1-2.2Z"/>
  <path class="st5" d="M182.6,268.6l.8.2.5,4.4,2.3-3.8.8.2-2.8,4.5-.8-.2-.7-5.3Z"/>
  <path class="st5" d="M188,269.7l3,.5v.6c-.1,0-2.4-.4-2.4-.4l-.3,1.4,2.3.4v.6c-.1,0-2.4-.4-2.4-.4l-.3,1.5,2.3.4v.6c-.1,0-3.1-.5-3.1-.5l.9-4.9Z"/>
  <path class="st5" d="M192.3,270.5h.7c0,0-.6,4.4-.6,4.4l2,.3v.7c0,0-2.8-.4-2.8-.4l.7-4.9Z"/>
  <path class="st5" d="M199.8,272.1h-1.4c0-.1,0-.8,0-.8l3.4.3v.7c0,0-1.4-.1-1.4-.1l-.4,4.3h-.7c0,0,.4-4.4.4-4.4Z"/>
  <path class="st5" d="M206.1,274.7h-2.5c0-.1-.1,2.1-.1,2.1h-.7s.3-5,.3-5h.7s-.1,2.1-.1,2.1h2.5c0,.1.1-1.9.1-1.9h.7s-.3,5-.3,5h-.7s.1-2.3.1-2.3Z"/>
  <path class="st5" d="M210,275.1h-.8s0,1.9,0,1.9h-.7s.1-5,.1-5h1.9c.9,0,1.4.7,1.4,1.6,0,.9-.6,1.4-1.2,1.4l1.1,2h-.8s-1-2-1-2ZM210.3,272.7h-1.1s0,1.7,0,1.7h1.1c.5,0,.8-.3.9-.8,0-.5-.3-.9-.8-.9Z"/>
  <path class="st5" d="M213.3,272.1h3s0,.6,0,.6h-2.3s0,1.5,0,1.5h2.3s0,.6,0,.6h-2.3s0,1.6,0,1.6h2.3s0,.6,0,.6h-3s0-5,0-5Z"/>
  <path class="st5" d="M220.7,275.9h-2.2c0,0-.3,1.1-.3,1.1h-.7s1.6-5,1.6-5h.8s2,4.9,2,4.9h-.7s-.4-1-.4-1ZM218.7,275.3h1.8c0,0-1-2.7-1-2.7l-.8,2.7Z"/>
  <path class="st5" d="M223.5,272.4h-1.4c0,.1,0-.5,0-.5l3.4-.3v.7c0,0-1.3.1-1.3.1l.3,4.3h-.7c0,0-.3-4.3-.3-4.3Z"/>
  <path class="st5" d="M227.2,275.2c.3.3.9.6,1.5.5.7,0,.9-.5.9-.9,0-.5-.6-.6-1.2-.7-.7-.1-1.6-.3-1.7-1.3,0-.8.5-1.5,1.4-1.6.7,0,1.3.1,1.7.5l-.3.6c-.4-.4-.9-.5-1.4-.4-.5,0-.8.4-.8.8,0,.4.5.5,1.1.6.8.1,1.6.3,1.8,1.3,0,.8-.3,1.6-1.5,1.7-.8,0-1.4-.2-1.9-.6l.3-.6Z"/>
  <path class="st5" d="M280.9,57.3l-2.5,2.9-.5-.4,3.2-3.8.5.4-.5,4.4,2.4-2.9.5.4-3.2,3.8-.5-.4.5-4.5Z"/>
  <path class="st5" d="M287.1,61.1c1,.9.9,2.3,0,3.4-1,1.1-2.4,1.3-3.4.4-1-.9-.9-2.3,0-3.4s2.4-1.3,3.4-.4ZM286.7,61.6c-.7-.7-1.7-.5-2.5.3-.7.8-.9,1.8-.1,2.5.7.6,1.7.5,2.5-.3.7-.8.8-1.8.1-2.5Z"/>
  <path class="st5" d="M289.6,63.5l.5.5-2,4,4-1.9.5.5-4.8,2.2-.6-.6,2.3-4.8Z"/>
  <path class="st5" d="M293.8,67.7l2,2.2-.5.4-1.6-1.7-1.1,1,1.6,1.7-.5.4-1.6-1.7-1.1,1.1,1.6,1.7-.5.4-2-2.2,3.7-3.4Z"/>
  <path class="st5" d="M297,71.2l.4.5-3.3,2.8,1.3,1.5-.5.4-1.8-2.1,3.8-3.3Z"/>
  <path class="st5" d="M301.6,77.8l-.9-1.1.5-.4,2.1,2.7-.5.4-.8-1.1-3.4,2.6-.4-.5,3.4-2.6Z"/>
  <path class="st5" d="M303.9,84.6l-1.4-2-1.8,1.3-.4-.6,4.1-2.9.4.6-1.7,1.2,1.4,2,1.7-1.2.4.6-4.1,2.9-.4-.6,1.8-1.3Z"/>
  <path class="st5" d="M305.9,88l-.5-.7-1.6,1.1-.4-.6,4.2-2.8,1,1.6c.5.7.3,1.5-.5,2.1-.8.5-1.5.3-1.8-.1l-1,2.1-.4-.7,1-2ZM308.1,87l-.6-.9-1.5,1,.6.9c.3.4.8.5,1.2.2.4-.3.5-.8.3-1.2Z"/>
  <path class="st5" d="M310.4,89.4l1.6,2.6-.6.3-1.2-2-1.3.8,1.2,2-.6.3-1.2-2-1.3.8,1.2,2-.6.3-1.6-2.6,4.3-2.6Z"/>
  <path class="st5" d="M310.8,97.9l-1.1-1.9-1.1.2-.4-.6,5.2-.9.4.7-3.5,4-.4-.6.7-.8ZM310.4,95.8l.9,1.6,1.9-2.1-2.7.5Z"/>
  <path class="st5" d="M315.2,99.1l-.6-1.2.6-.3,1.6,3.1-.6.3-.6-1.2-3.9,2-.3-.6,3.9-2Z"/>
  <path class="st5" d="M314.1,103.7c-.2.4-.3,1,0,1.6.3.7.8.7,1.1.6.5-.2.4-.8.3-1.3-.1-.7-.3-1.6.7-2,.7-.4,1.6,0,2,.8.3.6.3,1.2,0,1.8h-.7c.2-.6.2-1.1,0-1.5-.2-.5-.6-.6-1-.5-.4.2-.3.7-.2,1.3.1.8.3,1.6-.7,2.1-.7.3-1.6.2-2.1-.9-.3-.7-.3-1.4,0-1.9h.7Z"/>
  <path class="st3" d="M170.4,182.1c-.1-.4-.6-.6-1-.5-.4.1-.6.6-.5,1,.1.4.6.6,1,.5.4-.1.6-.6.5-1"/>
  <path class="st3" d="M167.6,184.5c-.1-.4-.6-.6-1-.5-.4.1-.6.6-.5,1,.1.4.6.6,1,.5.4-.1.6-.6.5-1"/>
  <path class="st3" d="M164.5,186.5c-.1-.4-.6-.6-1-.5-.4.1-.6.6-.5,1,.1.4.6.6,1,.5.4-.1.6-.6.5-1"/>
  <path class="st3" d="M161.3,188.3c-.1-.4-.6-.6-1-.5-.4.1-.6.6-.5,1,.1.4.6.6,1,.5.4-.1.6-.6.5-1"/>
  <polygon class="st3" points="175.5 180.5 174.2 177.4 170.9 176.9 169.7 178.3 173.1 178.8 174.3 182 175.5 180.5"/>
  <path class="st3" d="M215.1,106.8c-.4,0-.8.2-.9.6,0,.4.2.8.6.9.4,0,.8-.2.9-.6,0-.4-.2-.8-.6-.9"/>
  <path class="st3" d="M215.8,110.4c-.4,0-.8.2-.9.6,0,.4.2.8.6.9.4,0,.8-.2.9-.6,0-.4-.2-.8-.6-.9"/>
  <path class="st3" d="M216,114.1c-.4,0-.8.2-.9.6,0,.4.2.8.6.9.4,0,.8-.2.9-.6,0-.4-.2-.8-.6-.9"/>
  <path class="st3" d="M215.8,117.8c-.4,0-.8.2-.9.6,0,.4.2.8.6.9.4,0,.8-.2.9-.6,0-.4-.2-.8-.6-.9"/>
  <polygon class="st3" points="216.4 101.7 213.1 101.1 211 103.7 211.6 105.4 213.8 102.9 217.1 103.4 216.4 101.7"/>
  <path class="st3" d="M252,188.3c.2-.4.1-.8-.2-1.1-.4-.2-.8-.1-1.1.2-.2.4-.1.8.2,1.1.4.2.8.1,1.1-.2"/>
  <path class="st3" d="M248.3,187.6c.2-.4.1-.8-.2-1.1-.4-.2-.8-.1-1.1.2-.2.4-.1.8.2,1.1s.8.1,1.1-.2"/>
  <path class="st3" d="M244.8,186.4c.2-.4.1-.8-.2-1.1-.4-.2-.8-.1-1.1.2-.2.4-.1.8.2,1.1s.8.1,1.1-.2"/>
  <path class="st3" d="M241.4,185c.2-.4.1-.8-.2-1.1-.4-.2-.8-.1-1.1.2-.2.4-.1.8.2,1.1s.8.1,1.1-.2"/>
  <polygon class="st3" points="256.3 191.3 258 188.4 256.3 185.5 254.5 185.5 256.1 188.4 254.4 191.3 256.3 191.3"/>
  <path class="st3" d="M159,177.6c.1.4.5.7.9.6.4-.1.7-.5.6-.9-.1-.4-.5-.7-.9-.6-.4.1-.7.5-.6.9"/>
  <path class="st3" d="M162,175.4c.1.4.5.7.9.6.4-.1.7-.5.6-.9-.1-.4-.5-.7-.9-.6-.4.1-.7.5-.6.9"/>
  <path class="st3" d="M165.2,173.6c.1.4.5.7.9.6s.7-.5.6-.9c-.1-.4-.5-.7-.9-.6-.4.1-.7.5-.6.9"/>
  <path class="st3" d="M168.5,172c.1.4.5.7.9.6s.7-.5.6-.9c-.1-.4-.5-.7-.9-.6-.4.1-.7.5-.6.9"/>
  <polygon class="st3" points="153.9 178.8 154.9 182 158.2 182.7 159.4 181.4 156.1 180.6 155.1 177.4 153.9 178.8"/>
  <path class="st3" d="M200,114.1c.4.1.8-.1,1-.5.1-.4-.1-.8-.5-1-.4-.1-.8.1-1,.5-.1.4.1.8.5,1"/>
  <path class="st3" d="M199.6,110.4c.4.1.8-.1,1-.5.1-.4-.1-.8-.5-1-.4-.1-.8.1-1,.5-.1.4.1.8.5,1"/>
  <path class="st3" d="M199.7,106.7c.4.1.8-.1,1-.5.1-.4-.1-.8-.5-1-.4-.1-.8.1-1,.5-.1.4.1.8.5,1"/>
  <path class="st3" d="M200.1,103.1c.4.1.8-.1,1-.5.1-.4-.1-.8-.5-1-.4-.1-.8.1-1,.5-.1.4.1.8.5,1"/>
  <polygon class="st3" points="198.4 119.1 201.7 119.9 204 117.5 203.5 115.7 201.1 118.1 197.9 117.3 198.4 119.1"/>
  <path class="st3" d="M250.4,174.8c-.3.3-.2.8.1,1.1.3.3.8.2,1.1-.1.3-.3.2-.8-.1-1.1-.3-.3-.8-.2-1.1.1"/>
  <path class="st3" d="M254,175.7c-.3.3-.2.8.1,1.1.3.3.8.2,1.1-.1.3-.3.2-.8-.1-1.1-.3-.3-.8-.2-1.1.1"/>
  <path class="st3" d="M257.4,177.1c-.3.3-.2.8.1,1.1.3.3.8.2,1.1-.1.3-.3.2-.8-.1-1.1-.3-.3-.8-.2-1.1.1"/>
  <path class="st3" d="M260.7,178.8c-.3.3-.2.8.1,1.1.3.3.8.2,1.1-.1.3-.3.2-.8-.1-1.1-.3-.3-.8-.2-1.1.1"/>
  <polygon class="st3" points="246.3 171.4 244.4 174.2 245.9 177.2 247.7 177.4 246.3 174.4 248.2 171.6 246.3 171.4"/>
  <path class="st2" d="M235.3,161.8c0,14.8-11.9,26.8-26.7,26.8-14.8,0-26.8-11.9-26.9-26.7,0-14.8,11.9-26.8,26.7-26.8,14.8,0,26.8,11.9,26.8,26.7"/>
  <g>
    <path class="st1" d="M196.4,158.2l-.4.5v1.5h-1.1v-5h1.1v2.2l1.8-2.2h1.3l-2,2.3,2.1,2.7h-1.3l-1.5-2Z"/>
    <path class="st1" d="M200.8,156.9v3.4h-1.1v-5h1.1l2.3,3.2v-3.2h1.1v5h-1l-2.4-3.4Z"/>
    <path class="st1" d="M207.6,155.2c1.5,0,2.6,1.1,2.6,2.6s-1.1,2.6-2.6,2.6-2.6-1.1-2.6-2.6,1.1-2.6,2.6-2.6ZM207.6,156.1c-.9,0-1.5.7-1.5,1.6s.6,1.6,1.5,1.6,1.5-.7,1.5-1.6-.6-1.6-1.5-1.6Z"/>
    <path class="st1" d="M213.7,156.8l-.9,3.4h-1.1l-1.4-5h1.2l.9,3.6,1-3.6h.8l.9,3.6.9-3.6h1.2l-1.4,5h-1.1l-.9-3.4Z"/>
    <path class="st1" d="M218.7,156.9v3.4h-1.1v-5h1.1l2.3,3.2v-3.2h1.1v5h-1l-2.4-3.4Z"/>
  </g>
  <g>
    <path class="st1" d="M200.6,165.9h-.8v1.8h-1.1v-5h2.3c1,0,1.7.7,1.7,1.6s-.6,1.4-1.1,1.5l1.1,1.9h-1.2l-1-1.8ZM200.9,163.6h-1.1v1.4h1.1c.4,0,.7-.3.7-.7s-.3-.7-.7-.7Z"/>
    <path class="st1" d="M203.6,162.7h1.1v5h-1.1v-5Z"/>
    <path class="st1" d="M205.9,166.2c.4.4.9.7,1.6.7s.9-.3.9-.6-.4-.5-1-.6c-.8-.2-1.9-.4-1.9-1.5s.7-1.5,1.9-1.5,1.5.2,1.9.7l-.6.8c-.4-.4-.9-.5-1.4-.5s-.7.2-.7.5.4.4,1,.6c.8.2,1.9.4,1.9,1.5s-.7,1.6-2,1.6-1.6-.3-2.1-.8l.6-.8Z"/>
    <path class="st1" d="M211.6,165.7l-.4.5v1.5h-1.1v-5h1.1v2.2l1.8-2.2h1.3l-2,2.3,2.1,2.7h-1.3l-1.5-2Z"/>
    <path class="st1" d="M215.1,166.2c.4.4.9.7,1.6.7s.9-.3.9-.6-.4-.5-1-.6c-.8-.2-1.9-.4-1.9-1.5s.7-1.5,1.9-1.5,1.5.2,1.9.7l-.6.8c-.4-.4-.9-.5-1.4-.5s-.7.2-.7.5.4.4,1,.6c.8.2,1.9.4,1.9,1.5s-.7,1.6-2,1.6-1.6-.3-2.1-.8l.6-.8Z"/>
  </g>
  <path class="st2" d="M194.3,130.5s0,0,0,0c0,0,0,0,0,0s0,0,0,0c0,0,0,0,0,0M191.6,132s0,0,0,0c0,0,0,0,0,0,0,0,0,0,0,0,0,0,0,0,0,0M189,133.7s-.1,0-.1,0c0,0,0-.1,0-.2,0,0,.1,0,.2,0,0,0,0,.1,0,.2M186.6,135.7c0,0-.2,0-.2,0,0,0,0-.2,0-.2,0,0,.2,0,.2,0,0,0,0,.2,0,.2M184.4,137.9c0,0-.2,0-.3,0,0,0,0-.2,0-.3,0,0,.2,0,.3,0,0,0,0,.2,0,.3M182.4,140.2c0,0-.2.1-.3,0,0,0-.1-.2,0-.3,0,0,.2-.1.3,0,0,0,.1.2,0,.3M180.2,142.9c-.1,0-.1-.2,0-.4,0-.1.2-.2.4,0s.1.2,0,.4c0,.1-.2.2-.4,0M178.6,145.6c-.1,0-.2-.3-.1-.4s.3-.2.4-.1.2.3.1.4c0,.1-.3.2-.4.1M177.2,148.5c-.2,0-.2-.3-.2-.5,0-.2.3-.3.4-.2.2,0,.2.3.2.5,0,.2-.3.3-.4.2M176.1,151.5c-.2,0-.3-.3-.2-.5,0-.2.3-.3.5-.3.2,0,.3.3.2.5,0,.2-.3.3-.5.3M175.3,154.6c-.2,0-.4-.3-.3-.5,0-.2.3-.4.5-.3.2,0,.3.3.3.5,0,.2-.3.4-.5.3M174.8,157.8c-.2,0-.4-.3-.4-.5,0-.3.3-.4.5-.4.2,0,.4.3.4.5,0,.2-.3.4-.5.4M174.1,160.4c0-.3.2-.5.5-.5.3,0,.5.2.5.5,0,.3-.2.5-.5.5-.3,0-.5-.2-.5-.5M174.1,163.6c0-.3.2-.6.5-.6.3,0,.5.2.5.5,0,.3-.2.5-.5.6s-.5-.2-.5-.5M174.3,166.8c0-.3.2-.6.5-.7.3,0,.6.2.6.5,0,.3-.2.6-.5.7-.3,0-.6-.2-.6-.5M175.6,170.5c-.3,0-.6-.1-.7-.5,0-.3.1-.7.4-.7.3,0,.6.1.7.5,0,.3-.1.7-.4.7M175.7,173.1c-.1-.4,0-.7.4-.8.3-.1.7,0,.8.4.1.3,0,.7-.4.8-.3.1-.7,0-.8-.4M177.7,176.5c-.3.2-.7,0-.9-.4-.2-.4,0-.8.3-.9.3-.1.7,0,.9.4.1.4,0,.8-.3.9M179.1,179.3c-.3.2-.8,0-1-.3-.2-.4,0-.8.3-1,.3-.2.8,0,1,.3.2.4,0,.8-.3,1M180,180.7c.3-.2.8-.1,1,.2.2.3.1.8-.2,1.1-.3.2-.8.1-1-.2-.2-.4-.2-.8.2-1.1M181.7,183.2c.3-.3.8-.2,1.1.1.3.3.2.8,0,1.1-.3.3-.8.2-1.1-.1-.3-.4-.2-.9,0-1.1M183.7,185.6c.3-.3.8-.3,1.2,0,.3.3.3.9,0,1.2-.3.3-.8.3-1.2,0-.3-.3-.3-.9,0-1.2M186,189c-.4-.3-.4-.9-.1-1.2.3-.4.8-.4,1.2,0,.4.3.4.9.1,1.2-.3.4-.8.4-1.2,0M189.5,189.5c.4.3.5.8.2,1.3-.3.4-.8.5-1.3.2-.4-.3-.5-.9-.2-1.3.3-.4.8-.5,1.3-.2M192.1,191.1c.4.2.6.8.4,1.3-.2.5-.8.6-1.3.4-.5-.3-.6-.9-.4-1.3.3-.4.8-.6,1.3-.3M194.8,192.5c.5.2.7.8.5,1.3-.2.5-.8.7-1.3.5-.5-.2-.7-.8-.5-1.3.2-.5.8-.7,1.3-.5M196.3,194.2c.2-.5.8-.8,1.3-.6.3,0,.5.3.6.5.1.2.2.5,0,.8,0,.3-.3.5-.5.6-.2.1-.5.1-.8,0-.6-.2-.8-.8-.6-1.3M222.8,193.2s0,0,0,0c0,0,0,0,0,0,0,0,0,0,0,0,0,0,0,0,0,0M225.5,191.7s0,0,0,0c0,0,0,0,0,0,0,0,0,0,0,0,0,0,0,0,0,0M228.1,190s.1,0,.1,0c0,0,0,.1,0,.2,0,0-.1,0-.2,0,0,0,0-.1,0-.2M230.5,188c0,0,.2,0,.2,0,0,0,0,.2,0,.2,0,0-.2,0-.2,0,0,0,0-.2,0-.2M232.8,185.8c0,0,.2,0,.3,0,0,0,0,.2,0,.3,0,0-.2,0-.3,0,0,0,0-.2,0-.3M234.8,183.4c0,0,.2-.1.3,0,0,0,.1.2,0,.3,0,0-.2.1-.3,0,0,0-.1-.2,0-.3M236.6,180.9c0-.1.2-.2.4,0,.1,0,.1.2,0,.4s-.2.2-.4,0c-.1,0-.1-.2,0-.4M238.2,178.2c0-.1.3-.2.4-.1.1,0,.2.3.1.4,0,.2-.3.2-.4.1-.1,0-.2-.3-.1-.4M239.5,175.4c0-.2.3-.3.4-.2.2,0,.2.3.2.5,0,.2-.3.3-.4.2-.2,0-.2-.3-.2-.5M240.6,172.4c0-.2.3-.3.5-.3.2,0,.3.3.2.5,0,.2-.3.3-.5.3-.2,0-.3-.3-.2-.5M241.3,169.4c0-.2.3-.4.5-.3s.4.3.3.5c0,.2-.3.4-.5.3-.2,0-.3-.3-.3-.5M241.9,166.3c0-.2.3-.4.5-.4.2,0,.4.3.4.5,0,.3-.3.4-.5.4-.2,0-.4-.3-.4-.5M242.1,163.2c0-.3.2-.5.5-.5.3,0,.5.2.5.5,0,.3-.2.5-.5.5-.3,0-.5-.2-.5-.5M242.1,160.1c0-.3.2-.5.5-.6.3,0,.5.2.5.5,0,.3-.2.6-.5.6-.3,0-.5-.2-.5-.5M241.7,157c0-.3.2-.6.5-.7.3,0,.6.2.6.5,0,.3-.2.6-.5.7-.3,0-.6-.2-.6-.5M241.2,154c0-.3.1-.7.4-.7.3,0,.6.1.7.5,0,.3-.1.7-.5.7-.3,0-.6-.1-.7-.5M240.3,151c-.1-.3,0-.7.4-.8.3-.1.7,0,.8.4.1.4,0,.7-.4.8s-.7,0-.8-.4M239.2,148.1c-.1-.4,0-.8.3-.9.3-.2.7,0,.9.4.2.4,0,.8-.3.9-.3.1-.7,0-.9-.4M237.8,145.4c-.2-.4,0-.8.3-1,.3-.2.8,0,1,.3.2.4,0,.8-.3,1-.3.2-.8,0-1-.3M236.4,141.7c.3-.2.8-.1,1,.2.2.4.2.8-.2,1.1-.3.2-.8.1-1-.2-.2-.3-.1-.8.2-1.1M234.4,139.2c.3-.3.8-.2,1.1.1.3.4.2.9,0,1.1-.3.3-.8.2-1.1-.1-.3-.3-.2-.8,0-1.1M232.3,136.9c.3-.3.8-.3,1.2,0,.3.3.3.9,0,1.2-.3.3-.8.3-1.2,0-.3-.3-.3-.9,0-1.2M229.9,134.8c.3-.4.8-.4,1.2,0,.4.3.4.9.1,1.2-.3.4-.8.4-1.2,0-.4-.3-.4-.9-.1-1.2M227.6,134.1c-.4-.3-.5-.8-.2-1.3.3-.4.8-.5,1.3-.2.4.3.5.9.2,1.3-.3.4-.8.5-1.3.2M225.1,132.5c-.5-.2-.6-.8-.4-1.3.2-.5.8-.6,1.3-.4.5.3.6.9.4,1.3-.3.4-.8.6-1.3.3M222.4,131.2c-.5-.2-.7-.8-.5-1.3.2-.5.8-.7,1.3-.5.5.2.7.8.5,1.3-.2.5-.8.7-1.3.5"/>
  <path class="st2" d="M197.3,195.8c-.1,0-.3,0-.4,0-.3-.1-.6-.4-.7-.7-.1-.3-.1-.6,0-.9h0c.2-.6.9-.9,1.5-.7.3.1.5.3.7.6.1.3.2.6,0,.9,0,.3-.3.6-.6.7-.2,0-.3.1-.5.1ZM196.5,194.3c0,.2,0,.4,0,.6,0,.2.3.4.5.5.2,0,.5,0,.7,0,.2-.1.4-.3.4-.5,0-.2,0-.4,0-.6-.1-.2-.3-.3-.5-.4-.4-.2-.9,0-1.1.5h0ZM194.4,194.6c-.2,0-.3,0-.5-.1-.3-.1-.5-.4-.6-.7,0-.3,0-.6,0-.9.3-.6,1-.8,1.5-.5.6.3.8.9.6,1.5-.1.3-.3.5-.6.6-.1,0-.3,0-.4,0ZM194.4,192.6c-.3,0-.6.2-.7.5,0,.2-.1.4,0,.6,0,.2.2.4.4.5.2,0,.4,0,.6,0,.2,0,.3-.2.4-.4.2-.4,0-.9-.4-1.1h0c-.1,0-.2,0-.3,0ZM222.8,193.5h-.2c0,0,0-.1,0-.1,0-.1,0-.2.1-.3h0s.2,0,.2,0v.2c0,0,0,.2,0,.2h-.2ZM222.8,193.2h0c0,.1,0,.1.1.1,0,0,.1-.1,0-.2h-.1c0,0,0,0,0,0h0ZM222.8,193.1s0,0,0,0h.1s0,0,0,0ZM191.7,193.1c-.2,0-.4,0-.6-.2-.3-.2-.5-.4-.5-.7,0-.3,0-.6.1-.8.3-.5,1-.7,1.5-.4.5.3.7,1,.5,1.5-.1.3-.4.5-.6.5-.1,0-.2,0-.3,0ZM191.6,191.2c-.3,0-.5.1-.6.4-.1.2-.1.4,0,.6,0,.2.2.4.4.5.2.1.4.1.6,0,.2,0,.3-.2.4-.4.2-.4,0-.8-.3-1h0c-.1,0-.3-.1-.4-.1ZM225.6,192s0,0,0,0c0,0-.1,0-.2-.1,0-.1,0-.3,0-.3h0c0,0,.1,0,.2,0,0,0,.1,0,.2.1,0,.1,0,.3,0,.3,0,0,0,0-.1,0ZM225.6,191.7s0,0,0,0c0,0,0,0,0,.2,0,0,0,0,0,0,0,0,0,0,0,0v-.2c0,0,0,.2,0,.2,0,0,0,0,0-.1,0,0,0,0,0,0,0,0,0,0,0,0ZM189,191.4c-.2,0-.4,0-.6-.2-.2-.2-.4-.4-.5-.7,0-.3,0-.6.2-.8.4-.5,1-.6,1.5-.2h0c.5.3.6,1,.3,1.5-.2.2-.4.4-.7.5,0,0-.1,0-.2,0ZM189,189.5c-.2,0-.4,0-.6.3-.1.2-.2.4-.1.5,0,.2.1.4.3.5.2.1.4.2.6.1.2,0,.3-.1.4-.3.2-.3.1-.8-.2-1-.1,0-.3-.1-.4-.1ZM228.2,190.4s0,0,0,0c0,0-.2,0-.2-.1,0-.1,0-.3,0-.4h0c0,0,.1,0,.2,0,0,0,.1,0,.2.1,0,.1,0,.3,0,.4,0,0-.1,0-.2,0ZM228.1,190s0,0,0,0c0,0,0,0,0,0,0,0,0,0,0,0,0,0,0,0,0,0h0ZM228.1,190h0c0,.1,0,0,0,0,0,0,0,0,0,0,0,0,0,0,0,0ZM186.6,189.4c-.3,0-.5,0-.7-.3-.2-.2-.4-.4-.4-.7,0-.3,0-.6.3-.8.4-.4,1-.5,1.5-.1.4.4.5,1,.2,1.5-.2.2-.4.3-.7.4,0,0,0,0-.1,0ZM186.5,187.7c-.2,0-.4,0-.5.2-.1.1-.2.3-.2.5,0,.2.1.4.3.5h0c.2.1.3.2.5.2.2,0,.3-.1.4-.2.2-.3.2-.7,0-1-.1-.1-.3-.2-.5-.2ZM230.6,188.4c0,0-.2,0-.3-.1-.1-.1,0-.3,0-.5h0c.1-.1.3-.1.5,0,0,0,0,.2,0,.2,0,0,0,.2-.1.2,0,0-.1,0-.2,0ZM230.6,188.1h0c0,0,0,0,0,0h0ZM230.6,188.1h0s0,0,0,0c0,0,0,0,0,0h0ZM184.3,187.2c-.3,0-.5-.1-.7-.3-.2-.2-.3-.5-.3-.8,0-.3.1-.5.3-.7h0c.4-.4,1-.4,1.4,0,.4.4.4,1,0,1.4-.2.2-.4.3-.7.3h0ZM184.3,185.6c-.2,0-.3,0-.4.2h0c-.1.1-.2.3-.2.4,0,.2,0,.4.2.5.1.1.3.2.5.2.2,0,.3,0,.4-.2.2-.3.2-.7,0-.9-.1-.1-.3-.2-.5-.2ZM232.9,186.3c0,0-.2,0-.3-.1-.1-.1-.1-.4,0-.5.1-.1.4-.1.5,0,0,0,.1.2.1.3,0,.1,0,.2-.1.3,0,0-.2.1-.3.1ZM232.9,185.9s0,0,0,0h0ZM182.3,184.9s0,0,0,0c-.3,0-.5-.2-.7-.4-.2-.2-.3-.5-.2-.8,0-.3.2-.5.3-.6h0c.4-.3,1-.3,1.4.2.3.4.3,1-.1,1.4-.2.1-.4.2-.6.2ZM181.8,183.4c-.1,0-.2.2-.2.4,0,.2,0,.3.1.5.1.1.3.2.4.2.2,0,.3,0,.4-.1.3-.2.3-.6,0-.9-.2-.3-.6-.3-.9,0h0ZM235,184c0,0-.2,0-.3,0-.2-.1-.2-.4,0-.6.1-.2.4-.2.6,0,.2.1.2.4,0,.6,0,0-.2.1-.3.2,0,0,0,0,0,0ZM235,183.5s0,0,0,0h0s0,0,0,0h.2c0,.1-.1,0-.1,0,0,0,0,0,0,0,0,0,0,0,0,0ZM180.4,182.3c0,0-.1,0-.2,0-.3,0-.5-.2-.6-.4-.1-.2-.2-.5-.1-.7,0-.2.2-.4.4-.6.4-.3,1-.2,1.3.3.3.4.2,1-.2,1.3-.2.1-.3.2-.5.2ZM180.4,180.8c-.1,0-.2,0-.3,0h0c-.1,0-.2.2-.2.3,0,.2,0,.3,0,.5,0,.1.2.2.4.3.1,0,.3,0,.4,0,.3-.2.3-.5.1-.8-.1-.2-.3-.3-.5-.3ZM236.8,181.5c0,0-.2,0-.2,0-.2-.1-.2-.4-.1-.6,0-.1.2-.2.3-.2.1,0,.2,0,.3,0,0,0,.2.2.2.3,0,.1,0,.2,0,.3,0,.1-.2.2-.3.2,0,0,0,0,0,0ZM236.8,181s0,0,0,0c0,0,0,0,0,0,0,0,0,0,0,.1,0,0,0,0,0,0,0,0,0,0,0,0s0,0,0,0c0,0,0,0,0,0,0,0,0,0,0,0ZM178.8,179.6c0,0-.2,0-.2,0-.2,0-.4-.2-.6-.5-.1-.2-.1-.5,0-.7,0-.2.2-.4.4-.5.2-.1.4-.1.7,0,.2,0,.4.2.5.4.2.4,0,1-.3,1.2h0c-.1,0-.3.1-.4.1ZM178.7,178.1c0,0-.2,0-.2,0-.1,0-.2.2-.2.3,0,.1,0,.3,0,.4,0,.1.2.2.3.3.1,0,.3,0,.4,0h0c.2-.1.3-.5.2-.7,0-.1-.2-.2-.3-.3,0,0-.1,0-.2,0ZM238.4,178.8c0,0-.2,0-.2,0-.2-.1-.3-.4-.2-.7h0c.1-.2.4-.3.7-.2.2.1.3.4.2.7,0,.1-.2.2-.3.2,0,0,0,0-.1,0ZM238.3,178.3c0,0,0,.1,0,.2,0,0,0,0,0,0,0,0,0,0,0,0,0,0,0-.1,0-.2,0,0-.1,0-.2,0ZM177.4,176.7c-.1,0-.2,0-.3,0-.2,0-.4-.3-.5-.5-.2-.5,0-1,.4-1.2.2,0,.4,0,.6,0,.2,0,.4.3.5.5.2.5,0,.9-.4,1.1-.1,0-.2,0-.4,0ZM177.4,175.3c0,0-.1,0-.2,0-.2.1-.4.4-.2.7,0,.1.1.2.3.3.1,0,.3,0,.4,0h0c.2-.1.3-.4.2-.7,0-.1-.1-.2-.3-.3,0,0-.1,0-.2,0ZM239.8,176c0,0-.1,0-.2,0-.3-.1-.4-.4-.3-.7h0c0-.1.2-.2.3-.3.1,0,.3,0,.4,0,.3.1.4.4.3.7,0,.1-.2.2-.3.3,0,0-.1,0-.2,0ZM239.7,175.4c0,0,0,.2,0,.2,0,0,0,0,.1,0,0,0,0,0,0,0,0,0,0-.2,0-.2,0,0,0,0-.1,0,0,0,0,0,0,0h0ZM176.3,173.7c-.1,0-.2,0-.4,0-.2-.1-.4-.3-.4-.5h0c-.1-.5,0-.9.5-1.1.2,0,.4,0,.6,0,.2.1.3.3.4.5.1.4,0,.9-.5,1.1,0,0-.2,0-.3,0ZM175.8,173c0,.1.1.2.2.3.1,0,.2,0,.3,0,.2,0,.3-.3.3-.6,0-.1-.1-.2-.2-.3-.1,0-.2,0-.3,0-.2,0-.4.3-.3.6ZM240.9,173.1c0,0-.1,0-.2,0-.3,0-.4-.4-.4-.7h0c0-.1.1-.3.3-.3.1,0,.3,0,.4,0,.3,0,.5.4.4.7,0,.1-.1.3-.3.3,0,0-.2,0-.2,0ZM240.7,172.5c0,.1,0,.2.1.3,0,0,0,0,.1,0,0,0,0,0,0-.1,0-.1,0-.2-.1-.3,0,0,0,0-.1,0,0,0,0,0,0,.1ZM175.4,170.7c-.1,0-.3,0-.4-.1-.2-.1-.3-.3-.4-.5,0-.2,0-.4.1-.6.1-.2.3-.3.5-.3.4,0,.8.2.9.6.1.4-.1.9-.6,1h0c0,0-.1,0-.2,0ZM175.4,169.4s0,0,0,0c-.1,0-.2,0-.2.2,0,.1,0,.2,0,.3,0,.1.1.2.2.3,0,0,.2,0,.3,0h0c.2,0,.3-.3.3-.5,0-.2-.2-.3-.4-.3ZM241.7,170.1s0,0-.1,0c-.2,0-.3-.1-.4-.3,0-.1-.1-.3,0-.5,0-.2.1-.3.3-.4.1,0,.3-.1.4,0,.3,0,.5.4.5.7,0,.3-.3.5-.6.5ZM241.7,169.2s0,0-.1,0c0,0,0,0-.1.2h0c0,0,0,.1,0,.2,0,0,0,0,.1,0,.1,0,.2,0,.3-.2,0-.1,0-.3-.2-.3,0,0,0,0,0,0ZM174.9,167.5c-.1,0-.3,0-.4-.1-.2-.1-.3-.3-.3-.5,0-.2,0-.4.1-.6.1-.2.3-.3.5-.3.4,0,.8.2.8.7,0,.4-.2.8-.6.9,0,0,0,0-.1,0ZM174.9,166.4s0,0,0,0c0,0-.2,0-.2.1,0,0,0,.2,0,.3h0c0,.1,0,.2.2.3,0,0,.2,0,.3,0,.2,0,.3-.2.3-.4,0-.2-.2-.3-.4-.3ZM242.3,167s0,0,0,0c-.3,0-.6-.4-.5-.7h0c0-.3.4-.6.7-.6.2,0,.3.1.4.2.1.1.2.3.1.5,0,.2-.1.3-.3.4-.1,0-.2.1-.4.1ZM242,166.3c0,.1,0,.3.2.3,0,0,.1,0,.2,0,0,0,.1-.1.1-.2,0,0,0-.2,0-.2,0,0,0,0-.2,0-.1,0-.3,0-.3.2ZM174.6,164.3c-.2,0-.3,0-.4-.2-.1-.1-.2-.3-.2-.5h0c0-.2,0-.4.2-.5.1-.1.3-.2.5-.2h0c.4,0,.7.3.7.7,0,.4-.3.7-.7.8,0,0,0,0,0,0ZM174.6,163.2s0,0,0,0c0,0-.2,0-.2.1,0,0,0,.2,0,.3h0c0,.1,0,.2.1.3,0,0,.2,0,.2,0,.2,0,.3-.2.3-.4,0-.2-.2-.3-.3-.3ZM242.6,163.9s0,0,0,0c-.4,0-.6-.3-.6-.7h0c0-.4.3-.7.7-.7h0c.2,0,.3,0,.5.2.1.1.2.3.2.5s0,.4-.2.5c-.1.1-.3.2-.4.2ZM242.6,162.9c-.2,0-.3.1-.3.3h0c0,.2.1.3.3.3,0,0,.1,0,.2,0,0,0,.1-.1.1-.2,0,0,0-.2,0-.2,0,0-.1,0-.2,0h0ZM174.6,161.1h0c-.2,0-.3,0-.5-.2-.1-.1-.2-.3-.2-.5h0c0-.2,0-.4.2-.5.1-.1.3-.2.5-.2.4,0,.6.3.6.7,0,.4-.3.7-.7.7ZM174.6,160.1c0,0-.1,0-.2,0,0,0-.1.1-.1.2h0c0,0,0,.2,0,.2,0,0,.1,0,.2,0h0c.2,0,.3-.1.3-.3,0-.2-.1-.3-.3-.3,0,0,0,0,0,0ZM242.6,160.8c-.4,0-.7-.3-.7-.7h0c0-.4.3-.7.7-.8.2,0,.4,0,.5.2.1.1.2.3.2.5,0,.2,0,.4-.2.5-.1.1-.3.2-.5.2h0ZM242.2,160.1c0,.2.2.3.3.3s0,0,0,0c0,0,.2,0,.2-.1,0,0,.1-.2,0-.3,0-.1,0-.2-.1-.3,0,0-.1,0-.2,0-.2,0-.3.2-.3.4ZM174.8,157.9s0,0,0,0c-.2,0-.3-.1-.4-.2-.1-.1-.2-.3-.1-.5,0-.4.4-.6.7-.6.3,0,.6.4.5.7,0,.3-.3.6-.6.6ZM174.9,157c-.1,0-.2.1-.3.2,0,0,0,.2,0,.2,0,0,0,0,.2,0h0c.1,0,.3,0,.3-.2,0-.1,0-.3-.2-.3,0,0,0,0,0,0ZM242.3,157.7c-.4,0-.7-.3-.7-.7h0c0-.4.2-.8.6-.9.2,0,.4,0,.5.1.2.1.3.3.3.5,0,.2,0,.4-.1.6-.1.2-.3.3-.5.3,0,0,0,0,0,0ZM241.9,157c0,.2.2.4.4.3,0,0,.2,0,.2-.1,0,0,0-.2,0-.3,0-.1,0-.2-.2-.3,0,0-.2,0-.3,0-.2,0-.3.2-.3.4ZM175.4,154.8s0,0-.1,0h0c-.3,0-.5-.4-.5-.7,0-.3.4-.5.7-.5.2,0,.3.1.4.3,0,.1.1.3,0,.5,0,.2-.1.3-.3.4,0,0-.2,0-.3,0ZM175.4,154c-.1,0-.2,0-.2.2,0,.1,0,.3.2.3h0c0,0,.1,0,.2,0,0,0,0,0,.1-.2,0,0,0-.1,0-.2,0,0,0,0-.1,0,0,0,0,0,0,0ZM241.7,154.6c-.4,0-.7-.2-.8-.6-.1-.4.1-.9.6-1,.2,0,.4,0,.6,0,.2.1.3.3.4.5,0,.2,0,.4-.1.6-.1.2-.3.3-.5.3,0,0-.1,0-.2,0ZM241.7,153.4s0,0,0,0c-.2,0-.4.3-.3.5h0c0,.2.3.4.5.3.1,0,.2,0,.2-.2,0-.1,0-.2,0-.3,0-.1-.1-.2-.2-.3,0,0-.1,0-.2,0ZM176.2,151.7c0,0-.1,0-.2,0h0c-.3,0-.5-.4-.4-.7,0-.2.1-.3.3-.3.1,0,.3,0,.4,0,.3,0,.4.4.4.7,0,.1-.1.3-.3.3,0,0-.2,0-.3,0ZM176.3,150.9s0,0,0,0c0,0,0,0,0,.1,0,.1,0,.2.1.3h0s0,0,.1,0c0,0,0,0,0-.1,0-.1,0-.2-.1-.3,0,0,0,0,0,0ZM240.9,151.6c-.1,0-.3,0-.4,0-.2-.1-.3-.3-.4-.5-.1-.4,0-.9.5-1.1.2,0,.4,0,.6,0,.2.1.4.3.4.5.1.5,0,.9-.5,1.1,0,0-.2,0-.2,0ZM240.9,150.3s0,0-.1,0c-.2,0-.3.3-.3.6h0c0,.1.1.2.2.3.1,0,.2,0,.3,0,.2,0,.4-.3.3-.6,0-.1-.1-.2-.2-.3,0,0-.1,0-.2,0ZM239.8,148.7c-.1,0-.2,0-.3,0-.2,0-.4-.3-.5-.5h0c-.2-.5,0-.9.4-1.1.2,0,.5-.1.7,0,.2,0,.4.3.5.5.2.5,0,1-.4,1.2-.1,0-.2,0-.3,0ZM239.3,148.1c0,.1.1.2.3.3.1,0,.2,0,.4,0,.2-.1.4-.4.2-.7,0-.1-.1-.2-.3-.3-.1,0-.3,0-.4,0-.2.1-.3.4-.2.7ZM177.4,148.7c0,0-.1,0-.2,0-.3-.1-.4-.4-.3-.7,0-.1.2-.2.3-.3.1,0,.3,0,.4,0,.3.1.4.4.3.7,0,.1-.2.2-.3.3,0,0-.1,0-.2,0ZM177.4,148s0,0,0,0c0,0,0,0,0,0,0,0,0,.2,0,.2h0s0,0,.1,0c0,0,0,0,0,0,0,0,0-.2,0-.2,0,0,0,0,0,0ZM238.4,145.9c0,0-.2,0-.3,0-.2,0-.4-.2-.5-.4h0c-.2-.4,0-1,.3-1.2.2-.1.4-.2.7,0,.2,0,.4.2.6.5.2.5,0,1-.3,1.2-.1,0-.3.1-.4.1ZM237.9,145.3c0,.1.2.2.3.3.1,0,.3,0,.4,0,.3-.1.3-.5.2-.7,0-.1-.2-.2-.3-.3-.1,0-.3,0-.4,0-.2.1-.3.5-.2.7ZM178.7,145.8c0,0-.2,0-.2,0-.1,0-.2-.2-.2-.3,0-.1,0-.3,0-.4,0-.1.2-.2.3-.2.1,0,.2,0,.4,0,.2.1.3.4.2.7,0,.1-.2.2-.3.2,0,0,0,0-.1,0ZM178.7,145.2s0,0,0,0c0,0,0,0,0,0,0,0,0,0,0,0,0,0,0,0,0,0h0s0,0,0,0c0,0,0,0,0,0,0,0,0-.1,0-.2,0,0,0,0,0,0ZM236.8,143.3c-.3,0-.6-.1-.8-.4-.3-.4-.2-1,.2-1.3h0c.2-.1.4-.2.7-.2.3,0,.5.2.6.4.1.2.2.5.1.7,0,.2-.2.4-.4.6-.2.1-.3.2-.5.2ZM236.8,141.7c-.1,0-.2,0-.3.1h0c-.3.2-.3.5-.1.8.2.3.5.3.8.2.1,0,.2-.2.2-.3,0-.2,0-.3,0-.5,0-.1-.2-.2-.4-.3,0,0,0,0,0,0ZM180.3,143.1c0,0-.2,0-.2,0h0c-.2-.1-.3-.4-.1-.6,0-.1.2-.2.3-.2.1,0,.2,0,.3,0,.2.1.2.4.1.6,0,.1-.2.2-.4.2ZM180.3,142.7s0,0,.1,0c0,0,0,0,0-.1h0s0,0,0,0c0,0,0,0,0,.1h0ZM234.9,140.8c-.3,0-.6-.1-.8-.4-.3-.4-.3-1,.1-1.4.2-.2.4-.3.7-.2.3,0,.5.2.7.4.2.2.3.5.2.8,0,.3-.2.5-.4.6-.2.1-.4.2-.6.2ZM234.9,139.2c-.1,0-.3,0-.4.1h0c-.3.2-.3.6,0,.9.2.3.6.3.9,0,.1,0,.2-.2.2-.4,0-.2,0-.3-.1-.5-.1-.1-.3-.2-.4-.2,0,0,0,0,0,0ZM182.2,140.5c0,0-.2,0-.3,0,0,0-.1-.2-.1-.3,0-.1,0-.2,0-.3,0,0,.2-.1.3-.2.1,0,.2,0,.3,0,.2.1.2.4,0,.6h0c0,0-.2.1-.3.2,0,0,0,0,0,0ZM182.2,140.1h0s0,0,0,0h0s0,0,0,0h.2c0,.1-.1,0-.1,0,0,0,0,0,0,0ZM232.9,138.5c-.3,0-.5-.1-.7-.3-.4-.4-.4-1,0-1.4.2-.2.4-.3.7-.3h0c.3,0,.5.1.7.3.2.2.3.5.3.8,0,.3-.1.5-.3.7-.2.2-.4.3-.7.3ZM232.8,136.8h0c-.2,0-.3,0-.4.2-.2.3-.2.7,0,.9.2.3.7.3.9,0,.1-.1.2-.3.2-.4,0-.2,0-.4-.2-.5-.1-.1-.3-.2-.5-.2ZM184.2,138.1c0,0-.2,0-.3-.1,0,0-.1-.2-.1-.3,0-.1,0-.2.1-.3,0,0,.2-.1.3-.1h0c0,0,.2,0,.3.1.1.1.1.4,0,.5,0,0-.2.1-.3.1ZM184.2,137.7h0s0,0,0,0ZM230.6,136.4c-.2,0-.5,0-.7-.2-.4-.4-.5-1-.2-1.5.2-.2.4-.3.7-.4.3,0,.6,0,.8.3.2.2.4.4.4.7,0,.3,0,.6-.3.8-.2.2-.5.3-.8.3ZM230.6,134.6s0,0,0,0c-.2,0-.3.1-.4.2-.2.3-.2.7,0,1,.3.2.7.2,1,0,.1-.1.2-.3.2-.5,0-.2-.1-.4-.3-.5-.1-.1-.3-.2-.5-.2ZM186.5,135.9c0,0-.2,0-.3-.1,0,0,0-.2,0-.2,0,0,0-.2.1-.2,0,0,.2,0,.2,0,0,0,.2,0,.2.1.1.1,0,.3,0,.5h0c0,0-.1,0-.2,0ZM186.5,135.6h0s0,0,0,0ZM186.5,135.5s0,0,0,0h0s0,0,0,0ZM186.5,135.5s0,0,0,0h0s0,0,0,0c0,0,0,0,0,0ZM228.2,134.5c-.2,0-.4,0-.6-.2h0c-.5-.3-.6-1-.3-1.5.2-.2.4-.4.7-.5.3,0,.6,0,.9.2.2.2.4.4.5.7,0,.3,0,.6-.2.8-.2.3-.5.4-.9.4ZM227.7,134c.3.2.8.2,1-.2.1-.2.2-.4.1-.5,0-.2-.1-.4-.3-.5-.2-.1-.4-.2-.6-.1-.2,0-.3.1-.4.3-.2.3-.1.8.2,1ZM189,133.9s0,0,0,0c0,0-.1,0-.2-.1,0-.1,0-.3,0-.4,0,0,.1,0,.2,0,0,0,.2,0,.2.1,0,.1,0,.3,0,.4h0c0,0-.1,0-.2,0ZM188.9,133.6s0,0,0,0c0,0,0,0,0,0,0,0,0,0,0,0h0ZM189,133.5s0,0,0,0h0c0,.1,0,.1,0,.1,0,0,0,0,0,0,0,0,0,0,0,0,0,0,0,0,0,0ZM225.5,132.9c-.2,0-.4,0-.6-.2-.5-.3-.7-1-.5-1.5.1-.3.4-.5.7-.5.3,0,.6,0,.9.1.3.2.5.4.5.7,0,.3,0,.6-.1.8-.2.4-.6.5-1,.5ZM225.5,131c0,0-.2,0-.2,0-.2,0-.3.2-.4.4-.2.4,0,.8.3,1h0c.4.2.8.1,1-.3.1-.2.1-.4,0-.6,0-.2-.2-.4-.4-.5-.1,0-.3-.1-.4-.1ZM191.6,132.2s0,0,0,0c0,0-.1,0-.2-.1,0-.1,0-.3,0-.4,0,0,.1,0,.2,0,0,0,.1,0,.2.1,0,.1,0,.3,0,.3h0s0,0-.1,0ZM191.5,131.8s0,0,0,.1c0,0,0,0,0,0,0,0,0,0,0,0,0,0,0,0,0-.2,0,0,0,0,0,0,0,0,0,0,0,0v.2c0,0,0-.2,0-.2ZM222.8,131.5c-.2,0-.3,0-.5-.1-.6-.3-.8-.9-.6-1.5.1-.3.3-.5.6-.6.3-.1.6-.1.9,0,.3.1.5.4.6.7.1.3,0,.6,0,.9-.2.4-.6.7-1,.7ZM222.7,129.5c-.1,0-.2,0-.3,0-.2,0-.3.2-.4.4-.2.4,0,.9.4,1.1h0c.4.2.9,0,1.1-.4,0-.2.1-.4,0-.6,0-.2-.2-.4-.4-.5-.1,0-.2,0-.3,0ZM194.4,130.7h-.2c0,0,0-.1,0-.1,0-.1,0-.2.1-.3h.2c0,0,.1,0,.1,0,0,.1,0,.2-.1.3h0ZM194.4,130.4h0c0,.1.1,0,0,0h-.1ZM194.3,130.3h0s0,0,0,0Z"/>
  <g>
    <path class="st2" d="M247.3,121.7l-1.3,3.4h-.6l-1.3-3.4v3.4h-1.3v-5h1.8l1,2.8,1-2.8h1.8v5h-1.3v-3.4Z"/>
    <path class="st2" d="M251.9,120c1.5,0,2.7,1.1,2.7,2.6s-1.1,2.6-2.7,2.6-2.7-1.1-2.7-2.6,1.1-2.6,2.7-2.6ZM251.9,121.1c-.8,0-1.4.6-1.4,1.4s.5,1.4,1.4,1.4,1.4-.6,1.4-1.4-.5-1.4-1.4-1.4Z"/>
    <path class="st2" d="M257.2,123.3h-.7v1.7h-1.3v-5h2.5c1.1,0,1.7.7,1.7,1.7s-.5,1.3-1,1.5l1,1.8h-1.5l-.8-1.7ZM257.5,121.1h-1v1.1h1c.3,0,.6-.2.6-.6s-.3-.6-.6-.6Z"/>
    <path class="st2" d="M260.2,120h3.7v1.1h-2.4v.8h2.3v1.1h-2.3v.9h2.4v1.1h-3.7v-5Z"/>
  </g>
  <g>
    <path class="st2" d="M242.9,127.5h3.7v1.1h-2.4v.8h2.3v1.1h-2.3v2h-1.3v-5Z"/>
    <path class="st2" d="M249.2,130.8h-.7v1.7h-1.3v-5h2.5c1.1,0,1.7.7,1.7,1.7s-.5,1.3-1,1.5l1,1.8h-1.5l-.8-1.7ZM249.6,128.6h-1v1.1h1c.3,0,.6-.2.6-.6s-.3-.6-.6-.6Z"/>
    <path class="st2" d="M252.2,127.5h3.7v1.1h-2.4v.8h2.3v1.1h-2.3v.9h2.4v1.1h-3.7v-5Z"/>
    <path class="st2" d="M261.1,131.8l.3.4-.9.7-.4-.4c-.3.1-.7.2-1.1.2-1.5,0-2.7-1.1-2.7-2.6s1.1-2.6,2.7-2.6,2.7,1.1,2.7,2.6-.2,1.3-.6,1.7ZM259.4,131.5l-.5-.6.9-.7.5.6c.1-.2.2-.4.2-.7,0-.8-.5-1.4-1.4-1.4s-1.4.6-1.4,1.4.5,1.4,1.4,1.4.2,0,.3,0Z"/>
    <path class="st2" d="M262.4,127.5h1.3v2.9c0,.6.3,1,1,1s1-.4,1-1v-2.9h1.3v3c0,1.2-.7,2.1-2.3,2.1s-2.3-.9-2.3-2.1v-3Z"/>
    <path class="st2" d="M267.9,127.5h3.7v1.1h-2.4v.8h2.3v1.1h-2.3v.9h2.4v1.1h-3.7v-5Z"/>
    <path class="st2" d="M273.6,129.5v3h-1.3v-5h1.3l2,2.9v-2.9h1.3v5h-1.2l-2.1-3Z"/>
    <path class="st2" d="M279,128.7h-1.4v-1.1h4.1v1.1h-1.4v3.9h-1.3v-3.9Z"/>
  </g>
  <g>
    <path class="st2" d="M149.9,135.9l-1.3,3.4h-.6l-1.3-3.4v3.4h-1.3v-5h1.8l1,2.8,1-2.8h1.8v5h-1.3v-3.4Z"/>
    <path class="st2" d="M154.5,134.2c1.5,0,2.7,1.1,2.7,2.6s-1.1,2.6-2.7,2.6-2.7-1.1-2.7-2.6,1.1-2.6,2.7-2.6ZM154.5,135.4c-.8,0-1.4.6-1.4,1.4s.5,1.4,1.4,1.4,1.4-.6,1.4-1.4-.5-1.4-1.4-1.4Z"/>
    <path class="st2" d="M159.8,137.6h-.7v1.7h-1.3v-5h2.5c1.1,0,1.7.7,1.7,1.7s-.5,1.3-1,1.5l1,1.8h-1.5l-.8-1.7ZM160.1,135.4h-1v1.1h1c.3,0,.6-.2.6-.6s-.3-.6-.6-.6Z"/>
    <path class="st2" d="M162.8,134.3h3.7v1.1h-2.4v.8h2.3v1.1h-2.3v.9h2.4v1.1h-3.7v-5Z"/>
  </g>
  <g>
    <path class="st2" d="M136.1,141.8h1.3v5h-1.3v-5Z"/>
    <path class="st2" d="M139.6,143.8v3h-1.3v-5h1.3l2,2.9v-2.9h1.3v5h-1.2l-2.1-3Z"/>
    <path class="st2" d="M145,142.9h-1.4v-1.1h4.1v1.1h-1.4v3.9h-1.3v-3.9Z"/>
    <path class="st2" d="M148.3,141.8h3.7v1.1h-2.4v.8h2.3v1.1h-2.3v.9h2.4v1.1h-3.7v-5Z"/>
    <path class="st2" d="M154,143.8v3h-1.3v-5h1.3l2,2.9v-2.9h1.3v5h-1.2l-2.1-3Z"/>
    <path class="st2" d="M158.6,145.1c.4.4.9.7,1.6.7s.7-.2.7-.4-.3-.4-.9-.5c-.8-.2-2-.4-2-1.6s.7-1.6,2-1.6,1.5.2,2,.7l-.7.9c-.4-.3-1-.5-1.4-.5s-.6.2-.6.4.3.4.9.5c.8.2,2,.4,2,1.5s-.7,1.7-2.1,1.7-1.7-.3-2.2-.8l.7-1Z"/>
    <path class="st2" d="M162.8,141.8h3.7v1.1h-2.4v.8h2.3v1.1h-2.3v.9h2.4v1.1h-3.7v-5Z"/>
  </g>
  <path class="st2" d="M207.3,18.9c0-.3.2-.5.5-.5h0c.3,0,.5.2.5.5h0c0,.3-.2.5-.5.5h0c-.3,0-.5-.2-.5-.5Z"/>
  <path class="st2" d="M207.5,292.5c0-.3.2-.5.5-.5h0c.3,0,.5.2.5.5h0c0,.3-.2.5-.5.5h0c-.3,0-.5-.2-.5-.5Z"/>
</svg>