<?xml version="1.0" encoding="UTF-8"?>
<svg id="Layer_1" xmlns="http://www.w3.org/2000/svg" version="1.1" viewBox="0 0 467.29999 281.79999">
  <!-- Generator: Adobe Illustrator 29.7.1, SVG Export Plug-In . SVG Version: 2.1.1 Build 8)  -->
  <defs>
    <style>
      .st0 {
        fill: #00808d;
      }

      .st1 {
        fill: #fff;
      }

      .st2 {
        fill: #eb5f28;
      }

      .st3 {
        fill: #005059;
      }

      .st4 {
        fill: #00aabe;
      }
    </style>
  </defs>
  <polygon class="st3" points="338.29999 122.5 130.8 122.5 82.2 59.3 234.5 59.3 386.89999 59.3 338.29999 122.5"/>
  <polygon class="st0" points="157.3 159.8 133.2 125 336.29999 125 312.20001 159.8 287.5 195.39999 182 195.39999 157.3 159.8"/>
  <polygon class="st4" points="283.89999 199 234.5 275.39999 185.2 199 283.89999 199"/>
  <polygon class="st2" points="116.7 6.6 116.7 71.7 192.8 46.6 192.8 6.6 116.7 6.6"/>
  <polygon class="st2" points="280.70001 6.4 280.70001 71.1 356.89999 47 356.89999 6.4 280.70001 6.4"/>
  <polygon class="st2" points="198.7 6.6 198.7 71.7 274.89999 46.6 274.89999 6.6 198.7 6.6"/>
  <g>
    <path class="st1" d="M124.56715,22.0133h1.60366v7.53373h-1.60366v-7.53373Z"/>
    <path class="st1" d="M131.30977,26.24869c0-.75632-.39489-1.01601-1.0053-1.01601-.56423,0-1.00463.31591-1.24224.64387v3.67049h-1.43433v-5.4562h1.43433v.71214c.35005-.41765,1.01668-.84734,1.90887-.84734,1.19739,0,1.77367.67734,1.77367,1.7402v3.8512h-1.435v-3.29835Z"/>
    <path class="st1" d="M134.31496,27.82959c.39489.37347,1.2081.74561,1.88611.74561.62112,0,.91428-.21418.91428-.55285,0-.38418-.47387-.51938-1.09499-.64387-.9377-.18071-2.14647-.40694-2.14647-1.7054,0-.91561.8025-1.71745,2.23683-1.71745.92565,0,1.65988.31591,2.19065.74561l-.56423.98254c-.32796-.34938-.94908-.63183-1.61504-.63183-.52005,0-.85872.19142-.85872.50734,0,.33867.42903.46316,1.03944.58765.93703.18071,2.19065.4297,2.19065,1.78438,0,1.0053-.84668,1.75091-2.36065,1.75091-.94841,0-1.86335-.31591-2.43963-.84734l.62179-1.0053Z"/>
    <path class="st1" d="M139.83809,28.19102v-2.8459h-.90357v-1.25428h.90357v-1.48988h1.44571v1.48988h1.10704v1.25428h-1.10704v2.46172c0,.33867.18071.5997.49663.5997.21485,0,.41832-.08032.4973-.1593l.3052,1.08428c-.21485.19276-.59903.35072-1.19739.35072-1.0053,0-1.54744-.51938-1.54744-1.49122Z"/>
    <path class="st1" d="M143.37338,24.09084h1.43433v.74561c.38418-.48592,1.06219-.86876,1.73953-.86876v1.40019c-.10173-.02276-.23694-.03347-.39556-.03347-.47387,0-1.10637.25969-1.34397.60907v3.60356h-1.43433v-5.4562Z"/>
    <path class="st1" d="M151.12196,28.85765c-.3728.41765-1.02739.82459-1.91958.82459-1.19739,0-1.76229-.65458-1.76229-1.71745v-3.87396h1.43433v3.3104c0,.75632.39556,1.0053,1.0053,1.0053.55352,0,.99392-.3052,1.24224-.62246v-3.69324h1.43433v5.4562h-1.43433v-.68939Z"/>
    <path class="st1" d="M160.74528,26.10144c0-.50734-.22556-.86876-.81321-.86876-.50801,0-.92632.33867-1.12912.63183v3.68253h-1.44571v-3.4456c0-.50734-.22623-.86876-.81321-.86876-.4973,0-.91494.33867-1.12979.64387v3.67049h-1.43433v-5.4562h1.43433v.71214c.22623-.32796.94908-.84734,1.78438-.84734.8025,0,1.31051.37347,1.51398.99459.31591-.49797,1.03877-.99459,1.87473-.99459,1.0053,0,1.60366.53143,1.60366,1.64918v3.94223h-1.44571v-3.4456Z"/>
    <path class="st1" d="M166.07766,23.95564c1.62642,0,2.73346,1.21948,2.73346,3.00519v.31591h-4.05534c.09036.68805.64387,1.26499,1.5702,1.26499.50801,0,1.10704-.20347,1.45708-.54214l.6325.92632c-.55352.50734-1.40086.75632-2.24754.75632-1.66055,0-2.91417-1.11774-2.91417-2.86866,0-1.58091,1.16326-2.85795,2.82381-2.85795ZM164.73369,26.30491h2.68794c-.03413-.51938-.39556-1.20877-1.34397-1.20877-.89219,0-1.27637.66663-1.34397,1.20877Z"/>
    <path class="st1" d="M173.53174,26.24869c0-.75632-.39489-1.01601-1.00463-1.01601-.5649,0-1.0053.31591-1.24291.64387v3.67049h-1.43433v-5.4562h1.43433v.71214c.35005-.41765,1.01668-.84734,1.90887-.84734,1.19739,0,1.773.67734,1.773,1.7402v3.8512h-1.43433v-3.29835Z"/>
    <path class="st1" d="M176.67281,28.19102v-2.8459h-.90357v-1.25428h.90357v-1.48988h1.44571v1.48988h1.10704v1.25428h-1.10704v2.46172c0,.33867.18071.5997.49663.5997.21485,0,.41832-.08032.4973-.1593l.3052,1.08428c-.21485.19276-.59903.35072-1.19739.35072-1.0053,0-1.54744-.51938-1.54744-1.49122Z"/>
    <path class="st1" d="M180.35534,27.82959c.39489.37347,1.2081.74561,1.88611.74561.62112,0,.91428-.21418.91428-.55285,0-.38418-.47387-.51938-1.09499-.64387-.9377-.18071-2.14647-.40694-2.14647-1.7054,0-.91561.8025-1.71745,2.23683-1.71745.92565,0,1.65988.31591,2.19065.74561l-.56423.98254c-.32796-.34938-.94908-.63183-1.61504-.63183-.52005,0-.85872.19142-.85872.50734,0,.33867.42903.46316,1.03944.58765.93703.18071,2.19065.4297,2.19065,1.78438,0,1.0053-.84668,1.75091-2.36065,1.75091-.94841,0-1.86335-.31591-2.43963-.84734l.62179-1.0053Z"/>
  </g>
  <g>
    <path class="st1" d="M209.00338,22.0133h1.60366v7.53373h-1.60366v-7.53373Z"/>
    <path class="st1" d="M215.746,26.24869c0-.75632-.39489-1.01601-1.00463-1.01601-.5649,0-1.0053.31591-1.24291.64387v3.67049h-1.43433v-5.4562h1.43433v.71214c.35005-.41765,1.01668-.84734,1.90887-.84734,1.19739,0,1.773.67734,1.773,1.7402v3.8512h-1.43433v-3.29835Z"/>
    <path class="st1" d="M218.75052,27.82959c.39556.37347,1.20877.74561,1.88678.74561.62045,0,.91494-.21418.91494-.55285,0-.38418-.47521-.51938-1.09566-.64387-.9377-.18071-2.14647-.40694-2.14647-1.7054,0-.91561.80183-1.71745,2.23683-1.71745.92498,0,1.65988.31591,2.18998.74561l-.56356.98254c-.32796-.34938-.94908-.63183-1.61571-.63183-.51938,0-.85805.19142-.85805.50734,0,.33867.42903.46316,1.03877.58765.93703.18071,2.19132.4297,2.19132,1.78438,0,1.0053-.84734,1.75091-2.36065,1.75091-.94841,0-1.86335-.31591-2.43963-.84734l.62112-1.0053Z"/>
    <path class="st1" d="M224.27365,28.19102v-2.8459h-.90357v-1.25428h.90357v-1.48988h1.44571v1.48988h1.10704v1.25428h-1.10704v2.46172c0,.33867.18071.5997.49797.5997.21418,0,.41765-.08032.49663-.1593l.3052,1.08428c-.21552.19276-.5997.35072-1.19806.35072-1.0053,0-1.54744-.51938-1.54744-1.49122Z"/>
    <path class="st1" d="M227.66303,22.43095c0-.47387.39489-.85805.85805-.85805.47387,0,.85805.38418.85805.85805s-.38418.85805-.85805.85805c-.46316,0-.85805-.38418-.85805-.85805ZM227.80894,24.09084h1.435v5.4562h-1.435v-5.4562Z"/>
    <path class="st1" d="M230.94933,28.19102v-2.8459h-.90357v-1.25428h.90357v-1.48988h1.44571v1.48988h1.10704v1.25428h-1.10704v2.46172c0,.33867.18071.5997.49797.5997.21418,0,.41765-.08032.49663-.1593l.3052,1.08428c-.21552.19276-.5997.35072-1.19806.35072-1.0053,0-1.54744-.51938-1.54744-1.49122Z"/>
    <path class="st1" d="M238.16716,28.85765c-.37214.41765-1.02806.82459-1.91958.82459-1.19806,0-1.76296-.65458-1.76296-1.71745v-3.87396h1.435v3.3104c0,.75632.39489,1.0053,1.0053,1.0053.55285,0,.99325-.3052,1.24224-.62246v-3.69324h1.435v5.4562h-1.435v-.68939Z"/>
    <path class="st1" d="M241.30889,28.19102v-2.8459h-.9049v-1.25428h.9049v-1.48988h1.44571v1.48988h1.1057v1.25428h-1.1057v2.46172c0,.33867.17937.5997.49663.5997.21418,0,.41765-.08032.49663-.1593l.3052,1.08428c-.21418.19276-.59836.35072-1.19806.35072-1.0053,0-1.5461-.51938-1.5461-1.49122Z"/>
    <path class="st1" d="M244.69693,22.43095c0-.47387.39489-.85805.85805-.85805.47387,0,.85805.38418.85805.85805s-.38418.85805-.85805.85805c-.46316,0-.85805-.38418-.85805-.85805ZM244.84418,24.09084h1.43366v5.4562h-1.43366v-5.4562Z"/>
    <path class="st1" d="M247.3514,26.81358c0-1.54744,1.08428-2.85795,2.8807-2.85795,1.80713,0,2.89141,1.31051,2.89141,2.85795,0,1.55815-1.08428,2.86866-2.89141,2.86866-1.79642,0-2.8807-1.31051-2.8807-2.86866ZM251.6323,26.81358c0-.84734-.50867-1.58091-1.40019-1.58091-.89286,0-1.38948.73356-1.38948,1.58091,0,.85805.49663,1.59295,1.38948,1.59295.89152,0,1.40019-.7349,1.40019-1.59295Z"/>
    <path class="st1" d="M257.86624,26.24869c0-.75632-.39489-1.01601-1.0053-1.01601-.5649,0-1.0053.31591-1.24224.64387v3.67049h-1.43366v-5.4562h1.43366v.71214c.35072-.41765,1.01735-.84734,1.90887-.84734,1.19672,0,1.77367.67734,1.77367,1.7402v3.8512h-1.435v-3.29835Z"/>
    <path class="st1" d="M260.87143,27.82959c.39623.37347,1.20877.74561,1.88611.74561.62112,0,.91561-.21418.91561-.55285,0-.38418-.47521-.51938-1.09633-.64387-.93703-.18071-2.1458-.40694-2.1458-1.7054,0-.91561.80183-1.71745,2.23683-1.71745.92632,0,1.65988.31591,2.19132.74561l-.5649.98254c-.32796-.34938-.94908-.63183-1.61571-.63183-.51938,0-.85805.19142-.85805.50734,0,.33867.4297.46316,1.03877.58765.93837.18071,2.19132.4297,2.19132,1.78438,0,1.0053-.84734,1.75091-2.35998,1.75091-.94908,0-1.86469-.31591-2.4403-.84734l.62112-1.0053Z"/>
  </g>
  <g>
    <path class="st1" d="M284.51335,22.0133h1.60366v7.53373h-1.60366v-7.53373Z"/>
    <path class="st1" d="M291.25596,26.24869c0-.75632-.39489-1.01601-1.0053-1.01601-.5649,0-1.0053.31591-1.24224.64387v3.67049h-1.43366v-5.4562h1.43366v.71214c.35072-.41765,1.01735-.84734,1.90887-.84734,1.19672,0,1.77367.67734,1.77367,1.7402v3.8512h-1.435v-3.29835Z"/>
    <path class="st1" d="M294.43116,25.34512h-.90357v-1.25428h.90357v-.29316c0-1.18601.76837-1.89682,1.8406-1.89682.40694,0,.77907.08969,1.03877.22489l-.29316,1.01735c-.12449-.07898-.29316-.11378-.46316-.11378-.40694,0-.67734.27174-.67734.79112v.2704h1.10704v1.25428h-1.10704v4.20192h-1.44571v-4.20192Z"/>
    <path class="st1" d="M297.80849,24.09084h1.43366v.74561c.38418-.48592,1.06152-.86876,1.73886-.86876v1.40019c-.1004-.02276-.23694-.03347-.39489-.03347-.47387,0-1.10704.25969-1.34397.60907v3.60356h-1.43366v-5.4562Z"/>
    <path class="st1" d="M305.14946,28.98214c-.37214.4404-1.01601.7001-1.72682.7001-.8701,0-1.89816-.58765-1.89816-1.80713,0-1.2757,1.02806-1.73886,1.89816-1.73886.72285,0,1.36539.22489,1.72682.66529v-.75632c0-.55285-.47387-.91428-1.19672-.91428-.58765,0-1.12979.21418-1.59295.64387l-.54214-.96113c.66663-.58631,1.52468-.85805,2.38408-.85805,1.24224,0,2.38274.49663,2.38274,2.06682v3.52458h-1.435v-.5649ZM305.14946,27.55919c-.23694-.31725-.68805-.47521-1.15121-.47521-.5649,0-1.02806.3052-1.02806.82459,0,.50867.46316.80183,1.02806.80183.46316,0,.91428-.15796,1.15121-.47387v-.67734Z"/>
    <path class="st1" d="M308.15465,27.82959c.39623.37347,1.20877.74561,1.88611.74561.62112,0,.91561-.21418.91561-.55285,0-.38418-.47521-.51938-1.09633-.64387-.93703-.18071-2.1458-.40694-2.1458-1.7054,0-.91561.80183-1.71745,2.23683-1.71745.92632,0,1.65988.31591,2.19132.74561l-.5649.98254c-.32796-.34938-.94908-.63183-1.61571-.63183-.51938,0-.85805.19142-.85805.50734,0,.33867.4297.46316,1.03877.58765.93837.18071,2.19132.4297,2.19132,1.78438,0,1.0053-.84734,1.75091-2.35998,1.75091-.94908,0-1.86335-.31591-2.4403-.84734l.62112-1.0053Z"/>
    <path class="st1" d="M313.67645,28.19102v-2.8459h-.90223v-1.25428h.90223v-1.48988h1.44571v1.48988h1.10704v1.25428h-1.10704v2.46172c0,.33867.18205.5997.49797.5997.21418,0,.41765-.08032.49663-.1593l.3052,1.08428c-.21552.19276-.59836.35072-1.19806.35072-1.00396,0-1.54744-.51938-1.54744-1.49122Z"/>
    <path class="st1" d="M317.21441,24.09084h1.43366v.74561c.38418-.48592,1.06152-.86876,1.7402-.86876v1.40019c-.10173-.02276-.23827-.03347-.39623-.03347-.47387,0-1.10704.25969-1.34397.60907v3.60356h-1.43366v-5.4562Z"/>
    <path class="st1" d="M324.96099,28.85765c-.37214.41765-1.02806.82459-1.91958.82459-1.19806,0-1.76162-.65458-1.76162-1.71745v-3.87396h1.43366v3.3104c0,.75632.39489,1.0053,1.0053,1.0053.55419,0,.99459-.3052,1.24224-.62246v-3.69324h1.435v5.4562h-1.435v-.68939Z"/>
    <path class="st1" d="M330.36097,23.95564c1.11774,0,1.79642.48592,2.15785.99459l-.93837.86876c-.25969-.37214-.65458-.58631-1.15121-.58631-.8701,0-1.48051.63183-1.48051,1.58091s.61041,1.59295,1.48051,1.59295c.49663,0,.89152-.22623,1.15121-.58765l.93837.86876c-.36143.50867-1.04011.99459-2.15785.99459-1.68264,0-2.89141-1.18601-2.89141-2.86866,0-1.67193,1.20877-2.85795,2.89141-2.85795Z"/>
    <path class="st1" d="M333.73963,28.19102v-2.8459h-.9049v-1.25428h.9049v-1.48988h1.44571v1.48988h1.1057v1.25428h-1.1057v2.46172c0,.33867.17937.5997.49663.5997.21418,0,.41765-.08032.49663-.1593l.3052,1.08428c-.21418.19276-.59836.35072-1.19806.35072-1.0053,0-1.5461-.51938-1.5461-1.49122Z"/>
    <path class="st1" d="M340.95612,28.85765c-.37214.41765-1.02806.82459-1.91958.82459-1.19806,0-1.76162-.65458-1.76162-1.71745v-3.87396h1.43366v3.3104c0,.75632.39489,1.0053,1.0053,1.0053.55285,0,.99459-.3052,1.24224-.62246v-3.69324h1.435v5.4562h-1.435v-.68939Z"/>
    <path class="st1" d="M343.81406,24.09084h1.43366v.74561c.38418-.48592,1.06152-.86876,1.73886-.86876v1.40019c-.1004-.02276-.23694-.03347-.39489-.03347-.47387,0-1.10704.25969-1.34397.60907v3.60356h-1.43366v-5.4562Z"/>
    <path class="st1" d="M350.3532,23.95564c1.62642,0,2.73346,1.21948,2.73346,3.00519v.31591h-4.05467c.09103.68805.64387,1.26499,1.5702,1.26499.50867,0,1.10704-.20347,1.45641-.54214l.63317.92632c-.55419.50734-1.40019.75632-2.24754.75632-1.65988,0-2.91417-1.11774-2.91417-2.86866,0-1.58091,1.16326-2.85795,2.82314-2.85795ZM349.00923,26.30491h2.68794c-.03347-.51938-.39489-1.20877-1.34397-1.20877-.89152,0-1.2757.66663-1.34397,1.20877Z"/>
  </g>
  <g>
    <path class="st1" d="M172.15117,89.30705h3.52391c1.6378,0,2.52999,1.10704,2.52999,2.42825,0,1.31051-.90357,2.40683-2.52999,2.40683h-1.92025v2.69865h-1.60366v-7.53373ZM175.46023,90.68583h-1.7054v2.07753h1.7054c.6325,0,1.10704-.4056,1.10704-1.03877,0-.62112-.47454-1.03877-1.10704-1.03877Z"/>
    <path class="st1" d="M179.16552,91.38593h1.43433v.74561c.38418-.48592,1.06152-.8701,1.73953-.8701v1.40019c-.10173-.02276-.23694-.03347-.39556-.03347-.47387,0-1.10637.25969-1.34397.61041v3.60222h-1.43433v-5.45486Z"/>
    <path class="st1" d="M185.70533,91.25073c1.62642,0,2.73346,1.21948,2.73346,3.00386v.31591h-4.05534c.09036.68939.64387,1.26499,1.5702,1.26499.50801,0,1.10704-.20347,1.45708-.54214l.6325.92632c-.55352.50867-1.40086.75632-2.24754.75632-1.66055,0-2.91417-1.11774-2.91417-2.86866,0-1.58091,1.16326-2.85661,2.82381-2.85661ZM184.36136,93.6h2.68794c-.03413-.51938-.39556-1.20877-1.34397-1.20877-.89219,0-1.27637.66663-1.34397,1.20877Z"/>
    <path class="st1" d="M189.47822,98.91966v-7.53373h1.43433v.68939c.41832-.53143,1.01668-.82459,1.68331-.82459,1.40019,0,2.41687,1.03877,2.41687,2.85661,0,1.81918-1.01668,2.86866-2.41687,2.86866-.64387,0-1.24291-.2704-1.68331-.8353v2.77897h-1.43433ZM192.14407,92.52643c-.46316,0-.99392.27174-1.23153.62112v1.93162c.2376.33867.76837.62112,1.23153.62112.82459,0,1.37744-.64387,1.37744-1.59295,0-.93703-.55285-1.58091-1.37744-1.58091Z"/>
    <path class="st1" d="M199.36123,96.27589c-.3728.4404-1.01668.7001-1.72815.7001-.86943,0-1.89749-.58631-1.89749-1.80713,0-1.2757,1.02806-1.73886,1.89749-1.73886.72285,0,1.36673.22623,1.72815.66663v-.75632c0-.55419-.47454-.91561-1.19739-.91561-.58698,0-1.12912.21418-1.59228.64387l-.54214-.95979c.66596-.58765,1.52468-.85805,2.38274-.85805,1.24291,0,2.38341.49663,2.38341,2.06682v3.52324h-1.43433v-.5649ZM199.36123,94.85294c-.2376-.31591-.68872-.47387-1.15188-.47387-.5649,0-1.02806.3052-1.02806.82459,0,.50734.46316.80183,1.02806.80183.46316,0,.91428-.15796,1.15188-.47521v-.67734Z"/>
    <path class="st1" d="M202.21917,91.38593h1.43433v.74561c.38418-.48592,1.06152-.8701,1.73953-.8701v1.40019c-.10173-.02276-.23694-.03347-.39556-.03347-.47387,0-1.10637.25969-1.34397.61041v3.60222h-1.43433v-5.45486Z"/>
    <path class="st1" d="M208.75965,91.25073c1.62642,0,2.73279,1.21948,2.73279,3.00386v.31591h-4.05467c.09036.68939.64387,1.26499,1.5702,1.26499.50801,0,1.10704-.20347,1.45708-.54214l.6325.92632c-.55352.50867-1.40086.75632-2.24754.75632-1.66055,0-2.91417-1.11774-2.91417-2.86866,0-1.58091,1.16326-2.85661,2.82381-2.85661ZM207.41568,93.6h2.68794c-.03413-.51938-.39556-1.20877-1.34397-1.20877-.89219,0-1.27637.66663-1.34397,1.20877Z"/>
    <path class="st1" d="M215.73987,92.63887h-.90357v-1.25295h.90357v-.29316c0-1.18601.7677-1.89816,1.8406-1.89816.40694,0,.77974.09103,1.03944.22623l-.29383,1.01601c-.12449-.07898-.29383-.11244-.46316-.11244-.40627,0-.67734.2704-.67734.78978v.27174h1.10637v1.25295h-1.10637v4.20192h-1.44571v-4.20192Z"/>
    <path class="st1" d="M218.76715,94.10733c0-1.54744,1.08428-2.85661,2.88003-2.85661,1.80713,0,2.89141,1.30917,2.89141,2.85661,0,1.55949-1.08428,2.86866-2.89141,2.86866-1.79575,0-2.88003-1.30917-2.88003-2.86866ZM223.04738,94.10733c0-.84601-.50867-1.58091-1.40019-1.58091-.89219,0-1.38948.7349-1.38948,1.58091,0,.85939.4973,1.59295,1.38948,1.59295.89152,0,1.40019-.73356,1.40019-1.59295Z"/>
    <path class="st1" d="M225.60012,91.38593h1.435v.74561c.38418-.48592,1.06152-.8701,1.73886-.8701v1.40019c-.10173-.02276-.23694-.03347-.39489-.03347-.47387,0-1.10704.25969-1.34397.61041v3.60222h-1.435v-5.45486Z"/>
    <path class="st1" d="M232.8407,95.48611v-2.84724h-.90357v-1.25295h.90357v-1.49122h1.44571v1.49122h1.10704v1.25295h-1.10704v2.46305c0,.33867.18071.59836.49797.59836.21418,0,.41765-.07898.49663-.15796l.3052,1.08428c-.21552.19142-.5997.34938-1.19806.34938-1.0053,0-1.54744-.51938-1.54744-1.48988Z"/>
    <path class="st1" d="M240.07057,93.52102c0-.75766-.39623-.99459-1.01735-.99459-.55285,0-.99325.31591-1.24224.64387v3.67049h-1.435v-7.53373h1.435v2.78968c.34938-.41765,1.02806-.84601,1.91958-.84601,1.19806,0,1.77367.65458,1.77367,1.71611v3.87396h-1.43366v-3.31977Z"/>
    <path class="st1" d="M245.40094,91.25073c1.62642,0,2.73346,1.21948,2.73346,3.00386v.31591h-4.05467c.09103.68939.64387,1.26499,1.5702,1.26499.50867,0,1.10704-.20347,1.45641-.54214l.63317.92632c-.55419.50867-1.40019.75632-2.24754.75632-1.65988,0-2.91417-1.11774-2.91417-2.86866,0-1.58091,1.16326-2.85661,2.82314-2.85661ZM244.05697,93.6h2.68794c-.03347-.51938-.39489-1.20877-1.34397-1.20877-.89152,0-1.2757.66663-1.34397,1.20877Z"/>
    <path class="st1" d="M255.7471,96.15274c-.37214.41765-1.02806.82325-1.91958.82325-1.19806,0-1.76162-.65458-1.76162-1.71611v-3.87396h1.43366v3.30906c0,.75632.39489,1.0053,1.0053,1.0053.55419,0,.99459-.3052,1.24224-.62112v-3.69324h1.435v5.45486h-1.435v-.68805Z"/>
    <path class="st1" d="M262.28759,93.54244c0-.75632-.39489-1.01601-1.0053-1.01601-.5649,0-1.0053.31591-1.24224.64387v3.67049h-1.43366v-5.45486h1.43366v.71081c.35072-.41765,1.01601-.84601,1.90887-.84601,1.19672,0,1.77367.67734,1.77367,1.73886v3.8512h-1.435v-3.29835Z"/>
    <path class="st1" d="M267.23511,94.7405l-.65458.7001v1.40019h-1.43366v-7.53373h1.43366v4.50712l2.06682-2.42825h1.76162l-2.15651,2.47376,2.22478,2.9811h-1.79642l-1.44571-2.10029Z"/>
    <path class="st1" d="M274.87058,93.54244c0-.75632-.39489-1.01601-1.0053-1.01601-.5649,0-1.0053.31591-1.24224.64387v3.67049h-1.43366v-5.45486h1.43366v.71081c.35072-.41765,1.01601-.84601,1.90887-.84601,1.19672,0,1.77367.67734,1.77367,1.73886v3.8512h-1.435v-3.29835Z"/>
    <path class="st1" d="M277.37915,94.10733c0-1.54744,1.08428-2.85661,2.8807-2.85661,1.80713,0,2.89141,1.30917,2.89141,2.85661,0,1.55949-1.08428,2.86866-2.89141,2.86866-1.79642,0-2.8807-1.30917-2.8807-2.86866ZM281.66005,94.10733c0-.84601-.50867-1.58091-1.40019-1.58091-.89286,0-1.38948.7349-1.38948,1.58091,0,.85939.49663,1.59295,1.38948,1.59295.89152,0,1.40019-.73356,1.40019-1.59295Z"/>
    <path class="st1" d="M287.84847,93.12479l-1.15121,3.716h-1.53673l-1.65988-5.45486h1.49122l1.01601,3.67049,1.19672-3.67049h1.27704l1.19672,3.67049,1.01735-3.67049h1.48988l-1.65988,5.45486h-1.52468l-1.15255-3.716Z"/>
    <path class="st1" d="M296.58027,93.54244c0-.75632-.39489-1.01601-1.0053-1.01601-.5649,0-1.0053.31591-1.24224.64387v3.67049h-1.43366v-5.45486h1.43366v.71081c.35072-.41765,1.01601-.84601,1.90887-.84601,1.19672,0,1.77367.67734,1.77367,1.73886v3.8512h-1.435v-3.29835Z"/>
  </g>
  <g>
    <path class="st1" d="M216.17994,159.91213h-1.17464v2.69999h-1.60366v-7.53373h3.52391c1.56953,0,2.52999,1.02806,2.52999,2.42825,0,1.33326-.83597,2.04407-1.64918,2.23683l1.69402,2.86866h-1.8406l-1.47984-2.69999ZM216.68794,156.45582h-1.68264v2.07887h1.68264c.64387,0,1.12979-.40694,1.12979-1.03877,0-.63317-.48592-1.04011-1.12979-1.04011Z"/>
    <path class="st1" d="M222.77597,157.02072c1.62642,0,2.73346,1.21948,2.73346,3.00519v.31591h-4.05467c.08969.68805.64387,1.26499,1.5702,1.26499.50734,0,1.10704-.20347,1.45641-.54214l.63317.92632c-.55419.50734-1.40153.75632-2.24754.75632-1.66122,0-2.91417-1.11774-2.91417-2.86866,0-1.58091,1.16326-2.85795,2.82314-2.85795ZM221.432,159.36999h2.68794c-.03347-.51938-.39489-1.20877-1.34397-1.20877-.89152,0-1.2757.66663-1.34397,1.20877Z"/>
    <path class="st1" d="M226.69678,160.89468c.39489.37347,1.20743.74561,1.88611.74561.62112,0,.91428-.21418.91428-.55285,0-.38418-.47387-.51938-1.09499-.64387-.93837-.18071-2.14714-.40694-2.14714-1.7054,0-.91561.80317-1.71745,2.23683-1.71745.92632,0,1.65988.31591,2.19132.74561l-.5649.98254c-.32796-.34938-.94908-.63183-1.61437-.63183-.52072,0-.85939.19142-.85939.50734,0,.33867.4297.46316,1.04011.58765.93703.18071,2.18998.4297,2.18998,1.78438,0,1.0053-.84601,1.75091-2.35998,1.75091-.94908,0-1.86335-.31591-2.4403-.84734l.62246-1.0053Z"/>
    <path class="st1" d="M231.93747,164.68966v-7.53373h1.43366v.68939c.41899-.53009,1.01735-.82459,1.68398-.82459,1.40019,0,2.4162,1.03877,2.4162,2.85795,0,1.81784-1.01601,2.86866-2.4162,2.86866-.64387,0-1.24357-.27174-1.68398-.8353v2.77763h-1.43366ZM234.60265,158.29776c-.46316,0-.99325.2704-1.23153.62112v1.93029c.23827.34001.76837.62246,1.23153.62246.82459,0,1.37744-.64387,1.37744-1.59295,0-.93703-.55285-1.58091-1.37744-1.58091Z"/>
    <path class="st1" d="M238.19416,159.87867c0-1.54744,1.08428-2.85795,2.8807-2.85795,1.80713,0,2.89141,1.31051,2.89141,2.85795,0,1.55815-1.08428,2.86866-2.89141,2.86866-1.79642,0-2.8807-1.31051-2.8807-2.86866ZM242.47506,159.87867c0-.84734-.50734-1.58091-1.40019-1.58091-.89152,0-1.38948.73356-1.38948,1.58091,0,.85805.49797,1.59295,1.38948,1.59295.89286,0,1.40019-.7349,1.40019-1.59295Z"/>
    <path class="st1" d="M248.71033,159.31377c0-.75632-.39489-1.01601-1.0053-1.01601-.5649,0-1.0053.31591-1.24224.64387v3.67049h-1.43366v-5.4562h1.43366v.71214c.35072-.41765,1.01601-.84734,1.90887-.84734,1.19672,0,1.77367.67734,1.77367,1.7402v3.8512h-1.435v-3.29835Z"/>
    <path class="st1" d="M255.31908,161.92274c-.4297.53143-1.02806.82459-1.68264.82459-1.37878,0-2.41754-1.03877-2.41754-2.85795,0-1.78438,1.02806-2.86866,2.41754-2.86866.64387,0,1.25295.28245,1.68264.83664v-2.77897h1.44571v7.53373h-1.44571v-.68939ZM255.31908,158.91888c-.24898-.36143-.75632-.62112-1.24224-.62112-.81388,0-1.37878.64387-1.37878,1.59162,0,.93837.5649,1.58224,1.37878,1.58224.48592,0,.99325-.26103,1.24224-.62246v-1.93029Z"/>
  </g>
  <g>
    <g>
      <path class="st1" d="M215.59831,212.00311h-1.17464v2.69865h-1.60366v-7.53373h3.52391c1.56953,0,2.52999,1.02806,2.52999,2.42825,0,1.33326-.83597,2.04541-1.64918,2.23683l1.69402,2.86866h-1.8406l-1.47984-2.69865ZM216.10632,208.5468h-1.68264v2.07753h1.68264c.64387,0,1.12979-.4056,1.12979-1.03877,0-.63183-.48592-1.03877-1.12979-1.03877Z"/>
      <path class="st1" d="M222.19434,209.1117c1.62642,0,2.73346,1.21948,2.73346,3.00386v.31591h-4.05467c.09036.68939.64387,1.26499,1.5702,1.26499.50734,0,1.10704-.20347,1.45641-.54214l.63317.92632c-.55419.50867-1.40153.75632-2.24754.75632-1.66055,0-2.91417-1.11774-2.91417-2.86866,0-1.58091,1.16326-2.85661,2.82314-2.85661ZM220.85104,211.46097h2.68727c-.03347-.51938-.39489-1.20877-1.34397-1.20877-.89152,0-1.2757.66663-1.3433,1.20877Z"/>
      <path class="st1" d="M225.9679,207.16803h1.43366v2.77897c.4297-.55285,1.04011-.8353,1.68398-.8353,1.38815,0,2.4162,1.08428,2.4162,2.86866,0,1.81784-1.03877,2.85661-2.4162,2.85661-.65592,0-1.25428-.29316-1.68398-.82325v.68805h-1.43366v-7.53373ZM228.63309,213.56126c.8353,0,1.38948-.63183,1.38948-1.58091s-.55419-1.59295-1.38948-1.59295c-.46316,0-.99325.27174-1.23153.63317v1.93029c.23827.35072.76837.61041,1.23153.61041Z"/>
      <path class="st1" d="M232.23665,211.96831c0-1.54744,1.08428-2.85661,2.87936-2.85661,1.80713,0,2.89141,1.30917,2.89141,2.85661,0,1.55949-1.08428,2.86866-2.89141,2.86866-1.79508,0-2.87936-1.30917-2.87936-2.86866ZM236.51754,211.96831c0-.84601-.50867-1.58091-1.40153-1.58091-.89152,0-1.38815.7349-1.38815,1.58091,0,.85939.49663,1.59295,1.38815,1.59295.89286,0,1.40153-.73356,1.40153-1.59295Z"/>
      <path class="st1" d="M242.75282,214.01371c-.37347.41765-1.02806.82325-1.92091.82325-1.19672,0-1.76162-.65458-1.76162-1.71611v-3.87396h1.435v3.30906c0,.75632.39489,1.0053,1.0053,1.0053.55285,0,.99325-.3052,1.24224-.62112v-3.69324h1.43366v5.45486h-1.43366v-.68805Z"/>
      <path class="st1" d="M249.29196,211.40341c0-.75632-.39489-1.01601-1.0053-1.01601-.5649,0-1.0053.31591-1.24224.64387v3.67049h-1.43366v-5.45486h1.43366v.71081c.35072-.41765,1.01601-.84601,1.90887-.84601,1.19672,0,1.77367.67734,1.77367,1.73886v3.8512h-1.435v-3.29835Z"/>
      <path class="st1" d="M255.90071,214.01371c-.4297.53009-1.02806.82325-1.68264.82325-1.37878,0-2.41754-1.03877-2.41754-2.85661,0-1.78438,1.02806-2.86866,2.41754-2.86866.64387,0,1.25295.28245,1.68264.8353v-2.77897h1.44571v7.53373h-1.44571v-.68805ZM255.90071,211.00852c-.24898-.36143-.75632-.62112-1.24224-.62112-.81388,0-1.37878.64387-1.37878,1.59295,0,.93703.5649,1.58091,1.37878,1.58091.48592,0,.99325-.25969,1.24224-.62112v-1.93162Z"/>
    </g>
    <g>
      <path class="st1" d="M229.40146,225.43345c-.37347.4404-1.01735.7001-1.72815.7001-.8701,0-1.89816-.58765-1.89816-1.80713,0-1.2757,1.02806-1.73886,1.89816-1.73886.72285,0,1.36673.22489,1.72815.66529v-.75632c0-.55285-.47521-.91428-1.19806-.91428-.58631,0-1.12845.21418-1.59162.64387l-.54214-.96113c.66529-.58631,1.52468-.85805,2.38274-.85805,1.24224,0,2.38274.49663,2.38274,2.06682v3.52458h-1.43366v-.5649ZM229.40146,224.0105c-.23694-.31725-.68939-.47521-1.15255-.47521-.5649,0-1.02806.3052-1.02806.82459,0,.50867.46316.80183,1.02806.80183.46316,0,.91561-.15796,1.15255-.47387v-.67734Z"/>
      <path class="st1" d="M235.9406,222.7c0-.75632-.39489-1.01601-1.00396-1.01601-.5649,0-1.0053.31591-1.24357.64387v3.67049h-1.43366v-5.4562h1.43366v.71214c.35072-.41765,1.01735-.84734,1.90887-.84734,1.19806,0,1.77367.67734,1.77367,1.7402v3.8512h-1.435v-3.29835Z"/>
      <path class="st1" d="M242.54935,225.30896c-.4297.53143-1.02806.82459-1.68264.82459-1.37878,0-2.41754-1.03877-2.41754-2.85795,0-1.78438,1.02806-2.86866,2.41754-2.86866.64387,0,1.25295.28245,1.68264.83664v-2.77897h1.44571v7.53373h-1.44571v-.68939ZM242.54935,222.30511c-.24898-.36143-.75632-.62112-1.24224-.62112-.81388,0-1.37878.64387-1.37878,1.59162,0,.93837.5649,1.58224,1.37878,1.58224.48592,0,.99325-.26103,1.24224-.62246v-1.93029Z"/>
    </g>
    <g>
      <path class="st1" d="M216.86397,233.09168h-.90357v-1.25428h.90357v-.29316c0-1.18601.7677-1.89682,1.8406-1.89682.40694,0,.77974.08969,1.03944.22489l-.29383,1.04011c-.11311-.08032-.27107-.13654-.46316-.13654-.40627,0-.67734.27174-.67734.76837v.29316h1.10637v1.25428h-1.10637v4.20192h-1.44571v-4.20192ZM220.24063,229.75986h1.43433v7.53373h-1.43433v-7.53373Z"/>
      <path class="st1" d="M222.74853,234.56014c0-1.54744,1.08428-2.85795,2.87936-2.85795,1.80713,0,2.89141,1.31051,2.89141,2.85795,0,1.55815-1.08428,2.86866-2.89141,2.86866-1.79508,0-2.87936-1.31051-2.87936-2.86866ZM227.02943,234.56014c0-.84734-.50867-1.58091-1.40153-1.58091-.89152,0-1.38815.73356-1.38815,1.58091,0,.85805.49663,1.59295,1.38815,1.59295.89286,0,1.40153-.7349,1.40153-1.59295Z"/>
      <path class="st1" d="M233.26336,236.60421c-.37214.41765-1.02672.82459-1.91958.82459-1.19672,0-1.76162-.65458-1.76162-1.71745v-3.87396h1.43366v3.3104c0,.75632.39623,1.0053,1.0053,1.0053.55419,0,.99459-.3052,1.24224-.62246v-3.69324h1.435v5.4562h-1.435v-.68939Z"/>
      <path class="st1" d="M236.12131,231.83739h1.435v.74561c.38418-.48592,1.06152-.86876,1.73886-.86876v1.40019c-.10173-.02276-.23694-.03347-.39489-.03347-.47387,0-1.10704.25969-1.34397.60907v3.60356h-1.435v-5.4562Z"/>
      <path class="st1" d="M240.04212,230.17751c0-.47387.39489-.85805.85805-.85805.47521,0,.85805.38418.85805.85805s-.38284.85805-.85805.85805c-.46316,0-.85805-.38418-.85805-.85805ZM240.18937,231.83739h1.43366v5.4562h-1.43366v-5.4562Z"/>
      <path class="st1" d="M243.19322,235.57615c.39623.37347,1.20877.74561,1.88611.74561.62112,0,.91561-.21418.91561-.55285,0-.38418-.47521-.51938-1.09633-.64387-.93703-.18071-2.1458-.40694-2.1458-1.7054,0-.91561.80183-1.71745,2.23683-1.71745.92632,0,1.65988.31591,2.19132.74561l-.5649.98254c-.32796-.34938-.94908-.63183-1.61571-.63183-.51938,0-.85805.19142-.85805.50734,0,.33867.4297.46316,1.03877.58765.93837.18071,2.19132.4297,2.19132,1.78438,0,1.0053-.84734,1.75091-2.35998,1.75091-.94908,0-1.86469-.31591-2.4403-.84734l.62112-1.0053Z"/>
      <path class="st1" d="M252.12849,233.97249c0-.75632-.39623-.99325-1.01735-.99325-.55285,0-.99325.31591-1.24224.64387v3.67049h-1.43366v-7.53373h1.43366v2.78968c.35072-.41765,1.02806-.84734,1.92091-.84734,1.19672,0,1.77233.65592,1.77233,1.71745v3.87396h-1.43366v-3.32111Z"/>
    </g>
  </g>
</svg>