<?xml version="1.0" encoding="UTF-8"?>
<svg id="Layer_1" data-name="Layer 1" xmlns="http://www.w3.org/2000/svg" viewBox="0 0 419.8 298.92">
  <defs>
    <style>
      .cls-1 {
        fill: #008892;
      }

      .cls-2 {
        fill: #fff;
      }

      .cls-3 {
        fill: #808285;
      }

      .cls-4 {
        fill: #00b4c2;
      }

      .cls-5 {
        fill: #00555c;
      }

      .cls-6 {
        fill: #f26a36;
      }
    </style>
  </defs>
  <g>
    <g>
      <path class="cls-2" d="M207.54,292.15c75.53,0,136.76-61.23,136.76-136.76S283.07,18.64,207.54,18.64,70.79,79.87,70.79,155.4s61.23,136.76,136.76,136.76"/>
      <path class="cls-6" d="M210.06,292.13c-.01-.28.22-.51.49-.52h0c.28,0,.51.22.52.5h0c0,.28-.22.51-.49.51h-.02c-.27,0-.49-.22-.5-.49ZM213.08,292.04c-.01-.28.21-.51.49-.52h0c.28-.02.52.2.53.48h0c0,.28-.2.51-.48.52h-.02c-.27,0-.5-.21-.51-.48ZM216.11,291.89c-.02-.28.19-.52.47-.54h0c.28-.02.52.19.54.47h0c.02.28-.19.52-.47.54h-.03c-.26,0-.49-.21-.5-.47ZM219.12,291.67c-.02-.28.18-.52.46-.55h0c.28-.02.52.18.55.46h0c.02.28-.18.52-.46.55h-.05c-.25,0-.47-.2-.5-.46ZM222.13,291.38c-.03-.27.17-.52.45-.55h0c.28-.04.53.17.56.44h0c.03.28-.17.53-.45.56h-.05c-.26,0-.48-.19-.51-.45ZM225.14,291.03c-.04-.28.16-.53.43-.57h0c.28-.03.53.16.57.44h0c.03.27-.16.53-.44.56h.01s-.05.01-.07.01h0c-.25,0-.47-.19-.5-.44ZM228.14,290.61c-.05-.27.14-.53.42-.57h0c.27-.05.53.14.57.42h0c.04.27-.14.53-.42.57h0s-.05,0-.08,0h0c-.24,0-.46-.18-.49-.43ZM231.12,290.13c-.05-.28.14-.54.41-.59h0c.27-.05.54.14.59.41h0c.04.27-.14.54-.41.58h0s-.06,0-.09,0h0c-.24,0-.45-.17-.5-.41ZM234.1,289.58c-.06-.28.12-.54.39-.6h0c.27-.05.54.12.59.4h0c.06.27-.12.54-.39.59h0s-.07,0-.1,0h0c-.23,0-.44-.17-.49-.4ZM237.06,288.96c-.06-.27.11-.54.38-.6h0c.27-.06.54.11.6.38h0c.06.27-.11.54-.38.6h0s-.07,0-.11,0h0c-.23,0-.44-.16-.49-.39ZM240.01,288.27c-.07-.27.09-.54.36-.61h0c.27-.06.55.1.61.37h0c.07.27-.09.55-.36.61h0s-.08.02-.12.02h0c-.23,0-.44-.16-.49-.39ZM242.94,287.53c-.08-.27.08-.55.35-.62h0c.27-.08.55.08.62.35h0c.07.27-.09.55-.35.62h0s-.09.02-.14.02h0c-.22,0-.42-.15-.48-.37ZM245.85,286.71c-.08-.26.08-.55.34-.63h0c.27-.07.55.08.63.35h0c.08.26-.08.54-.34.62h0s-.1.02-.15.02h0c-.21,0-.41-.14-.48-.36ZM248.76,285.83c-.09-.26.06-.55.32-.63h0c.27-.09.55.06.64.32h0c.08.27-.06.55-.33.64h0s-.1.02-.15.02h0c-.21,0-.41-.14-.48-.35ZM251.64,284.88c-.09-.26.05-.55.31-.64h0c.27-.09.56.05.65.32h0c.09.26-.05.55-.32.64h0s-.11.02-.16.02h0c-.21,0-.41-.13-.48-.34ZM254.51,283.87c-.1-.26.03-.55.29-.64h0c.26-.1.55.03.65.29h0c.1.27-.04.55-.3.65h0s-.11.03-.17.03h0c-.21,0-.4-.12-.47-.33ZM257.34,282.8c-.1-.26.03-.55.29-.65h0c.26-.11.55.02.65.28h0c.1.26-.02.55-.28.65h0c-.06.03-.12.04-.19.04h0c-.2,0-.39-.12-.47-.32ZM260.16,281.66c-.11-.25.01-.55.27-.66h0c.26-.11.56,0,.66.27h0c.11.26,0,.55-.26.66h0c-.07.03-.13.04-.2.04h0c-.2,0-.38-.11-.46-.31ZM262.94,280.46c-.11-.25,0-.55.26-.66h0c.25-.12.55,0,.66.25h0c.12.26,0,.55-.25.67h0c-.07.03-.14.04-.21.04h0c-.19,0-.37-.11-.46-.3ZM265.7,279.2c-.12-.25,0-.55.24-.67h0c.25-.12.55,0,.67.24h0c.12.25,0,.55-.24.67h0c-.07.04-.14.05-.21.05h0c-.19,0-.37-.1-.46-.29ZM268.43,277.88c-.12-.25-.02-.55.23-.68h0c.24-.12.55-.02.67.23h0c.13.25.03.55-.22.67h0c-.07.04-.15.06-.23.06h0c-.18,0-.36-.1-.45-.28ZM271.13,276.5c-.13-.25-.04-.55.21-.68h0c.24-.13.55-.04.68.21h0c.13.24.04.55-.21.68h0c-.07.04-.15.06-.24.06h0c-.18,0-.35-.1-.44-.27ZM273.8,275.06c-.14-.25-.05-.55.19-.69h0c.24-.13.55-.05.69.2h0c.13.24.05.54-.2.68h0c-.08.04-.16.06-.24.06h0c-.18,0-.35-.09-.44-.25ZM276.43,273.56c-.14-.24-.06-.55.18-.69h0c.24-.14.55-.06.69.18h0c.14.24.06.54-.18.69h0c-.08.04-.17.07-.26.07h0c-.17,0-.34-.09-.43-.25ZM279.03,272c-.15-.24-.08-.55.16-.69h0c.24-.15.55-.08.69.16h0c.15.24.08.55-.16.69h0c-.08.05-.17.08-.26.08h0c-.17,0-.34-.08-.43-.24ZM281.59,270.39c-.15-.24-.08-.55.15-.7h0c.23-.15.54-.09.7.15h0c.15.23.08.54-.15.69h0c-.09.06-.18.09-.28.09h0c-.16,0-.32-.09-.42-.23ZM284.12,268.71c-.16-.22-.1-.54.13-.69h0c.23-.16.54-.1.7.13h0c.16.23.1.54-.13.7h0c-.09.06-.19.09-.29.09h0c-.16,0-.31-.08-.41-.23ZM286.61,266.99c-.16-.23-.11-.54.12-.7h0c.23-.17.54-.11.71.11h0c.16.23.11.54-.12.71h0c-.09.06-.19.09-.29.09h0c-.16,0-.32-.07-.41-.21ZM289.06,265.21c-.17-.22-.12-.54.1-.71h0c.22-.16.54-.12.71.1h0c.16.23.12.54-.11.71h0c-.09.07-.19.1-.3.1h0c-.15,0-.3-.07-.4-.2ZM291.47,263.38c-.17-.22-.14-.54.08-.71h0c.22-.17.54-.13.71.09h0c.17.22.13.53-.09.7h0c-.09.07-.2.11-.3.11h0c-.15,0-.3-.07-.4-.19ZM293.84,261.49c-.18-.21-.15-.53.06-.71h0c.21-.17.53-.14.7.07h0c.18.22.15.54-.06.71h0c-.1.08-.21.12-.32.12h0c-.15,0-.29-.07-.39-.19ZM296.16,259.55c-.18-.21-.15-.52.06-.71h0c.21-.18.52-.15.7.06h0c.19.21.16.53-.05.71h0c-.09.08-.21.12-.33.12h0c-.14,0-.28-.06-.38-.18ZM298.44,257.57c-.18-.21-.16-.53.04-.72h0c.21-.18.53-.16.72.04h0c.18.21.16.53-.04.71h0c-.1.09-.22.14-.34.14h0c-.14,0-.28-.06-.38-.17ZM300.68,255.53c-.19-.2-.18-.52.02-.71h0c.21-.19.53-.18.72.02h0c.19.2.18.52-.03.71h0c-.09.09-.22.14-.34.14h0c-.14,0-.27-.05-.37-.16ZM302.87,253.44c-.19-.19-.19-.51.01-.71h0c.2-.19.52-.19.71,0h0c.2.2.19.52,0,.71h0c-.1.1-.23.15-.36.15h0c-.13,0-.26-.06-.36-.16ZM305.02,251.31c-.2-.19-.2-.51,0-.71h0c.19-.2.51-.2.71-.01h0c.2.2.2.51,0,.71h0c-.1.11-.23.16-.36.16h0c-.13,0-.25-.05-.35-.15ZM307.12,249.13c-.21-.19-.22-.5-.03-.71h0c.19-.2.51-.21.71-.02h0c.21.19.22.51.03.71h0c-.1.1-.23.16-.37.16h0c-.12,0-.25-.05-.34-.14ZM309.16,246.91c-.2-.19-.22-.51-.04-.71h0c.19-.21.51-.23.72-.04h0c.2.18.22.5.04.71h-.01c-.09.11-.23.17-.37.17h0c-.12,0-.24-.05-.34-.13ZM311.16,244.64c-.21-.18-.23-.5-.05-.71h0c.18-.21.5-.24.71-.05h0c.21.18.24.49.05.71h0c-.09.11-.24.17-.38.17h0c-.11,0-.23-.04-.33-.12ZM313.11,242.33c-.21-.18-.24-.5-.07-.71h0c.18-.22.5-.25.71-.07h0c.22.18.25.49.07.71h0c-.1.12-.24.18-.39.18h0c-.11,0-.22-.03-.32-.11ZM315.01,239.98c-.22-.18-.26-.49-.09-.71h0c.17-.22.49-.26.71-.09h0c.22.17.26.49.09.71h0c-.1.13-.25.19-.4.19h0c-.11,0-.22-.03-.31-.1ZM316.85,237.58c-.22-.17-.27-.48-.1-.7h0c.17-.23.48-.27.71-.1h0c.22.16.26.48.1.7h0c-.1.13-.25.2-.4.2h0c-.11,0-.21-.03-.31-.1ZM318.65,235.15c-.23-.16-.28-.48-.12-.71h0c.16-.22.47-.27.7-.11h0c.23.16.28.47.12.7h0c-.1.14-.25.21-.41.21h0c-.1,0-.21-.03-.29-.09ZM320.38,232.68c-.23-.16-.29-.47-.13-.7h0c.16-.23.47-.29.7-.14h0c.23.16.29.47.13.7h0c-.09.15-.25.22-.41.22h0c-.1,0-.2-.03-.29-.08ZM322.06,230.17c-.23-.15-.3-.47-.15-.7h0c.16-.23.47-.3.7-.15h0c.24.15.3.46.15.7h0c-.1.15-.26.23-.42.23h0c-.1,0-.19-.03-.28-.08ZM323.69,227.62c-.24-.15-.31-.45-.16-.69h0c.14-.24.45-.31.69-.17h0c.23.15.31.46.16.7h0c-.09.15-.26.24-.43.24h0c-.09,0-.18-.03-.26-.08ZM325.26,225.04c-.24-.14-.32-.45-.18-.69h0c.14-.24.45-.32.69-.18h0c.24.14.32.45.18.69h0c-.1.16-.27.25-.44.25h0c-.08,0-.17-.02-.25-.07ZM326.77,222.43c-.25-.14-.33-.44-.2-.69h0c.14-.24.45-.33.69-.19h0c.24.13.33.44.19.68h0c-.09.17-.26.26-.44.26h0c-.08,0-.17-.02-.24-.06ZM328.22,219.78c-.25-.13-.34-.43-.21-.68h0c.13-.25.44-.34.68-.21h0c.25.13.34.44.21.68h0c-.09.17-.26.27-.44.27h0c-.08,0-.16-.02-.24-.06ZM329.61,217.11c-.24-.13-.35-.43-.22-.68h0c.13-.25.43-.35.68-.22h0c.24.12.35.42.22.67h0c-.09.18-.27.28-.45.28h0c-.08,0-.15-.02-.23-.05ZM330.95,214.4c-.25-.12-.36-.42-.24-.67h0c.12-.25.42-.36.67-.24h0c.25.12.36.42.24.67h0c-.09.18-.27.29-.46.29h0c-.07,0-.14-.02-.21-.05ZM332.22,211.66c-.25-.11-.37-.41-.25-.66h0c.11-.25.41-.37.66-.25h0c.25.11.37.41.25.66h0c-.08.19-.26.3-.45.3h0c-.07,0-.14-.01-.21-.05ZM333.43,208.91c-.26-.11-.38-.41-.27-.67h0c.11-.25.41-.37.66-.26h0c.26.1.38.4.27.66h0c-.08.19-.27.3-.46.3h0c-.07,0-.14-.01-.2-.03ZM334.58,206.12c-.26-.11-.39-.4-.28-.66h0c.1-.26.39-.38.65-.28h0c.26.1.39.4.28.65h0c-.07.2-.26.32-.46.32h0c-.07,0-.13-.01-.19-.03ZM335.67,203.3c-.26-.1-.39-.39-.3-.65h0c.1-.26.39-.4.65-.3h0c.26.1.4.39.3.65h0c-.08.2-.27.33-.47.33h0c-.06,0-.12-.01-.18-.03ZM336.7,200.45c-.26-.09-.4-.38-.31-.64h0c.09-.26.38-.4.64-.31h0c.26.09.4.38.31.64h0c-.07.21-.27.34-.48.34h0s-.11-.01-.16-.03ZM337.67,197.58c-.27-.08-.42-.37-.33-.63h0c.08-.27.37-.41.63-.33h0c.27.09.41.37.33.64h0c-.07.21-.27.35-.48.35h0s-.1,0-.15-.03ZM338.57,194.69c-.27-.07-.42-.36-.34-.62h0c.07-.27.35-.42.62-.34h0c.27.08.42.36.34.62h0c-.06.22-.27.36-.48.36h0c-.05,0-.1,0-.14-.02ZM339.4,191.79c-.27-.07-.43-.35-.35-.62h0c.07-.27.35-.43.61-.36h0c.27.08.43.35.36.62h0c-.06.23-.27.38-.49.38h0s-.08-.01-.13-.02ZM340.17,188.86c-.27-.07-.43-.34-.37-.61h0c.07-.27.35-.43.61-.37h0c.27.07.44.34.37.61h0c-.05.23-.26.38-.49.38h0s-.08,0-.12-.01ZM340.88,185.92c-.28-.06-.44-.33-.38-.6h0c.06-.27.33-.45.6-.38h0c.27.06.44.33.38.6h0c-.05.23-.26.39-.49.39h0s-.08,0-.11,0ZM341.52,182.96c-.28-.05-.45-.32-.4-.59h0c.05-.28.32-.45.59-.4h0c.28.06.45.32.4.6h0c-.05.24-.26.4-.49.4h0s-.07,0-.1,0ZM342.09,179.99c-.27-.05-.46-.31-.41-.58h0c.05-.28.31-.46.59-.41h0c.27.05.45.31.4.58h0c-.05.25-.26.42-.5.42h0s-.06,0-.09-.01ZM342.6,177.01c-.28-.04-.47-.3-.42-.58h0c.04-.27.3-.46.57-.42h0c.28.05.47.3.42.58h0c-.04.25-.25.42-.49.42h-.08ZM343.04,174.02c-.28-.04-.47-.29-.43-.57h0c.03-.27.29-.47.56-.43h0c.28.03.47.29.43.56h0c-.04.26-.26.44-.51.44h-.06ZM343.41,171.01c-.27-.03-.47-.27-.44-.55h0c.03-.28.28-.48.55-.45h0c.28.03.48.28.45.56h0c-.03.26-.25.45-.5.45h0s-.04,0-.06-.01ZM343.72,168c-.27-.02-.48-.26-.46-.54h0c.03-.28.27-.48.55-.46h0c.28.02.48.27.46.55h0c-.03.26-.24.46-.5.46h0s-.03,0-.05,0ZM343.97,164.99c-.28-.02-.49-.26-.48-.54h0c.02-.27.26-.49.54-.47h0c.28.02.49.26.47.54h0c-.02.27-.24.47-.5.47h-.03ZM344.14,161.97c-.28,0-.49-.25-.48-.53h0c.01-.28.25-.49.52-.48h0c.28.02.5.25.48.53h.01c-.01.27-.24.48-.51.48h-.02ZM344.25,158.95c-.28,0-.5-.24-.49-.52h0c0-.27.23-.5.51-.49h0c.28,0,.5.24.5.52h0c0,.27-.24.49-.51.49h0Z"/>
      <path class="cls-6" d="M343.76,152.38c0-.28.21-.51.49-.52h0c.28,0,.51.22.52.5h0c0,.27-.22.51-.5.51h0c-.27,0-.5-.21-.5-.49ZM343.66,149.37c0-.28.2-.52.48-.53h0c.28,0,.52.2.53.48h0c0,.28-.21.52-.49.53h-.02c-.27,0-.49-.21-.5-.48ZM343.49,146.36c0-.28.2-.52.48-.54h0c.27-.02.51.19.53.47h0c.02.28-.19.52-.47.54h-.03c-.26,0-.49-.21-.51-.47ZM343.27,143.35c-.03-.28.18-.52.45-.54h0c.28-.03.52.18.55.45h0c.02.28-.18.52-.46.55h-.04c-.26,0-.48-.2-.5-.46ZM342.97,140.35c-.03-.27.17-.52.45-.55h0c.27-.03.52.16.55.44h0c.03.28-.17.53-.45.56h-.05c-.25,0-.47-.19-.5-.45ZM342.61,137.36c-.04-.28.16-.53.43-.57h0c.28-.03.53.16.57.44h0c.03.27-.16.53-.44.56h0s-.04,0-.06,0h0c-.25,0-.47-.19-.5-.44ZM342.18,134.37c-.04-.27.15-.53.42-.57h0c.27-.04.53.15.58.42h0c.04.28-.15.53-.43.58h-.07c-.25,0-.46-.18-.5-.43ZM341.68,131.4c-.04-.27.14-.53.41-.58h0c.28-.05.54.13.59.41h0c.05.27-.14.53-.41.58h0s-.06,0-.09,0h0c-.24,0-.45-.17-.5-.42ZM341.12,128.44c-.05-.27.13-.54.4-.59h0c.27-.06.54.12.59.39h0c.06.28-.12.54-.39.6h0s-.07.01-.1.01h0c-.24,0-.45-.17-.5-.41ZM340.5,125.49c-.06-.27.11-.54.38-.6h0c.27-.06.54.11.6.38h0c.06.27-.11.54-.38.6h0s-.07.02-.11.02h0c-.23,0-.44-.16-.49-.4ZM339.81,122.56c-.07-.27.1-.55.37-.61h0c.27-.07.54.09.61.37h0c.06.27-.1.54-.37.61h0s-.08.01-.12.01h0c-.23,0-.44-.15-.49-.38ZM339.05,119.64c-.07-.27.09-.54.36-.62h0c.26-.07.54.09.61.36h0c.08.26-.08.54-.35.62h0s-.09,0-.13,0h0c-.22,0-.43-.14-.49-.37ZM338.23,116.74c-.08-.27.07-.55.34-.62h0c.27-.08.55.07.63.34h0c.08.26-.08.54-.34.62h0s-.1.02-.15.02h0c-.22,0-.42-.14-.48-.36ZM337.34,113.85h0c-.08-.27.06-.55.33-.63h0c.26-.09.54.06.63.32h0c.09.27-.06.55-.33.63h0s-.1.03-.15.03h0c-.21,0-.41-.14-.48-.35ZM336.39,110.98c-.09-.27.05-.55.31-.64h0c.26-.09.55.05.64.31h0c.09.26-.05.55-.31.64h0c-.06.02-.11.03-.17.03h0c-.2,0-.4-.13-.47-.34ZM335.37,108.13c-.1-.26.04-.55.3-.65h0c.26-.09.55.04.64.3h0c.1.26-.03.55-.29.65h0c-.06.02-.12.03-.18.03h0c-.2,0-.39-.13-.47-.33ZM334.29,105.31c-.1-.26.02-.56.28-.66h0c.26-.1.55.02.66.28h0c.1.26-.03.56-.29.66h0c-.06.02-.12.03-.18.03h0c-.2,0-.39-.12-.47-.31ZM333.15,102.51c-.11-.26,0-.56.26-.66h0c.26-.11.56,0,.66.26h0c.11.26,0,.56-.26.66h0c-.07.03-.14.04-.2.04h0c-.2,0-.38-.11-.46-.3ZM331.94,99.74c-.11-.26,0-.56.26-.67h0c.25-.11.55,0,.66.25h0c.12.26,0,.55-.25.67h0c-.07.03-.14.04-.21.04h0c-.19,0-.37-.11-.46-.29ZM330.67,96.99c-.11-.25-.01-.55.24-.67h0c.26-.12.56,0,.68.24h0c.11.25,0,.55-.24.67h0c-.07.03-.15.05-.22.05h0c-.19,0-.37-.11-.46-.29ZM329.35,94.28h0c-.13-.25-.03-.55.22-.68h0c.25-.12.55-.02.68.22h0c.12.25.02.56-.22.68h0c-.08.04-.16.05-.23.05h0c-.19,0-.36-.1-.45-.27ZM327.96,91.59c-.13-.24-.04-.55.21-.68h0c.25-.13.55-.04.68.21h0c.13.25.04.55-.21.68h0c-.07.04-.15.06-.23.06h0c-.18,0-.36-.1-.45-.27ZM326.52,88.94h0c-.13-.24-.04-.55.2-.68h0c.24-.14.55-.05.69.19h0c.13.24.04.55-.2.69h0c-.08.04-.16.06-.24.06h0c-.18,0-.35-.09-.44-.26ZM325.01,86.33c-.14-.25-.06-.55.18-.69h0c.24-.15.55-.07.69.17h0c.14.24.06.55-.18.69h0c-.08.05-.17.07-.25.07h0c-.18,0-.34-.09-.44-.24ZM323.45,83.74c-.15-.24-.07-.55.16-.69h0c.24-.15.55-.08.7.16h0c.14.24.07.55-.16.69h0c-.09.06-.18.08-.27.08h0c-.17,0-.34-.09-.43-.24ZM321.83,81.19h0c-.15-.23-.09-.54.15-.69h0c.23-.16.55-.09.7.14h0c.15.24.08.55-.15.7h0c-.09.05-.18.08-.28.08h0c-.16,0-.32-.08-.42-.23ZM320.16,78.68h0c-.16-.23-.1-.54.13-.7h0c.23-.16.55-.1.7.13h0c.16.23.1.55-.13.7h0c-.09.06-.19.09-.28.09h0c-.17,0-.32-.08-.42-.22ZM318.43,76.21c-.16-.23-.11-.54.12-.71h0c.23-.16.54-.11.7.12h0c.16.23.11.54-.12.7h0c-.08.07-.19.1-.29.1h0c-.16,0-.31-.07-.41-.21ZM316.65,73.77c-.17-.22-.12-.53.1-.7h0c.22-.17.54-.12.7.1h0c.17.22.13.54-.1.7h0c-.09.07-.19.11-.3.11h0c-.15,0-.3-.07-.4-.21ZM314.81,71.38c-.17-.22-.13-.54.09-.71h0c.22-.17.54-.13.71.09h0c.17.22.13.53-.09.71h0c-.09.07-.2.1-.31.1h0c-.15,0-.3-.06-.4-.19ZM312.93,69.03c-.18-.22-.15-.54.07-.71h0c.21-.18.53-.15.71.07h0c.17.21.14.53-.08.71h0c-.09.07-.2.11-.31.11h0c-.15,0-.29-.06-.39-.18ZM310.99,66.72c-.18-.21-.16-.53.05-.71h0c.21-.19.53-.16.71.05h0c.18.21.16.53-.05.71h0c-.1.08-.21.12-.33.12h0c-.14,0-.28-.06-.38-.17ZM309,64.45c-.19-.21-.17-.52.04-.71h0c.2-.19.52-.17.71.04h0c.18.2.17.52-.04.71h0c-.1.09-.22.13-.34.13h0c-.13,0-.27-.06-.37-.17ZM306.96,62.23c-.19-.21-.18-.52.02-.71h0c.21-.19.53-.18.72.02h0c.19.2.18.52-.03.71h0c-.09.09-.22.14-.34.14h0c-.14,0-.27-.06-.37-.16ZM304.88,60.05h0c-.2-.2-.2-.51,0-.71h0c.2-.2.52-.19.71.01h0c.19.2.19.52,0,.71h0c-.1.1-.23.14-.35.14h0c-.13,0-.27-.05-.36-.15ZM302.74,57.92c-.19-.19-.2-.51,0-.71h0c.2-.2.52-.2.72-.01h0c.2.2.2.52.01.71h0c-.1.11-.23.16-.36.16h0c-.13,0-.26-.05-.36-.15ZM300.56,55.84h0c-.21-.19-.22-.51-.03-.71h0c.19-.2.51-.22.71-.03h0c.21.19.22.51.03.72h0c-.1.1-.24.16-.37.16h0c-.12,0-.25-.05-.35-.14ZM298.34,53.81h0c-.21-.19-.22-.51-.04-.71h0c.19-.21.51-.23.71-.04h0c.21.18.23.5.04.71h0c-.1.11-.23.17-.37.17h0c-.12,0-.24-.05-.34-.13ZM296.07,51.82h0c-.21-.18-.23-.5-.05-.71h0c.18-.21.5-.23.71-.05h0c.21.18.23.5.05.71h0c-.1.11-.24.17-.38.17h0c-.12,0-.23-.04-.33-.12ZM293.76,49.89c-.21-.18-.24-.49-.07-.71h0c.18-.21.5-.25.71-.07h0c.22.18.25.49.07.71h0c-.1.12-.24.18-.39.18h0c-.11,0-.22-.03-.32-.11ZM291.41,48.01c-.22-.17-.26-.49-.08-.71h0c.17-.22.48-.26.7-.08h0c.22.17.26.48.09.7h0c-.1.13-.25.2-.4.2h0c-.11,0-.22-.04-.31-.11ZM289.02,46.18c-.22-.17-.27-.48-.1-.7h0c.17-.23.48-.27.7-.11h0c.23.17.27.49.11.71h0c-.1.13-.25.2-.41.2h0c-.1,0-.21-.03-.3-.1ZM286.59,44.4c-.23-.16-.28-.47-.12-.7h0c.16-.23.48-.28.7-.11h0c.23.16.28.47.12.7h0c-.1.14-.25.21-.41.21h0c-.1,0-.2-.03-.29-.1ZM284.12,42.68h0c-.23-.15-.29-.47-.13-.7h0c.15-.23.47-.29.7-.13h0c.23.16.29.47.13.7h0c-.1.14-.25.22-.42.22h0c-.09,0-.19-.03-.28-.09ZM281.61,41.02c-.23-.15-.3-.47-.15-.7h0c.16-.23.47-.3.7-.15h0c.24.15.3.47.15.7h0c-.1.15-.26.23-.42.23h0c-.1,0-.19-.03-.28-.08ZM279.07,39.41c-.23-.15-.31-.46-.16-.7h0c.15-.23.45-.3.69-.16h0c.24.15.31.46.17.69h0c-.1.16-.27.24-.43.24h0c-.09,0-.19-.02-.27-.07ZM276.5,37.85h-.01c-.23-.14-.32-.45-.17-.69h0c.14-.24.45-.31.69-.18h0c.24.15.32.45.18.69h0c-.1.16-.27.25-.44.25h0c-.09,0-.17-.02-.25-.07ZM273.89,36.36c-.25-.14-.33-.44-.2-.69h0c.14-.24.44-.33.69-.19h0c.24.13.33.44.19.68h0c-.09.17-.26.26-.44.26h0c-.08,0-.17-.02-.24-.06ZM271.25,34.92c-.25-.13-.34-.43-.21-.68h0c.13-.24.43-.34.68-.21h0c.24.13.34.44.21.68h0c-.09.17-.27.27-.45.27h0c-.08,0-.16-.02-.23-.06ZM268.57,33.54h0c-.25-.12-.34-.42-.22-.67h0c.12-.25.43-.35.68-.23h0c.25.13.34.43.22.68h0c-.09.18-.27.28-.45.28h0c-.08,0-.15-.02-.23-.06ZM265.87,32.22c-.25-.11-.36-.42-.24-.67h0c.12-.25.42-.36.67-.24h0c.26.12.36.42.24.68h0c-.08.18-.26.28-.45.28h0c-.07,0-.15-.01-.22-.05ZM263.14,30.97c-.25-.12-.36-.41-.25-.67h0c.11-.25.41-.37.66-.25h0c.26.11.37.41.26.66h0c-.08.19-.27.3-.46.3h0c-.07,0-.14,0-.21-.04ZM260.39,29.77c-.26-.11-.38-.4-.27-.66h0c.11-.26.4-.38.66-.27h0c.26.11.38.41.27.66h0c-.08.19-.27.31-.47.31h0c-.06,0-.13-.01-.19-.04ZM257.61,28.64c-.26-.11-.39-.4-.29-.66h0c.11-.26.4-.38.66-.28h0c.26.1.38.39.28.65h0c-.08.2-.27.32-.47.32h0c-.06,0-.12-.01-.18-.03ZM254.79,27.56c-.26-.1-.39-.39-.29-.65h0c.09-.26.38-.39.64-.3h0c.26.1.4.39.3.65h0c-.07.2-.27.33-.47.33h0c-.06,0-.12,0-.18-.03ZM251.95,26.55c-.26-.1-.4-.38-.31-.65h0c.09-.26.38-.4.64-.31h0c.26.09.41.38.32.64h0c-.08.21-.27.34-.48.34h0c-.06,0-.11,0-.17-.02ZM249.09,25.6c-.26-.09-.41-.37-.32-.64h0c.08-.26.37-.41.63-.33h0c.26.09.41.37.33.64h0c-.07.21-.27.35-.48.35h0c-.05,0-.11-.01-.16-.02ZM246.21,24.71c-.26-.08-.42-.36-.34-.63h0c.08-.26.36-.42.63-.34h0c.27.08.42.36.34.63h0c-.07.22-.27.36-.49.36h0s-.09-.01-.14-.02ZM243.31,23.89h0c-.27-.08-.43-.35-.35-.62h0c.07-.27.35-.43.62-.36h0c.27.08.42.35.35.62h0c-.06.23-.26.37-.48.37h0s-.09,0-.14-.01ZM240.39,23.13h0c-.27-.07-.43-.34-.36-.61h0c.06-.27.34-.44.61-.37h0c.27.07.43.34.36.61h0c-.05.23-.26.38-.48.38h0s-.08,0-.13,0ZM237.46,22.44h0c-.27-.06-.44-.33-.38-.6h0c.06-.28.33-.45.6-.38h0c.27.05.44.32.38.59h0c-.05.24-.26.4-.49.4h0s-.07,0-.11,0ZM234.51,21.81c-.27-.05-.45-.32-.39-.59h0c.05-.27.32-.45.59-.4h0c.28.06.45.32.4.6h0c-.05.24-.26.4-.5.4h0s-.06,0-.1,0ZM231.55,21.25c-.27-.05-.46-.31-.41-.58h0c.05-.28.31-.46.59-.41h0c.27.05.45.31.41.58h0c-.05.25-.26.42-.5.42h0s-.06,0-.09,0ZM228.58,20.76c-.28-.05-.46-.3-.42-.58h0c.04-.27.3-.46.57-.42h0c.28.04.47.3.42.58h0c-.04.24-.25.42-.49.42h-.08ZM225.59,20.33c-.27-.04-.47-.29-.43-.57h0c.04-.27.29-.47.57-.43h0c.27.03.47.29.43.56h0c-.03.26-.25.44-.5.44h-.07ZM222.6,19.97c-.27-.04-.47-.28-.44-.56h0c.03-.28.28-.48.55-.45h0c.28.03.48.28.45.56h0c-.03.26-.25.45-.5.45h-.06ZM219.6,19.67c-.27-.03-.48-.27-.45-.55h0c.02-.28.26-.48.54-.46h0c.28.03.48.27.46.55h0c-.02.26-.24.46-.5.46h-.05ZM216.6,19.44c-.28-.02-.49-.26-.47-.54h0c.02-.28.26-.49.53-.47h0c.28.02.49.26.47.54h0c-.01.26-.23.47-.5.47h-.03ZM213.59,19.27c-.28-.01-.5-.24-.48-.52h0c.01-.28.24-.49.52-.48h0c.28,0,.49.24.48.52h0c0,.27-.23.48-.5.48h-.02ZM210.58,19.17c-.28,0-.5-.23-.5-.51h0c0-.28.24-.5.52-.49h0c.28,0,.5.23.49.51h0c0,.28-.23.49-.5.49h0Z"/>
      <path class="cls-6" d="M70.8,152.85c-.27-.01-.49-.24-.49-.52h0c0-.27.24-.5.52-.49h0c.27.01.5.24.49.52h0c0,.27-.23.49-.5.49h-.02ZM70.89,149.83c-.27-.01-.49-.25-.48-.53h0c0-.28.25-.49.53-.48h0c.28.01.49.25.48.53h0c0,.27-.24.48-.5.48h-.03ZM71.05,146.81c-.28-.02-.49-.26-.47-.54h0c.02-.28.26-.49.53-.47h0c.28.02.49.26.47.54h0c-.01.26-.24.47-.5.47h-.03ZM71.27,143.79c-.28-.02-.49-.27-.46-.55h0c.02-.28.27-.48.55-.46h0c.27.03.48.27.45.55h0c-.02.26-.24.46-.5.46h-.04ZM71.55,140.78c-.27-.03-.47-.28-.44-.56h0c.03-.28.28-.48.55-.44h0c.28.03.48.27.45.55h0c-.03.26-.25.45-.5.45h-.06ZM71.91,137.77c-.28-.03-.47-.29-.44-.56h0c.04-.28.29-.47.57-.44h0c.28.04.47.29.43.57h0c-.03.25-.25.44-.5.44h0s-.04,0-.06,0ZM72.33,134.78c-.28-.05-.47-.31-.42-.58h0c.04-.27.3-.46.57-.42h0c.28.04.46.3.42.58h0c-.04.25-.25.42-.5.42h-.07ZM72.81,131.79c-.27-.05-.45-.31-.41-.58h0c.05-.28.31-.46.59-.41h0c.27.05.45.31.4.58h0c-.04.25-.25.42-.49.42h0s-.06,0-.09,0ZM73.36,128.81c-.27-.05-.45-.32-.39-.59h0c.05-.27.32-.45.59-.39h0c.27.05.45.32.39.59h0c-.04.24-.25.41-.49.41h0s-.06-.01-.1-.02ZM73.98,125.85c-.27-.06-.44-.33-.38-.6h0c.06-.27.33-.44.6-.38h0c.27.06.44.33.38.6h0c-.05.24-.26.4-.49.4h0s-.07-.01-.11-.02ZM74.66,122.91c-.27-.07-.43-.34-.36-.61h0c.06-.27.34-.44.61-.37h0c.27.06.43.34.36.61h0c-.05.23-.26.38-.49.38h0s-.08,0-.12-.01ZM75.41,119.98c-.27-.08-.42-.36-.35-.62h0c.07-.27.35-.43.62-.36h0c.27.07.42.35.35.62h0c-.06.23-.26.37-.49.37h0s-.08,0-.13,0ZM76.23,117.06c-.27-.08-.42-.36-.34-.62h0c.08-.27.35-.42.62-.35h0c.27.08.42.36.34.63h0c-.06.22-.26.36-.48.36h0c-.05,0-.1,0-.14-.02ZM77.11,114.17c-.27-.09-.42-.37-.33-.64h0c.08-.26.37-.41.63-.32h0c.27.08.41.36.33.63h0c-.07.21-.27.35-.48.35h0c-.05,0-.1-.01-.15-.02ZM78.05,111.29c-.27-.09-.4-.38-.31-.64h0c.09-.26.37-.4.64-.31h0c.26.09.4.38.31.64h0c-.07.21-.27.34-.48.34h0s-.11,0-.16-.03ZM79.06,108.44c-.27-.1-.4-.39-.3-.65h0c.09-.26.38-.4.65-.3h0c.26.1.39.39.29.65h0c-.07.2-.26.33-.47.33h0c-.06,0-.12,0-.17-.03ZM80.13,105.61c-.26-.1-.39-.4-.29-.65h0c.11-.26.4-.39.66-.29h0c.25.1.38.4.28.65h0c-.08.2-.27.32-.47.32h0c-.06,0-.12,0-.18-.03ZM81.26,102.81c-.26-.1-.38-.4-.27-.66h0c.1-.25.4-.37.66-.27h0c.25.11.37.41.26.66h0c-.08.2-.26.31-.46.31h0c-.06,0-.13-.01-.19-.04ZM82.45,100.04c-.26-.11-.37-.41-.26-.66h0c.12-.26.41-.37.67-.26h0c.25.12.37.42.25.67h0c-.08.19-.27.3-.46.3h0c-.07,0-.14-.02-.2-.05ZM83.7,97.3c-.25-.12-.36-.42-.24-.67h0c.12-.25.42-.36.67-.24h0c.25.12.36.42.24.67h0c-.09.18-.27.29-.46.29h0c-.07,0-.14-.02-.21-.05ZM85.01,94.58c-.25-.12-.35-.42-.22-.67h0c.12-.25.43-.35.67-.23h0c.25.13.35.43.23.68h0c-.09.18-.27.28-.45.28h0c-.08,0-.16-.02-.23-.06ZM86.39,91.9c-.25-.13-.34-.44-.21-.68h0c.13-.25.43-.34.68-.21h0c.24.13.34.43.21.68h0c-.09.17-.27.27-.45.27h0c-.08,0-.16-.02-.23-.06ZM87.82,89.24c-.25-.14-.33-.44-.2-.69h0c.14-.24.45-.32.69-.19h0c.24.14.33.44.19.69h0c-.09.16-.26.25-.44.25h0c-.08,0-.17-.02-.24-.06ZM89.31,86.62c-.24-.14-.32-.45-.18-.69h0c.14-.24.45-.32.69-.18h0c.24.14.32.45.18.69h0c-.09.16-.26.25-.44.25h0c-.08,0-.17-.03-.25-.07ZM90.86,84.02c-.24-.14-.31-.45-.17-.69h0c.15-.24.46-.31.7-.16h0c.23.14.31.45.16.69h0c-.09.16-.26.24-.43.24h0c-.09,0-.18-.02-.26-.08ZM92.46,81.47c-.23-.15-.3-.46-.14-.7h0c.15-.23.46-.3.69-.15h0c.24.15.3.47.15.7h0c-.09.15-.26.23-.42.23h0c-.1,0-.19-.03-.28-.08ZM94.13,78.95c-.23-.16-.29-.47-.14-.7h0c.16-.23.48-.29.71-.14h0c.23.16.28.47.13.7h0c-.1.15-.26.22-.42.22h0c-.1,0-.19-.02-.28-.08ZM95.85,76.46c-.23-.16-.28-.47-.12-.7h0c.16-.23.47-.28.7-.12h0c.23.16.28.48.12.7h0c-.1.14-.25.21-.41.21h0c-.1,0-.2-.03-.29-.09ZM97.62,74.01c-.22-.16-.27-.48-.1-.7h0c.17-.22.48-.27.7-.1h0c.23.16.27.48.1.7h.01c-.1.14-.26.2-.41.2h0c-.1,0-.21-.03-.3-.1ZM99.45,71.61c-.22-.17-.26-.49-.09-.71h0c.17-.22.49-.26.71-.09h0c.22.18.25.49.08.71h0c-.1.13-.24.19-.39.19h0c-.11,0-.22-.03-.31-.1ZM101.33,69.24c-.22-.18-.25-.49-.08-.71h0c.18-.21.5-.25.72-.07h0c.21.18.24.49.06.71h0c-.09.12-.24.18-.38.18h0c-.12,0-.23-.03-.32-.11ZM103.26,66.91c-.21-.18-.24-.49-.06-.71h0c.18-.21.5-.23.71-.05h0c.21.18.24.5.06.71h0c-.1.12-.24.18-.39.18h0c-.11,0-.23-.04-.32-.13ZM105.24,64.63c-.21-.18-.23-.5-.04-.71h0c.19-.21.5-.23.71-.04h0c.21.19.23.5.04.71h0c-.1.11-.24.17-.37.17h0c-.12,0-.24-.04-.34-.13ZM107.27,62.39c-.2-.19-.21-.51-.02-.71h0c.19-.2.51-.21.71-.02h0c.2.19.22.5.02.71h0c-.09.1-.23.16-.36.16h0c-.13,0-.25-.05-.35-.14ZM109.35,60.2c-.19-.2-.2-.52,0-.72h0c.19-.19.51-.2.71,0h0c.2.19.2.51,0,.71h0c-.1.1-.23.15-.36.15h0c-.13,0-.26-.05-.36-.14ZM111.48,58.05c-.19-.2-.19-.52.01-.71h0c.2-.2.52-.19.71,0h0c.2.2.2.52,0,.72h0c-.1.09-.23.14-.36.14h0c-.13,0-.26-.05-.36-.15ZM113.66,55.95c-.19-.2-.18-.52.02-.71h0c.21-.19.52-.18.72.02h0c.19.2.18.52-.03.71h0c-.09.09-.22.14-.34.14h0c-.14,0-.27-.06-.37-.16ZM115.88,53.89c-.18-.2-.17-.52.04-.71h0c.21-.18.53-.16.71.04h0c.19.21.17.53-.03.71h0c-.1.09-.22.13-.34.13h0c-.14,0-.28-.05-.38-.17ZM118.15,51.89c-.18-.21-.16-.53.06-.71h0c.21-.18.53-.16.71.06h0c.18.21.15.53-.06.71h0c-.09.08-.21.12-.33.12h0c-.14,0-.28-.06-.38-.18ZM120.46,49.94c-.17-.22-.14-.53.07-.71h0c.22-.18.53-.15.71.07h0c.18.21.15.53-.07.71h0c-.09.07-.21.11-.32.11h0c-.14,0-.29-.06-.39-.18ZM122.82,48.04c-.18-.22-.14-.54.08-.71h0c.22-.18.54-.14.71.08h0c.17.22.13.54-.09.71h0c-.09.07-.2.11-.31.11h0c-.15,0-.29-.07-.39-.19ZM125.21,46.18c-.16-.22-.12-.54.1-.7h0c.22-.17.54-.12.71.1h0c.17.22.12.54-.1.7h0c-.09.07-.2.1-.3.1h0c-.16,0-.31-.07-.41-.2ZM127.65,44.39c-.16-.23-.11-.55.12-.71h0c.22-.16.54-.11.7.12h0c.16.22.11.54-.12.7h0c-.09.06-.19.1-.29.1h0c-.16,0-.31-.08-.41-.21ZM130.13,42.64c-.16-.23-.1-.54.13-.7h0c.23-.16.54-.1.7.13h0c.16.23.1.55-.13.7h0c-.09.06-.19.09-.29.09h0c-.16,0-.32-.07-.41-.22ZM132.64,40.95c-.15-.23-.09-.54.15-.69h0c.23-.16.54-.09.69.14h0c.16.24.09.55-.14.7h0c-.09.06-.18.08-.28.08h0c-.16,0-.32-.08-.42-.23ZM135.19,39.32c-.14-.24-.07-.55.16-.69h0c.23-.15.54-.08.69.16h0c.14.24.07.55-.16.69h0c-.09.05-.18.08-.27.08h0c-.17,0-.33-.09-.43-.24ZM137.78,37.74c-.14-.24-.06-.55.18-.69h0c.24-.14.55-.06.69.18h0c.14.24.06.55-.18.69h0c-.08.05-.17.07-.26.07h0c-.17,0-.34-.09-.43-.25ZM140.4,36.22c-.13-.24-.05-.55.19-.68h0c.25-.14.56-.05.69.19h0c.14.24.05.55-.19.69h0c-.08.04-.17.06-.25.06h0c-.18,0-.35-.09-.44-.26ZM143.06,34.76c-.13-.24-.04-.55.21-.68h0c.24-.13.55-.04.68.21h0c.13.25.04.55-.21.68h0c-.08.04-.16.06-.24.06h0c-.18,0-.35-.1-.44-.27ZM145.75,33.36c-.13-.25-.03-.55.22-.68h0c.25-.12.55-.02.67.23h0c.13.25.03.55-.22.68h0c-.07.03-.15.05-.22.05h0c-.19,0-.37-.1-.45-.28ZM148.46,32.02c-.11-.25,0-.55.24-.67h0c.26-.12.56-.02.67.24h0c.13.25.02.55-.23.67h0c-.07.03-.15.05-.22.05h0c-.19,0-.37-.11-.46-.29ZM151.21,30.74c-.11-.26,0-.55.26-.67h0c.25-.11.55,0,.66.26h0c.12.25,0,.55-.25.66h0c-.07.03-.14.05-.21.05h0c-.19,0-.37-.11-.46-.3ZM153.99,29.52c-.11-.26,0-.55.27-.66h0c.26-.11.55.01.66.27h0c.11.25,0,.55-.27.66h0c-.06.02-.13.04-.19.04h0c-.2,0-.39-.12-.47-.31ZM156.8,28.36c-.11-.26.02-.55.28-.65h0c.26-.11.55.02.65.28h0c.11.26-.02.55-.28.65h0c-.06.03-.12.04-.19.04h0c-.2,0-.39-.12-.46-.32ZM159.63,27.26c-.1-.26.03-.55.29-.64h0c.26-.1.55.03.65.3h0c.1.26-.03.55-.3.64h0c-.06.02-.11.03-.17.03h0c-.21,0-.4-.12-.47-.33ZM162.48,26.23c-.09-.26.05-.55.31-.64h0c.27-.09.55.05.64.32h0c.09.26-.05.55-.31.64h0c-.05.01-.11.02-.16.02h0c-.21,0-.41-.13-.48-.34ZM165.36,25.27c-.09-.27.06-.55.32-.64h0c.26-.08.54.06.63.33h0c.08.26-.06.55-.33.63h0c-.05.02-.1.03-.15.03h0c-.21,0-.41-.14-.48-.35ZM168.26,24.36c-.08-.26.07-.55.34-.62h0c.27-.08.55.07.62.34h0c.08.26-.07.54-.34.62h0s-.09.02-.14.02h0c-.22,0-.42-.14-.48-.36ZM171.17,23.53c-.08-.27.08-.55.35-.62h0c.27-.07.55.09.62.35h0c.07.27-.09.55-.35.62h0s-.09.02-.14.02h0c-.22,0-.42-.15-.48-.37ZM174.09,22.76c-.07-.27.1-.55.37-.61h0c.27-.07.54.1.61.36h0c.07.28-.1.55-.37.61h0s-.08.02-.12.02h0c-.22,0-.43-.15-.49-.38ZM177.03,22.05c-.06-.27.11-.54.39-.6h0c.28-.06.55.11.61.38h0c.06.27-.11.54-.38.6h0s-.08.02-.11.02h0c-.23,0-.44-.16-.5-.4ZM179.99,21.41c-.05-.27.12-.54.4-.59h0c.27-.06.53.12.59.39h0c.05.28-.12.54-.4.6h0s-.06,0-.09,0h0c-.24,0-.45-.17-.5-.41ZM182.96,20.84c-.05-.27.14-.54.41-.58h0c.27-.05.53.13.58.4h0c.05.28-.13.54-.4.59h0s-.06,0-.09,0h0c-.24,0-.45-.18-.5-.42ZM185.94,20.33c-.04-.27.15-.53.43-.57h0c.27-.04.53.14.57.42h0c.04.27-.15.53-.42.57h0s-.05,0-.08,0h0c-.24,0-.46-.18-.5-.43ZM188.94,19.89c-.04-.28.15-.53.43-.56h0c.28-.04.53.15.57.43h0c.03.28-.16.53-.44.57h-.06c-.25,0-.47-.19-.5-.44ZM191.94,19.52c-.03-.28.17-.53.45-.56h0c.27-.03.52.17.55.45h0c.03.27-.17.52-.44.55h0s-.04,0-.06,0h0c-.25,0-.47-.19-.5-.45ZM194.95,19.21c-.03-.28.18-.52.46-.55h0c.27-.02.52.18.54.46h0c.03.28-.18.52-.45.55h-.05c-.26,0-.48-.2-.5-.46ZM197.96,18.97c0-.28.2-.52.47-.54h0c.28-.02.52.19.54.47h0c.02.28-.19.52-.47.54h-.03c-.27,0-.49-.21-.51-.47ZM200.99,18.79c-.02-.28.2-.51.48-.52h0c.27-.01.51.2.52.48h0c0,.28-.2.51-.48.52h-.02c-.27,0-.49-.21-.5-.48ZM204.01,18.68c-.01-.28.21-.51.49-.51h0c.28-.01.51.21.52.49h0c0,.28-.22.51-.5.52h0c-.27,0-.5-.22-.5-.5Z"/>
      <path class="cls-6" d="M204.48,292.62c-.28,0-.5-.24-.49-.51h0c0-.28.23-.5.51-.5h0c.28,0,.5.24.49.52h0c0,.27-.23.49-.5.49h-.01ZM201.45,292.52c-.28,0-.5-.24-.49-.52h0c.02-.28.25-.5.53-.48h0c.28,0,.49.24.48.52h0c-.01.27-.23.48-.5.48h-.02ZM198.41,292.36c-.27-.02-.48-.26-.47-.54h0c.02-.28.26-.49.54-.47h0c.28.02.49.26.47.54h0c-.02.26-.24.47-.5.47h-.04ZM195.39,292.12c-.28-.02-.49-.26-.46-.54h0c.02-.28.27-.48.54-.46h0c.28.02.49.27.46.55h0c-.02.26-.24.46-.5.46h0s-.03,0-.04,0ZM192.37,291.83c-.28-.04-.48-.28-.45-.56h0c.03-.28.28-.48.55-.45h0c.28.03.48.28.45.56h0c-.03.26-.25.45-.5.45h-.05ZM189.35,291.46h0c-.28-.04-.47-.29-.43-.57h0c.03-.27.29-.47.56-.43h0c.28.04.47.29.44.57h0c-.04.25-.25.43-.5.43h-.07ZM186.35,291.03c-.28-.04-.47-.3-.43-.58h0c.05-.27.3-.46.58-.42h0c.27.04.46.3.42.58h0c-.04.25-.25.42-.5.42h-.07ZM183.35,290.53h0c-.28-.05-.46-.31-.41-.59h0c.05-.27.31-.45.59-.4h0c.27.05.45.31.4.58h0c-.04.25-.25.42-.49.42h0s-.06,0-.09,0ZM180.37,289.96h0c-.28-.05-.45-.32-.4-.59h0c.06-.27.32-.45.59-.39h0c.28.05.46.32.4.59h0c-.05.24-.26.4-.5.4h0s-.06,0-.09-.01ZM177.4,289.33h0c-.28-.05-.45-.33-.39-.6h0c.06-.27.33-.44.61-.38h0c.27.06.44.33.38.6h0c-.06.24-.26.4-.49.4h0s-.08,0-.11-.02ZM174.44,288.64c-.27-.07-.43-.34-.37-.61h0c.07-.27.34-.44.61-.37h0c.27.07.44.34.37.61h0c-.06.23-.26.38-.49.38h0s-.08,0-.12,0ZM171.5,287.87c-.27-.07-.43-.34-.35-.61h0c.07-.27.35-.43.62-.36h0c.26.08.42.35.35.62h0c-.06.23-.27.37-.49.37h0s-.09,0-.13-.02ZM168.58,287.05c-.27-.08-.42-.36-.34-.63h0c.08-.27.36-.42.62-.34h0c.27.08.42.36.35.63h0c-.07.22-.27.36-.49.36h0c-.05,0-.09,0-.14-.02ZM165.68,286.15c-.27-.08-.42-.36-.33-.63h0c.08-.27.37-.41.63-.33h0c.27.09.41.37.33.64h0c-.07.21-.27.35-.48.35h0s-.1-.01-.15-.03ZM162.8,285.2h0c-.26-.09-.4-.38-.31-.65h0c.09-.26.38-.4.64-.31h0c.27.09.41.38.32.64h0c-.08.21-.27.34-.48.34h0s-.11,0-.16-.02ZM159.94,284.18c-.27-.1-.4-.39-.3-.65h0c.09-.26.38-.4.64-.3h0c.27.1.4.39.3.65h0c-.07.2-.27.33-.47.33h0c-.06,0-.12,0-.17-.03ZM157.1,283.09c-.26-.1-.39-.39-.29-.65h0c.11-.26.4-.39.66-.29h0c.26.1.38.4.28.66h0c-.08.2-.27.32-.47.32h0c-.06,0-.12-.02-.18-.04ZM154.3,281.95h0c-.26-.11-.38-.41-.27-.66h0c.11-.26.4-.38.66-.27h0c.26.11.37.4.27.66h0c-.08.19-.27.31-.47.31h0c-.06,0-.13-.02-.19-.04ZM151.52,280.74c-.25-.11-.36-.41-.25-.67h0c.11-.25.41-.36.66-.25h0c.26.11.37.41.26.67h0c-.09.18-.27.29-.46.29h0c-.07,0-.14,0-.21-.04ZM148.77,279.47c-.25-.12-.36-.42-.24-.67h0c.12-.25.42-.36.68-.24h0c.26.12.36.42.24.67h0c-.08.19-.26.29-.45.29h0c-.07,0-.15-.01-.22-.05ZM146.05,278.15c-.25-.13-.35-.43-.22-.68h0c.12-.25.43-.35.67-.23h0c.25.13.35.43.23.68h0c-.09.18-.27.28-.45.28h0c-.08,0-.16-.02-.23-.05ZM143.36,276.76c-.25-.13-.34-.44-.21-.68h0c.13-.25.44-.34.68-.21h0c.25.13.34.43.21.68h0c-.09.17-.26.27-.45.27h0c-.07,0-.15-.02-.23-.06ZM140.7,275.31c-.24-.14-.33-.44-.19-.69h0c.13-.24.44-.33.68-.19h0c.24.13.33.44.2.69h0c-.1.16-.27.25-.44.25h0c-.09,0-.17-.02-.25-.06ZM138.07,273.8c-.24-.14-.32-.45-.18-.69h0c.14-.24.45-.32.69-.18h0c.24.15.32.45.18.69h0c-.09.16-.26.25-.43.25h0c-.09,0-.18-.02-.26-.07ZM135.48,272.24c-.24-.15-.31-.46-.17-.69h0c.15-.24.46-.32.69-.17h0c.24.15.32.46.17.69h0c-.1.16-.26.24-.43.24h0c-.09,0-.18-.02-.26-.07ZM132.91,270.62c-.23-.16-.29-.47-.14-.7h0c.15-.23.46-.3.69-.15h0c.24.15.3.46.15.7h0c-.09.15-.26.23-.42.23h0c-.1,0-.19-.03-.28-.08ZM130.39,268.94c-.23-.16-.29-.47-.13-.7h0c.15-.23.47-.29.7-.14h0c.23.16.29.47.13.71h0c-.1.14-.25.21-.42.21h0c-.09,0-.19-.02-.28-.08ZM127.9,267.2h0c-.22-.16-.28-.47-.12-.7h0c.17-.23.48-.28.71-.12h0c.22.16.28.48.12.71h0c-.1.13-.26.21-.41.21h0c-.11,0-.21-.03-.3-.1ZM125.45,265.41h0c-.22-.16-.27-.48-.1-.7h0c.17-.22.48-.27.71-.1h0c.22.16.26.48.1.7h0c-.1.14-.25.21-.4.21h0c-.11,0-.22-.04-.31-.11ZM123.04,263.57c-.22-.17-.25-.49-.08-.7h0c.17-.22.49-.26.7-.09h0c.22.17.26.49.09.71h0c-.1.12-.25.19-.4.19h0c-.1,0-.21-.04-.31-.11ZM120.68,261.68c-.22-.18-.25-.5-.08-.71h0c.18-.22.5-.25.71-.07h0c.22.17.25.49.07.71h0c-.1.12-.24.18-.39.18h0c-.11,0-.22-.04-.31-.11ZM118.35,259.73c-.21-.18-.24-.5-.06-.71h0c.18-.21.5-.24.71-.06h0c.22.19.24.5.06.71h0c-.1.12-.24.18-.38.18h0c-.12,0-.24-.04-.33-.12ZM116.06,257.73c-.2-.18-.22-.5-.04-.71h0c.19-.21.51-.22.72-.04h0c.2.19.22.51.04.71h0c-.1.11-.24.17-.38.17h0c-.12,0-.24-.04-.34-.13ZM113.82,255.68c-.2-.19-.21-.51-.02-.71h0c.19-.2.51-.21.71-.02h0c.21.19.22.51.03.71h0c-.1.11-.24.16-.37.16h0c-.13,0-.25-.05-.35-.14ZM111.63,253.59c-.2-.2-.2-.52,0-.72h0c.19-.2.52-.2.71,0h0c.2.19.21.51,0,.71h0c-.1.1-.23.15-.36.15h0c-.12,0-.25-.05-.35-.14ZM109.48,251.44c-.19-.2-.19-.52.01-.71h0c.2-.2.52-.19.71,0h0c.2.2.19.51-.01.71h0c-.09.09-.22.14-.35.14h0c-.13,0-.26-.05-.36-.15ZM107.38,249.25c-.19-.2-.18-.52.02-.71h0c.21-.19.53-.18.71.02h0c.2.2.19.52-.02.71h0c-.09.09-.22.14-.34.14h0c-.14,0-.27-.06-.37-.16ZM105.33,247.01c-.19-.21-.17-.52.04-.71h0c.2-.19.52-.17.71.04h0c.18.21.17.52-.04.71h0c-.1.09-.22.13-.34.13h0c-.13,0-.27-.06-.37-.17ZM103.32,244.73h.01c-.19-.21-.16-.53.05-.71h0c.21-.18.53-.16.71.05h0c.18.21.16.53-.05.71h0c-.1.08-.22.12-.33.12h0c-.15,0-.29-.06-.39-.17ZM101.37,242.4h0c-.17-.21-.14-.53.07-.71h0c.22-.18.54-.15.71.07h0c.18.22.15.53-.07.71h0c-.09.08-.21.11-.32.11h0c-.14,0-.29-.06-.39-.18ZM99.47,240.03c-.17-.22-.13-.54.09-.71h0c.21-.17.53-.13.7.09h0c.18.22.14.53-.08.71h0c-.09.07-.2.1-.31.1h0c-.15,0-.3-.06-.4-.19ZM97.62,237.62c-.17-.22-.12-.54.1-.71h0c.23-.16.54-.12.71.1h0c.17.23.12.54-.1.71h0c-.09.07-.2.1-.3.1h0c-.16,0-.31-.07-.41-.2ZM95.83,235.17h0c-.16-.23-.11-.54.11-.71h0c.23-.16.54-.11.71.12h0c.16.23.11.54-.12.7h0c-.09.07-.19.1-.29.1h0c-.16,0-.32-.08-.41-.21ZM94.09,232.68c-.16-.23-.1-.55.13-.7h0c.23-.16.54-.1.7.13h0c.15.23.1.54-.13.7h0c-.09.06-.19.08-.29.08h0c-.16,0-.32-.07-.41-.21ZM92.4,230.15c-.15-.24-.09-.55.15-.7h0c.23-.15.54-.09.69.15h0c.16.23.09.54-.14.69h0c-.09.06-.18.09-.28.09h0c-.16,0-.32-.09-.42-.23ZM90.77,227.58c-.15-.24-.07-.55.16-.7h0c.24-.14.55-.07.7.17h0c.14.23.07.54-.17.69h0c-.08.05-.17.08-.26.08h0c-.17,0-.34-.09-.43-.24ZM89.2,224.98c-.14-.24-.06-.55.18-.69h0c.23-.15.54-.07.69.17h0c.14.24.06.55-.18.7h0c-.08.04-.17.06-.26.06h0c-.17,0-.34-.08-.43-.24ZM87.68,222.34c-.13-.24-.05-.55.19-.69h0c.25-.13.55-.05.69.19h0c.14.25.05.56-.19.69h0c-.08.04-.17.06-.25.06h0c-.18,0-.35-.09-.44-.25ZM86.23,219.67c-.13-.25-.04-.56.2-.68h0c.25-.13.56-.04.69.2h0c.13.25.03.55-.21.68h0c-.08.04-.16.06-.24.06h0c-.18,0-.35-.09-.44-.26ZM84.83,216.96c-.13-.25-.03-.55.22-.67h0c.25-.13.55-.03.68.22h0c.12.25.02.55-.22.68h0c-.08.03-.15.05-.23.05h0c-.18,0-.36-.1-.45-.28ZM83.49,214.23c-.12-.25-.01-.55.24-.67h0c.25-.12.55-.01.67.24h0c.12.25.01.55-.24.67h0c-.07.03-.14.05-.21.05h0c-.19,0-.37-.11-.46-.29ZM82.22,211.46c-.12-.25,0-.55.25-.66h0c.25-.11.55,0,.67.25h0c.11.26,0,.55-.26.67h0c-.06.03-.13.04-.2.04h0c-.19,0-.38-.11-.46-.3ZM81,208.67c-.11-.25.01-.55.27-.66h0c.26-.11.55.01.66.27h0c.11.26-.01.55-.27.66h0c-.06.03-.13.04-.19.04h0c-.2,0-.39-.11-.47-.31ZM79.85,205.85h0c-.1-.26.02-.55.28-.65h0c.26-.1.56.02.66.28h0c.1.26-.03.55-.29.66h0c-.06.02-.12.03-.18.03h0c-.2,0-.39-.12-.47-.32ZM78.76,203.01c-.09-.26.04-.55.3-.65h0c.26-.1.55.04.65.3h0c.09.26-.04.55-.3.65h0c-.06.02-.12.03-.18.03h0c-.2,0-.39-.13-.47-.33ZM77.74,200.14c-.09-.26.05-.55.31-.64h0c.26-.09.55.05.64.31h0c.09.26-.05.55-.31.64h0c-.06.02-.11.03-.17.03h0c-.21,0-.4-.13-.47-.34ZM76.78,197.25c-.09-.27.06-.55.32-.64h0c.27-.08.55.06.64.33h0c.08.27-.07.55-.33.63h0c-.05.02-.1.03-.15.03h0c-.22,0-.42-.14-.48-.35ZM75.88,194.33c-.08-.26.07-.54.34-.62h0c.27-.08.55.07.63.34h0c.08.26-.08.55-.34.62h0c-.05.02-.1.02-.15.02h0c-.22,0-.42-.14-.48-.36ZM75.05,191.41c-.07-.27.09-.54.36-.62h0c.26-.07.54.09.61.36h.01c.07.27-.09.54-.36.62h0s-.09,0-.13,0h0c-.22,0-.43-.14-.49-.37ZM74.29,188.47c-.07-.27.1-.54.37-.61h0c.27-.07.54.1.61.37h0c.07.27-.1.54-.37.61h0s-.08.02-.12.02h0c-.23,0-.43-.16-.49-.39ZM73.59,185.52c-.06-.28.11-.55.39-.61h0c.27-.06.54.11.6.39h0c.06.27-.11.54-.38.6h0s-.08,0-.11,0h0c-.23,0-.44-.16-.5-.39ZM72.96,182.54c-.05-.27.12-.53.4-.59h0c.27-.05.54.13.59.4h0c.06.27-.12.54-.39.59h0s-.07,0-.1,0h0c-.24,0-.45-.16-.5-.41ZM72.4,179.56c-.05-.27.13-.53.41-.58h0c.27-.05.53.13.58.4h0c.05.28-.13.54-.41.59h0s-.06.01-.09.01h0c-.23,0-.45-.17-.49-.42ZM71.9,176.57c-.04-.28.15-.54.42-.58h0c.28-.04.54.15.58.42h0c.04.28-.15.54-.42.58h-.08c-.24,0-.46-.17-.5-.42ZM71.47,173.56h0c-.04-.28.16-.53.43-.57h0c.28-.03.53.16.57.44h0c.04.27-.16.53-.44.57h-.06c-.25,0-.47-.19-.5-.44ZM71.1,170.55c-.02-.28.18-.53.45-.56h0c.28-.03.53.17.56.45h0c.03.27-.17.52-.45.55h0s-.04.01-.05.01h0c-.26,0-.48-.2-.51-.45ZM70.81,167.52c-.03-.27.18-.52.45-.54h0c.28-.03.53.18.55.46h0c.03.27-.18.52-.46.54h0s-.03,0-.04,0h0c-.26,0-.48-.2-.5-.47ZM70.57,164.5c0-.28.2-.52.48-.54h0c.27-.02.51.19.53.47h0c.02.28-.19.52-.47.54h-.03c-.27,0-.49-.21-.51-.47ZM70.41,161.47c-.01-.28.2-.52.48-.53h0c.28-.01.52.2.53.48h0c.01.28-.21.51-.48.53h-.03c-.27,0-.49-.21-.5-.48ZM70.31,158.43c0-.28.22-.51.49-.51h0c.28-.01.51.21.52.49h0c0,.28-.22.51-.49.51h-.02c-.27,0-.49-.21-.5-.49ZM207.44,292.66c-.28,0-.5-.24-.49-.51h0c0-.28.23-.5.51-.5h0c.28,0,.5.24.49.52h0c0,.27-.23.49-.5.49h-.01Z"/>
    </g>
    <path class="cls-6" d="M95.22,60.28c.73-.03,1.58-.33,2.24-1.04.43-.47.49-.93.24-1.16-.3-.28-.73-.04-1.36.41-.97.71-2.31,1.72-3.55.58-.88-.81-.96-2.26.28-3.61.78-.84,1.7-1.35,2.7-1.46l.29,1.63c-.77.11-1.48.52-1.91.98-.41.45-.39.79-.16,1,.28.25.67.02,1.31-.47.98-.7,2.33-1.67,3.52-.58,1.06.97,1.04,2.4-.25,3.81-.98,1.07-1.99,1.5-2.98,1.57l-.36-1.65Z"/>
    <path class="cls-6" d="M98.29,52.45l-1.42,1.41-1.13-1.14,4.15-4.11,1.13,1.14-1.42,1.4,3.9,3.94-1.31,1.3-3.9-3.94Z"/>
    <path class="cls-6" d="M105.99,49.4l-.7.63,1.62,1.8-1.37,1.23-4.77-5.31,2.66-2.39c1.18-1.06,2.55-.88,3.44.11.83.92.71,1.93.37,2.55l2.84.98-1.57,1.41-2.51-1ZM104.25,46.7l-1.08.97,1.07,1.2,1.08-.97c.36-.32.45-.83.12-1.19-.33-.37-.84-.33-1.2,0Z"/>
    <path class="cls-6" d="M106.28,42.78l1.45-1.18,2.65,3.25c.53.66,1.27.85,2.04.22.76-.62.73-1.38.19-2.04l-2.65-3.25,1.45-1.18,2.68,3.29c1.12,1.38,1.12,2.99-.65,4.44s-3.37,1.12-4.48-.25l-2.69-3.3Z"/>
    <path class="cls-6" d="M114.54,40.68c-1.31-1.78-.85-3.97.88-5.24,1.43-1.05,2.75-.82,3.69-.34l-.83,1.54c-.53-.32-1.3-.33-1.89.1-.9.66-1.03,1.87-.33,2.81.69.94,1.89,1.18,2.79.51.59-.44.81-1.18.66-1.78l1.72-.34c.18,1.02.02,2.37-1.42,3.42-1.72,1.27-3.96,1.05-5.26-.71Z"/>
    <path class="cls-6" d="M121.21,33.47l-1.67,1.11-.89-1.34,4.86-3.23.89,1.34-1.66,1.1,3.06,4.61-1.53,1.02-3.06-4.61Z"/>
    <path class="cls-6" d="M124.54,29.33l1.61-.96,2.14,3.6c.43.73,1.13,1.02,1.99.51.85-.5.92-1.26.49-1.99l-2.14-3.6,1.61-.96,2.17,3.65c.91,1.53.68,3.12-1.29,4.3-1.97,1.17-3.5.61-4.4-.9l-2.17-3.65Z"/>
    <path class="cls-6" d="M136.33,27.99l-.83.44,1.13,2.14-1.63.86-3.35-6.31,3.16-1.68c1.4-.74,2.69-.24,3.31.94.58,1.1.22,2.04-.26,2.56l2.52,1.64-1.86.99-2.19-1.58ZM135.3,24.95l-1.29.68.75,1.42,1.29-.68c.43-.23.64-.69.41-1.13-.23-.44-.74-.52-1.16-.29Z"/>
    <path class="cls-6" d="M144.95,25.2l-2.69,1.26.13,1.13-1.81.85-.59-7.61,2.1-.98,5.47,5.33-1.81.85-.79-.83ZM142.04,24.85l1.81-.85-2.14-2.2.33,3.05Z"/>
    <path class="cls-6" d="M145.26,18.42l1.7-.72,2.16,5.1,2.64-1.12.62,1.48-4.34,1.84-2.78-6.58Z"/>
    <path class="cls-6" d="M153.4,15.15l1.73-.63,2.45,6.71-1.73.63-2.45-6.71Z"/>
    <path class="cls-6" d="M158.49,18.37c.65.33,1.53.5,2.46.2.6-.19.89-.57.78-.89-.12-.39-.61-.4-1.39-.32-1.19.14-2.86.36-3.38-1.25-.37-1.14.28-2.44,2.02-3,1.09-.35,2.14-.33,3.07.06l-.55,1.56c-.72-.29-1.54-.28-2.14-.09-.58.19-.73.5-.63.79.12.36.57.34,1.37.24,1.2-.13,2.85-.3,3.35,1.24.44,1.37-.28,2.6-2.1,3.19-1.38.44-2.47.33-3.37-.11l.5-1.61Z"/>
    <path class="cls-6" d="M164.77,16.38c.63.36,1.51.55,2.45.29.61-.17.91-.53.81-.86-.11-.39-.6-.42-1.37-.37-1.2.09-2.87.25-3.33-1.38-.32-1.15.37-2.43,2.14-2.93,1.1-.31,2.16-.25,3.06.17l-.61,1.54c-.71-.31-1.53-.34-2.14-.17-.59.17-.75.47-.66.77.1.36.56.37,1.36.3,1.2-.08,2.86-.19,3.3,1.36.39,1.38-.37,2.59-2.22,3.11-1.39.39-2.48.23-3.36-.23l.57-1.59Z"/>
    <path class="cls-6" d="M169.64,10.1l1.83-.42.93,4.08c.19.83.76,1.32,1.73,1.1.96-.22,1.26-.91,1.08-1.74l-.93-4.08,1.83-.42.94,4.14c.39,1.73-.32,3.18-2.55,3.69-2.24.51-3.52-.5-3.91-2.21l-.94-4.15Z"/>
    <path class="cls-6" d="M177.72,8.31l5.16-.9.27,1.53-3.34.58.21,1.17,3.27-.57.27,1.54-3.27.57.22,1.27,3.34-.58.27,1.53-5.16.9-1.23-7.04Z"/>
    <path class="cls-6" d="M185.3,11.84c.58.44,1.42.76,2.39.63.63-.08.97-.4.93-.74-.05-.4-.53-.5-1.31-.56-1.2-.08-2.87-.15-3.1-1.83-.16-1.19.71-2.35,2.52-2.6,1.14-.15,2.17.05,3.01.6l-.82,1.44c-.66-.41-1.47-.55-2.1-.46-.6.08-.8.36-.76.67.05.37.5.44,1.31.48,1.2.09,2.86.21,3.08,1.81.19,1.42-.73,2.51-2.63,2.77-1.43.19-2.49-.12-3.29-.7l.78-1.5Z"/>
    <g>
      <path class="cls-5" d="M315.46,185.08l-2.17-.46c6.52-30.66.7-62.03-16.39-88.32-17.09-26.29-43.41-44.36-74.1-50.88l.46-2.17c31.27,6.64,58.09,25.05,75.5,51.84s23.34,58.75,16.7,89.99Z"/>
      <path class="cls-1" d="M102.18,187.88c-7.71-30.9-2.94-62.6,13.46-89.26,16.31-26.53,42.45-45.41,73.58-53.16l.54,2.15c-30.57,7.61-56.22,26.14-72.22,52.17-16.08,26.15-20.77,57.24-13.2,87.56l-2.15.54Z"/>
      <path class="cls-4" d="M207.54,265.01c-31.94,0-61.97-12.58-84.55-35.43l1.58-1.56c22.16,22.42,51.63,34.77,82.98,34.77,31.34,0,60.81-12.35,82.97-34.77l1.58,1.56c-22.58,22.85-52.61,35.43-84.55,35.43Z"/>
      <path class="cls-5" d="M239.13,63.65c.05,17.45-14.05,31.63-31.5,31.69-17.45.05-31.63-14.05-31.69-31.5s14.05-31.63,31.5-31.69c17.45-.05,31.63,14.05,31.69,31.5"/>
      <path class="cls-2" d="M207.54,90.83c-7.2,0-13.98-2.79-19.09-7.88-5.13-5.1-7.97-11.89-7.99-19.13-.02-7.23,2.78-14.04,7.88-19.18,5.1-5.13,11.89-7.97,19.13-7.99h.08c7.2,0,13.98,2.79,19.09,7.87,5.13,5.1,7.97,11.89,7.99,19.13.04,14.93-12.07,27.12-27,27.17h-.08ZM207.54,37.38h-.08c-7.04.02-13.66,2.78-18.63,7.78-4.97,5-7.69,11.63-7.67,18.67.02,7.04,2.78,13.66,7.78,18.63,4.98,4.95,11.58,7.67,18.59,7.67h.08c14.54-.04,26.34-11.91,26.29-26.45-.02-7.04-2.78-13.66-7.78-18.63-4.98-4.95-11.58-7.67-18.59-7.67Z"/>
    </g>
    <g>
      <path class="cls-2" d="M192.03,53.58h1.69c1.34,0,2.27.85,2.27,2.15s-.93,2.14-2.27,2.14h-1.69v-4.28ZM193.72,57.06c.85,0,1.34-.61,1.34-1.34s-.46-1.34-1.34-1.34h-.78v2.68h.78Z"/>
      <path class="cls-2" d="M198.03,54.69c.93,0,1.55.69,1.55,1.71v.18h-2.31c.05.39.37.72.89.72.29,0,.63-.12.83-.31l.36.53c-.31.29-.8.43-1.28.43-.94,0-1.66-.64-1.66-1.63,0-.9.66-1.62,1.61-1.62ZM197.27,56.02h1.53c-.02-.3-.23-.69-.76-.69-.51,0-.73.38-.76.69Z"/>
      <path class="cls-2" d="M201.59,54.69c.93,0,1.55.69,1.55,1.71v.18h-2.31c.05.39.37.72.89.72.29,0,.63-.12.83-.31l.36.53c-.31.29-.8.43-1.28.43-.94,0-1.66-.64-1.66-1.63,0-.9.66-1.62,1.61-1.62ZM200.82,56.02h1.53c-.02-.3-.23-.69-.76-.69-.51,0-.73.38-.76.69Z"/>
      <path class="cls-2" d="M203.74,59.05v-4.28h.82v.39c.24-.3.58-.47.96-.47.8,0,1.37.59,1.37,1.62s-.58,1.63-1.37,1.63c-.37,0-.71-.15-.96-.48v1.58h-.82ZM205.25,55.41c-.26,0-.57.15-.7.35v1.1c.13.19.44.35.7.35.47,0,.78-.37.78-.91s-.31-.9-.78-.9Z"/>
      <path class="cls-2" d="M208.9,54.69c.93,0,1.55.69,1.55,1.71v.18h-2.31c.05.39.37.72.89.72.29,0,.63-.12.83-.31l.36.53c-.31.29-.8.43-1.28.43-.94,0-1.66-.64-1.66-1.63,0-.9.66-1.62,1.61-1.62ZM208.14,56.02h1.53c-.02-.3-.23-.69-.76-.69-.51,0-.73.38-.76.69Z"/>
      <path class="cls-2" d="M213.15,55.99c0-.43-.23-.58-.57-.58-.32,0-.57.18-.71.37v2.09h-.82v-3.1h.82v.4c.2-.24.58-.48,1.09-.48.68,0,1.01.39,1.01.99v2.19h-.82v-1.88Z"/>
      <path class="cls-2" d="M214.69,53.82c0-.27.22-.49.49-.49s.49.22.49.49-.22.49-.49.49-.49-.22-.49-.49ZM214.77,54.77h.82v3.1h-.82v-3.1Z"/>
      <path class="cls-2" d="M218.49,55.99c0-.43-.22-.58-.57-.58-.32,0-.57.18-.71.37v2.09h-.82v-3.1h.82v.4c.2-.24.58-.48,1.09-.48.68,0,1.01.39,1.01.99v2.19h-.82v-1.88Z"/>
      <path class="cls-2" d="M220.42,58.07c.25.28.58.39.97.39s.85-.17.85-.78v-.31c-.24.31-.58.49-.96.49-.78,0-1.37-.55-1.37-1.58s.58-1.58,1.37-1.58c.37,0,.71.16.96.48v-.4h.82v2.89c0,1.18-.91,1.47-1.68,1.47-.53,0-.95-.12-1.34-.46l.37-.59ZM222.25,55.77c-.13-.21-.43-.35-.7-.35-.46,0-.78.32-.78.85s.32.85.78.85c.27,0,.57-.15.7-.35v-1Z"/>
    </g>
    <g>
      <path class="cls-2" d="M199.67,64.39c.22.21.69.42,1.07.42.35,0,.52-.12.52-.31,0-.22-.27-.3-.62-.37-.53-.1-1.22-.23-1.22-.97,0-.52.46-.98,1.27-.98.53,0,.94.18,1.25.42l-.32.56c-.19-.2-.54-.36-.92-.36-.3,0-.49.11-.49.29,0,.19.24.26.59.33.53.1,1.25.24,1.25,1.02,0,.57-.48,1-1.34,1-.54,0-1.06-.18-1.39-.48l.35-.57Z"/>
      <path class="cls-2" d="M202.46,63.81c0-.88.62-1.62,1.64-1.62s1.64.75,1.64,1.62-.62,1.63-1.64,1.63-1.64-.75-1.64-1.63ZM204.89,63.81c0-.48-.29-.9-.8-.9s-.79.42-.79.9.28.91.79.91.8-.42.8-.91Z"/>
      <path class="cls-2" d="M207.79,62.19c.64,0,1.02.28,1.23.56l-.53.49c-.15-.21-.37-.33-.66-.33-.49,0-.84.36-.84.9s.35.91.84.91c.28,0,.51-.13.66-.33l.53.49c-.21.29-.59.57-1.23.57-.96,0-1.64-.67-1.64-1.63s.69-1.62,1.64-1.62Z"/>
      <path class="cls-2" d="M209.47,61.32c0-.27.22-.49.49-.49s.49.22.49.49-.22.49-.49.49-.49-.22-.49-.49ZM209.55,62.27h.82v3.1h-.82v-3.1Z"/>
      <path class="cls-2" d="M213.04,65.05c-.21.25-.58.4-.98.4-.49,0-1.08-.33-1.08-1.03s.58-.99,1.08-.99c.41,0,.78.13.98.38v-.43c0-.31-.27-.52-.68-.52-.33,0-.64.12-.91.37l-.31-.55c.38-.33.87-.49,1.36-.49.71,0,1.36.28,1.36,1.18v2h-.82v-.32ZM213.04,64.24c-.13-.18-.39-.27-.66-.27-.32,0-.58.17-.58.47s.26.46.58.46c.26,0,.52-.09.66-.27v-.39Z"/>
      <path class="cls-2" d="M214.67,61.08h.82v4.28h-.82v-4.28Z"/>
    </g>
    <g>
      <path class="cls-2" d="M187.48,70.48h-.51v-.71h.51v-.17c0-.67.44-1.08,1.05-1.08.23,0,.44.05.59.13l-.17.58c-.07-.04-.17-.06-.26-.06-.23,0-.39.15-.39.45v.15h.63v.71h-.63v2.39h-.82v-2.39Z"/>
      <path class="cls-2" d="M189.4,69.77h.82v.42c.22-.28.6-.49.99-.49v.8c-.06-.01-.14-.02-.23-.02-.27,0-.63.15-.76.35v2.05h-.82v-3.1Z"/>
      <path class="cls-2" d="M193.58,72.55c-.21.25-.58.4-.98.4-.49,0-1.08-.33-1.08-1.03s.58-.99,1.08-.99c.41,0,.78.13.98.38v-.43c0-.31-.27-.52-.68-.52-.33,0-.64.12-.91.37l-.31-.55c.38-.33.87-.49,1.36-.49.71,0,1.36.28,1.36,1.18v2h-.82v-.32ZM193.58,71.74c-.13-.18-.39-.27-.66-.27-.32,0-.58.17-.58.47s.26.46.58.46c.26,0,.52-.09.66-.27v-.39Z"/>
      <path class="cls-2" d="M195.51,73.07c.25.28.58.39.97.39s.85-.17.85-.78v-.31c-.24.31-.58.49-.96.49-.78,0-1.37-.55-1.37-1.58s.58-1.58,1.37-1.58c.37,0,.71.16.96.48v-.4h.82v2.89c0,1.18-.91,1.47-1.68,1.47-.53,0-.95-.12-1.34-.46l.37-.59ZM197.33,70.77c-.14-.21-.43-.35-.7-.35-.46,0-.78.32-.78.85s.32.85.78.85c.27,0,.56-.15.7-.35v-1Z"/>
      <path class="cls-2" d="M202.81,70.91c0-.29-.13-.49-.46-.49-.29,0-.53.19-.64.36v2.09h-.82v-1.96c0-.29-.13-.49-.46-.49-.28,0-.52.19-.64.37v2.09h-.82v-3.1h.82v.4c.13-.19.54-.48,1.01-.48s.75.21.86.56c.18-.28.59-.56,1.07-.56.57,0,.91.3.91.94v2.24h-.82v-1.96Z"/>
      <path class="cls-2" d="M205.85,69.69c.93,0,1.55.69,1.55,1.71v.18h-2.31c.05.39.37.72.89.72.29,0,.63-.12.83-.31l.36.53c-.31.29-.8.43-1.28.43-.94,0-1.66-.64-1.66-1.63,0-.9.66-1.62,1.61-1.62ZM205.09,71.03h1.53c-.02-.3-.23-.69-.76-.69-.51,0-.73.38-.76.69Z"/>
      <path class="cls-2" d="M210.09,70.99c0-.43-.23-.58-.57-.58-.32,0-.57.18-.71.37v2.09h-.82v-3.1h.82v.4c.2-.24.58-.48,1.09-.48.68,0,1.01.39,1.01.99v2.19h-.82v-1.88Z"/>
      <path class="cls-2" d="M211.88,72.1v-1.62h-.51v-.71h.51v-.85h.82v.85h.63v.71h-.63v1.4c0,.19.1.34.28.34.12,0,.24-.04.28-.09l.17.62c-.12.11-.34.2-.68.2-.57,0-.88-.3-.88-.85Z"/>
      <path class="cls-2" d="M215.75,72.55c-.21.25-.58.4-.98.4-.5,0-1.08-.33-1.08-1.03s.58-.99,1.08-.99c.41,0,.78.13.98.38v-.43c0-.31-.27-.52-.68-.52-.33,0-.64.12-.91.37l-.31-.55c.38-.33.87-.49,1.36-.49.71,0,1.36.28,1.36,1.18v2h-.82v-.32ZM215.75,71.74c-.13-.18-.39-.27-.66-.27-.32,0-.58.17-.58.47s.26.46.58.46c.26,0,.52-.09.66-.27v-.39Z"/>
      <path class="cls-2" d="M217.54,72.1v-1.62h-.51v-.71h.51v-.85h.82v.85h.63v.71h-.63v1.4c0,.19.1.34.28.34.12,0,.24-.04.28-.09l.17.62c-.12.11-.34.2-.68.2-.57,0-.88-.3-.88-.85Z"/>
      <path class="cls-2" d="M219.47,68.82c0-.27.22-.49.49-.49s.49.22.49.49-.22.49-.49.49-.49-.22-.49-.49ZM219.55,69.77h.82v3.1h-.82v-3.1Z"/>
      <path class="cls-2" d="M220.98,71.31c0-.88.62-1.62,1.64-1.62s1.64.75,1.64,1.62-.62,1.63-1.64,1.63-1.64-.75-1.64-1.63ZM223.42,71.31c0-.48-.29-.9-.8-.9s-.79.42-.79.9.28.91.79.91.8-.42.8-.91Z"/>
      <path class="cls-2" d="M226.96,70.99c0-.43-.22-.58-.57-.58-.32,0-.57.18-.71.37v2.09h-.82v-3.1h.82v.4c.2-.24.58-.48,1.09-.48.68,0,1.01.39,1.01.99v2.19h-.82v-1.88Z"/>
    </g>
    <g>
      <path class="cls-4" d="M321.32,202.67c.05,17.45-14.05,31.63-31.5,31.69-17.45.05-31.63-14.05-31.69-31.5-.05-17.45,14.05-31.63,31.5-31.69,17.45-.05,31.63,14.05,31.69,31.5"/>
      <path class="cls-2" d="M289.72,229.85c-7.2,0-13.98-2.79-19.09-7.87-5.13-5.1-7.97-11.89-7.99-19.13-.04-14.93,12.07-27.12,27-27.17h.08c7.2,0,13.98,2.79,19.09,7.88,5.13,5.1,7.97,11.89,7.99,19.13h0c.04,14.93-12.07,27.12-27,27.16h-.09ZM289.73,176.39h-.08c-14.54.04-26.34,11.91-26.29,26.45.02,7.04,2.78,13.66,7.78,18.63,5,4.97,11.6,7.67,18.67,7.67,14.54-.04,26.34-11.91,26.29-26.45h0c-.02-7.04-2.78-13.66-7.78-18.63-4.98-4.95-11.58-7.67-18.59-7.67Z"/>
    </g>
    <g>
      <path class="cls-2" d="M273.55,193.74h.91v4.28h-.91v-4.28Z"/>
      <path class="cls-2" d="M277.38,196.15c0-.43-.22-.58-.57-.58-.32,0-.57.18-.71.37v2.09h-.82v-3.1h.82v.4c.2-.24.58-.48,1.09-.48.68,0,1.01.39,1.01.99v2.19h-.82v-1.88Z"/>
      <path class="cls-2" d="M280.46,194.85c.64,0,1.02.28,1.23.56l-.53.49c-.15-.21-.37-.33-.66-.33-.5,0-.84.36-.84.9s.35.91.84.91c.28,0,.51-.13.66-.33l.53.49c-.21.29-.59.57-1.23.57-.96,0-1.64-.67-1.64-1.63s.69-1.62,1.64-1.62Z"/>
      <path class="cls-2" d="M282.22,194.92h.82v.42c.22-.28.6-.49.99-.49v.8c-.06-.01-.13-.02-.22-.02-.27,0-.63.15-.76.35v2.05h-.82v-3.1Z"/>
      <path class="cls-2" d="M285.94,194.85c.92,0,1.55.69,1.55,1.71v.18h-2.31c.05.39.37.72.89.72.29,0,.63-.12.83-.31l.36.53c-.32.29-.8.43-1.28.43-.94,0-1.66-.64-1.66-1.63,0-.9.66-1.62,1.61-1.62ZM285.18,196.18h1.53c-.02-.3-.22-.69-.76-.69-.51,0-.73.38-.76.69Z"/>
      <path class="cls-2" d="M289.95,197.7c-.21.25-.58.4-.98.4-.5,0-1.08-.33-1.08-1.03s.58-.99,1.08-.99c.41,0,.78.13.98.38v-.43c0-.31-.27-.52-.68-.52-.33,0-.64.12-.91.37l-.31-.55c.38-.33.87-.49,1.36-.49.71,0,1.36.28,1.36,1.18v2h-.82v-.32ZM289.95,196.9c-.13-.18-.39-.27-.66-.27-.32,0-.58.17-.58.47s.26.46.58.46c.26,0,.52-.09.66-.27v-.39Z"/>
      <path class="cls-2" d="M291.66,197.05c.22.21.69.42,1.07.42.35,0,.52-.12.52-.31,0-.22-.27-.3-.62-.37-.53-.1-1.22-.23-1.22-.97,0-.52.46-.98,1.27-.98.53,0,.94.18,1.25.42l-.32.56c-.19-.2-.54-.36-.92-.36-.29,0-.49.11-.49.29,0,.19.24.26.59.33.53.1,1.25.24,1.25,1.02,0,.57-.48,1-1.34,1-.54,0-1.06-.18-1.39-.48l.35-.57Z"/>
      <path class="cls-2" d="M294.56,193.98c0-.27.22-.49.49-.49s.49.22.49.49-.22.49-.49.49-.49-.22-.49-.49ZM294.64,194.92h.82v3.1h-.82v-3.1Z"/>
      <path class="cls-2" d="M298.36,196.15c0-.43-.22-.58-.57-.58-.32,0-.57.18-.71.37v2.09h-.82v-3.1h.82v.4c.2-.24.58-.48,1.09-.48.68,0,1.01.39,1.01.99v2.19h-.82v-1.88Z"/>
      <path class="cls-2" d="M300.29,198.23c.25.28.58.39.97.39s.85-.17.85-.78v-.31c-.24.31-.58.49-.96.49-.78,0-1.37-.55-1.37-1.58s.58-1.58,1.37-1.58c.37,0,.71.16.96.48v-.4h.82v2.89c0,1.18-.91,1.47-1.68,1.47-.53,0-.95-.12-1.34-.46l.37-.59ZM302.12,195.92c-.13-.21-.43-.35-.7-.35-.46,0-.78.32-.78.85s.32.85.78.85c.27,0,.57-.15.7-.35v-1Z"/>
      <path class="cls-2" d="M303.75,193.74h.82v4.28h-.82v-4.28Z"/>
      <path class="cls-2" d="M305.65,198.56c.21,0,.35-.06.43-.23l.12-.26-1.26-3.15h.87l.81,2.16.81-2.16h.88l-1.46,3.61c-.23.58-.64.74-1.18.75-.1,0-.3-.02-.4-.04l.12-.73c.07.03.18.05.26.05Z"/>
    </g>
    <g>
      <path class="cls-2" d="M279.04,202.35c.64,0,1.02.28,1.23.56l-.53.49c-.15-.21-.37-.33-.66-.33-.5,0-.84.36-.84.9s.35.91.84.91c.28,0,.51-.13.66-.33l.53.49c-.21.29-.59.57-1.23.57-.96,0-1.64-.67-1.64-1.63s.69-1.62,1.64-1.62Z"/>
      <path class="cls-2" d="M282.9,203.64c0-.43-.22-.57-.58-.57-.31,0-.56.18-.71.37v2.09h-.82v-4.28h.82v1.59c.2-.24.58-.48,1.09-.48.68,0,1.01.37,1.01.98v2.2h-.82v-1.89Z"/>
      <path class="cls-2" d="M286.39,205.21c-.21.25-.58.4-.98.4-.5,0-1.08-.33-1.08-1.03s.58-.99,1.08-.99c.41,0,.78.13.98.38v-.43c0-.31-.27-.52-.68-.52-.33,0-.64.12-.91.37l-.31-.55c.38-.33.87-.49,1.36-.49.71,0,1.35.28,1.35,1.18v2h-.82v-.32ZM286.39,204.4c-.13-.18-.39-.27-.66-.27-.32,0-.58.17-.58.47s.26.46.58.46c.26,0,.52-.09.66-.27v-.39Z"/>
      <path class="cls-2" d="M290.11,203.65c0-.43-.22-.58-.57-.58-.32,0-.57.18-.71.37v2.09h-.82v-3.1h.82v.4c.2-.24.58-.48,1.09-.48.68,0,1.01.39,1.01.99v2.19h-.82v-1.88Z"/>
      <path class="cls-2" d="M292.04,205.73c.25.28.58.39.97.39s.85-.17.85-.78v-.31c-.24.31-.58.49-.96.49-.78,0-1.37-.55-1.37-1.58s.58-1.58,1.37-1.58c.37,0,.71.16.96.48v-.4h.82v2.89c0,1.18-.91,1.47-1.68,1.47-.53,0-.95-.12-1.34-.46l.37-.59ZM293.87,203.43c-.13-.21-.43-.35-.7-.35-.46,0-.78.32-.78.85s.32.85.78.85c.27,0,.57-.15.7-.35v-1Z"/>
      <path class="cls-2" d="M295.42,201.48c0-.27.22-.49.49-.49s.49.22.49.49-.22.49-.49.49-.49-.22-.49-.49ZM295.5,202.42h.82v3.1h-.82v-3.1Z"/>
      <path class="cls-2" d="M299.22,203.65c0-.43-.22-.58-.57-.58-.32,0-.57.18-.71.37v2.09h-.82v-3.1h.82v.4c.2-.24.58-.48,1.09-.48.68,0,1.01.39,1.01.99v2.19h-.82v-1.88Z"/>
      <path class="cls-2" d="M301.15,205.73c.25.28.58.39.97.39s.85-.17.85-.78v-.31c-.24.31-.58.49-.96.49-.78,0-1.37-.55-1.37-1.58s.58-1.58,1.37-1.58c.37,0,.71.16.96.48v-.4h.82v2.89c0,1.18-.91,1.47-1.68,1.47-.53,0-.95-.12-1.34-.46l.37-.59ZM302.97,203.43c-.13-.21-.43-.35-.7-.35-.46,0-.78.32-.78.85s.32.85.78.85c.27,0,.57-.15.7-.35v-1Z"/>
    </g>
    <g>
      <path class="cls-2" d="M281.97,209.85c.64,0,1.02.28,1.23.56l-.53.49c-.15-.21-.37-.33-.66-.33-.5,0-.84.36-.84.9s.35.91.84.91c.28,0,.51-.13.66-.33l.53.49c-.21.29-.59.57-1.23.57-.96,0-1.64-.67-1.64-1.63s.69-1.62,1.64-1.62Z"/>
      <path class="cls-2" d="M283.73,208.74h.82v4.28h-.82v-4.28Z"/>
      <path class="cls-2" d="M285.27,208.98c0-.27.22-.49.49-.49s.49.22.49.49-.22.49-.49.49-.49-.22-.49-.49ZM285.36,209.92h.82v3.1h-.82v-3.1Z"/>
      <path class="cls-2" d="M290.83,211.07c0-.29-.13-.49-.46-.49-.29,0-.53.19-.64.36v2.09h-.82v-1.96c0-.29-.13-.49-.46-.49-.28,0-.52.19-.64.37v2.09h-.82v-3.1h.82v.4c.13-.19.54-.48,1.01-.48s.75.21.86.56c.18-.28.59-.56,1.07-.56.57,0,.91.3.91.94v2.24h-.82v-1.96Z"/>
      <path class="cls-2" d="M294.32,212.71c-.21.25-.58.4-.98.4-.5,0-1.08-.33-1.08-1.03s.58-.99,1.08-.99c.41,0,.78.13.98.38v-.43c0-.31-.27-.52-.68-.52-.33,0-.64.12-.91.37l-.31-.55c.38-.33.87-.49,1.36-.49.71,0,1.36.28,1.36,1.18v2h-.82v-.32ZM294.32,211.9c-.13-.18-.39-.27-.66-.27-.32,0-.58.17-.58.47s.26.46.58.46c.26,0,.52-.09.66-.27v-.39Z"/>
      <path class="cls-2" d="M296.11,212.26v-1.62h-.51v-.71h.51v-.85h.82v.85h.63v.71h-.63v1.4c0,.19.1.34.28.34.12,0,.24-.04.28-.09l.17.62c-.12.11-.34.2-.68.2-.57,0-.88-.3-.88-.85Z"/>
      <path class="cls-2" d="M299.53,209.85c.92,0,1.55.69,1.55,1.71v.18h-2.31c.05.39.37.72.89.72.29,0,.63-.12.83-.31l.36.53c-.32.29-.8.43-1.28.43-.94,0-1.66-.64-1.66-1.63,0-.9.66-1.62,1.61-1.62ZM298.76,211.18h1.53c-.02-.3-.22-.69-.76-.69-.51,0-.73.38-.76.69Z"/>
    </g>
    <g>
      <path class="cls-1" d="M159.52,202.67c.05,17.45-14.05,31.63-31.5,31.69-17.45.05-31.63-14.05-31.69-31.5-.05-17.45,14.05-31.63,31.5-31.69,17.45-.05,31.63,14.05,31.69,31.5"/>
      <path class="cls-2" d="M127.93,229.85c-7.2,0-13.98-2.79-19.09-7.87-5.13-5.1-7.97-11.89-7.99-19.13s2.78-14.04,7.88-19.18c5.1-5.13,11.89-7.97,19.13-7.99h.08c7.2,0,13.98,2.79,19.09,7.87,5.13,5.1,7.97,11.89,7.99,19.13h0c.02,7.23-2.77,14.04-7.87,19.17s-11.89,7.97-19.13,7.99h-.09ZM127.93,176.39h-.08c-7.04.02-13.66,2.78-18.63,7.78-4.97,5-7.69,11.63-7.67,18.67.02,7.04,2.78,13.66,7.78,18.63,4.98,4.95,11.58,7.67,18.59,7.67h.08c7.04-.02,13.66-2.78,18.63-7.78s7.69-11.63,7.67-18.67h0c-.02-7.04-2.78-13.66-7.78-18.63-4.98-4.95-11.58-7.67-18.59-7.67Z"/>
    </g>
    <g>
      <path class="cls-2" d="M119.29,192.69h-.67v1.54h-.91v-4.28h2c.89,0,1.44.58,1.44,1.38s-.48,1.16-.94,1.27l.96,1.63h-1.05l-.84-1.54ZM119.58,190.72h-.96v1.18h.96c.37,0,.64-.23.64-.59s-.28-.59-.64-.59Z"/>
      <path class="cls-2" d="M123.56,193.9c-.21.25-.58.4-.98.4-.49,0-1.08-.33-1.08-1.03s.58-.99,1.08-.99c.41,0,.78.13.98.38v-.43c0-.31-.27-.52-.68-.52-.33,0-.64.12-.91.37l-.31-.55c.38-.33.87-.49,1.36-.49.71,0,1.36.28,1.36,1.18v2h-.82v-.32ZM123.56,193.09c-.13-.18-.39-.27-.66-.27-.32,0-.58.17-.58.47s.26.46.58.46c.26,0,.52-.09.66-.27v-.39Z"/>
      <path class="cls-2" d="M125.19,195.4v-4.28h.82v.39c.24-.3.58-.47.96-.47.8,0,1.37.59,1.37,1.62s-.58,1.63-1.37,1.63c-.37,0-.71-.15-.96-.48v1.58h-.82ZM126.71,191.77c-.26,0-.57.15-.7.35v1.1c.13.19.44.35.7.35.47,0,.78-.37.78-.91s-.31-.9-.78-.9Z"/>
      <path class="cls-2" d="M128.87,190.17c0-.27.22-.49.49-.49s.49.22.49.49-.22.49-.49.49-.49-.22-.49-.49ZM128.95,191.12h.82v3.1h-.82v-3.1Z"/>
      <path class="cls-2" d="M132.71,193.83c-.24.3-.58.47-.96.47-.78,0-1.37-.59-1.37-1.63s.58-1.63,1.37-1.63c.37,0,.71.16.96.48v-1.58h.82v4.28h-.82v-.39ZM132.71,192.12c-.14-.21-.43-.35-.71-.35-.46,0-.78.37-.78.91s.32.9.78.9c.28,0,.56-.15.71-.35v-1.1Z"/>
      <path class="cls-2" d="M134.34,189.94h.82v4.28h-.82v-4.28Z"/>
      <path class="cls-2" d="M136.24,194.75c.21,0,.35-.06.43-.23l.12-.26-1.26-3.15h.87l.81,2.16.81-2.16h.88l-1.46,3.61c-.23.58-.64.74-1.18.75-.1,0-.3-.02-.4-.04l.12-.73c.07.03.18.05.26.05Z"/>
    </g>
    <g>
      <path class="cls-2" d="M117.6,198.54c.93,0,1.55.69,1.55,1.71v.18h-2.31c.05.39.37.72.89.72.29,0,.63-.12.83-.31l.36.53c-.31.29-.8.43-1.28.43-.94,0-1.66-.64-1.66-1.63,0-.9.66-1.62,1.61-1.62ZM116.83,199.88h1.53c-.02-.3-.23-.69-.76-.69-.51,0-.73.38-.76.69Z"/>
      <path class="cls-2" d="M119.3,198.62h.87l.81,2.16.81-2.16h.88l-1.25,3.1h-.88l-1.25-3.1Z"/>
      <path class="cls-2" d="M122.84,200.17c0-.88.62-1.62,1.64-1.62s1.64.75,1.64,1.62-.62,1.63-1.64,1.63-1.64-.75-1.64-1.63ZM125.28,200.17c0-.48-.29-.9-.8-.9s-.79.42-.79.9.28.91.79.91.8-.42.8-.91Z"/>
      <path class="cls-2" d="M126.73,197.44h.82v4.28h-.82v-4.28Z"/>
      <path class="cls-2" d="M127.91,198.62h.87l.81,2.16.81-2.16h.88l-1.25,3.1h-.88l-1.25-3.1Z"/>
      <path class="cls-2" d="M131.57,197.68c0-.27.22-.49.49-.49s.49.22.49.49-.22.49-.49.49-.49-.22-.49-.49ZM131.65,198.62h.82v3.1h-.82v-3.1Z"/>
      <path class="cls-2" d="M135.38,199.85c0-.43-.23-.58-.57-.58-.32,0-.57.18-.71.37v2.09h-.82v-3.1h.82v.4c.2-.24.58-.48,1.09-.48.68,0,1.01.39,1.01.99v2.19h-.82v-1.88Z"/>
      <path class="cls-2" d="M137.3,201.93c.25.28.58.39.97.39s.85-.17.85-.78v-.31c-.24.31-.58.49-.96.49-.78,0-1.37-.55-1.37-1.58s.58-1.58,1.37-1.58c.37,0,.71.16.96.48v-.4h.82v2.89c0,1.18-.91,1.47-1.68,1.47-.53,0-.95-.12-1.34-.46l.37-.59ZM139.13,199.62c-.14-.21-.43-.35-.7-.35-.46,0-.78.32-.78.85s.32.85.78.85c.27,0,.56-.15.7-.35v-1Z"/>
    </g>
    <g>
      <path class="cls-2" d="M109.94,208.45v-1.62h-.51v-.71h.51v-.85h.82v.85h.63v.71h-.63v1.4c0,.19.1.34.28.34.12,0,.24-.04.28-.09l.17.62c-.12.11-.34.2-.68.2-.57,0-.88-.3-.88-.85Z"/>
      <path class="cls-2" d="M113.36,206.04c.93,0,1.55.69,1.55,1.71v.18h-2.31c.05.39.37.72.89.72.29,0,.63-.12.83-.31l.36.53c-.31.29-.8.43-1.28.43-.94,0-1.66-.64-1.66-1.63,0-.9.66-1.62,1.61-1.62ZM112.6,207.38h1.53c-.02-.3-.23-.69-.76-.69-.51,0-.73.38-.76.69Z"/>
      <path class="cls-2" d="M116.95,206.04c.64,0,1.02.28,1.23.56l-.53.49c-.15-.21-.37-.33-.66-.33-.49,0-.84.36-.84.9s.35.91.84.91c.28,0,.51-.13.66-.33l.53.49c-.21.29-.59.57-1.23.57-.96,0-1.64-.67-1.64-1.63s.69-1.62,1.64-1.62Z"/>
      <path class="cls-2" d="M120.82,207.33c0-.43-.23-.57-.58-.57-.31,0-.57.18-.71.37v2.09h-.82v-4.28h.82v1.59c.2-.24.58-.48,1.09-.48.68,0,1.01.37,1.01.98v2.2h-.82v-1.89Z"/>
      <path class="cls-2" d="M124.54,207.35c0-.43-.23-.58-.57-.58-.32,0-.57.18-.71.37v2.09h-.82v-3.1h.82v.4c.2-.24.58-.48,1.09-.48.68,0,1.01.39,1.01.99v2.19h-.82v-1.88Z"/>
      <path class="cls-2" d="M125.97,207.67c0-.88.62-1.62,1.64-1.62s1.64.75,1.64,1.62-.62,1.63-1.64,1.63-1.64-.75-1.64-1.63ZM128.4,207.67c0-.48-.29-.9-.8-.9s-.79.42-.79.9.28.91.79.91.8-.42.8-.91Z"/>
      <path class="cls-2" d="M129.86,204.94h.82v4.28h-.82v-4.28Z"/>
      <path class="cls-2" d="M131.28,207.67c0-.88.62-1.62,1.64-1.62s1.64.75,1.64,1.62-.62,1.63-1.64,1.63-1.64-.75-1.64-1.63ZM133.72,207.67c0-.48-.29-.9-.8-.9s-.79.42-.79.9.28.91.79.91.8-.42.8-.91Z"/>
      <path class="cls-2" d="M135.47,209.43c.25.28.58.39.97.39s.85-.17.85-.78v-.31c-.24.31-.58.49-.96.49-.78,0-1.37-.55-1.37-1.58s.58-1.58,1.37-1.58c.37,0,.71.16.96.48v-.4h.82v2.89c0,1.18-.91,1.47-1.68,1.47-.53,0-.95-.12-1.34-.46l.37-.59ZM137.3,207.12c-.14-.21-.43-.35-.7-.35-.46,0-.78.32-.78.85s.32.85.78.85c.27,0,.56-.15.7-.35v-1Z"/>
      <path class="cls-2" d="M138.85,205.18c0-.27.22-.49.49-.49s.49.22.49.49-.22.49-.49.49-.49-.22-.49-.49ZM138.93,206.12h.82v3.1h-.82v-3.1Z"/>
      <path class="cls-2" d="M141.96,206.04c.93,0,1.55.69,1.55,1.71v.18h-2.31c.05.39.37.72.89.72.29,0,.63-.12.83-.31l.36.53c-.31.29-.8.43-1.28.43-.94,0-1.66-.64-1.66-1.63,0-.9.66-1.62,1.61-1.62ZM141.2,207.38h1.53c-.02-.3-.23-.69-.76-.69-.51,0-.73.38-.76.69Z"/>
      <path class="cls-2" d="M144.19,208.25c.22.21.69.42,1.07.42.35,0,.52-.12.52-.31,0-.22-.27-.3-.62-.37-.53-.1-1.22-.23-1.22-.97,0-.52.46-.98,1.27-.98.53,0,.94.18,1.25.42l-.32.56c-.19-.2-.54-.36-.92-.36-.3,0-.49.11-.49.29,0,.19.24.26.59.33.53.1,1.25.24,1.25,1.02,0,.57-.48,1-1.34,1-.54,0-1.06-.18-1.39-.48l.35-.57Z"/>
    </g>
    <path d="M90.72,136.8l3.76.75-.13.66-4.9-.98.14-.68,4.15-1.67-3.67-.73.13-.66,4.9.98-.13.64-4.25,1.69Z"/>
    <path d="M91.02,129.51c.33-1.3,1.62-1.93,3.06-1.57,1.44.36,2.28,1.53,1.95,2.83-.33,1.3-1.62,1.93-3.06,1.57-1.44-.36-2.28-1.53-1.95-2.83ZM91.66,129.67c-.24.93.41,1.72,1.48,1.99,1.06.27,2.01-.12,2.24-1.05.23-.92-.42-1.73-1.48-1.99-1.07-.27-2.01.13-2.24,1.06Z"/>
    <path d="M91.93,126.16l.22-.74,4.42-.16-3.58-2.59.22-.74,4.26,3.16-.24.81-5.3.26Z"/>
    <path d="M93.65,120.54l.98-2.86.62.21-.76,2.22,1.38.47.74-2.18.62.21-.74,2.18,1.47.5.76-2.22.62.21-.98,2.86-4.73-1.61Z"/>
    <path d="M95.22,116.03l.24-.63,4.06,1.54.72-1.91.62.23-.96,2.54-4.67-1.77Z"/>
    <path d="M98.84,108.82l-.57,1.28-.6-.27,1.4-3.16.6.27-.56,1.27,3.97,1.76-.27.62-3.97-1.76Z"/>
    <path d="M103.63,103.55l-1.1,2.23,2,.99-.3.6-4.48-2.21.3-.6,1.88.93,1.1-2.23-1.88-.93.3-.6,4.48,2.21-.3.6-2-.99Z"/>
    <path d="M105.74,100.14l-.4.74,1.7.91-.32.59-4.41-2.35.89-1.67c.4-.76,1.22-.98,2.03-.55.79.42.96,1.13.76,1.68l2.31-.08-.37.69-2.2.04ZM103.75,98.74l-.53,1,1.55.83.53-1c.23-.43.08-.9-.38-1.15-.46-.25-.94-.1-1.17.33Z"/>
    <path d="M104.76,95.53l1.53-2.6.57.33-1.19,2.02,1.26.74,1.17-1.98.57.33-1.17,1.98,1.34.79,1.19-2.02.57.33-1.53,2.6-4.31-2.53Z"/>
    <path d="M112.06,91.14l-1.17,1.87.68.86-.39.63-3.28-4.17.45-.71,5.18,1.15-.4.63-1.07-.24ZM110.43,92.49l.97-1.54-2.72-.64,1.76,2.17Z"/>
    <path d="M111.04,86.69l-.79,1.15-.54-.37,1.96-2.85.54.37-.79,1.15,3.58,2.46-.38.56-3.58-2.46Z"/>
    <path d="M115.62,85.43c.48-.02,1.03-.22,1.4-.73.43-.59.25-1.04-.04-1.25-.42-.31-.85.02-1.32.38-.6.46-1.28,1-2.1.39-.67-.49-.76-1.37-.21-2.13.41-.56.93-.85,1.53-.91l.22.64c-.53.04-.95.31-1.24.71-.29.4-.27.85.07,1.1.36.27.76-.04,1.22-.4.61-.46,1.32-1,2.18-.38.63.46.93,1.28.21,2.26-.47.65-1.08.93-1.69.96l-.24-.65Z"/>
    <path d="M172.25,266.84l-1.06,3.69-.65-.19,1.38-4.8.67.19,1.32,4.28,1.04-3.6.65.19-1.38,4.8-.63-.18-1.33-4.37Z"/>
    <path d="M179.15,267.46c1.3.33,1.93,1.62,1.57,3.06s-1.53,2.28-2.83,1.95-1.93-1.62-1.57-3.06,1.53-2.28,2.83-1.95ZM178.98,268.11c-.94-.24-1.72.41-1.99,1.48-.27,1.06.12,2.01,1.06,2.24.92.23,1.73-.41,1.99-1.48.27-1.07-.13-2.01-1.06-2.24Z"/>
    <path d="M182.1,268.28l.75.16.52,4.39,2.3-3.78.75.16-2.81,4.5-.82-.18-.69-5.26Z"/>
    <path d="M187.51,269.41l2.97.54-.12.65-2.31-.42-.26,1.44,2.26.41-.12.65-2.26-.41-.28,1.53,2.31.42-.12.65-2.97-.54.9-4.92Z"/>
    <path d="M191.89,270.17l.67.1-.63,4.29,2.02.3-.1.65-2.69-.4.73-4.94Z"/>
    <path d="M199.3,271.79l-1.39-.13.06-.66,3.44.33-.06.66-1.38-.13-.41,4.32-.67-.06.41-4.32Z"/>
    <path d="M205.67,274.39l-2.48-.15-.13,2.23-.67-.04.3-4.99.67.04-.13,2.09,2.48.15.13-2.09.67.04-.3,4.99-.67-.04.13-2.23Z"/>
    <path d="M209.52,274.84l-.84-.02-.05,1.92-.67-.02.13-5,1.89.05c.86.02,1.43.65,1.4,1.57-.02.9-.58,1.36-1.16,1.43l1.1,2.03-.78-.02-1.02-1.95ZM209.87,272.44l-1.13-.03-.04,1.75,1.13.03c.48.01.85-.33.86-.86.01-.52-.33-.88-.81-.9Z"/>
    <path d="M212.82,271.82l3.02-.03v.66s-2.34.02-2.34.02v1.46s2.31-.02,2.31-.02v.66s-2.29.02-2.29.02v1.56s2.36-.02,2.36-.02v.66s-3.02.03-3.02.03l-.05-5Z"/>
    <path d="M220.27,275.59l-2.2.1-.32,1.05-.74.03,1.56-5.07.84-.04,2.01,4.91-.74.03-.41-1.02ZM218.24,275.02l1.81-.08-1.03-2.6-.79,2.68Z"/>
    <path d="M223.01,272.12l-1.39.11-.05-.66,3.45-.27.05.66-1.38.11.34,4.32-.67.05-.34-4.32Z"/>
    <path d="M226.79,274.88c.34.34.86.61,1.49.54.72-.08.93-.52.89-.88-.06-.52-.59-.61-1.17-.71-.74-.13-1.6-.26-1.71-1.27-.09-.82.49-1.49,1.42-1.6.69-.08,1.26.1,1.71.51l-.33.6c-.39-.36-.88-.49-1.36-.43-.5.06-.81.38-.76.8.05.45.55.53,1.12.63.75.13,1.63.29,1.76,1.34.09.77-.31,1.55-1.52,1.69-.8.09-1.42-.16-1.85-.59l.32-.62Z"/>
    <path d="M280.4,57.04l-2.46,2.95-.52-.43,3.2-3.84.53.44-.52,4.45,2.4-2.88.52.43-3.2,3.84-.5-.42.54-4.54Z"/>
    <path d="M286.67,60.78c.99.91.92,2.35-.08,3.44-1.01,1.09-2.43,1.28-3.42.37-.99-.91-.92-2.34.08-3.44s2.43-1.28,3.42-.37ZM286.22,61.27c-.71-.65-1.71-.46-2.46.35-.74.8-.85,1.82-.14,2.47.7.64,1.71.46,2.46-.35.75-.81.84-1.83.14-2.47Z"/>
    <path d="M289.18,63.18l.54.55-1.97,3.96,3.99-1.91.54.55-4.81,2.24-.59-.6,2.3-4.78Z"/>
    <path d="M293.29,67.37l2.05,2.22-.49.45-1.59-1.73-1.07.99,1.56,1.69-.48.45-1.56-1.69-1.15,1.06,1.59,1.73-.48.45-2.05-2.22,3.67-3.39Z"/>
    <path d="M296.51,70.91l.44.51-3.29,2.83,1.33,1.55-.5.43-1.77-2.06,3.79-3.26Z"/>
    <path d="M301.12,77.52l-.85-1.11.52-.4,2.11,2.74-.52.4-.85-1.1-3.44,2.65-.41-.53,3.44-2.65Z"/>
    <path d="M303.46,84.26l-1.43-2.03-1.83,1.29-.39-.55,4.08-2.88.39.55-1.71,1.21,1.43,2.03,1.71-1.21.39.55-4.08,2.88-.39-.55,1.83-1.29Z"/>
    <path d="M305.46,87.74l-.46-.7-1.61,1.06-.37-.56,4.17-2.75,1.04,1.58c.47.71.28,1.54-.49,2.05-.75.49-1.45.3-1.84-.13l-1.03,2.06-.43-.65,1.02-1.95ZM307.63,86.65l-.62-.95-1.46.96.62.95c.27.41.75.5,1.19.22.44-.29.54-.78.27-1.18Z"/>
    <path d="M309.97,89.08l1.56,2.59-.56.34-1.21-2.01-1.25.75,1.19,1.97-.56.34-1.19-1.97-1.33.8,1.21,2.01-.56.34-1.56-2.59,4.28-2.58Z"/>
    <path d="M310.35,97.59l-1.08-1.92-1.08.19-.36-.65,5.23-.89.41.74-3.48,4-.36-.65.72-.82ZM309.95,95.51l.89,1.58,1.86-2.09-2.75.51Z"/>
    <path d="M314.75,98.81l-.63-1.24.59-.3,1.57,3.08-.59.3-.63-1.24-3.87,1.97-.31-.6,3.86-1.97Z"/>
    <path d="M313.67,103.44c-.21.43-.3,1.01-.03,1.58.31.66.79.71,1.12.56.47-.22.39-.75.29-1.34-.12-.74-.27-1.6.66-2.03.74-.35,1.57-.02,1.97.83.3.63.31,1.23.07,1.78l-.67-.12c.22-.48.18-.99-.03-1.43-.21-.45-.62-.64-1-.46-.41.19-.33.69-.23,1.27.12.76.25,1.64-.71,2.09-.71.33-1.57.2-2.09-.89-.34-.72-.3-1.39-.04-1.94l.69.1Z"/>
    <g>
      <path class="cls-3" d="M169.95,181.75c-.13-.4-.57-.63-.97-.49-.41.13-.63.57-.5.97.13.4.57.63.97.49.4-.13.63-.57.49-.97"/>
      <path class="cls-3" d="M167.16,184.19c-.13-.4-.57-.63-.97-.49-.41.13-.63.57-.5.97.13.4.57.63.97.49.4-.13.63-.57.49-.97"/>
      <path class="cls-3" d="M164.09,186.22c-.13-.4-.57-.63-.97-.49-.4.13-.63.57-.49.97.13.4.57.63.97.49.4-.13.63-.57.49-.97"/>
      <path class="cls-3" d="M160.86,188.02c-.13-.4-.57-.63-.97-.49-.4.13-.63.57-.49.97.13.4.57.63.97.49.4-.13.63-.57.49-.97"/>
    </g>
    <polygon class="cls-3" points="174.99 180.22 173.76 177.1 170.44 176.59 169.29 178.03 172.61 178.54 173.84 181.66 174.99 180.22"/>
    <g>
      <path class="cls-3" d="M214.68,106.49c-.42-.1-.83.16-.92.58-.1.41.16.83.58.92.41.1.83-.16.92-.58.1-.41-.16-.83-.58-.92"/>
      <path class="cls-3" d="M215.34,110.13c-.42-.1-.83.16-.92.58-.1.41.16.83.58.92.41.1.83-.16.92-.58.1-.41-.16-.83-.58-.92"/>
      <path class="cls-3" d="M215.49,113.81c-.42-.1-.83.16-.92.58-.1.41.16.83.58.92.41.1.83-.16.92-.58.1-.41-.16-.83-.58-.92"/>
      <path class="cls-3" d="M215.38,117.51c-.42-.1-.83.16-.92.58-.1.41.16.83.58.92.41.1.83-.16.92-.58.1-.41-.16-.83-.58-.92"/>
    </g>
    <polygon class="cls-3" points="215.97 101.37 212.66 100.82 210.51 103.4 211.15 105.13 213.3 102.55 216.62 103.1 215.97 101.37"/>
    <g>
      <path class="cls-3" d="M251.5,187.99c.24-.35.14-.83-.21-1.07-.35-.24-.83-.14-1.07.21-.24.35-.15.83.21,1.07.35.24.83.14,1.07-.21"/>
      <path class="cls-3" d="M247.87,187.3c.24-.35.14-.83-.21-1.07-.35-.24-.83-.14-1.07.21-.24.35-.14.83.21,1.07s.83.14,1.07-.21"/>
      <path class="cls-3" d="M244.38,186.13c.24-.35.14-.83-.21-1.07-.35-.24-.83-.14-1.07.21-.24.35-.14.83.21,1.07s.83.14,1.07-.21"/>
      <path class="cls-3" d="M240.96,184.69c.24-.35.14-.83-.21-1.07-.35-.24-.83-.14-1.07.21-.24.35-.14.83.21,1.07s.83.14,1.07-.21"/>
    </g>
    <polygon class="cls-3" points="255.81 191.03 257.52 188.14 255.88 185.2 254.03 185.18 255.67 188.12 253.97 191.01 255.81 191.03"/>
    <g>
      <path class="cls-3" d="M158.56,177.32c.1.41.52.67.93.56.41-.1.66-.52.56-.93-.1-.41-.52-.67-.93-.56-.41.1-.66.52-.56.93"/>
      <path class="cls-3" d="M161.51,175.08c.1.41.52.67.93.56.41-.1.66-.52.56-.93-.1-.41-.52-.67-.93-.56-.41.1-.66.52-.56.93"/>
      <path class="cls-3" d="M164.72,173.27c.1.41.52.67.93.56s.66-.52.56-.93c-.1-.41-.52-.67-.93-.56-.41.1-.67.52-.56.93"/>
      <path class="cls-3" d="M168.07,171.7c.1.41.52.67.93.56s.66-.52.56-.93c-.1-.41-.52-.67-.93-.56-.41.1-.67.52-.56.93"/>
    </g>
    <polygon class="cls-3" points="153.42 178.49 154.43 181.69 157.71 182.44 158.96 181.08 155.68 180.34 154.67 177.13 153.42 178.49"/>
    <g>
      <path class="cls-3" d="M199.58,113.8c.41.12.84-.1.96-.51.12-.41-.11-.84-.51-.96-.41-.12-.84.1-.96.51-.12.41.1.84.51.96"/>
      <path class="cls-3" d="M199.18,110.12c.41.12.84-.1.96-.51.12-.41-.11-.84-.51-.96-.41-.12-.84.1-.96.51-.12.41.1.84.51.96"/>
      <path class="cls-3" d="M199.28,106.43c.41.12.84-.1.96-.51.12-.41-.11-.84-.51-.96-.41-.12-.84.1-.96.51-.12.41.1.84.51.96"/>
      <path class="cls-3" d="M199.66,102.75c.41.12.84-.1.96-.51.12-.41-.11-.84-.51-.96-.41-.12-.84.1-.96.51-.12.41.1.84.51.96"/>
    </g>
    <polygon class="cls-3" points="197.94 118.8 201.2 119.59 203.53 117.16 203.01 115.39 200.68 117.82 197.42 117.04 197.94 118.8"/>
    <g>
      <path class="cls-3" d="M249.95,174.47c-.26.34-.2.82.13,1.08.34.26.82.2,1.08-.13.26-.33.2-.82-.13-1.08-.33-.26-.82-.2-1.08.13"/>
      <path class="cls-3" d="M253.53,175.41c-.26.34-.2.82.13,1.08.33.26.82.2,1.08-.13.26-.33.2-.82-.13-1.08-.33-.26-.82-.2-1.08.13"/>
      <path class="cls-3" d="M256.93,176.83c-.26.34-.2.82.13,1.08.33.26.82.2,1.08-.13.26-.33.2-.82-.13-1.08-.33-.26-.82-.2-1.08.13"/>
      <path class="cls-3" d="M260.23,178.5c-.26.34-.2.82.13,1.08.33.26.82.2,1.08-.13.26-.33.2-.82-.13-1.08-.33-.26-.82-.2-1.08.13"/>
    </g>
    <polygon class="cls-3" points="245.86 171.14 243.96 173.91 245.4 176.95 247.23 177.09 245.8 174.06 247.7 171.29 245.86 171.14"/>
    <path class="cls-6" d="M234.88,161.46c.04,14.78-11.9,26.8-26.69,26.85-14.79.05-26.81-11.9-26.85-26.69-.04-14.78,11.9-26.8,26.69-26.85,14.78-.04,26.8,11.9,26.85,26.69"/>
    <g>
      <path class="cls-2" d="M195.97,157.93l-.39.46v1.54h-1.06v-5h1.06v2.23l1.77-2.23h1.31l-1.99,2.34,2.12,2.65h-1.31l-1.51-2Z"/>
      <path class="cls-2" d="M200.35,156.58v3.36h-1.06v-5h1.09l2.31,3.24v-3.24h1.06v5h-1.03l-2.38-3.36Z"/>
      <path class="cls-2" d="M207.12,154.85c1.51,0,2.61,1.08,2.61,2.58s-1.1,2.58-2.61,2.58-2.61-1.08-2.61-2.58,1.1-2.58,2.61-2.58ZM207.12,155.8c-.92,0-1.51.7-1.51,1.64s.59,1.64,1.51,1.64,1.52-.71,1.52-1.64-.6-1.64-1.52-1.64Z"/>
      <path class="cls-2" d="M213.29,156.5l-.87,3.43h-1.13l-1.43-5h1.19l.88,3.61.95-3.61h.83l.94,3.61.87-3.61h1.2l-1.42,5h-1.13l-.88-3.43Z"/>
      <path class="cls-2" d="M218.29,156.58v3.36h-1.06v-5h1.09l2.32,3.24v-3.24h1.06v5h-1.03l-2.38-3.36Z"/>
    </g>
    <g>
      <path class="cls-2" d="M200.12,165.64h-.78v1.79h-1.06v-5h2.34c1.04,0,1.68.68,1.68,1.61s-.55,1.36-1.09,1.48l1.12,1.9h-1.22l-.98-1.79ZM200.46,163.35h-1.12v1.38h1.12c.43,0,.75-.27.75-.69s-.32-.69-.75-.69Z"/>
      <path class="cls-2" d="M203.1,162.43h1.06v5h-1.06v-5Z"/>
      <path class="cls-2" d="M205.4,165.92c.35.37.9.67,1.59.67.58,0,.87-.28.87-.56,0-.37-.43-.5-1.01-.64-.82-.19-1.87-.41-1.87-1.53,0-.83.72-1.51,1.9-1.51.79,0,1.45.24,1.95.7l-.59.78c-.4-.37-.94-.55-1.43-.55s-.73.21-.73.51c0,.34.42.44,1,.58.82.19,1.87.43,1.87,1.54,0,.91-.65,1.6-2,1.6-.96,0-1.65-.32-2.12-.79l.58-.81Z"/>
      <path class="cls-2" d="M211.11,165.43l-.39.46v1.54h-1.06v-5h1.06v2.23l1.77-2.23h1.31l-1.99,2.34,2.12,2.65h-1.31l-1.51-2Z"/>
      <path class="cls-2" d="M214.66,165.92c.35.37.9.67,1.59.67.58,0,.87-.28.87-.56,0-.37-.43-.5-1.01-.64-.82-.19-1.87-.41-1.87-1.53,0-.83.72-1.51,1.9-1.51.79,0,1.45.24,1.95.7l-.59.78c-.4-.37-.94-.55-1.43-.55s-.73.21-.73.51c0,.34.42.44,1,.58.82.19,1.87.43,1.87,1.54,0,.91-.65,1.6-2,1.6-.96,0-1.65-.32-2.12-.79l.58-.81Z"/>
    </g>
    <g>
      <path class="cls-6" d="M193.89,130.17s-.04,0-.04-.01c0-.02,0-.04.02-.04s.04,0,.04.02c0,.02,0,.04-.02.04M191.16,131.67s-.08.01-.1-.02c-.02-.03,0-.08.03-.1.03-.02.08-.01.1.02.02.03,0,.08-.03.1M188.57,133.41s-.11.03-.15-.02c-.03-.05-.02-.12.03-.15.05-.04.12-.02.15.02.03.05.02.11-.03.15M186.15,135.38c-.06.05-.16.05-.21-.01-.05-.06-.04-.16.02-.21.06-.05.16-.05.21.02.05.06.04.15-.02.21M183.92,137.56c-.07.07-.19.08-.26,0-.07-.07-.07-.19,0-.26.07-.07.19-.08.26,0,.07.07.07.19,0,.26M181.89,139.94c-.08.1-.22.11-.31.04-.09-.08-.11-.22-.02-.32.08-.1.22-.12.31-.04.09.08.1.22.02.32M179.73,142.57c-.12-.08-.15-.24-.06-.37.08-.12.24-.16.36-.08s.15.24.06.37c-.08.12-.24.16-.36.08M178.12,145.32c-.14-.08-.19-.26-.11-.41s.26-.21.4-.13.19.27.11.41c-.08.15-.26.21-.4.13M176.77,148.21c-.17-.07-.24-.27-.17-.45.07-.18.27-.26.44-.19.17.08.24.28.17.45-.07.17-.27.26-.44.19M175.68,151.21c-.19-.06-.3-.28-.24-.48.06-.21.27-.32.47-.25.19.07.29.28.23.48-.06.2-.27.32-.46.25M174.87,154.31c-.22-.05-.36-.27-.31-.51.06-.23.28-.38.5-.32.22.05.35.28.29.5-.05.23-.26.37-.48.33M174.34,157.46c-.25-.03-.41-.26-.37-.52.04-.26.26-.44.51-.4.24.04.41.27.37.52-.04.25-.26.43-.5.4M173.65,160.12c.01-.28.24-.5.5-.48.26.02.47.25.46.52-.01.27-.24.49-.5.48-.26,0-.47-.24-.45-.52M173.61,163.33c-.02-.3.2-.56.49-.57.29,0,.53.22.54.52.02.29-.2.55-.49.57s-.53-.21-.54-.52M173.86,166.53c-.05-.32.17-.62.48-.66.3-.04.57.19.62.5.05.31-.16.6-.46.65-.3.05-.59-.17-.64-.49M175.12,170.15c-.32.08-.64-.12-.73-.46-.08-.34.13-.68.45-.75.32-.07.63.14.7.47.08.33-.11.66-.42.74M175.21,172.79c-.11-.36.07-.73.4-.83.33-.11.69.09.79.43.11.34-.05.7-.38.83-.32.12-.7-.06-.81-.42M177.21,176.16c-.33.16-.75,0-.89-.36-.15-.36,0-.77.34-.92.34-.14.73.02.88.37.14.35,0,.75-.33.91M178.65,179c-.34.2-.78.07-.97-.3-.2-.37-.07-.81.27-1,.35-.18.78-.05.96.3.18.35.07.79-.26.99M179.49,180.39c.35-.23.81-.13,1.04.22.23.35.14.83-.18,1.07-.34.25-.8.15-1.04-.22-.24-.36-.16-.84.19-1.07M181.26,182.93c.34-.27.84-.21,1.11.13.27.34.23.85-.09,1.14-.33.29-.82.23-1.11-.13-.29-.36-.25-.87.09-1.13M183.25,185.29c.33-.31.85-.29,1.17.03.32.33.32.86.01,1.19-.31.33-.84.32-1.18-.02-.34-.34-.34-.88,0-1.2M185.56,188.71c-.39-.32-.43-.89-.11-1.25.32-.36.85-.38,1.22-.08.36.31.42.86.12,1.23-.29.38-.84.42-1.23.09M189.07,189.23c.41.28.52.85.25,1.27-.27.42-.84.52-1.27.22-.43-.29-.52-.89-.23-1.29.3-.41.85-.47,1.26-.2M191.64,190.84c.45.25.62.82.38,1.29-.24.46-.82.62-1.3.36-.47-.28-.63-.88-.36-1.32.27-.45.84-.58,1.28-.32M194.34,192.2c.49.22.72.79.51,1.29-.2.5-.8.73-1.32.5-.51-.25-.73-.85-.49-1.33.24-.49.82-.69,1.3-.46M195.84,193.9c.2-.52.79-.8,1.3-.61.26.1.46.29.58.51.12.23.15.51.07.78-.08.27-.27.48-.51.6-.24.12-.53.15-.8.04-.55-.2-.84-.8-.64-1.32M222.35,192.9s.04,0,.04.02c0,.02,0,.04-.02.04-.02,0-.04,0-.04-.02,0-.02,0-.04.02-.04M225.08,191.41s.08-.01.1.02c.02.03,0,.08-.03.1-.03.02-.08.01-.1-.02-.02-.03,0-.08.03-.1M227.67,189.67s.12-.03.15.02c.03.05.02.12-.03.15-.05.04-.12.02-.15-.02-.04-.05-.02-.11.03-.15M230.09,187.7c.06-.05.16-.05.21.01.05.06.04.15-.02.21-.06.05-.16.05-.21-.01-.05-.06-.04-.15.02-.21M232.32,185.52c.07-.07.19-.08.26,0,.07.07.07.19,0,.26-.07.07-.19.08-.26,0-.07-.07-.07-.19,0-.26M234.35,183.14c.08-.1.22-.11.31-.04.09.08.11.22.03.32-.08.1-.22.11-.31.04-.09-.08-.1-.22-.02-.32M236.15,180.59c.08-.12.24-.16.36-.08.12.08.15.24.06.37s-.24.16-.36.08c-.12-.08-.14-.25-.06-.37M237.72,177.89c.08-.15.26-.21.4-.13.14.08.19.26.11.41-.08.15-.26.21-.4.13-.14-.08-.19-.26-.11-.41M239.04,175.06c.07-.18.27-.26.44-.19.17.07.24.27.17.45-.07.18-.27.26-.44.19-.17-.08-.24-.28-.17-.45M240.1,172.12c.06-.2.27-.32.46-.26.19.06.3.28.24.49-.06.21-.27.32-.47.25-.19-.07-.29-.28-.23-.48M240.89,169.1c.05-.23.26-.37.48-.33s.36.27.31.51c-.06.23-.28.38-.5.32-.22-.05-.35-.28-.29-.5M241.4,166.02c.04-.25.26-.43.5-.4.25.03.41.26.37.52-.04.26-.27.44-.51.4-.24-.04-.41-.27-.37-.52M241.63,162.91c.01-.27.24-.49.5-.48.26,0,.47.24.46.52-.01.28-.24.5-.5.48-.27-.02-.47-.25-.46-.52M241.6,159.8c-.01-.29.2-.55.49-.57.29-.02.53.21.55.52.01.3-.2.56-.49.57-.29,0-.53-.22-.54-.52M241.29,156.71c-.05-.31.16-.6.46-.66.3-.05.59.17.64.5.05.32-.17.62-.47.66-.3.04-.57-.19-.62-.5M240.7,153.67c-.08-.33.11-.66.43-.74.32-.08.64.12.73.46.08.34-.13.68-.45.75-.32.07-.63-.14-.7-.47M239.83,150.7c-.11-.34.05-.71.38-.83.33-.12.7.06.81.42.11.36-.07.73-.4.84s-.68-.09-.79-.43M238.7,147.83c-.14-.35,0-.75.33-.91.33-.16.75,0,.89.36.15.36,0,.78-.34.92-.34.14-.73-.02-.88-.37M237.33,145.07c-.18-.35-.07-.79.26-.99.34-.2.78-.07.97.3.19.37.07.81-.27,1-.35.18-.78.05-.96-.3M235.89,141.4c.34-.25.8-.15,1.04.22.24.36.16.84-.19,1.07-.35.22-.81.13-1.04-.22-.23-.35-.14-.83.18-1.07M233.96,138.88c.32-.29.82-.23,1.11.13.29.36.24.87-.1,1.14-.34.27-.84.21-1.11-.13-.27-.34-.23-.85.1-1.13M231.81,136.57c.31-.33.84-.32,1.17.02.34.34.34.88,0,1.2-.33.31-.85.29-1.17-.03-.32-.33-.32-.86-.01-1.19M229.46,134.46c.29-.38.84-.42,1.23-.09.39.32.43.89.11,1.25-.32.36-.85.38-1.22.08-.36-.31-.42-.86-.12-1.23M227.17,133.85c-.41-.28-.52-.85-.25-1.27.27-.42.84-.52,1.27-.22.43.3.52.9.23,1.29-.3.41-.85.47-1.26.19M224.6,132.24c-.45-.25-.62-.82-.38-1.28.24-.46.82-.62,1.3-.36.47.28.63.88.36,1.32-.27.45-.84.58-1.28.32M221.91,130.88c-.48-.22-.72-.79-.51-1.29.2-.5.8-.73,1.32-.5.51.25.73.85.5,1.33-.24.49-.82.69-1.3.46"/>
      <path class="cls-6" d="M196.84,195.47c-.14,0-.29-.03-.42-.08-.32-.12-.58-.35-.72-.66-.13-.29-.14-.61-.03-.9h0c.24-.62.93-.94,1.54-.71.29.11.53.33.68.6.15.29.18.61.08.92-.1.31-.31.56-.6.71-.17.08-.35.13-.53.13ZM196.02,193.97c-.08.2-.07.42.02.62.1.22.28.38.51.47.21.08.45.07.66-.03.2-.1.35-.27.42-.49.07-.21.05-.44-.06-.64-.1-.19-.27-.35-.48-.43-.42-.15-.9.07-1.06.5h0ZM193.96,194.27c-.17,0-.34-.04-.5-.11-.31-.15-.53-.4-.64-.71-.1-.29-.08-.6.05-.87.28-.58.97-.82,1.54-.54.58.27.85.94.61,1.53-.12.29-.34.51-.63.62-.14.06-.29.08-.43.08ZM193.92,192.29c-.29,0-.58.17-.71.45-.09.18-.1.39-.03.59.07.22.23.39.44.49.2.09.43.1.64.02.2-.08.35-.23.43-.42.17-.41-.02-.87-.42-1.05h0c-.11-.06-.22-.08-.34-.08ZM222.38,193.16l-.17-.06-.05-.09c-.05-.11,0-.23.1-.28l.07-.04.17.05.08.15-.04.17-.16.09ZM222.38,192.95l-.06.13s.08.01.12,0c.07-.04.1-.12.07-.19l-.12.06h.01s-.02.01-.02.01ZM222.3,192.79s-.07.05-.08.09l.12.04-.04-.13ZM191.2,192.79c-.2,0-.39-.05-.58-.15-.28-.17-.47-.43-.55-.73-.07-.29-.03-.6.12-.85.32-.53.99-.7,1.53-.39.53.3.73.98.45,1.53-.14.26-.37.45-.65.54-.11.03-.22.05-.33.05ZM191.16,190.89c-.25,0-.5.13-.64.36-.1.17-.13.37-.08.57.05.21.19.39.37.5.19.1.41.13.62.07.19-.06.34-.18.43-.35.19-.37.06-.84-.3-1.04h0c-.12-.08-.26-.11-.39-.11ZM225.12,191.73s-.04,0-.06,0c-.07-.02-.12-.06-.16-.12-.07-.13-.03-.28.09-.35h0c.06-.04.13-.05.2-.03.07.02.12.06.16.12.07.12.03.27-.09.35-.04.03-.09.04-.13.04ZM225.12,191.36s-.04,0-.06.02c-.05.03-.07.1-.03.15.01.03.04.05.07.05.03,0,.06,0,.09-.01l-.1-.16.1.16s.07-.1.04-.15c-.02-.03-.05-.05-.08-.06,0,0-.02,0-.03,0ZM188.59,191.07c-.23,0-.45-.07-.65-.21-.25-.17-.41-.42-.46-.72-.05-.29.02-.6.19-.83.35-.48,1-.58,1.51-.24h0c.49.34.62,1.02.3,1.52-.15.24-.39.4-.67.46-.07.01-.15.02-.22.02ZM188.54,189.25c-.22,0-.43.1-.57.29-.11.15-.16.35-.12.55.03.2.14.37.31.48.18.12.38.17.58.13.18-.04.33-.14.43-.29.22-.34.13-.79-.2-1.01-.14-.09-.29-.13-.43-.13ZM227.73,190.05s-.03,0-.04,0c-.08-.01-.15-.06-.2-.12-.09-.13-.06-.31.07-.4h0c.06-.05.14-.07.22-.06.08.01.15.05.19.12.09.13.06.31-.07.41-.05.04-.11.06-.17.06ZM227.69,189.69s0,0,0,0c-.03.02-.03.06-.01.1.01.02.04.03.06.04.02,0,.04,0,.06-.01l-.09-.12ZM227.69,189.69l.09.12s.03-.07.01-.1c-.01-.02-.03-.03-.05-.03-.02,0-.04,0-.05.01ZM186.14,189.12c-.25,0-.5-.09-.7-.26-.23-.18-.36-.45-.39-.74-.02-.28.07-.57.25-.78.38-.42,1.02-.47,1.47-.1.44.37.51,1.04.15,1.49-.17.21-.41.35-.68.38-.04,0-.07,0-.11,0ZM186.09,187.36c-.19,0-.37.08-.5.23-.12.13-.18.32-.16.5.02.19.1.36.25.48h0c.15.13.34.19.53.17.17-.02.33-.1.43-.24.23-.3.19-.74-.1-.98-.14-.11-.3-.17-.46-.17ZM230.18,188.14c-.09,0-.19-.04-.25-.12-.12-.14-.1-.35.04-.47h0c.15-.12.35-.1.46.04.06.07.08.15.08.24,0,.09-.05.17-.12.23-.06.05-.14.08-.22.08ZM230.16,187.78v.05s.04.02.05.01l-.05-.06ZM230.16,187.78l.05.06s.01-.04,0-.05c-.01-.02-.04-.02-.05,0h0ZM183.87,186.94c-.28,0-.54-.11-.74-.32-.2-.2-.31-.47-.31-.75,0-.27.11-.52.31-.71h0c.4-.38,1.04-.36,1.43.03.39.4.39,1.04.01,1.45-.18.19-.43.3-.69.3h0ZM183.82,185.26c-.16,0-.32.06-.44.17h0c-.12.12-.19.27-.19.44,0,.18.07.36.2.49.13.14.3.21.49.21.16,0,.31-.07.42-.18.24-.26.24-.68,0-.93-.13-.13-.3-.2-.47-.2ZM232.45,186.02c-.1,0-.19-.04-.26-.11-.14-.14-.14-.38,0-.52.14-.15.38-.15.52,0,.07.07.11.16.11.26,0,.1-.04.2-.11.27-.07.07-.17.11-.27.11ZM232.46,185.65s0,0,0,0h0ZM181.8,184.56s-.05,0-.08,0c-.27-.02-.51-.16-.69-.38-.18-.22-.26-.49-.23-.76.03-.25.15-.48.35-.64h0c.42-.33,1.03-.26,1.37.16.33.41.28,1.04-.12,1.39-.17.15-.38.23-.61.23ZM181.38,183.08c-.12.09-.19.23-.21.39-.02.17.03.35.15.49.11.14.27.23.43.24.16.01.3-.04.41-.13.25-.22.28-.62.07-.88-.21-.26-.59-.3-.85-.1h0ZM234.51,183.69c-.09,0-.18-.03-.25-.09-.17-.14-.19-.4-.05-.58.14-.18.4-.2.57-.06.17.14.2.4.05.58-.07.09-.17.14-.28.15-.01,0-.03,0-.04,0ZM234.53,183.24s-.03,0-.04.02h0s-.01.05,0,.06l.19.1-.14-.12s.02-.05,0-.06c0,0-.01,0-.02,0ZM179.94,182c-.05,0-.11,0-.16-.01-.25-.05-.48-.2-.63-.42-.15-.23-.2-.49-.15-.75.05-.24.19-.45.39-.58.43-.28,1.01-.16,1.29.27.28.43.18,1.02-.23,1.32-.15.11-.34.17-.52.17ZM179.9,180.46c-.11,0-.21.03-.3.09h0c-.12.08-.2.2-.23.34-.03.16,0,.33.09.47.09.14.23.23.38.26.14.03.28,0,.4-.09.25-.18.31-.55.14-.82-.11-.17-.29-.26-.48-.26ZM236.36,181.19c-.09,0-.17-.03-.25-.08-.2-.14-.25-.42-.11-.62.07-.1.17-.17.29-.19.12-.02.23,0,.33.06.1.06.16.16.19.28.02.12,0,.24-.07.35-.07.1-.17.17-.29.2-.03,0-.05,0-.08,0ZM236.37,180.66s0,0-.01,0c-.01,0-.04.01-.05.04-.03.04-.02.09.01.11.02.01.04.01.05,0,.01,0,.04-.01.05-.04s.02-.05.01-.07c0-.01,0-.03-.03-.04-.01,0-.03-.01-.04-.01ZM178.31,179.28c-.08,0-.16-.01-.24-.03-.24-.07-.44-.23-.55-.46-.12-.23-.15-.49-.07-.73.07-.23.22-.41.42-.52.21-.11.45-.14.68-.06.23.07.42.23.53.44.23.45.08.99-.33,1.24h0c-.14.08-.29.12-.44.12ZM178.28,177.81c-.08,0-.17.02-.24.06-.12.06-.2.17-.24.3-.04.15-.03.31.05.45.07.14.19.23.33.27.13.04.27.02.39-.05h0c.25-.15.33-.48.19-.75-.07-.12-.18-.22-.31-.26-.05-.02-.1-.02-.15-.02ZM237.97,178.52c-.08,0-.16-.02-.23-.06-.23-.13-.31-.42-.18-.66h0c.13-.24.42-.33.65-.2.23.13.32.42.19.66-.06.12-.17.21-.3.24-.04.01-.09.02-.13.02ZM237.88,177.98c-.03.06-.01.13.04.16.03.02.05.01.07,0,.03,0,.06-.03.08-.06.03-.06.02-.13-.04-.16-.05-.03-.12,0-.15.05ZM176.94,176.41c-.1,0-.21-.02-.31-.06-.22-.09-.39-.26-.48-.48-.19-.45.01-.97.44-1.16.21-.09.44-.09.65,0,.21.09.38.25.47.47.18.46,0,.95-.42,1.15-.11.05-.23.08-.35.08ZM176.92,175.02c-.06,0-.12.01-.18.04-.25.1-.36.41-.25.68.05.13.15.23.27.28.12.05.25.04.37-.01h0c.24-.12.34-.41.24-.68-.05-.12-.15-.22-.27-.27-.06-.02-.12-.04-.18-.04ZM239.34,175.72c-.07,0-.14-.01-.2-.04-.26-.12-.38-.43-.27-.69h0c.06-.13.16-.24.29-.29.13-.05.26-.05.39,0,.26.11.38.42.27.7-.05.13-.16.24-.29.29-.06.02-.12.04-.19.04ZM239.21,175.13c-.03.08,0,.18.08.21.04.02.08.01.1,0,.04-.02.07-.05.09-.09.04-.09,0-.18-.07-.21-.03-.01-.07-.01-.1,0-.04.02-.07.05-.09.09h0ZM175.82,173.43c-.12,0-.24-.03-.35-.08-.21-.1-.36-.28-.43-.5h0c-.14-.45.1-.93.53-1.07.2-.07.42-.05.62.05.2.1.34.28.41.49.14.44-.08.9-.49,1.05-.09.03-.18.05-.27.05ZM175.39,172.73c.04.12.13.22.24.28.11.05.22.06.33.02.23-.09.35-.35.27-.6-.04-.12-.12-.22-.22-.28-.1-.05-.22-.06-.33-.03-.24.07-.36.34-.28.6ZM240.45,172.81c-.06,0-.12,0-.18-.03-.28-.1-.44-.42-.35-.71h0c.05-.15.15-.27.28-.34.13-.07.28-.08.41-.04.29.09.45.41.36.72-.04.15-.15.27-.28.34-.08.04-.16.06-.24.06ZM240.27,172.17c-.03.11.02.22.12.25.04.02.09.01.13,0,.05-.02.08-.07.1-.12.03-.11-.02-.23-.12-.26-.04-.01-.09-.01-.13.01-.05.02-.08.07-.1.12ZM174.98,170.35c-.13,0-.27-.04-.38-.11-.19-.11-.32-.3-.38-.51-.05-.22-.01-.44.1-.63.11-.18.28-.3.48-.34.42-.09.82.18.92.61.11.42-.14.85-.56.96h0c-.06.02-.13.02-.19.02ZM174.96,169.11s-.06,0-.08,0c-.1.02-.19.09-.25.18-.06.1-.09.23-.06.34.03.12.11.22.21.28.09.05.19.07.29.04h0c.22-.06.35-.29.29-.52-.05-.21-.21-.34-.4-.34ZM241.27,169.8s-.09,0-.13-.02c-.15-.04-.28-.13-.36-.27-.08-.14-.11-.3-.07-.46.03-.16.13-.3.26-.38.13-.09.29-.11.44-.08.32.07.52.39.45.73-.07.29-.32.48-.59.48ZM241.29,168.95s-.08.01-.11.03c-.05.03-.09.09-.1.15h0c-.02.07,0,.14.03.19.03.05.08.08.13.1.12.03.24-.05.27-.19.03-.13-.05-.26-.17-.28-.01,0-.03,0-.04,0ZM174.41,167.21c-.15,0-.29-.05-.42-.14-.17-.12-.28-.31-.31-.52-.03-.21.02-.41.14-.58.12-.16.3-.27.5-.29.4-.04.76.24.83.65.06.41-.21.8-.61.87-.04,0-.08,0-.12,0ZM174.4,166.05s-.03,0-.04,0c-.1.01-.18.06-.24.15-.06.09-.09.19-.07.3h0c.02.12.08.22.16.28.08.06.17.08.26.06.2-.03.34-.23.31-.44-.03-.2-.19-.35-.38-.35ZM241.83,166.73s-.06,0-.09,0c-.34-.05-.58-.38-.53-.73h0c.05-.35.36-.6.71-.56.16.02.31.1.41.23.11.14.15.32.12.5-.03.18-.12.34-.26.44-.11.08-.24.12-.37.12ZM241.58,166.05c-.02.15.08.29.22.31.06,0,.13,0,.18-.05.06-.05.1-.12.12-.2.01-.08,0-.16-.05-.22-.04-.05-.1-.08-.16-.09-.14-.01-.28.09-.3.24ZM174.12,164.03c-.16,0-.32-.06-.45-.17-.15-.13-.24-.32-.25-.52h0c-.01-.2.06-.4.19-.54.12-.14.29-.21.48-.22h.02c.38,0,.69.31.71.69.02.39-.27.73-.66.76-.02,0-.03,0-.05,0ZM174.12,162.95s0,0-.01,0c-.08,0-.16.04-.21.1-.07.07-.1.17-.09.27h0c0,.1.05.2.12.26.06.06.15.08.22.08.19-.01.33-.18.32-.37,0-.19-.16-.34-.34-.34ZM242.12,163.62s-.03,0-.04,0c-.36-.02-.65-.34-.63-.72h0c.02-.37.32-.66.68-.66h.02c.17,0,.33.08.45.2.13.13.19.32.18.51s-.09.37-.23.49c-.12.11-.27.17-.43.17ZM242.13,162.61c-.16,0-.3.14-.31.31h0c0,.17.12.32.28.33.09,0,.14-.02.2-.07.06-.06.1-.14.11-.24,0-.09-.03-.18-.09-.24-.05-.05-.12-.08-.19-.09h0ZM174.12,160.83h-.01c-.17,0-.33-.08-.45-.21-.13-.14-.19-.32-.18-.51h0c0-.19.09-.37.23-.49.13-.12.3-.18.47-.17.37.02.65.34.63.72-.02.37-.32.66-.68.66ZM174.13,159.83c-.07,0-.13.03-.18.07-.06.06-.1.14-.11.23h0c0,.09.03.18.08.24.05.06.12.09.19.09h0c.16,0,.3-.14.31-.31,0-.17-.12-.32-.28-.33,0,0-.01,0-.02,0ZM242.13,160.5c-.38,0-.69-.31-.71-.69h0c-.02-.4.28-.74.66-.76.19-.01.36.05.5.17.15.13.24.32.25.52,0,.2-.06.4-.19.54-.12.14-.29.21-.48.22h-.02ZM241.78,159.79c.01.19.16.34.34.34,0,0,0,0,0,0,.08,0,.16-.04.21-.1.07-.07.1-.17.1-.27,0-.1-.05-.2-.12-.26-.06-.06-.14-.08-.23-.08-.18.01-.33.18-.32.37ZM174.39,157.65s-.05,0-.07,0c-.16-.02-.31-.1-.41-.23-.11-.14-.15-.32-.12-.5.05-.36.38-.61.72-.56.34.05.58.38.53.73-.05.32-.33.56-.64.56ZM174.42,156.72c-.13,0-.24.1-.26.25-.01.08,0,.16.05.22.04.05.1.08.16.09h0c.14.02.28-.09.3-.25.02-.15-.07-.29-.21-.31-.01,0-.02,0-.03,0ZM241.84,157.4c-.36,0-.68-.27-.74-.66h0c-.06-.41.21-.8.61-.87.19-.03.38.02.54.13.17.12.28.31.31.52.03.2-.02.41-.14.58-.12.16-.3.27-.49.29-.03,0-.06,0-.09,0ZM241.47,156.68c.04.22.21.37.42.34.1-.01.18-.06.24-.14.06-.09.09-.19.07-.3-.02-.12-.08-.22-.16-.28-.08-.06-.17-.08-.26-.06-.2.03-.34.23-.31.44ZM174.96,154.5s-.08,0-.12-.01h0c-.32-.07-.52-.39-.45-.72.08-.34.41-.54.72-.47.15.04.28.13.36.26.08.14.11.3.07.46-.03.15-.12.29-.26.38-.1.06-.2.09-.32.09ZM174.97,153.65c-.1,0-.2.08-.23.19-.02.12.05.26.17.28h0c.06.01.11,0,.16-.03.05-.03.09-.09.1-.15.02-.07,0-.14-.02-.19-.03-.05-.08-.08-.13-.1-.02,0-.03,0-.05,0ZM241.27,154.33c-.36,0-.67-.25-.76-.62-.11-.42.14-.85.56-.96.19-.05.4-.02.57.08.19.11.33.3.38.51.05.22.01.44-.11.63-.11.18-.28.3-.48.34-.06.01-.11.02-.17.02ZM241.26,153.09s-.06,0-.09.01c-.22.06-.35.29-.29.52h0c.05.24.26.38.48.33.1-.02.19-.09.25-.18.07-.1.09-.23.06-.35-.03-.12-.11-.22-.21-.28-.06-.04-.13-.05-.2-.05ZM175.79,151.42c-.05,0-.11,0-.16-.03h0c-.29-.09-.45-.41-.36-.71.04-.15.15-.27.28-.34.13-.07.28-.08.42-.03.28.1.44.42.35.71-.04.15-.14.27-.28.34-.08.04-.17.06-.25.06ZM175.8,150.64s-.05,0-.08.02c-.05.02-.08.07-.1.12-.03.11.02.22.12.25h0s.09,0,.13-.01c.05-.02.08-.07.1-.12.03-.1-.02-.22-.12-.25-.02,0-.04,0-.05,0ZM240.44,151.34c-.13,0-.26-.03-.38-.09-.2-.1-.34-.28-.4-.49-.14-.44.08-.9.49-1.06.2-.07.42-.06.62.03.21.1.36.28.43.5.14.45-.1.93-.53,1.07-.08.03-.16.04-.24.04ZM240.42,150.02s-.1,0-.14.03c-.23.08-.35.35-.27.6h0c.04.12.12.22.22.28.1.06.22.07.33.03.24-.07.36-.35.28-.6-.04-.12-.12-.22-.24-.28-.06-.03-.13-.04-.19-.04ZM239.33,148.43c-.11,0-.22-.02-.32-.06-.21-.09-.38-.26-.47-.47h0c-.18-.46,0-.95.42-1.15.21-.1.45-.1.67-.02.22.09.39.26.48.48.19.45,0,.97-.44,1.16-.1.04-.21.07-.33.07ZM238.88,147.76c.05.12.15.22.27.27.12.05.25.05.36,0,.25-.1.36-.41.25-.68-.05-.13-.15-.23-.27-.28-.12-.05-.25-.04-.37,0-.24.11-.34.4-.24.67ZM176.89,148.42c-.07,0-.13-.01-.2-.04-.26-.11-.38-.42-.27-.69.06-.14.17-.24.3-.29.13-.05.26-.05.39.01.26.11.37.42.26.69-.05.13-.16.24-.29.29-.06.02-.13.04-.19.04ZM176.91,147.73s-.03,0-.05,0c-.04.02-.07.05-.09.09-.04.08,0,.18.07.21h0s.07.02.11,0c.04-.02.07-.05.09-.09.03-.08,0-.18-.07-.21-.02,0-.04-.01-.05-.01ZM237.96,145.64c-.09,0-.18-.01-.27-.04-.23-.07-.42-.23-.53-.44h0c-.23-.45-.08-.99.33-1.24.21-.12.45-.16.68-.09.24.07.43.23.55.46.24.45.08,1.01-.35,1.25-.13.07-.27.1-.42.1ZM237.49,144.99c.07.12.18.22.31.26.13.04.27.03.4-.04.25-.14.34-.47.2-.75-.07-.14-.19-.23-.32-.27-.13-.04-.27-.02-.39.05-.25.15-.33.48-.19.75ZM178.26,145.54c-.08,0-.15-.02-.22-.06-.11-.06-.2-.17-.23-.29-.03-.12-.02-.26.04-.37.06-.12.17-.21.3-.24.12-.04.25-.02.36.04.23.13.31.43.18.66-.06.12-.17.2-.29.24-.05.01-.09.02-.14.02ZM178.27,144.93s-.02,0-.03,0c-.03,0-.06.03-.08.06-.02.03-.02.07-.01.1,0,.02.02.05.05.06h0s.05.02.08,0c.03,0,.06-.03.07-.06.03-.06.01-.13-.04-.17-.02,0-.03-.01-.04-.01ZM236.34,142.99c-.31,0-.61-.15-.79-.42-.28-.43-.18-1.02.23-1.32h0c.2-.15.44-.2.68-.16.25.05.48.2.62.42.15.23.2.49.15.75-.05.24-.19.45-.39.58-.16.1-.33.15-.51.15ZM236.31,141.45c-.11,0-.21.03-.3.1h0c-.25.18-.31.55-.14.82.17.26.52.34.78.17.12-.08.2-.2.23-.34.03-.16,0-.33-.09-.47-.09-.14-.23-.23-.38-.26-.03,0-.06,0-.09,0ZM179.87,142.79c-.08,0-.17-.02-.24-.07h0c-.2-.14-.25-.42-.11-.62.07-.1.17-.17.29-.2.12-.02.23,0,.33.07.2.14.25.42.11.62-.09.13-.23.2-.38.2ZM179.83,142.41s.08,0,.1-.03c.02-.04.02-.09-.02-.11h-.05s-.04,0-.05.03c-.03.04-.02.09.01.11h0ZM234.49,140.5c-.29,0-.57-.13-.77-.37-.33-.41-.28-1.04.12-1.39.19-.17.43-.25.68-.23.27.02.52.16.69.38.18.22.26.49.23.76-.03.25-.15.48-.35.64-.18.14-.39.21-.6.21ZM234.45,138.89c-.13,0-.26.05-.36.14h0c-.25.22-.29.62-.07.88.21.26.59.31.85.1.12-.09.19-.23.21-.39.02-.17-.03-.35-.15-.49-.11-.14-.27-.23-.44-.24-.02,0-.03,0-.05,0ZM181.72,140.21c-.09,0-.18-.03-.25-.09-.08-.07-.13-.16-.14-.27-.01-.11.02-.22.09-.31.07-.09.17-.14.28-.15.11,0,.21.02.29.09.17.14.19.4.05.57h0c-.07.09-.17.14-.28.15-.01,0-.03,0-.04,0ZM181.75,139.76h0s-.05.01-.05.01h0s0,.06,0,.06l.2.11-.14-.12s.01-.05,0-.06ZM232.42,138.19c-.27,0-.53-.1-.73-.31-.39-.4-.39-1.04-.01-1.45.18-.19.42-.3.69-.3h0c.28,0,.54.11.74.32.2.2.31.47.31.75,0,.27-.11.52-.31.71-.19.18-.44.27-.69.27ZM232.37,136.51h0c-.16,0-.31.07-.42.18-.25.26-.24.68,0,.93.25.25.66.26.91.02.12-.12.19-.27.19-.44,0-.18-.07-.36-.2-.49-.13-.14-.3-.21-.48-.21ZM183.78,137.8c-.09,0-.18-.03-.26-.1-.07-.07-.11-.16-.11-.26,0-.1.04-.2.11-.27.07-.07.17-.11.27-.11h0c.1,0,.19.04.26.11.14.14.14.38,0,.52-.07.07-.17.11-.27.11ZM183.79,137.43h0s0,0,0,0ZM230.16,136.09c-.24,0-.49-.08-.69-.25-.44-.37-.51-1.04-.15-1.49.17-.22.41-.35.68-.38.29-.03.58.06.81.26.22.18.36.44.39.74.02.28-.07.57-.25.78-.2.23-.49.35-.78.35ZM230.1,134.33s-.05,0-.07,0c-.17.02-.32.1-.43.24-.23.3-.19.74.1.98.29.24.72.21.96-.06.12-.13.18-.32.16-.5-.02-.19-.11-.36-.25-.48-.14-.12-.3-.18-.47-.18ZM186.05,135.6c-.09,0-.19-.04-.25-.11-.06-.07-.08-.16-.08-.24,0-.09.05-.17.12-.23.07-.06.15-.08.24-.08.09,0,.17.05.23.12.12.14.1.35-.04.47h0c-.06.05-.14.08-.21.08ZM186.08,135.3h-.01s0,0,.01,0ZM186.03,135.24s-.01.04,0,.05l.03-.02-.03-.03ZM186.05,135.23s-.01,0-.02,0l.03.03.03-.02s-.02-.02-.03-.02ZM227.71,134.2c-.22,0-.44-.07-.64-.2h0c-.49-.34-.62-1.02-.3-1.52.15-.24.39-.4.67-.46.3-.06.6,0,.86.18.25.17.41.43.46.73.05.29-.02.6-.19.83-.21.29-.53.44-.86.44ZM227.27,133.7c.34.23.77.16,1-.15.11-.15.16-.35.12-.55-.03-.2-.14-.37-.31-.48-.18-.12-.38-.17-.58-.13-.18.04-.33.14-.43.29-.22.34-.13.79.2,1.01ZM188.51,133.62s-.03,0-.04,0c-.08-.01-.15-.05-.19-.12-.09-.13-.06-.31.07-.41.06-.05.14-.07.22-.06.08.01.15.06.2.12.09.13.06.3-.07.4h0c-.05.04-.11.06-.18.06ZM188.46,133.26s-.03.07,0,.1c.01.02.03.03.05.03.02,0,.04,0,.05,0l-.1-.12ZM188.5,133.25s-.03,0-.05.02l.1.12s0,0,.01,0c.03-.02.03-.06.01-.1-.01-.02-.03-.03-.06-.03,0,0,0,0-.01,0ZM225.09,132.56c-.2,0-.39-.05-.58-.16-.53-.3-.74-.98-.45-1.53.14-.26.37-.45.65-.54.3-.09.62-.05.91.1.28.17.47.42.55.73.07.29.03.6-.12.85-.21.35-.58.54-.96.54ZM225.04,130.65c-.08,0-.15.01-.22.03-.19.06-.34.18-.43.35-.19.37-.06.84.3,1.04h0c.36.22.81.1,1.03-.25.1-.17.13-.37.08-.57-.05-.21-.19-.39-.37-.5-.12-.07-.26-.1-.39-.1ZM191.12,131.87s-.04,0-.06,0c-.06-.02-.12-.06-.15-.12-.07-.12-.03-.28.09-.35.06-.03.13-.05.2-.03.07.02.12.06.16.12.07.12.03.27-.09.34h0s-.08.04-.13.04ZM191.06,131.51s-.06.1-.03.15c.01.03.04.05.07.05.03,0,.06,0,.09-.01.05-.03.07-.1.04-.15-.02-.03-.04-.05-.07-.05-.03,0-.06,0-.09.01l.09.16-.1-.16ZM222.32,131.16c-.17,0-.34-.04-.5-.11-.58-.27-.85-.94-.61-1.53.12-.29.34-.51.63-.62.3-.12.63-.11.93.03.3.15.53.4.63.71.1.29.08.6-.05.87-.2.41-.62.66-1.05.66ZM222.29,129.18c-.1,0-.2.02-.3.06-.2.08-.35.23-.43.42-.17.41.02.87.42,1.05h0c.39.19.86.02,1.05-.37.09-.18.1-.39.03-.59-.07-.22-.23-.39-.44-.49-.11-.05-.22-.07-.34-.07ZM193.9,130.38l-.17-.05-.05-.09c-.05-.1,0-.23.11-.28l.16-.08.13.18c.05.12,0,.24-.1.29h0l-.07.03ZM193.91,130.13l.04.15c.07-.04.1-.12.07-.2l-.11.05ZM193.81,130.01h0s0,0,0,0Z"/>
    </g>
    <g>
      <path class="cls-6" d="M246.83,121.36l-1.27,3.37h-.57l-1.26-3.37v3.37h-1.29v-5h1.79l1.04,2.83,1.05-2.83h1.79v5h-1.29v-3.37Z"/>
      <path class="cls-6" d="M251.44,119.65c1.53,0,2.67,1.06,2.67,2.58s-1.14,2.58-2.67,2.58-2.67-1.06-2.67-2.58,1.15-2.58,2.67-2.58ZM251.44,120.79c-.83,0-1.36.63-1.36,1.45s.53,1.45,1.36,1.45,1.36-.64,1.36-1.45-.53-1.45-1.36-1.45Z"/>
      <path class="cls-6" d="M256.71,123.04h-.66v1.69h-1.29v-5h2.5c1.11,0,1.74.73,1.74,1.66,0,.87-.53,1.33-1,1.5l1.02,1.84h-1.48l-.84-1.69ZM257.07,120.82h-1.02v1.12h1.02c.34,0,.62-.22.62-.56s-.29-.56-.62-.56Z"/>
      <path class="cls-6" d="M259.72,119.73h3.66v1.09h-2.38v.83h2.32v1.09h-2.32v.9h2.38v1.09h-3.66v-5Z"/>
    </g>
    <g>
      <path class="cls-6" d="M242.44,127.23h3.66v1.09h-2.38v.83h2.32v1.09h-2.32v1.99h-1.29v-5Z"/>
      <path class="cls-6" d="M248.76,130.53h-.66v1.69h-1.29v-5h2.5c1.11,0,1.74.73,1.74,1.66,0,.87-.53,1.33-1,1.5l1.02,1.84h-1.48l-.84-1.69ZM249.12,128.32h-1.02v1.12h1.02c.34,0,.62-.22.62-.56s-.29-.56-.62-.56Z"/>
      <path class="cls-6" d="M251.77,127.23h3.66v1.09h-2.38v.83h2.32v1.09h-2.32v.9h2.38v1.09h-3.66v-5Z"/>
      <path class="cls-6" d="M260.64,131.46l.31.38-.9.72-.37-.45c-.33.13-.7.2-1.09.2-1.53,0-2.67-1.06-2.67-2.58s1.15-2.58,2.67-2.58,2.67,1.06,2.67,2.58c0,.69-.23,1.28-.63,1.73ZM258.89,131.15l-.5-.61.89-.72.52.62c.1-.21.16-.45.16-.71,0-.82-.53-1.45-1.36-1.45s-1.36.63-1.36,1.45.53,1.45,1.36,1.45c.11,0,.2,0,.29-.03Z"/>
      <path class="cls-6" d="M261.93,127.23h1.31v2.93c0,.59.31,1.02,1.01,1.02s1-.43,1-1.02v-2.93h1.31v2.97c0,1.24-.71,2.12-2.31,2.12s-2.32-.88-2.32-2.11v-2.97Z"/>
      <path class="cls-6" d="M267.47,127.23h3.66v1.09h-2.38v.83h2.32v1.09h-2.32v.9h2.38v1.09h-3.66v-5Z"/>
      <path class="cls-6" d="M273.17,129.21v3.02h-1.29v-5h1.33l2.02,2.88v-2.88h1.3v5h-1.24l-2.11-3.02Z"/>
      <path class="cls-6" d="M278.55,128.35h-1.4v-1.12h4.08v1.12h-1.39v3.87h-1.29v-3.87Z"/>
    </g>
    <g>
      <path class="cls-6" d="M149.44,135.63l-1.27,3.37h-.57l-1.26-3.37v3.37h-1.29v-5h1.79l1.04,2.83,1.05-2.83h1.79v5h-1.29v-3.37Z"/>
      <path class="cls-6" d="M154.05,133.92c1.53,0,2.67,1.06,2.67,2.58s-1.14,2.58-2.67,2.58-2.67-1.06-2.67-2.58,1.15-2.58,2.67-2.58ZM154.05,135.06c-.83,0-1.36.63-1.36,1.45s.53,1.45,1.36,1.45,1.36-.64,1.36-1.45-.53-1.45-1.36-1.45Z"/>
      <path class="cls-6" d="M159.33,137.31h-.66v1.69h-1.29v-5h2.5c1.11,0,1.74.73,1.74,1.66,0,.87-.53,1.33-1,1.5l1.02,1.84h-1.48l-.84-1.69ZM159.69,135.09h-1.02v1.12h1.02c.34,0,.62-.22.62-.56s-.28-.56-.62-.56Z"/>
      <path class="cls-6" d="M162.33,134h3.66v1.09h-2.38v.83h2.32v1.09h-2.32v.9h2.38v1.09h-3.66v-5Z"/>
    </g>
    <g>
      <path class="cls-6" d="M135.67,141.5h1.29v5h-1.29v-5Z"/>
      <path class="cls-6" d="M139.15,143.48v3.02h-1.29v-5h1.33l2.02,2.88v-2.88h1.3v5h-1.24l-2.11-3.02Z"/>
      <path class="cls-6" d="M144.52,142.62h-1.4v-1.12h4.08v1.12h-1.39v3.87h-1.29v-3.87Z"/>
      <path class="cls-6" d="M147.82,141.5h3.66v1.09h-2.38v.83h2.32v1.09h-2.32v.9h2.38v1.09h-3.66v-5Z"/>
      <path class="cls-6" d="M153.53,143.48v3.02h-1.29v-5h1.33l2.02,2.88v-2.88h1.3v5h-1.24l-2.11-3.02Z"/>
      <path class="cls-6" d="M158.11,144.83c.36.36.91.66,1.6.66.44,0,.71-.19.71-.43,0-.28-.32-.4-.85-.51-.82-.17-1.98-.38-1.98-1.56,0-.84.71-1.57,1.99-1.57.8,0,1.5.24,2.03.7l-.7.92c-.42-.34-.97-.52-1.41-.52s-.59.17-.59.39c0,.26.31.35.86.46.82.17,1.96.41,1.96,1.54,0,1-.74,1.67-2.08,1.67-1.01,0-1.72-.31-2.22-.79l.68-.97Z"/>
      <path class="cls-6" d="M162.33,141.5h3.66v1.09h-2.38v.83h2.32v1.09h-2.32v.9h2.38v1.09h-3.66v-5Z"/>
    </g>
  </g>
  <path class="cls-6" d="M207.63,19.14c-.28,0-.5-.24-.49-.51h0c0-.28.23-.5.51-.5h0c.28,0,.5.24.49.52h0c0,.27-.23.49-.5.49h-.01Z"/>
</svg>