<?xml version="1.0" encoding="UTF-8"?>
<svg id="Layer_1" xmlns="http://www.w3.org/2000/svg" version="1.1" viewBox="0 0 467.3 281.8">
  <!-- Generator: Adobe Illustrator 29.7.1, SVG Export Plug-In . SVG Version: 2.1.1 Build 8)  -->
  <defs>
    <style>
      .st0 {
        fill: #00808d;
      }

      .st1 {
        isolation: isolate;
      }

      .st2 {
        fill: #fff;
      }

      .st3 {
        fill: #eb5f28;
      }

      .st4 {
        fill: #005059;
      }

      .st5 {
        fill: #00aabe;
      }
    </style>
  </defs>
  <polygon class="st4" points="338.3 122.5 130.8 122.5 82.2 59.3 234.5 59.3 386.9 59.3 338.3 122.5"/>
  <polygon class="st0" points="157.3 159.8 133.2 125 336.3 125 312.2 159.8 287.5 195.4 182 195.4 157.3 159.8"/>
  <polygon class="st5" points="283.9 199 234.5 275.4 185.2 199 283.9 199"/>
  <polygon class="st3" points="116.7 6.6 116.7 71.7 192.8 46.6 192.8 6.6 116.7 6.6"/>
  <polygon class="st3" points="280.7 6.4 280.7 71.1 356.9 47 356.9 6.4 280.7 6.4"/>
  <polygon class="st3" points="198.7 6.6 198.7 71.7 274.9 46.6 274.9 6.6 198.7 6.6"/>
  <g class="st1">
    <g class="st1">
      <path class="st2" d="M125.5,22h1.6v7.4h-1.6v-7.4Z"/>
      <path class="st2" d="M132.1,26.2c0-.7-.4-1-1-1s-1,.3-1.2.6v3.6h-1.4v-5.3h1.4v.7c.3-.4,1-.8,1.9-.8s1.7.7,1.7,1.7v3.8h-1.4v-3.2Z"/>
      <path class="st2" d="M135,27.7c.4.4,1.2.7,1.8.7s.9-.2.9-.5-.5-.5-1.1-.6c-.9-.2-2.1-.4-2.1-1.7s.8-1.7,2.2-1.7,1.6.3,2.1.7l-.6,1c-.3-.3-.9-.6-1.6-.6s-.8.2-.8.5.4.5,1,.6c.9.2,2.1.4,2.1,1.7s-.8,1.7-2.3,1.7-1.8-.3-2.4-.8l.6-1Z"/>
      <path class="st2" d="M140.4,28.1v-2.8h-.9v-1.2h.9v-1.5h1.4v1.5h1.1v1.2h-1.1v2.4c0,.3.2.6.5.6s.4,0,.5-.2l.3,1.1c-.2.2-.6.3-1.2.3-1,0-1.5-.5-1.5-1.5Z"/>
      <path class="st2" d="M143.9,24h1.4v.7c.4-.5,1-.8,1.7-.8v1.4c0,0-.2,0-.4,0-.5,0-1.1.3-1.3.6v3.5h-1.4v-5.3Z"/>
      <path class="st2" d="M151.5,28.7c-.4.4-1,.8-1.9.8s-1.7-.6-1.7-1.7v-3.8h1.4v3.2c0,.7.4,1,1,1s1-.3,1.2-.6v-3.6h1.4v5.3h-1.4v-.7Z"/>
      <path class="st2" d="M160.8,26c0-.5-.2-.8-.8-.8s-.9.3-1.1.6v3.6h-1.4v-3.4c0-.5-.2-.8-.8-.8s-.9.3-1.1.6v3.6h-1.4v-5.3h1.4v.7c.2-.3.9-.8,1.7-.8s1.3.4,1.5,1c.3-.5,1-1,1.8-1s1.6.5,1.6,1.6v3.8h-1.4v-3.4Z"/>
      <path class="st2" d="M166.1,23.9c1.6,0,2.7,1.2,2.7,2.9v.3h-4c0,.7.6,1.2,1.5,1.2s1.1-.2,1.4-.5l.6.9c-.5.5-1.4.7-2.2.7-1.6,0-2.8-1.1-2.8-2.8s1.1-2.8,2.8-2.8ZM164.7,26.2h2.6c0-.5-.4-1.2-1.3-1.2s-1.2.6-1.3,1.2Z"/>
      <path class="st2" d="M173.3,26.2c0-.7-.4-1-1-1s-1,.3-1.2.6v3.6h-1.4v-5.3h1.4v.7c.3-.4,1-.8,1.9-.8s1.7.7,1.7,1.7v3.8h-1.4v-3.2Z"/>
      <path class="st2" d="M176.4,28.1v-2.8h-.9v-1.2h.9v-1.5h1.4v1.5h1.1v1.2h-1.1v2.4c0,.3.2.6.5.6s.4,0,.5-.2l.3,1.1c-.2.2-.6.3-1.2.3-1,0-1.5-.5-1.5-1.5Z"/>
      <path class="st2" d="M180,27.7c.4.4,1.2.7,1.8.7s.9-.2.9-.5-.5-.5-1.1-.6c-.9-.2-2.1-.4-2.1-1.7s.8-1.7,2.2-1.7,1.6.3,2.1.7l-.6,1c-.3-.3-.9-.6-1.6-.6s-.8.2-.8.5.4.5,1,.6c.9.2,2.1.4,2.1,1.7s-.8,1.7-2.3,1.7-1.8-.3-2.4-.8l.6-1Z"/>
    </g>
  </g>
  <g class="st1">
    <g class="st1">
      <path class="st2" d="M209.4,22.1h1.6v7.4h-1.6v-7.4Z"/>
      <path class="st2" d="M216,26.2c0-.7-.4-1-1-1s-1,.3-1.2.6v3.6h-1.4v-5.3h1.4v.7c.3-.4,1-.8,1.9-.8s1.7.7,1.7,1.7v3.8h-1.4v-3.2Z"/>
      <path class="st2" d="M218.9,27.8c.4.4,1.2.7,1.8.7s.9-.2.9-.5-.5-.5-1.1-.6c-.9-.2-2.1-.4-2.1-1.7s.8-1.7,2.2-1.7,1.6.3,2.1.7l-.6,1c-.3-.3-.9-.6-1.6-.6s-.8.2-.8.5.4.5,1,.6c.9.2,2.1.4,2.1,1.7s-.8,1.7-2.3,1.7-1.8-.3-2.4-.8l.6-1Z"/>
      <path class="st2" d="M224.3,28.1v-2.8h-.9v-1.2h.9v-1.5h1.4v1.5h1.1v1.2h-1.1v2.4c0,.3.2.6.5.6s.4,0,.5-.2l.3,1.1c-.2.2-.6.3-1.2.3-1,0-1.5-.5-1.5-1.5Z"/>
      <path class="st2" d="M227.6,22.5c0-.5.4-.8.8-.8s.8.4.8.8-.4.8-.8.8-.8-.4-.8-.8ZM227.8,24.1h1.4v5.3h-1.4v-5.3Z"/>
      <path class="st2" d="M230.8,28.1v-2.8h-.9v-1.2h.9v-1.5h1.4v1.5h1.1v1.2h-1.1v2.4c0,.3.2.6.5.6s.4,0,.5-.2l.3,1.1c-.2.2-.6.3-1.2.3-1,0-1.5-.5-1.5-1.5Z"/>
      <path class="st2" d="M237.9,28.8c-.4.4-1,.8-1.9.8s-1.7-.6-1.7-1.7v-3.8h1.4v3.2c0,.7.4,1,1,1s1-.3,1.2-.6v-3.6h1.4v5.3h-1.4v-.7Z"/>
      <path class="st2" d="M241,28.1v-2.8h-.9v-1.2h.9v-1.5h1.4v1.5h1.1v1.2h-1.1v2.4c0,.3.2.6.5.6s.4,0,.5-.2l.3,1.1c-.2.2-.6.3-1.2.3-1,0-1.5-.5-1.5-1.5Z"/>
      <path class="st2" d="M244.3,22.5c0-.5.4-.8.8-.8s.8.4.8.8-.4.8-.8.8-.8-.4-.8-.8ZM244.4,24.1h1.4v5.3h-1.4v-5.3Z"/>
      <path class="st2" d="M246.9,26.8c0-1.5,1.1-2.8,2.8-2.8s2.8,1.3,2.8,2.8-1.1,2.8-2.8,2.8-2.8-1.3-2.8-2.8ZM251,26.8c0-.8-.5-1.5-1.4-1.5s-1.4.7-1.4,1.5.5,1.6,1.4,1.6,1.4-.7,1.4-1.6Z"/>
      <path class="st2" d="M257.1,26.2c0-.7-.4-1-1-1s-1,.3-1.2.6v3.6h-1.4v-5.3h1.4v.7c.3-.4,1-.8,1.9-.8s1.7.7,1.7,1.7v3.8h-1.4v-3.2Z"/>
      <path class="st2" d="M260.1,27.8c.4.4,1.2.7,1.8.7s.9-.2.9-.5-.5-.5-1.1-.6c-.9-.2-2.1-.4-2.1-1.7s.8-1.7,2.2-1.7,1.6.3,2.1.7l-.6,1c-.3-.3-.9-.6-1.6-.6s-.8.2-.8.5.4.5,1,.6c.9.2,2.1.4,2.1,1.7s-.8,1.7-2.3,1.7-1.8-.3-2.4-.8l.6-1Z"/>
    </g>
  </g>
  <g class="st1">
    <g class="st1">
      <path class="st2" d="M285.3,21.9h1.6v7.4h-1.6v-7.4Z"/>
      <path class="st2" d="M291.9,26c0-.7-.4-1-1-1s-1,.3-1.2.6v3.6h-1.4v-5.3h1.4v.7c.3-.4,1-.8,1.9-.8s1.7.7,1.7,1.7v3.8h-1.4v-3.2Z"/>
      <path class="st2" d="M295,25.1h-.9v-1.2h.9v-.3c0-1.2.7-1.9,1.8-1.9s.8,0,1,.2l-.3,1c-.1,0-.3-.1-.5-.1-.4,0-.7.3-.7.8v.3h1.1v1.2h-1.1v4.1h-1.4v-4.1Z"/>
      <path class="st2" d="M298.3,23.9h1.4v.7c.4-.5,1-.8,1.7-.8v1.4c0,0-.2,0-.4,0-.5,0-1.1.3-1.3.6v3.5h-1.4v-5.3Z"/>
      <path class="st2" d="M305.5,28.7c-.4.4-1,.7-1.7.7s-1.9-.6-1.9-1.8,1-1.7,1.9-1.7,1.3.2,1.7.7v-.7c0-.5-.5-.9-1.2-.9s-1.1.2-1.6.6l-.5-.9c.7-.6,1.5-.8,2.3-.8,1.2,0,2.3.5,2.3,2v3.4h-1.4v-.6ZM305.5,27.3c-.2-.3-.7-.5-1.1-.5s-1,.3-1,.8.5.8,1,.8.9-.2,1.1-.5v-.7Z"/>
      <path class="st2" d="M308.4,27.6c.4.4,1.2.7,1.8.7s.9-.2.9-.5-.5-.5-1.1-.6c-.9-.2-2.1-.4-2.1-1.7s.8-1.7,2.2-1.7,1.6.3,2.1.7l-.6,1c-.3-.3-.9-.6-1.6-.6s-.8.2-.8.5.4.5,1,.6c.9.2,2.1.4,2.1,1.7s-.8,1.7-2.3,1.7-1.8-.3-2.4-.8l.6-1Z"/>
      <path class="st2" d="M313.8,27.9v-2.8h-.9v-1.2h.9v-1.5h1.4v1.5h1.1v1.2h-1.1v2.4c0,.3.2.6.5.6s.4,0,.5-.2l.3,1.1c-.2.2-.6.3-1.2.3-1,0-1.5-.5-1.5-1.5Z"/>
      <path class="st2" d="M317.3,23.9h1.4v.7c.4-.5,1-.8,1.7-.8v1.4c0,0-.2,0-.4,0-.5,0-1.1.3-1.3.6v3.5h-1.4v-5.3Z"/>
      <path class="st2" d="M324.8,28.6c-.4.4-1,.8-1.9.8s-1.7-.6-1.7-1.7v-3.8h1.4v3.2c0,.7.4,1,1,1s1-.3,1.2-.6v-3.6h1.4v5.3h-1.4v-.7Z"/>
      <path class="st2" d="M330.1,23.8c1.1,0,1.8.5,2.1,1l-.9.8c-.3-.4-.6-.6-1.1-.6-.8,0-1.4.6-1.4,1.5s.6,1.6,1.4,1.6.9-.2,1.1-.6l.9.8c-.4.5-1,1-2.1,1-1.6,0-2.8-1.2-2.8-2.8s1.2-2.8,2.8-2.8Z"/>
      <path class="st2" d="M333.4,27.9v-2.8h-.9v-1.2h.9v-1.5h1.4v1.5h1.1v1.2h-1.1v2.4c0,.3.2.6.5.6s.4,0,.5-.2l.3,1.1c-.2.2-.6.3-1.2.3-1,0-1.5-.5-1.5-1.5Z"/>
      <path class="st2" d="M340.4,28.6c-.4.4-1,.8-1.9.8s-1.7-.6-1.7-1.7v-3.8h1.4v3.2c0,.7.4,1,1,1s1-.3,1.2-.6v-3.6h1.4v5.3h-1.4v-.7Z"/>
      <path class="st2" d="M343.2,23.9h1.4v.7c.4-.5,1-.8,1.7-.8v1.4c0,0-.2,0-.4,0-.5,0-1.1.3-1.3.6v3.5h-1.4v-5.3Z"/>
      <path class="st2" d="M349.6,23.8c1.6,0,2.7,1.2,2.7,2.9v.3h-4c0,.7.6,1.2,1.5,1.2s1.1-.2,1.4-.5l.6.9c-.5.5-1.4.7-2.2.7-1.6,0-2.8-1.1-2.8-2.8s1.1-2.8,2.8-2.8ZM348.3,26.1h2.6c0-.5-.4-1.2-1.3-1.2s-1.2.6-1.3,1.2Z"/>
    </g>
  </g>
  <g class="st1">
    <g class="st1">
      <path class="st2" d="M173.3,89.4h3.4c1.6,0,2.5,1.1,2.5,2.4s-.9,2.3-2.5,2.3h-1.9v2.6h-1.6v-7.4ZM176.5,90.7h-1.7v2h1.7c.6,0,1.1-.4,1.1-1s-.5-1-1.1-1Z"/>
      <path class="st2" d="M180.1,91.4h1.4v.7c.4-.5,1-.8,1.7-.8v1.4c0,0-.2,0-.4,0-.5,0-1.1.3-1.3.6v3.5h-1.4v-5.3Z"/>
      <path class="st2" d="M186.5,91.3c1.6,0,2.7,1.2,2.7,2.9v.3h-4c0,.7.6,1.2,1.5,1.2s1.1-.2,1.4-.5l.6.9c-.5.5-1.4.7-2.2.7-1.6,0-2.8-1.1-2.8-2.8s1.1-2.8,2.8-2.8ZM185.2,93.6h2.6c0-.5-.4-1.2-1.3-1.2s-1.2.6-1.3,1.2Z"/>
      <path class="st2" d="M190.2,98.8v-7.4h1.4v.7c.4-.5,1-.8,1.6-.8,1.4,0,2.4,1,2.4,2.8s-1,2.8-2.4,2.8-1.2-.3-1.6-.8v2.7h-1.4ZM192.8,92.5c-.5,0-1,.3-1.2.6v1.9c.2.3.8.6,1.2.6.8,0,1.3-.6,1.3-1.6s-.5-1.5-1.3-1.5Z"/>
      <path class="st2" d="M199.8,96.2c-.4.4-1,.7-1.7.7s-1.9-.6-1.9-1.8,1-1.7,1.9-1.7,1.3.2,1.7.7v-.7c0-.5-.5-.9-1.2-.9s-1.1.2-1.6.6l-.5-.9c.7-.6,1.5-.8,2.3-.8,1.2,0,2.3.5,2.3,2v3.4h-1.4v-.6ZM199.8,94.8c-.2-.3-.7-.5-1.1-.5s-1,.3-1,.8.5.8,1,.8.9-.2,1.1-.5v-.7Z"/>
      <path class="st2" d="M202.6,91.4h1.4v.7c.4-.5,1-.8,1.7-.8v1.4c0,0-.2,0-.4,0-.5,0-1.1.3-1.3.6v3.5h-1.4v-5.3Z"/>
      <path class="st2" d="M209,91.3c1.6,0,2.7,1.2,2.7,2.9v.3h-4c0,.7.6,1.2,1.5,1.2s1.1-.2,1.4-.5l.6.9c-.5.5-1.4.7-2.2.7-1.6,0-2.8-1.1-2.8-2.8s1.1-2.8,2.8-2.8ZM207.7,93.6h2.6c0-.5-.4-1.2-1.3-1.2s-1.2.6-1.3,1.2Z"/>
      <path class="st2" d="M215.8,92.6h-.9v-1.2h.9v-.3c0-1.2.7-1.9,1.8-1.9s.8,0,1,.2l-.3,1c-.1,0-.3-.1-.5-.1-.4,0-.7.3-.7.8v.3h1.1v1.2h-1.1v4.1h-1.4v-4.1Z"/>
      <path class="st2" d="M218.8,94.1c0-1.5,1.1-2.8,2.8-2.8s2.8,1.3,2.8,2.8-1.1,2.8-2.8,2.8-2.8-1.3-2.8-2.8ZM223,94.1c0-.8-.5-1.5-1.4-1.5s-1.4.7-1.4,1.5.5,1.6,1.4,1.6,1.4-.7,1.4-1.6Z"/>
      <path class="st2" d="M225.5,91.4h1.4v.7c.4-.5,1-.8,1.7-.8v1.4c0,0-.2,0-.4,0-.5,0-1.1.3-1.3.6v3.5h-1.4v-5.3Z"/>
      <path class="st2" d="M232.5,95.4v-2.8h-.9v-1.2h.9v-1.5h1.4v1.5h1.1v1.2h-1.1v2.4c0,.3.2.6.5.6s.4,0,.5-.2l.3,1.1c-.2.2-.6.3-1.2.3-1,0-1.5-.5-1.5-1.5Z"/>
      <path class="st2" d="M239.6,93.5c0-.7-.4-1-1-1s-1,.3-1.2.6v3.6h-1.4v-7.4h1.4v2.7c.3-.4,1-.8,1.9-.8s1.7.6,1.7,1.7v3.8h-1.4v-3.2Z"/>
      <path class="st2" d="M244.8,91.3c1.6,0,2.7,1.2,2.7,2.9v.3h-4c0,.7.6,1.2,1.5,1.2s1.1-.2,1.4-.5l.6.9c-.5.5-1.4.7-2.2.7-1.6,0-2.8-1.1-2.8-2.8s1.1-2.8,2.8-2.8ZM243.5,93.6h2.6c0-.5-.4-1.2-1.3-1.2s-1.2.6-1.3,1.2Z"/>
      <path class="st2" d="M254.9,96.1c-.4.4-1,.8-1.9.8s-1.7-.6-1.7-1.7v-3.8h1.4v3.2c0,.7.4,1,1,1s1-.3,1.2-.6v-3.6h1.4v5.3h-1.4v-.7Z"/>
      <path class="st2" d="M261.3,93.5c0-.7-.4-1-1-1s-1,.3-1.2.6v3.6h-1.4v-5.3h1.4v.7c.3-.4,1-.8,1.9-.8s1.7.7,1.7,1.7v3.8h-1.4v-3.2Z"/>
      <path class="st2" d="M266.1,94.7l-.6.7v1.4h-1.4v-7.4h1.4v4.4l2-2.4h1.7l-2.1,2.4,2.2,2.9h-1.8l-1.4-2.1Z"/>
      <path class="st2" d="M273.6,93.5c0-.7-.4-1-1-1s-1,.3-1.2.6v3.6h-1.4v-5.3h1.4v.7c.3-.4,1-.8,1.9-.8s1.7.7,1.7,1.7v3.8h-1.4v-3.2Z"/>
      <path class="st2" d="M276,94.1c0-1.5,1.1-2.8,2.8-2.8s2.8,1.3,2.8,2.8-1.1,2.8-2.8,2.8-2.8-1.3-2.8-2.8ZM280.2,94.1c0-.8-.5-1.5-1.4-1.5s-1.4.7-1.4,1.5.5,1.6,1.4,1.6,1.4-.7,1.4-1.6Z"/>
      <path class="st2" d="M286.3,93.1l-1.1,3.6h-1.5l-1.6-5.3h1.5l1,3.6,1.2-3.6h1.2l1.2,3.6,1-3.6h1.5l-1.6,5.3h-1.5l-1.1-3.6Z"/>
      <path class="st2" d="M294.8,93.5c0-.7-.4-1-1-1s-1,.3-1.2.6v3.6h-1.4v-5.3h1.4v.7c.3-.4,1-.8,1.9-.8s1.7.7,1.7,1.7v3.8h-1.4v-3.2Z"/>
    </g>
  </g>
  <g class="st1">
    <g class="st1">
      <path class="st2" d="M216.3,160h-1.1v2.6h-1.6v-7.4h3.4c1.5,0,2.5,1,2.5,2.4s-.8,2-1.6,2.2l1.7,2.8h-1.8l-1.4-2.6ZM216.8,156.6h-1.6v2h1.6c.6,0,1.1-.4,1.1-1s-.5-1-1.1-1Z"/>
    </g>
    <g class="st1">
      <path class="st2" d="M222.7,157.1c1.6,0,2.7,1.2,2.7,2.9v.3h-4c0,.7.6,1.2,1.5,1.2s1.1-.2,1.4-.5l.6.9c-.5.5-1.4.7-2.2.7-1.6,0-2.8-1.1-2.8-2.8s1.1-2.8,2.8-2.8ZM221.4,159.4h2.6c0-.5-.4-1.2-1.3-1.2s-1.2.6-1.3,1.2Z"/>
      <path class="st2" d="M226.5,160.9c.4.4,1.2.7,1.8.7s.9-.2.9-.5-.5-.5-1.1-.6c-.9-.2-2.1-.4-2.1-1.7s.8-1.7,2.2-1.7,1.6.3,2.1.7l-.6,1c-.3-.3-.9-.6-1.6-.6s-.8.2-.8.5.4.5,1,.6c.9.2,2.1.4,2.1,1.7s-.8,1.7-2.3,1.7-1.8-.3-2.4-.8l.6-1Z"/>
      <path class="st2" d="M231.7,164.6v-7.4h1.4v.7c.4-.5,1-.8,1.6-.8,1.4,0,2.4,1,2.4,2.8s-1,2.8-2.4,2.8-1.2-.3-1.6-.8v2.7h-1.4ZM234.3,158.4c-.5,0-1,.3-1.2.6v1.9c.2.3.8.6,1.2.6.8,0,1.3-.6,1.3-1.6s-.5-1.5-1.3-1.5Z"/>
      <path class="st2" d="M237.8,159.9c0-1.5,1.1-2.8,2.8-2.8s2.8,1.3,2.8,2.8-1.1,2.8-2.8,2.8-2.8-1.3-2.8-2.8ZM241.9,159.9c0-.8-.5-1.5-1.4-1.5s-1.4.7-1.4,1.5.5,1.6,1.4,1.6,1.4-.7,1.4-1.6Z"/>
      <path class="st2" d="M248,159.4c0-.7-.4-1-1-1s-1,.3-1.2.6v3.6h-1.4v-5.3h1.4v.7c.3-.4,1-.8,1.9-.8s1.7.7,1.7,1.7v3.8h-1.4v-3.2Z"/>
      <path class="st2" d="M254.5,161.9c-.4.5-1,.8-1.6.8-1.3,0-2.4-1-2.4-2.8s1-2.8,2.4-2.8,1.2.3,1.6.8v-2.7h1.4v7.4h-1.4v-.7ZM254.5,159c-.2-.4-.7-.6-1.2-.6-.8,0-1.3.6-1.3,1.6s.6,1.5,1.3,1.5,1-.3,1.2-.6v-1.9Z"/>
    </g>
  </g>
  <g>
    <g class="st1">
      <g class="st1">
        <path class="st2" d="M215.7,212.3h-1.1v2.6h-1.6v-7.4h3.4c1.5,0,2.5,1,2.5,2.4s-.8,2-1.6,2.2l1.7,2.8h-1.8l-1.4-2.6ZM216.2,208.9h-1.6v2h1.6c.6,0,1.1-.4,1.1-1s-.5-1-1.1-1Z"/>
      </g>
      <g class="st1">
        <path class="st2" d="M222.1,209.4c1.6,0,2.7,1.2,2.7,2.9v.3h-4c0,.7.6,1.2,1.5,1.2s1.1-.2,1.4-.5l.6.9c-.5.5-1.4.7-2.2.7-1.6,0-2.8-1.1-2.8-2.8s1.1-2.8,2.8-2.8ZM220.8,211.7h2.6c0-.5-.4-1.2-1.3-1.2s-1.2.6-1.3,1.2Z"/>
        <path class="st2" d="M225.8,207.5h1.4v2.7c.4-.5,1-.8,1.6-.8,1.4,0,2.4,1.1,2.4,2.8s-1,2.8-2.4,2.8-1.2-.3-1.6-.8v.7h-1.4v-7.4ZM228.4,213.8c.8,0,1.4-.6,1.4-1.5s-.5-1.6-1.4-1.6-1,.3-1.2.6v1.9c.2.3.8.6,1.2.6Z"/>
        <path class="st2" d="M231.9,212.2c0-1.5,1.1-2.8,2.8-2.8s2.8,1.3,2.8,2.8-1.1,2.8-2.8,2.8-2.8-1.3-2.8-2.8ZM236.1,212.2c0-.8-.5-1.5-1.4-1.5s-1.4.7-1.4,1.5.5,1.6,1.4,1.6,1.4-.7,1.4-1.6Z"/>
        <path class="st2" d="M242.2,214.2c-.4.4-1,.8-1.9.8s-1.7-.6-1.7-1.7v-3.8h1.4v3.2c0,.7.4,1,1,1s1-.3,1.2-.6v-3.6h1.4v5.3h-1.4v-.7Z"/>
        <path class="st2" d="M248.6,211.7c0-.7-.4-1-1-1s-1,.3-1.2.6v3.6h-1.4v-5.3h1.4v.7c.3-.4,1-.8,1.9-.8s1.7.7,1.7,1.7v3.8h-1.4v-3.2Z"/>
        <path class="st2" d="M255.1,214.2c-.4.5-1,.8-1.6.8-1.3,0-2.4-1-2.4-2.8s1-2.8,2.4-2.8,1.2.3,1.6.8v-2.7h1.4v7.4h-1.4v-.7ZM255.1,211.3c-.2-.4-.7-.6-1.2-.6-.8,0-1.3.6-1.3,1.6s.6,1.5,1.3,1.5,1-.3,1.2-.6v-1.9Z"/>
      </g>
    </g>
    <g class="st1">
      <g class="st1">
        <path class="st2" d="M229.2,225.4c-.4.4-1,.7-1.7.7s-1.9-.6-1.9-1.8,1-1.7,1.9-1.7,1.3.2,1.7.7v-.7c0-.5-.5-.9-1.2-.9s-1.1.2-1.6.6l-.5-.9c.7-.6,1.5-.8,2.3-.8,1.2,0,2.3.5,2.3,2v3.4h-1.4v-.6ZM229.2,224c-.2-.3-.7-.5-1.1-.5s-1,.3-1,.8.5.8,1,.8.9-.2,1.1-.5v-.7Z"/>
        <path class="st2" d="M235.6,222.7c0-.7-.4-1-1-1s-1,.3-1.2.6v3.6h-1.4v-5.3h1.4v.7c.3-.4,1-.8,1.9-.8s1.7.7,1.7,1.7v3.8h-1.4v-3.2Z"/>
        <path class="st2" d="M242,225.3c-.4.5-1,.8-1.6.8-1.3,0-2.4-1-2.4-2.8s1-2.8,2.4-2.8,1.2.3,1.6.8v-2.7h1.4v7.4h-1.4v-.7ZM242,222.3c-.2-.4-.7-.6-1.2-.6-.8,0-1.3.6-1.3,1.6s.6,1.5,1.3,1.5,1-.3,1.2-.6v-1.9Z"/>
      </g>
    </g>
    <g class="st1">
      <g class="st1">
        <path class="st2" d="M216.9,232.9h-.9v-1.2h.9v-.3c0-1.2.7-1.9,1.8-1.9s.8,0,1,.2l-.3,1c-.1,0-.3-.1-.5-.1-.4,0-.7.3-.7.7v.3h1.1v1.2h-1.1v4.1h-1.4v-4.1ZM220.2,229.6h1.4v7.4h-1.4v-7.4Z"/>
        <path class="st2" d="M222.7,234.3c0-1.5,1.1-2.8,2.8-2.8s2.8,1.3,2.8,2.8-1.1,2.8-2.8,2.8-2.8-1.3-2.8-2.8ZM226.9,234.3c0-.8-.5-1.5-1.4-1.5s-1.4.7-1.4,1.5.5,1.6,1.4,1.6,1.4-.7,1.4-1.6Z"/>
        <path class="st2" d="M233,236.3c-.4.4-1,.8-1.9.8s-1.7-.6-1.7-1.7v-3.8h1.4v3.2c0,.7.4,1,1,1s1-.3,1.2-.6v-3.6h1.4v5.3h-1.4v-.7Z"/>
        <path class="st2" d="M235.7,231.6h1.4v.7c.4-.5,1-.8,1.7-.8v1.4c0,0-.2,0-.4,0-.5,0-1.1.3-1.3.6v3.5h-1.4v-5.3Z"/>
        <path class="st2" d="M239.6,230c0-.5.4-.8.8-.8s.8.4.8.8-.4.8-.8.8-.8-.4-.8-.8ZM239.7,231.6h1.4v5.3h-1.4v-5.3Z"/>
        <path class="st2" d="M242.7,235.3c.4.4,1.2.7,1.8.7s.9-.2.9-.5-.5-.5-1.1-.6c-.9-.2-2.1-.4-2.1-1.7s.8-1.7,2.2-1.7,1.6.3,2.1.7l-.6,1c-.3-.3-.9-.6-1.6-.6s-.8.2-.8.5.4.5,1,.6c.9.2,2.1.4,2.1,1.7s-.8,1.7-2.3,1.7-1.8-.3-2.4-.8l.6-1Z"/>
        <path class="st2" d="M251.4,233.7c0-.7-.4-1-1-1s-1,.3-1.2.6v3.6h-1.4v-7.4h1.4v2.7c.3-.4,1-.8,1.9-.8s1.7.6,1.7,1.7v3.8h-1.4v-3.2Z"/>
      </g>
    </g>
  </g>
</svg>