<?xml version="1.0" encoding="UTF-8"?>
<svg id="Layer_1" xmlns="http://www.w3.org/2000/svg" xmlns:xlink="http://www.w3.org/1999/xlink" version="1.1" viewBox="0 0 419.8 298.9">
  <!-- Generator: Adobe Illustrator 29.7.1, SVG Export Plug-In . SVG Version: 2.1.1 Build 8)  -->
  <defs>
    <style>
      .st0 {
        fill: none;
      }

      .st1 {
        fill: #00808d;
      }

      .st2 {
        clip-path: url(#clippath-11);
      }

      .st3 {
        clip-path: url(#clippath-10);
      }

      .st4 {
        clip-path: url(#clippath-1);
      }

      .st5 {
        clip-path: url(#clippath-3);
      }

      .st6 {
        clip-path: url(#clippath-4);
      }

      .st7 {
        clip-path: url(#clippath-2);
      }

      .st8 {
        clip-path: url(#clippath-7);
      }

      .st9 {
        clip-path: url(#clippath-6);
      }

      .st10 {
        clip-path: url(#clippath-9);
      }

      .st11 {
        clip-path: url(#clippath-8);
      }

      .st12 {
        clip-path: url(#clippath-5);
      }

      .st13 {
        fill: #fff;
      }

      .st14 {
        fill: #eb5f28;
      }

      .st15 {
        fill: #868786;
      }

      .st16 {
        fill: #005059;
      }

      .st17 {
        fill: #181716;
      }

      .st18 {
        fill: #00aabe;
      }

      .st19 {
        clip-path: url(#clippath);
      }
    </style>
    <clipPath id="clippath">
      <rect class="st0" x="-92.1" y="-116.5" width="612" height="792"/>
    </clipPath>
    <clipPath id="clippath-1">
      <rect class="st0" x="-92.1" y="-116.5" width="612" height="792"/>
    </clipPath>
    <clipPath id="clippath-2">
      <rect class="st0" x="-92.1" y="-116.5" width="612" height="792"/>
    </clipPath>
    <clipPath id="clippath-3">
      <rect class="st0" x="-92.1" y="-116.5" width="612" height="792"/>
    </clipPath>
    <clipPath id="clippath-4">
      <rect class="st0" x="-92.1" y="-116.5" width="612" height="792"/>
    </clipPath>
    <clipPath id="clippath-5">
      <rect class="st0" x="-92.1" y="-116.5" width="612" height="792"/>
    </clipPath>
    <clipPath id="clippath-6">
      <rect class="st0" x="-92.1" y="-116.5" width="612" height="792"/>
    </clipPath>
    <clipPath id="clippath-7">
      <rect class="st0" x="-92.1" y="-116.5" width="612" height="792"/>
    </clipPath>
    <clipPath id="clippath-8">
      <rect class="st0" x="-92.1" y="-116.5" width="612" height="792"/>
    </clipPath>
    <clipPath id="clippath-9">
      <rect class="st0" x="-92.1" y="-116.5" width="612" height="792"/>
    </clipPath>
    <clipPath id="clippath-10">
      <rect class="st0" x="-92.1" y="-116.5" width="612" height="792"/>
    </clipPath>
    <clipPath id="clippath-11">
      <rect class="st0" x="-92.1" y="-116.5" width="612" height="792"/>
    </clipPath>
  </defs>
  <g class="st19">
    <g>
      <path class="st14" d="M211.1,292.7c0-.4.3-.8.7-.8h0c.4,0,.8.3.8.7h0c0,.4-.3.8-.7.8h0c-.4,0-.7-.3-.8-.7ZM215.6,292.5c0-.4.3-.8.7-.8h0c.4,0,.8.3.8.7h0c0,.4-.3.8-.7.8h0c-.4,0-.7-.3-.8-.7ZM220.1,292.2c0-.4.3-.8.7-.8h0c.4,0,.8.3.8.7h0c0,.4-.3.8-.7.8h0c-.4,0-.7-.3-.8-.7h0ZM224.5,291.7c0-.4.2-.8.6-.8h0c.4,0,.8.2.8.6h0c0,.4-.2.8-.6.9h0c-.4,0-.7-.3-.8-.6h0ZM228.9,291c0-.4.2-.8.6-.9h0c.4,0,.8.2.9.6h0c0,.4-.2.8-.6.9h-.1c-.4,0-.7-.3-.7-.6h0ZM233.4,290.3c0-.4.2-.8.6-.9h0c.4,0,.8.2.9.6h0c0,.4-.2.8-.6.9h-.1c-.4,0-.7-.2-.7-.6h0ZM237.7,289.4c0-.4.2-.8.6-.9h0c.4,0,.8.2.9.6h0c.1.4-.2.8-.6.9h-.2c-.3,0-.6-.2-.7-.6h0ZM242.1,288.3c-.1-.4.1-.8.5-.9h0c.4-.1.8.1.9.5h0c.1.4-.1.8-.5.9h-.2c-.3,0-.6-.2-.7-.5ZM246.4,287.1c-.1-.4.1-.8.5-.9h0c.4-.1.8.1.9.5h0c.1.4-.1.8-.5.9h-.2c-.3,0-.6-.2-.7-.5ZM250.7,285.7c-.1-.4,0-.8.5-1h0c.4-.1.8,0,1,.5h0c.1.4,0,.8-.5,1h-.2c-.3,0-.6-.2-.7-.5h-.1ZM254.9,284.3c-.1-.4,0-.8.4-1h0c.4-.1.8,0,1,.4h0c.1.4,0,.8-.4,1h-.3c-.3,0-.6-.2-.7-.5h0ZM259.1,282.6c-.1-.4,0-.8.4-1h0c.4-.2.8,0,1,.4h0c.2.4,0,.8-.4,1h-.3c-.3,0-.6-.2-.7-.5h0ZM263.2,280.9c-.2-.4,0-.8.4-1h0c.4-.2.8,0,1,.4h0c.2.4,0,.8-.4,1h-.3c-.3,0-.6-.2-.7-.4ZM267.3,279c-.2-.4,0-.8.3-1h0c.4-.2.8,0,1,.3h0c.2.4,0,.8-.3,1h-.3c-.3,0-.5-.1-.7-.4h0ZM271.3,276.9c-.2-.4,0-.8.3-1h0c.4-.2.8,0,1,.3h0c.2.4,0,.8-.3,1h-.4c-.3,0-.5-.1-.7-.4h.1ZM275.2,274.8c-.2-.4,0-.8.3-1h0c.4-.2.8,0,1,.3h0c.2.4,0,.8-.3,1h0c-.1,0-.2.1-.4.1h0c-.2,0-.5-.1-.6-.4ZM279.1,272.5c-.2-.4-.1-.8.2-1h0c.4-.2.8-.1,1,.2h0c.2.4.1.8-.2,1h0c-.1,0-.3.1-.4.1h0c-.2,0-.5-.1-.6-.4h0ZM282.8,270.1c-.2-.3-.1-.8.2-1h0c.3-.2.8-.1,1,.2h0c.2.3.1.8-.2,1h0c-.1,0-.3.1-.4.1h0c-.2,0-.5-.1-.6-.3h0ZM286.5,267.5c-.2-.3-.2-.8.2-1h0c.3-.2.8-.2,1,.2h0c.2.3.2.8-.2,1h0c-.1.1-.3.1-.4.1h0c-.2,0-.5-.1-.6-.3h0ZM290.1,264.9c-.2-.3-.2-.8.1-1.1h0c.3-.2.8-.2,1,.1h0c.3.3.2.8-.1,1h0c-.1.1-.3.2-.5.2h0c-.2,0-.5-.1-.6-.3h.1ZM293.6,262.1c-.3-.3-.2-.8.1-1.1h0c.3-.3.8-.2,1,.1h0c.3.3.2.8-.1,1.1h0c-.1.1-.3.2-.5.2h0c-.2,0-.4,0-.6-.3h.1ZM297.1,259.2c-.3-.3-.2-.8,0-1.1h0c.3-.3.8-.2,1.1,0h0c.3.3.2.8,0,1.1h0c-.1.1-.3.2-.5.2h0c-.2,0-.4,0-.6-.2ZM300.4,256.3c-.3-.3-.3-.8,0-1.1h0c.3-.3.8-.3,1.1,0h0c.3.3.3.8,0,1.1h0c-.1.1-.3.2-.5.2h0c-.2,0-.4,0-.5-.2h-.1ZM303.6,253.2c-.3-.3-.3-.8,0-1.1h0c.3-.3.8-.3,1.1,0h0c.3.3.3.8,0,1.1h0c-.1.1-.3.2-.5.2h0c-.2,0-.4,0-.5-.2h-.1ZM306.8,250c-.3-.3-.3-.8,0-1.1h0c.3-.3.8-.3,1.1,0h0c.3.3.3.8,0,1.1h0c-.1.1-.4.2-.5.2h0c-.2,0-.4,0-.5-.2h-.1ZM309.8,246.7c-.3-.3-.3-.8,0-1.1h0c.3-.3.8-.3,1.1,0h0c.3.3.3.8,0,1.1h0c-.1.2-.4.3-.6.3h0c-.2,0-.4,0-.5-.2h0ZM312.7,243.3c-.3-.3-.4-.7-.1-1.1h0c.3-.3.7-.4,1-.1h0c.3.3.4.7.1,1.1h0c-.1.2-.4.3-.6.3h0c-.2,0-.3,0-.5-.2h.1ZM315.5,239.8c-.3-.2-.4-.7-.1-1.1h0c.3-.3.7-.4,1-.1h0c.3.2.4.7.1,1.1h0c-.1.2-.4.3-.6.3h0c-.2,0-.3,0-.5-.2h.1ZM318.2,236.2c-.3-.2-.4-.7-.2-1h0c.2-.3.7-.4,1-.2h0c.3.2.4.7.2,1h0c-.1.2-.4.3-.6.3h0c-.1,0-.3,0-.4-.1ZM320.7,232.5c-.4-.2-.4-.7-.2-1h0c.2-.4.7-.4,1-.2h0c.3.2.4.7.2,1h0c-.1.2-.4.3-.6.3h0c-.1,0-.3,0-.4-.1h0ZM323.2,228.8c-.4-.2-.5-.7-.2-1h0c.2-.4.7-.5,1-.2h0c.4.2.5.7.2,1h0c-.1.2-.4.4-.6.4h0c-.1,0-.3,0-.4-.1h0ZM325.5,225c-.4-.2-.5-.7-.3-1h0c.2-.4.7-.5,1-.3h0c.4.2.5.7.3,1h0c-.1.2-.4.4-.6.4h0c-.1,0-.3,0-.4-.1h0ZM327.7,221.1c-.4-.2-.5-.6-.3-1h0c.2-.4.6-.5,1-.3h0c.4.2.5.6.3,1h0c-.1.2-.4.4-.7.4h-.4.1ZM329.8,217.1c-.4-.2-.5-.6-.3-1h0c.2-.4.6-.5,1-.3h0c.4.2.5.6.3,1h0c-.1.3-.4.4-.7.4h-.3ZM331.7,213.1c-.4-.2-.5-.6-.4-1h0c.2-.4.6-.5,1-.4h0c.4.2.5.6.4,1h0c-.1.3-.4.4-.7.4h-.3ZM333.5,209c-.4-.2-.6-.6-.4-1h0c.2-.4.6-.6,1-.4h0c.4.2.6.6.4,1h0c-.1.3-.4.5-.7.5h-.3ZM335.2,204.9c-.4-.1-.6-.6-.4-1h0c.1-.4.6-.6,1-.4h0c.4.1.6.6.4,1h0c-.1.3-.4.5-.7.5h-.3ZM336.7,200.7c-.4-.1-.6-.6-.5-.9h0c.1-.4.6-.6,1-.5h0c.4.1.6.6.5.9h0c-.1.3-.4.5-.7.5h-.3ZM338.1,196.4c-.4-.1-.6-.5-.5-.9h0c.1-.4.5-.6.9-.5h0c.4.1.6.5.5.9h0c-.1.3-.4.5-.7.5h-.2,0ZM339.3,192.1c-.4-.1-.6-.5-.5-.9h0c.1-.4.5-.6.9-.5h0c.4.1.6.5.5.9h0c0,.3-.4.6-.7.6h-.2,0ZM340.4,187.8c-.4,0-.6-.5-.6-.9h0c.1-.4.5-.6.9-.6h0c.4,0,.7.5.6.9h0c0,.4-.4.6-.7.6h-.2,0ZM341.4,183.4c-.4,0-.7-.5-.6-.9h0c0-.4.5-.7.9-.6h0c.4,0,.7.5.6.9h0c0,.4-.4.6-.7.6h-.2ZM342.2,179c-.4,0-.7-.4-.6-.9h0c0-.4.5-.7.9-.6h0c.4,0,.7.4.6.9h0c0,.4-.4.6-.7.6h-.2ZM342.9,174.6c-.4,0-.7-.4-.6-.8h0c0-.4.4-.7.8-.6h0c.4,0,.7.4.6.9h0c0,.4-.4.6-.8.6h0ZM343.4,170.2c-.4,0-.7-.4-.7-.8h0c0-.4.4-.7.8-.7h0c.4,0,.7.4.7.8h0c0,.4-.4.7-.8.7h0ZM343.8,165.7c-.4,0-.7-.4-.7-.8h0c0-.4.4-.7.8-.7h0c.4,0,.7.4.7.8h0c0,.4-.4.7-.8.7h0ZM344.1,161.2c-.4,0-.7-.4-.7-.8h0c0-.4.4-.7.8-.7h0c.4,0,.7.4.7.8h0c0,.4-.4.7-.8.7h0Z"/>
      <path class="st14" d="M343.4,151.5c0-.4.3-.8.7-.8h0c.4,0,.8.3.8.7h0c0,.4-.3.8-.7.8h0c-.4,0-.7-.3-.8-.7ZM343.1,147.1h0c0-.4.3-.8.7-.8h0c.4,0,.8.3.8.7h0c0,.4-.3.8-.7.8h0c-.4,0-.7-.3-.8-.7h0ZM342.8,142.6h0c0-.4.3-.8.7-.8h0c.4,0,.8.3.8.7h0c0,.4-.3.8-.7.8h0c-.4,0-.7-.3-.7-.7h0ZM342.3,138.2c0-.4.2-.8.6-.8h0c.4,0,.8.2.8.6h0c0,.4-.2.8-.6.8h0c-.4,0-.7-.3-.8-.6h0ZM341.6,133.8c0-.4.2-.8.6-.9h0c.4,0,.8.2.9.6h0c0,.4-.2.8-.6.9h-.1c-.4,0-.7-.3-.7-.6h0ZM340.8,129.4c0-.4.2-.8.6-.9h0c.4,0,.8.2.9.6h0c0,.4-.2.8-.6.9h-.1c-.4,0-.7-.2-.7-.6h0ZM339.9,125.1c0-.4.2-.8.6-.9h0c.4,0,.8.2.9.6h0c.1.4-.2.8-.6.9h-.2c-.3,0-.6-.2-.7-.6h0ZM338.8,120.8c-.1-.4.1-.8.5-.9h0c.4,0,.8,0,.9.5h0c.1.4-.1.8-.5.9h-.2c-.3,0-.6-.2-.7-.6h0ZM337.6,116.5c-.1-.4.1-.8.5-.9h0c.4,0,.8,0,.9.5h0c.1.4-.1.8-.5.9h-.2c-.3,0-.6-.2-.7-.5h0ZM336.2,112.2c-.1-.4,0-.8.5-.9h0c.4,0,.8,0,1,.5h0c.1.4,0,.8-.5,1h-.2c-.3,0-.6-.2-.7-.5h0ZM334.7,108h0c-.1-.4,0-.8.4-1h0c.4-.2.8,0,1,.4h0c.1.4,0,.8-.4,1h-.3c-.3,0-.6-.2-.7-.5h0ZM333.1,103.9h0c-.2-.4,0-.8.4-1h0c.4-.2.8,0,1,.4h0c.1.4,0,.8-.4,1h-.3c-.3,0-.6-.2-.7-.5h0ZM331.3,99.8h0c-.2-.4,0-.8.4-1h0c.4-.2.8,0,1,.4h0c.2.4,0,.8-.4,1h-.3c-.3,0-.6-.2-.7-.4h0ZM329.4,95.8c-.2-.4,0-.8.3-1h0c.4-.2.8,0,1,.3h0c.2.4,0,.8-.3,1h-.3c-.3,0-.5-.2-.7-.4h0ZM327.4,91.8c-.2-.4,0-.8.3-1h0c.4-.2.8,0,1,.3h0c.2.4,0,.8-.3,1h-.4c-.3,0-.5-.2-.7-.4h.1ZM325.2,87.9c-.2-.4,0-.8.3-1h0c.4-.2.8,0,1,.3h0c.2.4,0,.8-.3,1h-.4c-.3,0-.5,0-.6-.4h0ZM322.9,84.1c-.2-.3-.1-.8.2-1h0c.4-.2.8,0,1,.2h0c.2.3.1.8-.2,1h0c-.1,0-.3,0-.4,0h0c-.2,0-.5,0-.6-.3ZM320.5,80.4c-.2-.3-.1-.8.2-1h0c.4-.2.8,0,1,.2h0c.2.3.1.8-.2,1h0c-.1,0-.3,0-.4,0h0c-.2,0-.5,0-.6-.3ZM317.9,76.7c-.2-.3-.2-.8.2-1.1h0c.3-.2.8-.2,1,.2h0c.2.3.2.8-.2,1.1h0c-.1,0-.3,0-.4,0h0c-.2,0-.5,0-.6-.3h0ZM315.3,73.1h0c-.2-.3-.2-.8.1-1.1h0c.3-.2.8-.2,1,0h0c.2.3.2.8-.1,1.1h0c-.1,0-.3.2-.5.2h0c-.2,0-.4,0-.6-.3h.1ZM312.5,69.6c-.3-.3-.2-.8.1-1.1h0c.3-.3.8-.2,1.1,0h0c.3.3.2.8-.1,1.1h0c-.1,0-.3.2-.5.2h0c-.2,0-.4,0-.6-.3h0ZM309.6,66.2c-.3-.3-.2-.8,0-1.1h0c.3-.3.8-.2,1.1,0h0c.3.3.2.8,0,1.1h0c-.1,0-.3.2-.5.2h0c-.2,0-.4,0-.6-.2ZM306.6,62.9c-.3-.3-.3-.8,0-1.1h0c.3-.3.8-.3,1,0h0c.3.3.3.8,0,1.1h0c-.1,0-.3.2-.5.2h0c-.2,0-.4,0-.5-.2ZM303.5,59.8c-.3-.3-.3-.8,0-1.1h0c.3-.3.8-.3,1.1,0h0c.3.3.3.8,0,1.1h0c-.1,0-.3.2-.5.2h0c-.2,0-.4,0-.5-.2h-.1ZM300.3,56.7c-.3-.3-.3-.8,0-1.1h0c.3-.3.8-.3,1.1,0h0c.3.3.3.8,0,1.1h0c-.1.2-.3.2-.5.2h0c-.2,0-.4,0-.5-.2h-.1ZM297,53.7h0c-.3-.3-.3-.8,0-1.1h0c.3-.3.7-.3,1.1,0h0c.3.3.3.8,0,1.1h0c-.1.2-.4.2-.6.2h0c-.2,0-.4,0-.5-.2ZM293.6,50.8h0c-.3-.3-.4-.7-.1-1.1h0c.3-.3.7-.4,1.1,0h0c.3.3.4.7.1,1.1h0c-.1.2-.4.3-.6.3h0c-.2,0-.3,0-.5-.2h0ZM290.2,48c-.3-.2-.4-.7-.1-1h0c.3-.3.7-.4,1.1,0h0c.3.3.4.7.1,1h0c-.1.2-.4.3-.6.3h0c-.2,0-.3,0-.5-.2ZM286.6,45.4c-.3-.2-.4-.7-.2-1h0c.2-.3.7-.4,1-.2h0c.3.2.4.7.2,1h0c-.1.2-.4.3-.6.3h0c-.1,0-.3,0-.4,0ZM282.9,42.8c-.4-.2-.4-.7-.2-1h0c.2-.3.7-.4,1-.2h0c.4.2.4.7.2,1h0c-.1.2-.4.3-.6.3h0c-.1,0-.3,0-.4,0ZM279.2,40.4h0c-.4-.2-.5-.7-.2-1h0c.2-.3.7-.5,1-.2h0c.4.2.5.7.2,1h0c-.1.2-.4.4-.6.4h0c-.1,0-.3,0-.4,0h0ZM275.4,38.2h0c-.4-.2-.5-.7-.3-1h0c.2-.4.7-.5,1-.3h0c.4.2.5.7.3,1h0c-.1.2-.4.4-.6.4h-.4ZM271.5,36c-.4-.2-.5-.6-.3-1h0c.2-.4.6-.5,1-.3h0c.4.2.5.7.3,1h0c-.1.2-.4.4-.7.4h-.4.1ZM267.6,34c-.4-.2-.5-.6-.4-1h0c.2-.4.6-.5,1-.3h0c.4.2.5.6.3,1h0c-.1.3-.4.4-.7.4h-.3.1ZM263.5,32.1c-.4-.2-.5-.6-.4-1h0c.2-.4.6-.5,1-.4h0c.4.2.5.6.4,1h0c-.1.3-.4.4-.7.4h-.3ZM259.5,30.3c-.4-.2-.6-.6-.4-1h0c.2-.4.6-.6,1-.4h0c.4.2.6.6.4,1h0c-.1.3-.4.5-.7.5h-.3ZM255.4,28.7h0c-.4-.1-.6-.6-.4-1h0c.1-.4.6-.6,1-.4h0c.4.2.6.6.4,1h0c-.1.3-.4.5-.7.5h-.3ZM251.2,27.2c-.4-.1-.6-.6-.5-1h0c.1-.4.6-.6,1-.5h0c.4.1.6.6.5,1h0c-.1.3-.4.5-.7.5h-.3ZM246.9,25.8c-.4-.1-.6-.5-.5-.9h0c.1-.4.5-.6.9-.5h0c.4.1.6.5.5.9h0c-.1.3-.4.5-.7.5h-.2ZM242.6,24.6c-.4-.1-.6-.5-.5-.9h0c.1-.4.5-.6.9-.5h0c.4.1.6.5.5.9h0c0,.3-.4.6-.7.6h-.2ZM238.3,23.5c-.4,0-.7-.5-.6-.9h0c0-.4.5-.6.9-.6h0c.4.1.7.5.6.9h0c0,.3-.4.6-.7.6h-.2ZM234,22.6c-.4,0-.7-.5-.6-.9h0c0-.4.5-.7.9-.6h0c.4,0,.7.5.6.9h0c0,.4-.4.6-.7.6h-.2ZM229.6,21.8h0c-.4,0-.7-.5-.6-.9h0c0-.4.5-.7.9-.6h0c.4,0,.7.5.6.9h0c0,.4-.4.6-.7.6h-.2ZM225.2,21.1h0c-.4,0-.7-.4-.6-.8h0c0-.4.4-.7.8-.6h0c.4,0,.7.4.6.8h0c0,.4-.4.6-.7.6h-.1ZM220.8,20.6h0c-.4,0-.7-.4-.7-.8h0c0-.4.4-.7.8-.7h0c.4,0,.7.4.7.8h0c0,.4-.4.7-.7.7h-.1ZM216.4,20.3c-.4,0-.7-.4-.7-.8h0c0-.4.4-.7.8-.7h0c.4,0,.7.4.7.8h0c0,.4-.4.7-.7.7h-.1ZM211.9,20c-.4,0-.7-.4-.7-.8h0c0-.4.4-.7.8-.7h0c.4,0,.7.4.7.8h0c0,.4-.3.7-.7.7h-.1Z"/>
      <path class="st14" d="M70.7,152.2c-.4,0-.7-.4-.7-.8h0c0-.4.4-.7.8-.7h0c.4,0,.7.4.7.8h0c0,.4-.3.7-.8.7h0ZM70.9,147.7c-.4,0-.7-.4-.7-.8h0c0-.4.4-.7.8-.7h0c.4,0,.7.4.7.8h0c0,.4-.4.7-.8.7h0ZM71.2,143.3c-.4,0-.7-.4-.7-.8h0c0-.4.4-.7.8-.7h0c.4,0,.7.4.7.8h0c0,.4-.4.7-.8.7h0ZM71.7,138.8c-.4,0-.7-.4-.7-.8h0c0-.4.4-.7.8-.6h0c.4,0,.7.4.6.8h0c0,.4-.4.7-.7.7h0ZM72.3,134.4c-.4,0-.7-.4-.6-.9h0c0-.4.4-.7.9-.6h0c.4,0,.7.4.6.9h0c0,.4-.4.6-.7.6h-.2ZM73.1,130c-.4,0-.7-.5-.6-.9h0c0-.4.5-.7.9-.6h0c.4,0,.7.5.6.9h0c0,.4-.4.6-.7.6h-.2ZM74,125.6c-.4,0-.7-.5-.6-.9h0c0-.4.5-.6.9-.6h0c.4,0,.6.5.6.9h0c0,.4-.4.6-.7.6h-.2ZM75.1,121.3c-.4,0-.6-.5-.5-.9h0c0-.4.5-.6.9-.5h0c.4,0,.6.5.5.9h0c0,.3-.4.6-.7.6h-.2ZM76.3,117c-.4,0-.6-.5-.5-.9h0c0-.4.5-.6.9-.5h0c.4,0,.6.5.5.9h0c0,.3-.4.5-.7.5h-.2ZM77.6,112.7c-.4,0-.6-.6-.5-.9h0c0-.4.6-.6.9-.5h0c.4,0,.6.6.5.9h0c0,.3-.4.5-.7.5h-.2ZM79.1,108.5c-.4,0-.6-.6-.4-1h0c0-.4.6-.6,1-.4h0c.4.2.6.6.4,1h0c0,.3-.4.5-.7.5h-.3ZM80.7,104.3c-.4-.2-.6-.6-.4-1h0c.2-.4.6-.6,1-.4h0c.4.2.6.6.4,1h0c0,.3-.4.5-.7.5h-.3ZM82.5,100.2c-.4-.2-.6-.6-.4-1h0c.2-.4.6-.5,1-.4h0c.4.2.5.6.4,1h0c0,.3-.4.4-.7.4h-.3ZM84.4,96.2c-.4-.2-.5-.6-.3-1h0c.2-.4.6-.5,1-.3h0c.4.2.5.6.3,1h0c0,.3-.4.4-.7.4h-.3ZM86.4,92.2c-.4-.2-.5-.7-.3-1h0c.2-.4.6-.5,1-.3h0c.4.2.5.7.3,1h0c0,.2-.4.4-.7.4h-.4,0ZM88.6,88.3c-.4-.2-.5-.7-.3-1h0c.2-.4.7-.5,1-.3h0c.4.2.5.7.3,1h0c0,.2-.4.4-.6.4h-.4ZM90.8,84.4c-.4-.2-.4-.7-.2-1h0c.2-.3.7-.5,1-.2h0c.4.2.5.7.2,1h0c0,.2-.4.4-.6.4h0c0,0-.3,0-.4,0h0ZM93.2,80.7c-.4-.2-.4-.7-.2-1h0c.2-.3.7-.4,1-.2h0c.3.2.4.7.2,1h0c0,.2-.4.3-.6.3h0c0,0-.3,0-.4,0h0ZM95.8,77c-.3-.2-.4-.7-.2-1.1h0c.2-.3.7-.4,1.1-.2h0c.3.2.4.7.2,1h0c0,.2-.4.3-.6.3h0c0,0-.3,0-.4,0h0ZM98.4,73.4c-.3-.2-.4-.7,0-1.1h0c.2-.3.7-.4,1.1,0h0c.3.2.4.7,0,1.1h0c0,.2-.4.3-.6.3h0c-.2,0-.3,0-.4-.2h0ZM101.2,69.8c-.3-.3-.4-.7,0-1.1h0c.3-.3.7-.4,1.1,0h0c.3.3.4.7,0,1.1h0c0,.2-.4.3-.6.3h0c-.2,0-.3,0-.5-.2h0ZM104,66.4c-.3-.3-.3-.8,0-1.1h0c.3-.3.8-.3,1.1,0h0c.3.3.3.8,0,1.1h0c0,.2-.4.2-.6.2h0c-.2,0-.4,0-.5-.2ZM107,63.1c-.3-.3-.3-.8,0-1.1h0c.3-.3.8-.3,1.1,0h0c.3.3.3.8,0,1.1h0c0,.2-.4.2-.6.2h0c-.2,0-.4,0-.5-.2ZM110.1,59.9c-.3-.3-.3-.8,0-1.1h0c.3-.3.8-.3,1.1,0h0c.3.3.3.8,0,1.1h0c0,.2-.3.2-.5.2h0c-.2,0-.4,0-.5-.2h0ZM113.3,56.7c-.3-.3-.3-.8,0-1.1h0c.3-.3.8-.3,1.1,0h0c.3.3.3.8,0,1.1h0c0,0-.3.2-.5.2h0c-.2,0-.4,0-.6-.2ZM116.6,53.7c-.3-.3-.2-.8,0-1h0c.3-.3.8-.2,1.1,0h0c.3.3.2.8,0,1h0c0,0-.3.2-.5.2h0c-.2,0-.4,0-.6-.3h0ZM120,50.8c-.3-.3-.2-.8,0-1.1h0c.3-.3.8-.2,1.1,0h0c.3.3.2.8,0,1.1h0c0,0-.3.2-.5.2h0c-.2,0-.4,0-.6-.3h0ZM123.5,48c-.2-.3-.2-.8,0-1h0c.3-.2.8-.2,1.1,0h0c.2.3.2.8,0,1h0c0,0-.3.2-.5.2h0c-.2,0-.4,0-.6-.3ZM127.1,45.3c-.2-.3-.2-.8.2-1h0c.3-.2.8-.2,1.1.2h0c.2.3.2.8-.2,1h0c-.1,0-.3,0-.4,0h0c-.2,0-.5,0-.6-.3h0ZM130.7,42.7c-.2-.3-.1-.8.2-1h0c.3-.2.8,0,1,.2h0c.2.3.1.8-.2,1h0c-.1,0-.3,0-.4,0h0c-.2,0-.5,0-.6-.3h0ZM134.5,40.3c-.2-.3-.1-.8.2-1h0c.4-.2.8,0,1,.2h0c.2.3.1.8-.2,1h0c-.1,0-.3,0-.4,0h0c-.2,0-.5,0-.6-.4h0ZM138.3,37.9c-.2-.4,0-.8.3-1h0c.4-.2.8,0,1,.3h0c.2.4,0,.8-.3,1h-.4c-.3,0-.5,0-.6-.4h0ZM142.2,35.7c-.2-.4,0-.8.3-1h0c.4-.2.8,0,1,.3h0c.2.4,0,.8-.3,1h-.4c-.3,0-.5,0-.7-.4h0ZM146.2,33.6c-.2-.4,0-.8.3-1h0c.4-.2.8,0,1,.3h0c.2.4,0,.8-.3,1h-.3c-.3,0-.5-.2-.7-.4h0ZM150.2,31.7c-.2-.4,0-.8.4-1h0c.4-.2.8,0,1,.4h0c.2.4,0,.8-.4,1h-.3c-.3,0-.6-.2-.7-.4h0ZM154.3,29.9c-.2-.4,0-.8.4-1h0c.4-.2.8,0,1,.4h0c.1.4,0,.8-.4,1h-.3c-.3,0-.6-.2-.7-.5h0ZM158.5,28.2c-.1-.4,0-.8.4-1h0c.4-.2.8,0,1,.4h0c.1.4,0,.8-.4,1h-.3c-.3,0-.6-.2-.7-.5h0ZM162.7,26.7c-.1-.4,0-.8.5-1h0c.4-.1.8,0,.9.5h0c.1.4,0,.8-.5,1h-.2c-.3,0-.6-.2-.7-.5h0ZM167,25.3c-.1-.4.1-.8.5-.9h0c.4-.1.8,0,.9.5h0c.1.4-.1.8-.5.9h-.2c-.3,0-.6-.2-.7-.5h0ZM171.3,24c-.1-.4.1-.8.5-.9h0c.4-.1.8.1.9.5h0c.1.4-.1.8-.5.9h-.2c-.3,0-.6-.2-.7-.6h0ZM175.6,22.9c0-.4.2-.8.6-.9h0c.4-.1.8.1.9.6h0c0,.4-.2.8-.6.9h-.2c-.3,0-.6-.2-.7-.6ZM180,22c0-.4.2-.8.6-.9h0c.4,0,.8.2.9.6h0c0,.4-.2.8-.6.9h-.1c-.4,0-.7-.2-.7-.6h0ZM184.4,21.1c0-.4.2-.8.6-.9h0c.4,0,.8.2.9.6h0c0,.4-.2.8-.6.9h-.1c-.4,0-.7-.3-.7-.6h0ZM188.8,20.5c0-.4.2-.8.6-.8h0c.4,0,.8.2.8.6h0c0,.4-.2.8-.6.8h0c-.4,0-.7-.3-.8-.7h0ZM193.3,19.9c0-.4.3-.8.7-.8h0c.4,0,.8.3.8.7h0c0,.4-.3.8-.7.8h0c-.4,0-.7-.3-.8-.7ZM198.5,20.3c-.4,0-.8-.3-.8-.7h0c0-.4.3-.8.7-.8h0c.4,0,.8.3.8.7h0c0,.4-.3.8-.7.8h0ZM202.2,19.3c0-.4.3-.8.7-.8h0c.4,0,.8.3.8.7h0c0,.4-.3.8-.7.8h0c-.4,0-.7-.3-.8-.7Z"/>
      <path class="st14" d="M202.2,292.6c0-.4.4-.7.8-.7h0c.4,0,.7.4.7.8h0c0,.4-.4.7-.8.7h0c-.4,0-.7-.4-.7-.8ZM198.4,293.2h0c-.4,0-.7-.4-.7-.8h0c0-.4.4-.7.8-.7h0c.4,0,.7.4.7.8h0c0,.4-.4.7-.8.7h0ZM193.9,292.8c-.4,0-.7-.4-.7-.8h0c0-.4.4-.7.8-.7h0c.4,0,.7.4.7.8h0c0,.4-.4.7-.7.7h-.1ZM189.4,292.3h0c-.4,0-.7-.4-.6-.8h0c0-.4.4-.7.8-.6h0c.4,0,.7.4.6.9h0c0,.4-.4.6-.7.6h-.1ZM185,291.7c-.4,0-.7-.5-.6-.9h0c0-.4.5-.7.9-.6h0c.4,0,.7.5.6.9h0c0,.4-.4.6-.7.6h-.2ZM180.6,290.9h0c-.4,0-.7-.5-.6-.9h0c0-.4.5-.7.9-.6h0c.4,0,.7.5.6.9h0c0,.4-.4.6-.7.6h-.2ZM176.2,289.9h0c-.4-.1-.7-.5-.6-.9h0c0-.4.5-.7.9-.6h0c.4,0,.6.5.6.9h0c0,.4-.4.6-.7.6h-.2ZM171.8,288.8c-.4-.1-.6-.5-.5-.9h0c.1-.4.5-.6.9-.5h0c.4.1.6.5.5.9h0c0,.3-.4.5-.7.5h-.2ZM167.5,287.6h0c-.4-.1-.6-.5-.5-.9h0c.1-.4.5-.6.9-.5h0c.4.1.6.5.5.9h0c-.1.3-.4.5-.7.5h-.2ZM163.2,286.2c-.4-.1-.6-.6-.5-1h0c.1-.4.6-.6.9-.5h0c.4.1.6.6.5,1h0c-.1.3-.4.5-.7.5h-.2ZM158.9,284.7h0c-.4-.1-.6-.6-.4-1h0c.1-.4.6-.6,1-.4h0c.4.1.6.6.4,1h0c-.1.3-.4.5-.7.5h-.3ZM154.8,283h0c-.4-.2-.6-.6-.4-1h0c.2-.4.6-.6,1-.4h0c.4.1.6.6.4,1h0c-.1.3-.4.5-.7.5h-.3ZM150.7,281.3c-.4-.2-.6-.6-.4-1h0c.2-.4.6-.5,1-.4h0c.4.2.5.6.4,1h0c-.1.3-.4.4-.7.4h-.3ZM146.6,279.3h0c-.4-.2-.5-.6-.3-1h0c.2-.4.6-.5,1-.3h0c.4.2.5.6.3,1h0c-.1.3-.4.4-.7.4h-.3ZM142.6,277.3c-.4-.2-.5-.6-.3-1h0c.2-.4.6-.5,1-.3h0c.4.2.5.6.3,1h0c-.1.2-.4.4-.7.4h-.4,0ZM138.7,275.1c-.4-.2-.5-.7-.3-1h0c.2-.4.7-.5,1-.3h0c.4.2.5.7.3,1h0c-.1.2-.4.4-.6.4h0c-.1,0-.3,0-.4-.1h0ZM134.8,272.8c-.4-.2-.4-.7-.2-1h0c.2-.4.7-.5,1-.2h0c.4.2.5.7.2,1h0c-.1.2-.4.4-.6.4h0c-.1,0-.3,0-.4-.1h0ZM131.1,270.3c-.4-.2-.4-.7-.2-1h0c.2-.3.7-.4,1-.2h0c.4.2.4.7.2,1h0c-.1.2-.4.3-.6.3h0c-.1,0-.3,0-.4-.1h0ZM127.4,267.8c-.3-.2-.4-.7-.2-1h0c.2-.3.7-.4,1.1-.2h0c.3.2.4.7.2,1h0c-.1.2-.4.3-.6.3h0c0,0-.3,0-.4-.1h0ZM123.8,265.1h0c-.3-.3-.4-.7,0-1h0c.2-.3.7-.4,1.1-.1h0c.3.2.4.7,0,1h0c0,.2-.4.3-.6.3h0c-.2,0-.3,0-.4-.1h0ZM120.2,262.3h0c-.3-.3-.4-.7,0-1.1h0c.3-.3.7-.4,1.1-.1h0c.3.3.4.7,0,1.1h0c0,.2-.4.3-.6.3h0c-.2,0-.3,0-.5-.2h0ZM116.8,259.4h0c-.3-.3-.4-.7,0-1.1h0c.3-.3.7-.3,1.1,0h0c.3.3.3.7,0,1h0c0,.2-.4.3-.6.3h0c-.2,0-.4,0-.5-.2h0ZM113.5,256.4c-.3-.3-.3-.8,0-1.1h0c.3-.3.8-.3,1.1,0h0c.3.3.3.8,0,1.1h0c0,.2-.4.2-.6.2h0c-.2,0-.4,0-.5-.2ZM110.2,253.3c-.3-.3-.3-.8,0-1.1h0c.3-.3.8-.3,1.1,0h0c.3.3.3.8,0,1.1h0c0,.1-.3.2-.5.2h0c-.2,0-.4,0-.5-.2h0ZM107.1,250c-.3-.3-.3-.8,0-1.1h0c.3-.3.8-.3,1.1,0h0c.3.3.3.8,0,1.1h0c0,.1-.3.2-.5.2h0c-.2,0-.4,0-.5-.2h0ZM104.1,246.7h0c-.3-.3-.2-.8,0-1.1h0c.3-.3.8-.2,1.1,0h0c.3.3.2.8,0,1.1h0c0,.1-.3.2-.5.2h0c-.2,0-.4,0-.6-.3h0ZM101.2,243.3c-.3-.3-.2-.8,0-1.1h0c.3-.3.8-.2,1.1.1h0c.3.3.2.8,0,1.1h0c0,.1-.3.2-.5.2h0c-.2,0-.4-.1-.6-.3ZM98.4,239.7c-.2-.3-.2-.8,0-1.1h0c.3-.2.8-.2,1.1.1h0c.2.3.2.8,0,1.1h0c0,.1-.3.1-.5.1h0c-.2,0-.4-.1-.6-.3h0ZM95.7,236.1c-.2-.3-.2-.8.2-1.1h0c.3-.2.8-.2,1,.2h0c.2.3.2.8-.2,1.1h0c0,0-.3.1-.4.1h0c-.2,0-.5-.1-.6-.3ZM93.1,232.4c-.2-.4,0-.8.2-1h0c.4-.2.8-.1,1.1.2h0c.2.4,0,.8-.2,1h0c0,0-.3.1-.4.1h0c-.2,0-.5-.1-.6-.3h0ZM90.7,228.7h0c-.2-.4,0-.8.2-1h0c.4-.2.8-.1,1,.2h0c.2.4,0,.8-.2,1h0c0,0-.2.1-.4.1h0c-.2,0-.5-.1-.6-.4h0ZM88.3,224.8h0c-.2-.4,0-.8.3-1h0c.4-.2.8,0,1,.3h0c.2.4,0,.8-.3,1h0c0,0-.2.1-.4.1h0c-.3,0-.5-.1-.6-.4h0ZM86.1,220.9h0c-.2-.4,0-.8.3-1h0c.4-.2.8,0,1,.3h0c.2.4,0,.8-.3,1h-.4c-.3,0-.5-.1-.7-.4h0ZM84.1,216.8c-.2-.4,0-.8.3-1h0c.4-.2.8,0,1,.3h0c.2.4,0,.8-.3,1h-.3c-.3,0-.6-.1-.7-.4h0ZM82.1,212.8c-.2-.4,0-.8.4-1h0c.4-.2.8,0,1,.4h0c.2.4,0,.8-.4,1h-.3c-.3,0-.6-.2-.7-.4h0ZM80.3,208.6h0c-.2-.4,0-.8.4-1h0c.4-.2.8,0,1,.4h0c.2.4,0,.8-.4,1h-.3c-.3,0-.6-.2-.7-.5h0ZM78.7,204.4h0c0-.4,0-.8.4-1h0c.4-.1.8,0,1,.4h0c0,.4,0,.8-.4,1h-.3c-.3,0-.6-.2-.7-.5h0ZM77.2,200.2c0-.4,0-.8.5-1h0c.4-.1.8,0,.9.5h0c0,.4,0,.8-.5,1h-.2c-.3,0-.6-.2-.7-.5h0ZM75.8,195.9c0-.4,0-.8.5-.9h0c.4-.1.8.1.9.5h0c0,.4,0,.8-.5.9h-.2c-.3,0-.6-.2-.7-.5ZM74.6,191.6c0-.4,0-.8.5-.9h0c.4-.1.8.1.9.5h0c0,.4,0,.8-.5.9h-.2c-.3,0-.6-.2-.7-.6h0ZM73.5,187.2h0c0-.4.2-.8.6-.9h0c.4,0,.8.2.9.6h0c0,.4,0,.8-.6.9h-.2c-.3,0-.6-.2-.7-.6ZM72.5,182.8c0-.4.2-.8.6-.9h0c.4,0,.8.2.9.6h0c0,.4-.2.8-.6.9h0c-.4,0-.7-.2-.7-.6h-.1ZM71.7,178.4c0-.4.2-.8.6-.9h0c.4,0,.8.2.9.6h0c0,.4-.2.8-.6.9h0c-.4,0-.7-.3-.7-.6h-.1ZM71.1,173.9c0-.4.2-.8.7-.8h0c.4,0,.8.2.8.6h0c0,.4-.2.8-.7.8h0c-.4,0-.7-.3-.7-.6h-.1ZM70.6,169.5c0-.4.3-.8.7-.8h0c.4,0,.8.3.8.7h0c0,.4-.3.8-.7.8h0c-.4,0-.7-.3-.8-.7ZM70.2,165c0-.4.3-.8.7-.8h0c.4,0,.8.3.8.7h0c0,.4-.3.8-.7.8h0c-.4,0-.7-.3-.8-.7h0ZM70,160.5c0-.4.3-.8.7-.8h0c.4,0,.8.3.8.7h0c0,.4-.3.8-.7.8h0c-.4,0-.7-.3-.8-.7ZM206.6,292.8c0-.4.4-.7.8-.7h0c.4,0,.7.4.7.8h0c0,.4-.4.7-.8.7h0c-.4,0-.7-.4-.7-.8ZM206.6,19.2c0-.4.4-.7.8-.7h0c.4,0,.7.4.7.8h0c0,.4-.4.7-.8.7h0c-.4,0-.7-.4-.7-.8Z"/>
    </g>
  </g>
  <path class="st14" d="M72.5,82.5l1.9-3.1c.8-1.4,2.2-1.6,3.3-.9,1.1.7,1.6,2,.7,3.3l-.9,1.5,2.1,1.2-.9,1.6-6.1-3.7h0ZM75.5,80.5l-.8,1.3,1.4.8.8-1.3c.2-.4.2-.9-.2-1.1s-.9,0-1.1.3h-.1Z"/>
  <path class="st14" d="M81.7,76.7l-.5.8,2,1.3-1,1.5-5.9-4,2-3c.9-1.3,2.3-1.5,3.4-.7,1,.7,1.2,1.7,1,2.4l3,.2-1.2,1.8-2.7-.3h-.1ZM79.3,74.5l-.8,1.2,1.3.9.8-1.2c.3-.4.2-.9-.2-1.2-.4-.3-.9,0-1.2.3h0Z"/>
  <path class="st14" d="M82.3,67.3c1.3-1.8,3.5-2.2,5.2-.9,1.7,1.3,2,3.5.7,5.3s-3.5,2.2-5.2.9c-1.8-1.3-2-3.5-.7-5.3h0ZM83.6,68.3c-.7.9-.4,2.1.5,2.8.9.7,2.1.6,2.8-.3.7-.9.4-2.1-.5-2.8-.9-.7-2.1-.6-2.8.3Z"/>
  <path class="st14" d="M85.5,63.4l2.6-3.1c.9-1.1,2-1,2.7-.5.7.6.8,1.4.5,2,.6-.5,1.5-.5,2.2,0,.8.7,1.1,1.8.2,2.8l-2.6,3.2-5.5-4.5h0ZM89.9,62.3c.2-.3.2-.7,0-.9-.3-.2-.6-.2-.9,0l-1.1,1.4.9.8,1.1-1.4h0ZM92.2,64.1c.3-.3.2-.7,0-1-.3-.2-.7-.2-1,0l-1.2,1.4,1,.8,1.2-1.4h0Z"/>
  <path class="st14" d="M90.4,57.5l1.2-1.4,4.1,3.7,1.9-2.1,1.2,1.1-3.2,3.5-5.3-4.8h.1Z"/>
  <path class="st14" d="M94.4,53.1l3.7-3.8,1.1,1.1-2.4,2.4.9.8,2.3-2.4,1.1,1.1-2.3,2.4.9.9,2.4-2.4,1.1,1.1-3.7,3.8-5.1-5h0Z"/>
  <path class="st14" d="M105.3,45.8l1.9,4.8-.6.5-4.6-2.4,3.2,3.6-1.4,1.2-4.8-5.3,1.9-1.7,3.8,2-1.6-4,1.9-1.7,4.8,5.3-1.4,1.2-3.2-3.6h0Z"/>
  <path class="st14" d="M113.7,43.6l-2.3,1.9.4,1.1-1.6,1.3-2.5-7.2,1.8-1.5,6.6,3.8-1.6,1.3-1-.6h.2ZM110.8,43.9l1.6-1.3-2.6-1.6,1.1,2.9h0Z"/>
  <path class="st14" d="M115.6,40.4c.7,0,1.6,0,2.4-.6.5-.4.7-.8.4-1.1-.2-.3-.7-.2-1.4,0-1.1.5-2.6,1.2-3.6,0-.7-1-.5-2.4,1-3.5.9-.7,1.9-1,2.9-.9v1.7c-.8,0-1.6.2-2.1.6-.5.4-.5.7-.4,1,.2.3.6,0,1.4-.2,1.1-.5,2.6-1.2,3.6,0,.9,1.2.6,2.5-1,3.7-1.2.9-2.2,1.1-3.2,1v-1.7h0Z"/>
  <path class="st14" d="M120.3,31.2l4.4-2.8.8,1.3-2.9,1.8.6,1,2.8-1.8.9,1.3-2.8,1.8.7,1.1,2.9-1.8.9,1.3-4.4,2.8s-3.9-6-3.9-6Z"/>
  <path class="st14" d="M128.6,31.5c.7.2,1.6.1,2.4-.4.5-.3.7-.8.6-1-.2-.3-.7-.2-1.4,0-1.1.4-2.7,1-3.6-.5-.6-1-.3-2.4,1.3-3.4,1-.6,2-.8,3-.6l-.2,1.7c-.8-.1-1.6,0-2.1.4-.5.3-.6.7-.4.9.2.3.6.2,1.4,0,1.1-.4,2.7-.9,3.5.5.7,1.2.3,2.6-1.3,3.6-1.2.7-2.3.9-3.3.7v-1.7c0,0,.1,0,.1,0v-.2Z"/>
  <path class="st14" d="M133.8,24.9l-1.8.9-.8-1.4,5.2-2.7.8,1.4-1.8.9,2.6,4.9-1.6.9-2.6-4.9h0Z"/>
  <path class="st14" d="M142.1,24.2l-.9.4,1.1,2.2-1.7.8-3.1-6.4,3.2-1.5c1.4-.7,2.7-.1,3.3,1.1.5,1.1.1,2-.4,2.5l2.4,1.7-1.9.9-2.1-1.7h0ZM141.1,21.1l-1.3.6.7,1.4,1.3-.6c.4-.2.7-.7.4-1.1-.2-.4-.7-.5-1.1-.3h0Z"/>
  <path class="st14" d="M144.2,18l1.7-.7,1.6,3.9c.3.8,1,1.2,1.9.8.9-.4,1.1-1.1.8-1.9l-1.6-3.9,1.7-.7,1.6,3.9c.7,1.6.2,3.2-1.9,4.1-2.1.9-3.6.1-4.2-1.5l-1.6-3.9h0Z"/>
  <path class="st14" d="M152.8,18.3c-.8-2.1.3-4,2.3-4.8,1.7-.6,2.9,0,3.6.7l-1.2,1.2c-.4-.5-1.1-.7-1.8-.4-1.1.4-1.5,1.5-1.1,2.6.4,1.1,1.5,1.7,2.5,1.3.7-.2,1.1-.9,1.1-1.5l1.8.2c-.1,1-.7,2.3-2.3,2.9-2,.7-4.1-.1-4.9-2.2h0Z"/>
  <path class="st14" d="M161.2,13.3l-1.9.6-.5-1.5,5.6-1.7.5,1.5-1.9.6,1.6,5.3-1.8.5-1.6-5.3h0Z"/>
  <path class="st14" d="M165.6,10.3l1.8-.5,1,4.1c.2.8.8,1.3,1.8,1.1s1.2-.9,1-1.8l-1-4.1,1.8-.5,1,4.1c.4,1.7-.2,3.2-2.5,3.8-2.3.6-3.5-.4-4-2.1l-1-4.1h0Z"/>
  <path class="st14" d="M177.3,12.4l-.9.2.5,2.4-1.8.4-1.4-7,3.5-.7c1.6-.3,2.6.5,2.9,1.9.2,1.2-.4,2-1,2.4l1.9,2.3-2.1.4-1.6-2.1h0v-.2ZM177.2,9.1l-1.4.3.3,1.6,1.4-.3c.5,0,.8-.5.7-1s-.6-.7-1-.6h0Z"/>
  <path class="st14" d="M186.3,12.1l-2.9.4-.2,1.1-2,.3,1.6-7.5,2.3-.3,3.7,6.7-2,.3-.5-1h0ZM183.6,11l2-.3-1.4-2.7-.6,3Z"/>
  <path class="st14" d="M188.6,5.7l1.8-.2.6,5.5,2.9-.3.2,1.6-4.7.5-.8-7.1h0Z"/>
  <path class="st14" d="M194.5,5.1l5.2-.4v1.6c.1,0-3.3.2-3.3.2v1.2l3.4-.2v1.6c.1,0-3.2.2-3.2.2v1.3l3.5-.2v1.5c.1,0-5.1.4-5.1.4l-.5-7.1h0Z"/>
  <path class="st14" d="M201.7,9.4c.5.5,1.3.9,2.3.9s1-.3,1-.6-.5-.6-1.2-.7c-1.2-.2-2.8-.5-2.9-2.2,0-1.2,1-2.3,2.8-2.3s2.1.3,2.9.9l-1,1.3c-.6-.5-1.4-.7-2-.7s-.8.3-.8.6.5.5,1.2.6c1.2.2,2.8.5,2.9,2.1,0,1.4-1,2.4-2.9,2.5-1.5,0-2.5-.4-3.2-1.1l.9-1.4h0Z"/>
  <g class="st4">
    <g>
      <path class="st16" d="M315.3,185.7l-2.2-.5c6.5-30.7.7-62-16.4-88.3s-43.4-44.4-74.1-50.9l.5-2.2c31.3,6.6,58.1,25,75.5,51.8s23.3,58.8,16.7,90h0Z"/>
      <path class="st1" d="M102.1,188.5c-7.7-30.9-2.9-62.6,13.5-89.3,16.3-26.5,42.4-45.4,73.6-53.2l.5,2.2c-30.6,7.6-56.2,26.1-72.2,52.2-16.1,26.1-20.8,57.2-13.2,87.6l-2.1.5h-.1Z"/>
      <path class="st18" d="M207.4,265.6c-31.9,0-62-12.6-84.6-35.4l1.6-1.6c22.2,22.4,51.6,34.8,83,34.8s60.8-12.4,83-34.8l1.6,1.6c-22.6,22.8-52.6,35.4-84.6,35.4h0Z"/>
      <path class="st16" d="M239,64.2c0,17.5-14,31.6-31.5,31.7-17.4,0-31.6-14.1-31.7-31.5s14.1-31.6,31.5-31.7c17.5,0,31.6,14,31.7,31.5"/>
      <path class="st13" d="M207.4,92.7c-7.5,0-14.6-2.9-20-8.2-5.4-5.3-8.3-12.4-8.4-20,0-7.6,2.9-14.7,8.2-20.1,5.3-5.4,12.4-8.3,20-8.4h0c7.5,0,14.6,2.9,20,8.2s8.3,12.4,8.4,20h0c0,7.6-2.9,14.7-8.2,20.1s-12.5,8.3-20,8.4h0ZM207.4,36.7h0c-7.4,0-14.3,2.9-19.5,8.1s-8.1,12.2-8,19.6c0,7.4,2.9,14.3,8.1,19.5,5.2,5.2,12.2,8.1,19.6,8,7.4,0,14.3-2.9,19.5-8.2s8.1-12.2,8-19.6h0c0-7.4-2.9-14.3-8.1-19.5-5.2-5.2-12.1-8-19.5-8h-.1Z"/>
    </g>
  </g>
  <g>
    <path class="st13" d="M185.9,54.2h2c.9,0,1.4.6,1.4,1.4s-.5,1.4-1.4,1.4h-1.1v1.5h-.9v-4.3h0ZM187.8,54.9h-1v1.2h1c.4,0,.6-.2.6-.6s-.3-.6-.6-.6Z"/>
    <path class="st13" d="M189.9,55.3h.8v.4c.2-.3.6-.5,1-.5v.8h-.2c-.3,0-.6.2-.8.3v2.1h-.8v-3.1h0Z"/>
    <path class="st13" d="M192,56.9c0-.9.6-1.6,1.6-1.6s1.6.8,1.6,1.6-.6,1.6-1.6,1.6-1.6-.8-1.6-1.6ZM194.5,56.9c0-.5-.3-.9-.8-.9s-.8.4-.8.9.3.9.8.9.8-.4.8-.9Z"/>
    <path class="st13" d="M196.1,56.1h-.5v-.7h.5v-.2c0-.7.4-1.1,1.1-1.1s.4,0,.6,0l-.2.6h-.3c-.2,0-.4,0-.4.5v.2h.6v.7h-.6v2.4h-.8v-2.4h0Z"/>
    <path class="st13" d="M200.1,58.1c-.2.2-.6.5-1.1.5s-1-.4-1-1v-2.2h.8v1.9c0,.4.2.6.6.6s.6-.2.7-.3v-2.1h.8v3.1h-.8v-.4h0Z"/>
    <path class="st13" d="M203.9,56.6c0-.4-.2-.6-.6-.6s-.6.2-.7.4v2.1h-.8v-3.1h.8v.4c.2-.2.6-.5,1.1-.5s1,.4,1,1v2.2h-.8v-1.9Z"/>
    <path class="st13" d="M207.6,58.1c-.2.3-.6.5-1,.5-.8,0-1.4-.6-1.4-1.6s.6-1.6,1.4-1.6.7.2,1,.5v-1.6h.8v4.3h-.8v-.4h0ZM207.6,56.3c-.1-.2-.4-.3-.7-.3-.5,0-.8.4-.8.9s.3.9.8.9.6-.2.7-.3v-1.1h0Z"/>
    <path class="st13" d="M209.2,54.4c0-.3.2-.5.5-.5s.5.2.5.5-.2.5-.5.5-.5-.2-.5-.5ZM209.2,55.3h.8v3.1h-.8v-3.1Z"/>
    <path class="st13" d="M210.7,57.8l1.4-1.8h-1.4v-.7h2.5v.6l-1.4,1.8h1.5v.7h-2.5v-.6h-.1Z"/>
    <path class="st13" d="M215.8,58.1c-.2.2-.6.4-1,.4s-1.1-.3-1.1-1,.6-1,1.1-1,.8,0,1,.4v-.4c0-.3-.3-.5-.7-.5s-.6,0-.9.4l-.3-.6c.4-.3.9-.5,1.4-.5s1.4.3,1.4,1.2v2h-.8v-.3h0ZM215.8,57.3c-.1-.2-.4-.3-.7-.3s-.6.2-.6.5.3.5.6.5.5,0,.7-.3v-.4Z"/>
    <path class="st13" d="M218.9,55.3c.6,0,1,.3,1.2.6l-.5.5c-.1-.2-.4-.3-.7-.3-.5,0-.8.4-.8.9s.4.9.8.9.5,0,.7-.3l.5.5c-.2.3-.6.6-1.2.6-1,0-1.6-.7-1.6-1.6s.7-1.6,1.6-1.6h0v-.2Z"/>
    <path class="st13" d="M220.6,54.4c0-.3.2-.5.5-.5s.5.2.5.5-.2.5-.5.5-.5-.2-.5-.5ZM220.6,55.3h.8v3.1h-.8v-3.1Z"/>
    <path class="st13" d="M222.1,56.9c0-.9.6-1.6,1.6-1.6s1.6.8,1.6,1.6-.6,1.6-1.6,1.6-1.6-.8-1.6-1.6ZM224.5,56.9c0-.5-.3-.9-.8-.9s-.8.4-.8.9.3.9.8.9.8-.4.8-.9ZM223.4,54.9l.9-.9h.8l-1,.9h-.7Z"/>
    <path class="st13" d="M228.1,56.6c0-.4-.2-.6-.6-.6s-.6.2-.7.4v2.1h-.8v-3.1h.8v.4c.2-.2.6-.5,1.1-.5s1,.4,1,1v2.2h-.8v-1.9Z"/>
  </g>
  <g>
    <path class="st13" d="M202.9,65.6c-.2.3-.6.5-1,.5-.8,0-1.4-.6-1.4-1.6s.6-1.6,1.4-1.6.7.2,1,.5v-1.6h.8v4.3h-.8v-.4h0ZM202.9,63.8c-.1-.2-.4-.3-.7-.3-.5,0-.8.4-.8.9s.3.9.8.9.6-.2.7-.3v-1.1h0Z"/>
    <path class="st13" d="M205.9,62.8c.9,0,1.5.7,1.5,1.7v.2h-2.3c0,.4.4.7.9.7s.6,0,.8-.3l.4.5c-.3.3-.8.4-1.3.4-.9,0-1.7-.6-1.7-1.6s.7-1.6,1.6-1.6h.1ZM205.2,64.1h1.5c0-.3-.2-.7-.8-.7s-.7.4-.8.7h.1Z"/>
    <path class="st13" d="M209.7,61.7h.8v4.3h-.8v-4.3Z"/>
    <path class="st13" d="M213.2,65.6c-.2.2-.6.4-1,.4s-1.1-.3-1.1-1,.6-1,1.1-1,.8,0,1,.4v-.4c0-.3-.3-.5-.7-.5s-.6,0-.9.4l-.3-.6c.4-.3.9-.5,1.4-.5s1.4.3,1.4,1.2v2h-.8v-.3h0ZM213.2,64.8c-.1-.2-.4-.3-.7-.3s-.6.2-.6.5.3.5.6.5.5,0,.7-.3c0,0,0-.4,0-.4Z"/>
  </g>
  <g>
    <path class="st13" d="M186.8,71.1h-.5v-.7h.5v-.2c0-.7.4-1.1,1.1-1.1s.4,0,.6,0l-.2.6h-.3c-.2,0-.4.2-.4.4v.2h.6v.7h-.6v2.4h-.8v-2.4h0Z"/>
    <path class="st13" d="M188.7,70.3h.8v.4c.2-.3.6-.5,1-.5v.8h-.2c-.3,0-.6.2-.8.3v2.1h-.8v-3.1h0Z"/>
    <path class="st13" d="M192.9,73.1c-.2.2-.6.4-1,.4s-1.1-.3-1.1-1,.6-1,1.1-1,.8,0,1,.4v-.4c0-.3-.3-.5-.7-.5s-.6,0-.9.4l-.3-.6c.4-.3.9-.5,1.4-.5s1.4.3,1.4,1.2v2h-.8v-.3h0ZM192.9,72.3c-.1-.2-.4-.3-.7-.3s-.6.2-.6.5.3.5.6.5.5,0,.7-.3c0,0,0-.4,0-.4Z"/>
    <path class="st13" d="M194.9,73.6c.2.3.6.4,1,.4s.9-.2.9-.8v-.3c-.2.3-.6.5-1,.5-.8,0-1.4-.6-1.4-1.6s.6-1.6,1.4-1.6.7.2,1,.5v-.4h.8v2.9c0,1.2-.9,1.5-1.7,1.5s-.9,0-1.3-.5l.4-.6h0ZM196.7,71.3c-.1-.2-.4-.3-.7-.3-.5,0-.8.3-.8.8s.3.8.8.8.6-.2.7-.3v-1Z"/>
    <path class="st13" d="M202.2,71.5c0-.3-.1-.5-.5-.5s-.5.2-.6.4v2.1h-.8v-2c0-.3-.1-.5-.5-.5s-.5.2-.6.4v2.1h-.8v-3.1h.8v.4c.1-.2.5-.5,1-.5s.8.2.9.6c.2-.3.6-.6,1.1-.6s.9.3.9.9v2.2h-.8v-2h0Z"/>
    <path class="st13" d="M205.2,70.3c.9,0,1.5.7,1.5,1.7v.2h-2.3c0,.4.4.7.9.7s.6,0,.8-.3l.4.5c-.3.3-.8.4-1.3.4-.9,0-1.7-.6-1.7-1.6s.7-1.6,1.6-1.6h.1ZM204.4,71.6h1.5c0-.3-.2-.7-.8-.7s-.7.4-.8.7h.1Z"/>
    <path class="st13" d="M209.4,71.6c0-.4-.2-.6-.6-.6s-.6.2-.7.4v2.1h-.8v-3.1h.8v.4c.2-.2.6-.5,1.1-.5s1,.4,1,1v2.2h-.8v-1.9Z"/>
    <path class="st13" d="M211.2,72.7v-1.6h-.5v-.7h.5v-.8h.8v.8h.6v.7h-.6v1.4c0,.2.1.3.3.3h.3l.2.6c-.1,0-.3.2-.7.2-.6,0-.9-.3-.9-.8h0Z"/>
    <path class="st13" d="M215.1,73.1c-.2.2-.6.4-1,.4s-1.1-.3-1.1-1,.6-1,1.1-1,.8,0,1,.4v-.4c0-.3-.3-.5-.7-.5s-.6,0-.9.4l-.3-.6c.4-.3.9-.5,1.4-.5s1.4.3,1.4,1.2v2h-.8v-.3h0ZM215.1,72.3c-.1-.2-.4-.3-.7-.3s-.6.2-.6.5.3.5.6.5.5,0,.7-.3c0,0,0-.4,0-.4Z"/>
    <path class="st13" d="M218.2,70.3c.6,0,1,.3,1.2.6l-.5.5c-.1-.2-.4-.3-.7-.3-.5,0-.8.4-.8.9s.4.9.8.9.5,0,.7-.3l.5.5c-.2.3-.6.6-1.2.6-1,0-1.6-.7-1.6-1.6s.7-1.6,1.6-1.6h0v-.2Z"/>
    <path class="st13" d="M219.9,69.4c0-.3.2-.5.5-.5s.5.2.5.5-.2.5-.5.5-.5-.2-.5-.5ZM219.9,70.3h.8v3.1h-.8v-3.1Z"/>
    <path class="st13" d="M221.4,71.9c0-.9.6-1.6,1.6-1.6s1.6.8,1.6,1.6-.6,1.6-1.6,1.6-1.6-.8-1.6-1.6ZM223.8,71.9c0-.5-.3-.9-.8-.9s-.8.4-.8.9.3.9.8.9.8-.4.8-.9ZM222.7,69.9l.9-.9h.8l-1,.9h-.7Z"/>
    <path class="st13" d="M227.4,71.6c0-.4-.2-.6-.6-.6s-.6.2-.7.4v2.1h-.8v-3.1h.8v.4c.2-.2.6-.5,1.1-.5s1,.4,1,1v2.2h-.8v-1.9Z"/>
  </g>
  <g>
    <path class="st13" d="M199.5,80c.2.2.7.4,1.1.4s.5,0,.5-.3-.3-.3-.6-.4c-.5,0-1.2-.2-1.2-1s.5-1,1.3-1,.9.2,1.2.4l-.3.6c-.2-.2-.5-.4-.9-.4s-.5,0-.5.3.2.3.6.3,1.2.2,1.2,1-.5,1-1.3,1-1.1-.2-1.4-.5l.4-.6h0v.2Z"/>
    <path class="st13" d="M202.3,79.4c0-.9.6-1.6,1.6-1.6s1.6.8,1.6,1.6-.6,1.6-1.6,1.6-1.6-.8-1.6-1.6ZM204.8,79.4c0-.5-.3-.9-.8-.9s-.8.4-.8.9.3.9.8.9.8-.4.8-.9Z"/>
    <path class="st13" d="M207.7,77.8c.6,0,1,.3,1.2.6l-.5.5c-.1-.2-.4-.3-.7-.3-.5,0-.8.4-.8.9s.4.9.8.9.5,0,.7-.3l.5.5c-.2.3-.6.6-1.2.6-1,0-1.6-.7-1.6-1.6s.7-1.6,1.6-1.6h0v-.2Z"/>
    <path class="st13" d="M209.3,76.9c0-.3.2-.5.5-.5s.5.2.5.5-.2.5-.5.5-.5-.2-.5-.5ZM209.4,77.8h.8v3.1h-.8v-3.1Z"/>
    <path class="st13" d="M212.9,80.6c-.2.2-.6.4-1,.4s-1.1-.3-1.1-1,.6-1,1.1-1,.8,0,1,.4v-.4c0-.3-.3-.5-.7-.5s-.6,0-.9.4l-.3-.6c.4-.3.9-.5,1.4-.5s1.4.3,1.4,1.2v2h-.8v-.3h0ZM212.9,79.8c-.1-.2-.4-.3-.7-.3s-.6.2-.6.5.3.5.6.5.5,0,.7-.3c0,0,0-.4,0-.4Z"/>
    <path class="st13" d="M214.5,76.7h.8v4.3h-.8v-4.3Z"/>
  </g>
  <g class="st7">
    <g>
      <path class="st18" d="M321.2,203.2c0,17.4-14,31.6-31.5,31.7-17.5,0-31.6-14.1-31.7-31.5,0-17.4,14-31.6,31.5-31.7,17.5,0,31.6,14.1,31.7,31.5"/>
      <path class="st13" d="M289.6,231.7c-7.5,0-14.6-2.9-20-8.2s-8.3-12.4-8.4-20,2.9-14.7,8.2-20.1,12.5-8.3,20-8.4h0c7.5,0,14.6,2.9,20,8.2s8.3,12.4,8.4,20h0c0,7.6-2.9,14.7-8.2,20.1s-12.5,8.3-20,8.4h0ZM289.6,175.7h0c-7.4,0-14.3,2.9-19.5,8.1-5.2,5.2-8.1,12.2-8,19.6,0,7.4,2.9,14.3,8.1,19.5s12.1,8,19.5,8h0c7.4,0,14.3-2.9,19.5-8.1s8.1-12.2,8-19.6h0c0-7.4-2.9-14.3-8.1-19.5s-12.1-8-19.5-8h0Z"/>
    </g>
  </g>
  <g>
    <path class="st13" d="M278.2,194.3h.9v2.5c0,.6.3,1,1,1s1-.4,1-1v-2.5h.9v2.6c0,1.1-.6,1.8-1.9,1.8s-1.9-.7-1.9-1.8v-2.6h0Z"/>
    <path class="st13" d="M285,196.7c0-.4-.2-.6-.6-.6s-.6.2-.7.4v2.1h-.8v-3.1h.8v.4c.2-.2.6-.5,1.1-.5s1,.4,1,1v2.2h-.8v-1.9h0Z"/>
    <path class="st13" d="M289.7,195.4c.6,0,1,.3,1.2.6l-.5.5c-.1-.2-.4-.3-.7-.3-.5,0-.8.4-.8.9s.4.9.8.9.5-.1.7-.3l.5.5c-.2.3-.6.6-1.2.6-1,0-1.6-.7-1.6-1.6s.7-1.6,1.6-1.6h0v-.2Z"/>
    <path class="st13" d="M291.5,194.3h.8v4.3h-.8v-4.3Z"/>
    <path class="st13" d="M293,194.6c0-.3.2-.5.5-.5s.5.2.5.5-.2.5-.5.5-.5-.2-.5-.5ZM293.1,195.5h.8v3.1h-.8v-3.1Z"/>
    <path class="st13" d="M298.6,196.6c0-.3-.1-.5-.5-.5s-.5.2-.6.4v2.1h-.8v-2c0-.3-.1-.5-.5-.5s-.5.2-.6.4v2.1h-.8v-3.1h.8v.4c.1-.2.5-.5,1-.5s.8.2.9.6c.2-.3.6-.6,1.1-.6s.9.3.9.9v2.2h-.8v-2h-.1Z"/>
    <path class="st13" d="M302.1,198.3c-.2.2-.6.4-1,.4s-1.1-.3-1.1-1,.6-1,1.1-1,.8.1,1,.4v-.4c0-.3-.3-.5-.7-.5s-.6.1-.9.4l-.3-.6c.4-.3.9-.5,1.4-.5s1.4.3,1.4,1.2v2h-.8v-.3h-.1ZM302.1,197.5c-.1-.2-.4-.3-.7-.3s-.6.2-.6.5.3.5.6.5.5,0,.7-.3v-.4Z"/>
  </g>
  <g>
    <path class="st13" d="M272.8,202.9c.6,0,1,.3,1.2.6l-.5.5c-.1-.2-.4-.3-.7-.3-.5,0-.8.4-.8.9s.4.9.8.9.5-.1.7-.3l.5.5c-.2.3-.6.6-1.2.6-1,0-1.6-.7-1.6-1.6s.7-1.6,1.6-1.6h0v-.2Z"/>
    <path class="st13" d="M276.4,205.8c-.2.2-.6.4-1,.4s-1.1-.3-1.1-1,.6-1,1.1-1,.8.1,1,.4v-.4c0-.3-.3-.5-.7-.5s-.6.1-.9.4l-.3-.6c.4-.3.9-.5,1.4-.5s1.4.3,1.4,1.2v2h-.8v-.3h-.1ZM276.4,205c-.1-.2-.4-.3-.7-.3s-.6.2-.6.5.3.5.6.5.5,0,.7-.3v-.4Z"/>
    <path class="st13" d="M280.2,205.7c-.2.3-.6.5-1,.5-.8,0-1.4-.6-1.4-1.6s.6-1.6,1.4-1.6.7.2,1,.5v-1.6h.8v4.3h-.8v-.4h0ZM280.2,204c-.1-.2-.4-.4-.7-.4-.5,0-.8.4-.8.9s.3.9.8.9.6-.1.7-.4v-1.1h0Z"/>
    <path class="st13" d="M283.7,205.8c-.2.2-.6.4-1,.4s-1.1-.3-1.1-1,.6-1,1.1-1,.8.1,1,.4v-.4c0-.3-.3-.5-.7-.5s-.6.1-.9.4l-.3-.6c.4-.3.9-.5,1.4-.5s1.4.3,1.4,1.2v2h-.8v-.3h-.1ZM283.7,205c-.1-.2-.4-.3-.7-.3s-.6.2-.6.5.3.5.6.5.5,0,.7-.3v-.4Z"/>
    <path class="st13" d="M286.5,203h.9l.8,2.2.8-2.2h.9l-1.2,3.1h-.9l-1.2-3.1h0Z"/>
    <path class="st13" d="M291.7,202.9c.9,0,1.5.7,1.5,1.7v.2h-2.3c0,.4.4.7.9.7s.6-.1.8-.3l.4.5c-.3.3-.8.4-1.3.4-.9,0-1.7-.6-1.7-1.6s.7-1.6,1.6-1.6h.1ZM290.9,204.3h1.5c0-.3-.2-.7-.8-.7s-.7.4-.8.7h0Z"/>
    <path class="st13" d="M293.7,205.5l1.4-1.8h-1.4v-.7h2.5v.6l-1.4,1.8h1.5v.7h-2.5v-.6h-.1Z"/>
    <path class="st13" d="M302.4,204.1c0-.3-.1-.5-.5-.5s-.5.2-.6.4v2.1h-.8v-2c0-.3-.1-.5-.5-.5s-.5.2-.6.4v2.1h-.8v-3.1h.8v.4c.1-.2.5-.5,1-.5s.8.2.9.6c.2-.3.6-.6,1.1-.6s.9.3.9.9v2.2h-.8v-2h-.1Z"/>
    <path class="st13" d="M305.9,205.8c-.2.2-.6.4-1,.4s-1.1-.3-1.1-1,.6-1,1.1-1,.8.1,1,.4v-.4c0-.3-.3-.5-.7-.5s-.6.1-.9.4l-.3-.6c.4-.3.9-.5,1.4-.5s1.4.3,1.4,1.2v2h-.8v-.3h-.1ZM305.9,205c-.1-.2-.4-.3-.7-.3s-.6.2-.6.5.3.5.6.5.5,0,.7-.3v-.4ZM305,202.5l.9-.9h.8l-1,.9h-.7Z"/>
    <path class="st13" d="M307.6,205.1c.2.2.7.4,1.1.4s.5-.1.5-.3-.3-.3-.6-.4c-.5-.1-1.2-.2-1.2-1s.5-1,1.3-1,.9.2,1.2.4l-.3.6c-.2-.2-.5-.4-.9-.4s-.5.1-.5.3.2.3.6.3c.5.1,1.2.2,1.2,1s-.5,1-1.3,1-1.1-.2-1.4-.5l.4-.6h0v.2Z"/>
  </g>
  <g>
    <path class="st13" d="M277.2,210.4c.6,0,1,.3,1.2.6l-.5.5c-.1-.2-.4-.3-.7-.3-.5,0-.8.4-.8.9s.4.9.8.9.5-.1.7-.3l.5.5c-.2.3-.6.6-1.2.6-1,0-1.6-.7-1.6-1.6s.7-1.6,1.6-1.6h0v-.2Z"/>
    <path class="st13" d="M280.8,213.3c-.2.2-.6.4-1,.4s-1.1-.3-1.1-1,.6-1,1.1-1,.8.1,1,.4v-.4c0-.3-.3-.5-.7-.5s-.6.1-.9.4l-.3-.6c.4-.3.9-.5,1.4-.5s1.4.3,1.4,1.2v2h-.8v-.3h-.1ZM280.8,212.5c-.1-.2-.4-.3-.7-.3s-.6.2-.6.5.3.5.6.5.5,0,.7-.3v-.4Z"/>
    <path class="st13" d="M286.3,211.6c0-.3-.1-.5-.5-.5s-.5.2-.6.4v2.1h-.8v-2c0-.3-.1-.5-.5-.5s-.5.2-.6.4v2.1h-.8v-3.1h.8v.4c.1-.2.5-.5,1-.5s.8.2.9.6c.2-.3.6-.6,1.1-.6s.9.3.9.9v2.2h-.8v-2h-.1Z"/>
    <path class="st13" d="M287.9,209.3h.8v1.6c.2-.3.6-.5,1-.5.8,0,1.4.6,1.4,1.6s-.6,1.6-1.4,1.6-.7-.2-1-.5v.4h-.8v-4.3h0ZM289.4,213c.5,0,.8-.4.8-.9s-.3-.9-.8-.9-.6.1-.7.4v1.1c.1.2.4.4.7.4h0Z"/>
    <path class="st13" d="M291.6,209.6c0-.3.2-.5.5-.5s.5.2.5.5-.2.5-.5.5-.5-.2-.5-.5ZM291.7,210.5h.8v3.1h-.8v-3.1Z"/>
    <path class="st13" d="M295.1,213.3c-.2.2-.6.4-1,.4s-1.1-.3-1.1-1,.6-1,1.1-1,.8.1,1,.4v-.4c0-.3-.3-.5-.7-.5s-.6.1-.9.4l-.3-.6c.4-.3.9-.5,1.4-.5s1.4.3,1.4,1.2v2h-.8v-.3h-.1ZM295.1,212.5c-.1-.2-.4-.3-.7-.3s-.6.2-.6.5.3.5.6.5.5,0,.7-.3v-.4Z"/>
    <path class="st13" d="M298.9,211.7c0-.4-.2-.6-.6-.6s-.6.2-.7.4v2.1h-.8v-3.1h.8v.4c.2-.2.6-.5,1.1-.5s1,.4,1,1v2.2h-.8v-1.9h0Z"/>
    <path class="st13" d="M300.7,212.8v-1.6h-.5v-.7h.5v-.9h.8v.9h.6v.7h-.6v1.4c0,.2.1.3.3.3h.3l.2.6c-.1.1-.3.2-.7.2-.6,0-.9-.3-.9-.9h0Z"/>
    <path class="st13" d="M304.1,210.4c.9,0,1.5.7,1.5,1.7v.2h-2.3c0,.4.4.7.9.7s.6-.1.8-.3l.4.5c-.3.3-.8.4-1.3.4-.9,0-1.7-.6-1.7-1.6s.7-1.6,1.6-1.6h.1ZM303.3,211.8h1.5c0-.3-.2-.7-.8-.7s-.7.4-.8.7h0Z"/>
  </g>
  <g class="st5">
    <g>
      <path class="st1" d="M159.4,203.2c0,17.4-14.1,31.6-31.5,31.7-17.4,0-31.6-14.1-31.7-31.5s14.1-31.6,31.5-31.7c17.4,0,31.6,14.1,31.7,31.5"/>
      <path class="st13" d="M127.8,231.7c-7.5,0-14.6-2.9-20-8.2s-8.3-12.4-8.4-20,2.9-14.7,8.2-20.1c5.3-5.4,12.4-8.3,20-8.4h0c7.5,0,14.6,2.9,20,8.2,5.4,5.3,8.3,12.4,8.4,20h0c0,7.6-2.9,14.7-8.2,20.1s-12.4,8.3-20,8.4h0ZM127.8,175.7h0c-7.4,0-14.3,2.9-19.5,8.1s-8.1,12.2-8,19.6c0,7.4,2.9,14.3,8.1,19.5s12.1,8,19.5,8h0c7.4,0,14.3-2.9,19.5-8.1s8.1-12.2,8-19.6h0c0-7.4-2.9-14.3-8.1-19.5-5.2-5.2-12.1-8-19.5-8h0Z"/>
    </g>
  </g>
  <g>
    <path class="st13" d="M112.1,195.1h-1.2v-.8h3.4v.8h-1.2v3.5h-.9v-3.5h-.1Z"/>
    <path class="st13" d="M115.6,195.4c.9,0,1.6.7,1.6,1.7v.2h-2.3c0,.4.4.7.9.7s.6-.1.8-.3l.4.5c-.3.3-.8.4-1.3.4-.9,0-1.7-.6-1.7-1.6s.7-1.6,1.6-1.6h0ZM114.8,196.8h1.5c0-.3-.2-.7-.8-.7s-.7.4-.8.7h.1Z"/>
    <path class="st13" d="M119.2,195.4c.6,0,1,.3,1.2.6l-.5.5c0-.2-.4-.3-.7-.3-.5,0-.8.4-.8.9s.4.9.8.9.5-.1.7-.3l.5.5c-.2.3-.6.6-1.2.6-1,0-1.6-.7-1.6-1.6s.7-1.6,1.6-1.6h0v-.2Z"/>
    <path class="st13" d="M123,196.7c0-.4-.2-.6-.6-.6s-.6.2-.7.4v2.1h-.8v-3.1h.8v.4c.2-.2.6-.5,1.1-.5s1,.4,1,1v2.2h-.8v-1.9h0Z"/>
    <path class="st13" d="M124.5,197c0-.9.6-1.6,1.6-1.6s1.6.8,1.6,1.6-.6,1.6-1.6,1.6-1.6-.8-1.6-1.6ZM126.9,197c0-.5-.3-.9-.8-.9s-.8.4-.8.9.3.9.8.9.8-.4.8-.9Z"/>
    <path class="st13" d="M128.4,194.3h.8v4.3h-.8v-4.3Z"/>
    <path class="st13" d="M129.8,197c0-.9.6-1.6,1.6-1.6s1.6.8,1.6,1.6-.6,1.6-1.6,1.6-1.6-.8-1.6-1.6ZM132.2,197c0-.5-.3-.9-.8-.9s-.8.4-.8.9.3.9.8.9.8-.4.8-.9Z"/>
    <path class="st13" d="M134,198.8c.2.3.6.4,1,.4s.9-.2.9-.8v-.3c-.2.3-.6.5-1,.5-.8,0-1.4-.6-1.4-1.6s.6-1.6,1.4-1.6.7.2,1,.5v-.4h.8v2.9c0,1.2-.9,1.5-1.7,1.5s-.9-.1-1.3-.5l.4-.6h0ZM135.8,196.5c-.1-.2-.4-.4-.7-.4-.5,0-.8.3-.8.9s.3.9.8.9.6-.1.7-.4v-1Z"/>
    <path class="st13" d="M137.4,195.5h.8v3.1h-.8v-3.1ZM137.5,195l.9-.9h.8l-1,.9h-.7Z"/>
    <path class="st13" d="M140.9,198.3c-.2.2-.6.4-1,.4s-1.1-.3-1.1-1,.6-1,1.1-1,.8.1,1,.4v-.4c0-.3-.3-.5-.7-.5s-.6.1-.9.4l-.3-.6c.4-.3.9-.5,1.4-.5s1.4.3,1.4,1.2v2h-.8v-.3h0ZM140.9,197.5c-.1-.2-.4-.3-.7-.3s-.6.2-.6.5.3.5.6.5.5,0,.7-.3v-.4Z"/>
    <path class="st13" d="M142.6,197.6c.2.2.7.4,1.1.4s.5-.1.5-.3-.3-.3-.6-.4c-.5-.1-1.2-.2-1.2-1s.5-1,1.3-1,.9.2,1.2.4l-.3.6c-.2-.2-.5-.4-.9-.4s-.5.1-.5.3.2.3.6.3c.5.1,1.2.2,1.2,1s-.5,1-1.3,1-1.1-.2-1.4-.5l.4-.6h0v.2Z"/>
  </g>
  <g>
    <path class="st13" d="M116.1,202.9c.9,0,1.6.7,1.6,1.7v.2h-2.3c0,.4.4.7.9.7s.6-.1.8-.3l.4.5c-.3.3-.8.4-1.3.4-.9,0-1.7-.6-1.7-1.6s.7-1.6,1.6-1.6h0ZM115.3,204.3h1.5c0-.3-.2-.7-.8-.7s-.7.4-.8.7h.1Z"/>
    <path class="st13" d="M120.3,204.2c0-.4-.2-.6-.6-.6s-.6.2-.7.4v2.1h-.8v-3.1h.8v.4c.2-.2.6-.5,1.1-.5s1,.4,1,1v2.2h-.8v-1.9h0Z"/>
    <path class="st13" d="M123.6,203h.8v.4c.2-.3.6-.5,1-.5v.8h-.2c-.3,0-.6.1-.8.4v2.1h-.8v-3.1h0Z"/>
    <path class="st13" d="M127.8,205.8c-.2.2-.6.4-1,.4s-1.1-.3-1.1-1,.6-1,1.1-1,.8.1,1,.4v-.4c0-.3-.3-.5-.7-.5s-.6.1-.9.4l-.3-.6c.4-.3.9-.5,1.4-.5s1.4.3,1.4,1.2v2h-.8v-.3h0ZM127.8,205c0-.2-.4-.3-.7-.3s-.6.2-.6.5.3.5.6.5.5,0,.7-.3v-.4ZM126.9,202.5l.9-.9h.8l-1,.9h-.7Z"/>
    <path class="st13" d="M129.4,207.3v-4.3h.8v.4c.2-.3.6-.5,1-.5.8,0,1.4.6,1.4,1.6s-.6,1.6-1.4,1.6-.7-.1-1-.5v1.6h-.8ZM130.9,203.6c-.3,0-.6.1-.7.4v1.1c.1.2.4.4.7.4.5,0,.8-.4.8-.9s-.3-.9-.8-.9h0Z"/>
    <path class="st13" d="M133.1,202.1c0-.3.2-.5.5-.5s.5.2.5.5-.2.5-.5.5-.5-.2-.5-.5ZM133.1,203h.8v3.1h-.8v-3.1Z"/>
    <path class="st13" d="M136.9,205.7c-.2.3-.6.5-1,.5-.8,0-1.4-.6-1.4-1.6s.6-1.6,1.4-1.6.7.2,1,.5v-1.6h.8v4.3h-.8v-.4h0ZM136.9,204c-.1-.2-.4-.4-.7-.4-.5,0-.8.4-.8.9s.3.9.8.9.6-.1.7-.4v-1.1h0Z"/>
    <path class="st13" d="M140.4,205.8c-.2.2-.6.4-1,.4s-1.1-.3-1.1-1,.6-1,1.1-1,.8.1,1,.4v-.4c0-.3-.3-.5-.7-.5s-.6.1-.9.4l-.3-.6c.4-.3.9-.5,1.4-.5s1.4.3,1.4,1.2v2h-.8v-.3h0ZM140.4,205c-.1-.2-.4-.3-.7-.3s-.6.2-.6.5.3.5.6.5.5,0,.7-.3v-.4Z"/>
  </g>
  <g>
    <path class="st13" d="M115.7,210.4c.9,0,1.6.7,1.6,1.7v.2h-2.3c0,.4.4.7.9.7s.6-.1.8-.3l.4.5c-.3.3-.8.4-1.3.4-.9,0-1.7-.6-1.7-1.6s.7-1.6,1.6-1.6h0ZM114.9,211.8h1.5c0-.3-.2-.7-.8-.7s-.7.4-.8.7h.1Z"/>
    <path class="st13" d="M117.4,210.5h.9l.8,2.2.8-2.2h.9l-1.2,3.1h-.9l-1.2-3.1h-.1Z"/>
    <path class="st13" d="M120.9,212c0-.9.6-1.6,1.6-1.6s1.6.8,1.6,1.6-.6,1.6-1.6,1.6-1.6-.8-1.6-1.6ZM123.4,212c0-.5-.3-.9-.8-.9s-.8.4-.8.9.3.9.8.9.8-.4.8-.9Z"/>
    <path class="st13" d="M124.8,209.3h.8v4.3h-.8v-4.3Z"/>
    <path class="st13" d="M128.5,213.2c-.2.2-.6.5-1.1.5s-1-.4-1-1v-2.2h.8v1.9c0,.4.2.6.6.6s.6-.2.7-.4v-2.1h.8v3.1h-.8v-.4h0Z"/>
    <path class="st13" d="M131.6,210.4c.6,0,1,.3,1.2.6l-.5.5c-.1-.2-.4-.3-.7-.3-.5,0-.8.4-.8.9s.4.9.8.9.5-.1.7-.3l.5.5c-.2.3-.6.6-1.2.6-1,0-1.6-.7-1.6-1.6s.7-1.6,1.6-1.6h0v-.2Z"/>
    <path class="st13" d="M133.3,209.6c0-.3.2-.5.5-.5s.5.2.5.5-.2.5-.5.5-.5-.2-.5-.5ZM133.4,210.5h.8v3.1h-.8v-3.1Z"/>
    <path class="st13" d="M134.8,212c0-.9.6-1.6,1.6-1.6s1.6.8,1.6,1.6-.6,1.6-1.6,1.6-1.6-.8-1.6-1.6ZM137.2,212c0-.5-.3-.9-.8-.9s-.8.4-.8.9.3.9.8.9.8-.4.8-.9ZM136.1,210l.9-.9h.8l-1,.9h-.7Z"/>
    <path class="st13" d="M140.8,211.7c0-.4-.2-.6-.6-.6s-.6.2-.7.4v2.1h-.8v-3.1h.8v.4c.2-.2.6-.5,1.1-.5s1,.4,1,1v2.2h-.8v-1.9h0Z"/>
  </g>
  <path class="st17" d="M91.4,133.6l3.7.9v.7c0,0-5-1.1-5-1.1v-.7c0,0,4.3-1.6,4.3-1.6l-3.6-.8v-.7c0,0,5,1.1,5,1.1v.6c0,0-4.4,1.6-4.4,1.6h0Z"/>
  <path class="st17" d="M91.4,128.3l.2-.7,2.9.8c.8.2,1.5,0,1.7-.8s-.2-1.3-1-1.5l-2.9-.8.2-.7,2.9.8c1.2.3,1.8,1.1,1.5,2.4-.3,1.2-1.3,1.6-2.5,1.3l-2.9-.8h0Z"/>
  <path class="st17" d="M93,122.8l.9-2.9.6.2-.7,2.2,1.4.5.7-2.2.6.2-.7,2.2,1.5.5.7-2.2.6.2-.9,2.9-4.8-1.6h.1Z"/>
  <path class="st17" d="M94.3,118.7l.3-.7h4.4l-3.4-2.7.3-.7,4.1,3.4-.3.8h-5.4Z"/>
  <path class="st17" d="M101,112.3l-.9,2,.8.7-.3.7-3.9-3.6.3-.8,5.3.3-.3.7h-1.1,0ZM99.6,113.9l.7-1.7-2.8-.2,2.1,1.8h0Z"/>
  <path class="st17" d="M101.8,110c.5,0,1-.4,1.2-1,.3-.7,0-1.1-.3-1.2-.5-.2-.8.2-1.2.6-.5.6-1.1,1.2-2,.8-.8-.3-1-1.2-.6-2,.3-.6.7-1,1.3-1.2l.3.6c-.5.2-.9.5-1.1.9s0,.9.3,1.1c.4.2.7-.2,1.1-.6.5-.6,1.1-1.2,2.1-.8.7.3,1.2,1.1.7,2.2-.3.7-.9,1.1-1.5,1.3l-.4-.6h0Z"/>
  <path class="st17" d="M106.4,101.1l-1,1.9.7.8-.4.7-3.6-3.9.4-.7,5.2.8-.4.7-1.1-.2h.2ZM104.9,102.6l.9-1.6-2.8-.4,1.9,2h0Z"/>
  <path class="st17" d="M107,94.1l2.7,3.3v.2c0,0-4.3-.8-4.3-.8l3.4,2-.3.6-4.3-2.5.5-.8,3.8.7-2.4-2.9.5-.8,4.3,2.5-.3.6-3.4-2h-.2Z"/>
  <path class="st17" d="M107.5,91.4l1.6-2.5.6.4-1.3,2,1.2.8,1.2-1.9.6.4-1.2,1.9,1.3.8,1.3-2,.6.4-1.6,2.5-4.2-2.7h0Z"/>
  <path class="st17" d="M111.4,87.5l3.2,2.2-.4.6-4.1-2.8.4-.6h4.5l-3.1-2,.4-.6,4.1,2.8-.4.5h-4.6Z"/>
  <path class="st17" d="M118.2,82.7l-1.3,1.8.6.9-.4.6-2.9-4.4.5-.7,5.1,1.6-.4.6-1.1-.3h0ZM116.5,83.9l1.1-1.4-2.7-.8,1.6,2.3h0Z"/>
  <path class="st17" d="M119.9,81.2l-1.4-4.2-1.5,1.9-.5-.4,2.1-2.6.5.4,1.4,4.2,1.6-1.9.5.4-2.1,2.6-.5-.4h0Z"/>
  <path class="st17" d="M124.6,75l-1.4,1.7.5.9-.5.6-2.6-4.6.6-.6,4.9,1.9-.5.6-1-.4h0ZM122.7,76.1l1.2-1.4-2.6-1,1.4,2.4Z"/>
  <path class="st17" d="M126,73c.5,0,1.1,0,1.5-.6.5-.5.4-1,0-1.2-.4-.4-.8,0-1.4.2-.6.4-1.4.8-2.1,0-.6-.6-.6-1.4,0-2.1.5-.5,1-.7,1.6-.7v.7c-.4,0-.8.2-1.2.6-.3.4-.4.8,0,1.1.3.3.8,0,1.3-.2.7-.4,1.4-.8,2.2,0,.6.5.8,1.4,0,2.3-.6.6-1.2.8-1.8.8l-.2-.7h0v-.2Z"/>
  <path class="st17" d="M174.1,268.5l-.9,3.7h-.7c0-.1,1.1-5,1.1-5l.7.2,1.5,4.2.8-3.6h.7c0,.1-1.1,5-1.1,5h-.6c0-.1-1.6-4.4-1.6-4.4h.1Z"/>
  <path class="st17" d="M179,268.4h.7c0,.1-.6,3.1-.6,3.1-.2.8.1,1.5.9,1.6s1.3-.3,1.5-1.1l.6-3h.7c0,.1-.6,3.1-.6,3.1-.2,1.2-1,1.9-2.2,1.6-1.2-.2-1.7-1.2-1.5-2.4l.6-3h0Z"/>
  <path class="st17" d="M184.2,269.3l3,.4v.6l-2.4-.3-.2,1.5,2.3.3v.6l-2.4-.3-.2,1.5,2.3.3v.6l-3.1-.4.7-5h0v.2Z"/>
  <path class="st17" d="M188.1,270h.8l1,4.4,1.9-4h.8l-2.3,4.8h-.8l-1.2-5.2h-.2Z"/>
  <path class="st17" d="M195.8,274.7l-2.2-.2-.4,1h-.7l2.2-4.9h.8l1.4,5.2h-.7l-.3-1.1h-.1ZM193.8,273.9h1.8c0,.1-.7-2.6-.7-2.6l-1.1,2.6h0Z"/>
  <path class="st17" d="M198.2,274.7c.3.4.8.7,1.4.8.7,0,1-.4,1-.7,0-.5-.5-.7-1.1-.9-.7-.2-1.5-.5-1.5-1.5s.7-1.4,1.6-1.4,1.2.3,1.6.8l-.4.5c-.3-.4-.8-.6-1.3-.6s-.9.2-.9.7.5.6,1,.8c.7.2,1.6.5,1.5,1.6,0,.8-.6,1.5-1.8,1.4-.8,0-1.4-.4-1.7-.9l.4-.6h.2Z"/>
  <path class="st17" d="M208,275.1h-2.2l-.4,1.1h-.7l1.7-5h.8l1.8,5h-.7l-.4-1h0ZM206,274.5h1.8l-.9-2.7-.9,2.6h0Z"/>
  <path class="st17" d="M214.1,272l-1.3,4h-.3l-1.6-3.9.2,4h-.7l-.2-5h1l1.5,3.5,1.1-3.6h1l.2,4.9h-.7l-.2-3.9h0Z"/>
  <path class="st17" d="M216.3,270.8l3-.2v.7l-2.3.2v1.5c.1,0,2.4-.2,2.4-.2v.7l-2.2.2v1.5c.1,0,2.5-.2,2.5-.2v.7l-3,.2-.4-5h0Z"/>
  <path class="st17" d="M221.5,271.5l.4,3.8h-.7l-.6-4.9h.7l2.9,3.4-.4-3.7h.7l.6,4.9h-.6l-2.9-3.5h0Z"/>
  <path class="st17" d="M229.5,273.3l-2.2.3-.2,1.1h-.7c0,.1,1-5.1,1-5.1h.8c0-.1,2.5,4.6,2.5,4.6h-.7c0,.1-.5-.9-.5-.9h0ZM227.4,272.9l1.8-.3-1.3-2.5-.5,2.8Z"/>
  <path class="st17" d="M231.7,273.3l1.7-4.1-2.4.4v-.6c-.1,0,3.1-.6,3.1-.6v.6c.1,0-1.6,4.1-1.6,4.1l2.4-.5v.6c.1,0-3.1.6-3.1.6v-.6h-.1,0Z"/>
  <path class="st17" d="M239.2,271.4l-2.1.5v1.1c-.1,0-.9.2-.9.2l.7-5.3.8-.2,2.8,4.5-.7.2-.6-.9h0ZM237.1,271.2l1.8-.4-1.5-2.4-.3,2.8h0Z"/>
  <path class="st17" d="M241.4,270.6c.4.3.9.5,1.5.3.7-.2.9-.6.8-1-.1-.5-.7-.5-1.3-.5s-1.6,0-1.9-1c-.2-.8.3-1.5,1.2-1.8.7-.2,1.3,0,1.8.3l-.2.6c-.4-.3-.9-.4-1.4-.2-.5.1-.8.5-.6.9.1.4.6.5,1.2.5s1.7,0,1.9,1.1c.2.8,0,1.6-1.3,1.9-.8.2-1.4,0-1.9-.3l.2-.7h0Z"/>
  <path class="st17" d="M283.8,64.1l-2.6,2.8-.5-.4,3.4-3.7.5.5-.7,4.4,2.5-2.8.5.4-3.4,3.7-.5-.4.7-4.5h.1Z"/>
  <path class="st17" d="M288.4,66.7l.5.5-2.1,2.1c-.6.6-.7,1.3-.1,1.8s1.2.5,1.8,0l2.1-2.1.5.5-2.1,2.1c-.9.9-1.9,1-2.8,0s-.8-1.9.1-2.8l2.1-2.2h0Z"/>
  <path class="st17" d="M292.4,70.8l2,2.2-.5.4-1.6-1.7-1.1,1,1.5,1.7-.5.4-1.5-1.7-1.1,1.1,1.6,1.7-.5.4-2-2.2,3.7-3.4h0Z"/>
  <path class="st17" d="M295.3,74l.5.6-2.2,3.8,4.1-1.6.5.6-5,1.9-.5-.6,2.6-4.6h0Z"/>
  <path class="st17" d="M297.5,82.9l-1.4-1.7-1,.4-.5-.6,5-1.7.5.7-2.8,4.5-.5-.6.6-.9h0ZM296.8,80.9l1.1,1.4,1.5-2.4-2.6.9h0Z"/>
  <path class="st17" d="M299.2,84.7c-.1.5-.1,1.1.3,1.6.4.6.9.6,1.2.3.4-.3.2-.8,0-1.4-.2-.7-.6-1.5.3-2.1.7-.5,1.5-.3,2.1.4.4.6.5,1.2.4,1.7h-.7c.1-.5,0-1-.3-1.4s-.7-.5-1.1-.3c-.4.3-.2.7,0,1.3.3.7.5,1.6-.3,2.2-.6.5-1.5.5-2.2-.5-.5-.7-.6-1.3-.4-1.9h.7Z"/>
  <path class="st17" d="M304.7,93.1l-1.2-1.8-1.1.3-.4-.6,5.2-1.2.5.7-3.2,4.2-.4-.6.7-.9h-.1ZM304.2,91l1,1.5,1.7-2.2-2.7.7Z"/>
  <path class="st17" d="M310.5,96.9l-4.2.8v-.2c-.1,0,2.5-3.3,2.5-3.3l-3.4,2-.3-.6,4.3-2.6.5.8-2.4,2.9,3.8-.7.5.8-4.3,2.6-.3-.6,3.4-2h-.1Z"/>
  <path class="st17" d="M312.7,98.7l1.4,2.7-.6.3-1.1-2.1-1.3.7,1.1,2-.6.3-1.1-2-1.4.7,1.1,2.1-.6.3-1.4-2.7,4.4-2.4h.1Z"/>
  <path class="st17" d="M314.2,104.1l-3.5,1.7-.3-.6,4.5-2.2.3.6-2.3,3.8,3.4-1.6.3.6-4.5,2.2-.3-.6,2.4-3.9h0Z"/>
  <path class="st17" d="M315,112.3l-.9-2h-1.1l-.3-.6,5.3-.4.3.8-3.9,3.7-.3-.7.8-.8h.1ZM314.8,110.2l.7,1.7,2.1-1.9-2.8.2h0Z"/>
  <path class="st17" d="M315.5,114.6l4.4.9-.9-2.2.6-.2,1.2,3.1-.6.2-4.4-.9.9,2.3-.6.2-1.2-3.1.6-.2h0Z"/>
  <path class="st17" d="M318.6,121.7l-.7-2.1h-1.1l-.2-.7h5.3l.3.8-4.1,3.4-.2-.7.9-.7h-.2ZM318.6,119.6l.6,1.7,2.2-1.8h-2.8Z"/>
  <path class="st17" d="M319.6,123.9c-.3.4-.4,1-.2,1.6.2.7.7.8,1,.7.5-.2.5-.7.5-1.3s0-1.6.9-1.9c.8-.2,1.5.2,1.8,1.1.2.7.1,1.3-.2,1.8l-.6-.2c.3-.4.3-.9.2-1.4-.1-.5-.5-.7-.9-.6s-.4.6-.4,1.2,0,1.7-1,2c-.7.2-1.6,0-1.9-1.2-.2-.8-.1-1.4.2-1.9l.7.2h-.1Z"/>
  <g class="st6">
    <g>
      <path class="st15" d="M169.8,182.3c-.1-.4-.6-.6-1-.5s-.6.6-.5,1,.6.6,1,.5.6-.6.5-1"/>
      <path class="st15" d="M167,184.8c-.1-.4-.6-.6-1-.5s-.6.6-.5,1,.6.6,1,.5.6-.6.5-1"/>
      <path class="st15" d="M164,186.8c-.1-.4-.6-.6-1-.5s-.6.6-.5,1,.6.6,1,.5.6-.6.5-1"/>
      <path class="st15" d="M160.7,188.6c-.1-.4-.6-.6-1-.5s-.6.6-.5,1,.6.6,1,.5.6-.6.5-1"/>
    </g>
  </g>
  <polygon class="st15" points="174.9 180.8 173.6 177.7 170.3 177.2 169.2 178.6 172.5 179.1 173.7 182.2 174.9 180.8"/>
  <g class="st12">
    <g>
      <path class="st15" d="M214.6,107.1c-.4,0-.8.2-.9.6-.1.4.2.8.6.9.4,0,.8-.2.9-.6.1-.4-.2-.8-.6-.9"/>
      <path class="st15" d="M215.2,110.7c-.4,0-.8.2-.9.6-.1.4.2.8.6.9.4,0,.8-.2.9-.6.1-.4-.2-.8-.6-.9"/>
      <path class="st15" d="M215.4,114.4c-.4,0-.8.2-.9.6-.1.4.2.8.6.9.4,0,.8-.2.9-.6.1-.4-.2-.8-.6-.9"/>
      <path class="st15" d="M215.2,118.1c-.4,0-.8.2-.9.6-.1.4.2.8.6.9.4,0,.8-.2.9-.6.1-.4-.2-.8-.6-.9"/>
    </g>
  </g>
  <polygon class="st15" points="215.9 102 212.5 101.4 210.4 104 211 105.7 213.2 103.1 216.5 103.7 215.9 102"/>
  <g class="st9">
    <g>
      <path class="st15" d="M251.4,188.6c.2-.4.1-.8-.2-1.1s-.8-.1-1.1.2c-.2.4-.1.8.2,1.1.4.2.8.1,1.1-.2"/>
      <path class="st15" d="M247.7,187.9c.2-.4.1-.8-.2-1.1s-.8-.1-1.1.2c-.2.4-.1.8.2,1.1s.8.1,1.1-.2"/>
      <path class="st15" d="M244.2,186.7c.2-.4.1-.8-.2-1.1s-.8-.1-1.1.2c-.2.4-.1.8.2,1.1s.8.1,1.1-.2"/>
      <path class="st15" d="M240.8,185.3c.2-.4.1-.8-.2-1.1s-.8-.1-1.1.2c-.2.4-.1.8.2,1.1s.8.1,1.1-.2"/>
    </g>
  </g>
  <polygon class="st15" points="255.7 191.6 257.4 188.7 255.7 185.8 253.9 185.8 255.5 188.7 253.8 191.6 255.7 191.6"/>
  <g class="st8">
    <g>
      <path class="st15" d="M158.4,177.9c.1.4.5.7.9.6.4-.1.7-.5.6-.9-.1-.4-.5-.7-.9-.6-.4.1-.7.5-.6.9"/>
      <path class="st15" d="M161.4,175.7c.1.4.5.7.9.6.4-.1.7-.5.6-.9-.1-.4-.5-.7-.9-.6-.4.1-.7.5-.6.9"/>
      <path class="st15" d="M164.6,173.8c.1.4.5.7.9.6s.7-.5.6-.9c-.1-.4-.5-.7-.9-.6-.4.1-.7.5-.6.9"/>
      <path class="st15" d="M167.9,172.3c.1.4.5.7.9.6s.7-.5.6-.9c-.1-.4-.5-.7-.9-.6-.4.1-.7.5-.6.9"/>
    </g>
  </g>
  <polygon class="st15" points="153.3 179.1 154.3 182.3 157.6 183 158.8 181.7 155.6 180.9 154.5 177.7 153.3 179.1"/>
  <g class="st11">
    <g>
      <path class="st15" d="M199.4,114.4c.4,0,.8,0,1-.5.1-.4-.1-.8-.5-1-.4,0-.8,0-1,.5-.1.4.1.8.5,1"/>
      <path class="st15" d="M199,110.7c.4,0,.8,0,1-.5.1-.4-.1-.8-.5-1-.4,0-.8,0-1,.5-.1.4.1.8.5,1"/>
      <path class="st15" d="M199.2,107c.4,0,.8,0,1-.5.1-.4-.1-.8-.5-1-.4,0-.8,0-1,.5-.1.4.1.8.5,1"/>
      <path class="st15" d="M199.5,103.3c.4,0,.8,0,1-.5.1-.4-.1-.8-.5-1-.4,0-.8,0-1,.5-.1.4.1.8.5,1"/>
    </g>
  </g>
  <polygon class="st15" points="197.8 119.4 201.1 120.2 203.4 117.7 202.9 116 200.6 118.4 197.3 117.6 197.8 119.4"/>
  <g class="st10">
    <g>
      <path class="st15" d="M249.8,175c-.3.3-.2.8.1,1.1s.8.2,1.1-.1.2-.8-.1-1.1-.8-.2-1.1.1"/>
      <path class="st15" d="M253.4,176c-.3.3-.2.8.1,1.1s.8.2,1.1-.1.2-.8-.1-1.1-.8-.2-1.1.1"/>
      <path class="st15" d="M256.8,177.4c-.3.3-.2.8.1,1.1.3.3.8.2,1.1-.1.3-.3.2-.8-.1-1.1-.3-.3-.8-.2-1.1.1"/>
      <path class="st15" d="M260.1,179.1c-.3.3-.2.8.1,1.1.3.3.8.2,1.1-.1.3-.3.2-.8-.1-1.1-.3-.3-.8-.2-1.1.1"/>
    </g>
  </g>
  <polygon class="st15" points="245.7 171.7 243.8 174.5 245.3 177.5 247.1 177.7 245.7 174.6 247.6 171.9 245.7 171.7"/>
  <g class="st3">
    <path class="st14" d="M236.3,162c0,15.6-12.6,28.4-28.3,28.4s-28.4-12.6-28.4-28.3,12.6-28.4,28.3-28.4,28.4,12.6,28.4,28.3"/>
  </g>
  <g>
    <path class="st13" d="M194.6,158.7h-.8v1.8h-1.1v-5h2.3c1,0,1.7.7,1.7,1.6s-.6,1.4-1.1,1.5l1.1,1.9h-1.2l-1-1.8h.1ZM195,156.4h-1.1v1.4h1.1c.4,0,.8-.3.8-.7s-.3-.7-.8-.7Z"/>
    <path class="st13" d="M197.6,155.5h1.1v5h-1.1v-5Z"/>
    <path class="st13" d="M199.7,155.5h3.5v.9h-2.5v1.1h2.4v.9h-2.4v1.2h2.5v.9h-3.5v-5h0Z"/>
    <path class="st13" d="M204.3,159c.4.4.9.7,1.6.7s.9-.3.9-.6-.4-.5-1-.6c-.8-.2-1.9-.4-1.9-1.5s.7-1.5,1.9-1.5,1.5.2,2,.7l-.6.8c-.4-.4-.9-.6-1.4-.6s-.7.2-.7.5.4.4,1,.6c.8.2,1.9.4,1.9,1.5s-.6,1.6-2,1.6-1.6-.3-2.1-.8l.6-.8h-.2Z"/>
    <path class="st13" d="M210.9,155.4c1,0,1.7.5,2.1,1.1l-.9.5c-.2-.4-.7-.6-1.2-.6-.9,0-1.6.7-1.6,1.6s.7,1.6,1.6,1.6.9-.2,1.1-.4v-.6h-1.3v-.9h2.4v1.9c-.5.6-1.2.9-2.1.9-1.5,0-2.7-1-2.7-2.6s1.2-2.6,2.7-2.6h-.1Z"/>
    <path class="st13" d="M216.3,155.4c1.5,0,2.6,1.1,2.6,2.6s-1.1,2.6-2.6,2.6-2.6-1.1-2.6-2.6,1.1-2.6,2.6-2.6ZM216.3,156.4c-.9,0-1.5.7-1.5,1.6s.6,1.6,1.5,1.6,1.5-.7,1.5-1.6-.6-1.6-1.5-1.6Z"/>
    <path class="st13" d="M219.9,159c.4.4.9.7,1.6.7s.9-.3.9-.6-.4-.5-1-.6c-.8-.2-1.9-.4-1.9-1.5s.7-1.5,1.9-1.5,1.5.2,2,.7l-.6.8c-.4-.4-.9-.6-1.4-.6s-.7.2-.7.5.4.4,1,.6c.8.2,1.9.4,1.9,1.5s-.6,1.6-2,1.6-1.6-.3-2.1-.8l.6-.8h-.2Z"/>
  </g>
  <g>
    <path class="st13" d="M185.8,165.5c0-1.5,1.2-2.6,2.6-2.6s1.8.6,2.1,1.2l-.9.4c-.2-.4-.7-.7-1.2-.7-.9,0-1.5.7-1.5,1.6s.7,1.6,1.5,1.6,1-.3,1.2-.7l.9.4c-.4.6-1,1.2-2.1,1.2s-2.6-1.1-2.6-2.6v.2Z"/>
    <path class="st13" d="M193.5,162.9c1.5,0,2.6,1.1,2.6,2.6s-1.1,2.6-2.6,2.6-2.6-1.1-2.6-2.6,1.1-2.6,2.6-2.6ZM193.5,163.9c-.9,0-1.5.7-1.5,1.6s.6,1.6,1.5,1.6,1.5-.7,1.5-1.6-.6-1.6-1.5-1.6Z"/>
    <path class="st13" d="M198,164.7v3.4h-1.1v-5h1.1l2.3,3.2v-3.2h1.1v5h-1l-2.4-3.4h0Z"/>
    <path class="st13" d="M204.7,162.9c1.5,0,2.6,1.1,2.6,2.6s-1.1,2.6-2.6,2.6-2.6-1.1-2.6-2.6,1.1-2.6,2.6-2.6ZM204.7,163.9c-.9,0-1.5.7-1.5,1.6s.6,1.6,1.5,1.6,1.5-.7,1.5-1.6-.6-1.6-1.5-1.6Z"/>
    <path class="st13" d="M207.9,165.5c0-1.5,1.2-2.6,2.6-2.6s1.8.6,2.1,1.2l-.9.4c-.2-.4-.7-.7-1.2-.7-.9,0-1.5.7-1.5,1.6s.7,1.6,1.5,1.6,1-.3,1.2-.7l.9.4c-.4.6-1,1.2-2.1,1.2s-2.6-1.1-2.6-2.6v.2Z"/>
    <path class="st13" d="M213.3,163h1.1v5h-1.1v-5Z"/>
    <path class="st13" d="M215.3,163h2c1.6,0,2.6,1,2.6,2.5s-1.1,2.5-2.6,2.5h-2v-5h0ZM217.3,167.1c1,0,1.6-.7,1.6-1.6s-.5-1.6-1.6-1.6h-.9v3.1h.9Z"/>
    <path class="st13" d="M223.1,162.9c1.5,0,2.6,1.1,2.6,2.6s-1.1,2.6-2.6,2.6-2.6-1.1-2.6-2.6,1.1-2.6,2.6-2.6ZM223.1,163.9c-.9,0-1.5.7-1.5,1.6s.6,1.6,1.5,1.6,1.5-.7,1.5-1.6-.6-1.6-1.5-1.6Z"/>
    <path class="st13" d="M226.7,166.5c.4.4.9.7,1.6.7s.9-.3.9-.6-.4-.5-1-.6c-.8-.2-1.9-.4-1.9-1.5s.7-1.5,1.9-1.5,1.5.2,2,.7l-.6.8c-.4-.4-.9-.6-1.4-.6s-.7.2-.7.5.4.4,1,.6c.8.2,1.9.4,1.9,1.5s-.6,1.6-2,1.6-1.6-.3-2.1-.8l.6-.8h-.2Z"/>
  </g>
  <g class="st2">
    <g>
      <path class="st14" d="M193.8,130.8h0M191,132.2h-.1c-.1,0,0,0,0-.1s0,0,.1,0,0,0,0,.1M188.4,134h-.1c0-.1.1-.1.1-.1h0M186,136h-.2v-.2h.2v.2M183.8,138.1h-.3v-.3h.3v.3M181.8,140.5c0,.1-.2.1-.3,0,0,0-.1-.2,0-.3,0-.1.2-.1.3,0s.1.2,0,.3M179.6,143.1c-.1,0-.1-.2,0-.4,0-.1.2-.2.4,0s.1.2,0,.4c0,.1-.2.2-.4,0M178,145.9c-.1,0-.2-.3-.1-.4,0-.1.3-.2.4-.1s.2.3.1.4c0,.1-.3.2-.4.1M176.6,148.8c-.2,0-.2-.3-.2-.4,0-.2.3-.3.4-.2.2,0,.2.3.2.4s-.3.3-.4.2M175.6,151.8c-.2,0-.3-.3-.2-.5,0-.2.3-.3.5-.2.2,0,.3.3.2.5s-.3.3-.5.2M174.7,154.9c-.2,0-.4-.3-.3-.5,0-.2.3-.4.5-.3.2,0,.4.3.3.5,0,.2-.3.4-.5.3M174.2,158c-.2,0-.4-.3-.4-.5,0-.3.3-.4.5-.4s.4.3.4.5-.3.4-.5.4M173.5,160.7c0-.3.2-.5.5-.5s.5.2.5.5-.2.5-.5.5-.5-.2-.4-.5M173.5,163.9c0-.3.2-.6.5-.6s.5.2.5.5-.2.6-.5.6-.5-.2-.5-.5M173.7,167.1c0-.3.2-.6.5-.7.3,0,.6.2.6.5s-.2.6-.5.6-.6-.2-.6-.5M175,170.7c-.3,0-.6-.1-.7-.5,0-.3.1-.7.4-.8.3,0,.6.1.7.5,0,.3-.1.7-.4.7M175.1,173.4c-.1-.4,0-.7.4-.8.3-.1.7,0,.8.4.1.3,0,.7-.4.8-.3.1-.7,0-.8-.4M177.1,176.7c-.3.2-.8,0-.9-.4-.1-.4,0-.8.3-.9.3-.1.7,0,.9.4.1.4,0,.8-.3.9M178.5,179.6c-.3.2-.8,0-1-.3-.2-.4,0-.8.3-1,.4-.2.8,0,1,.3.2.4,0,.8-.3,1M179.4,181c.4-.2.8-.1,1,.2s.1.8-.2,1.1c-.3.2-.8.1-1-.2-.2-.4-.2-.8.2-1.1M181.1,183.5c.3-.3.8-.2,1.1.1s.2.9,0,1.1c-.3.3-.8.2-1.1-.1s-.2-.9,0-1.1M183.1,185.9c.3-.3.9-.3,1.2,0s.3.9,0,1.2-.8.3-1.2,0c-.3-.3-.3-.9,0-1.2M185.4,189.3c-.4-.3-.4-.9-.1-1.2.3-.4.9-.4,1.2,0,.4.3.4.9.1,1.2-.3.4-.8.4-1.2,0M188.9,189.8c.4.3.5.9.2,1.3s-.8.5-1.3.2c-.4-.3-.5-.9-.2-1.3.3-.4.9-.5,1.3-.2M191.5,191.4c.4.2.6.8.4,1.3-.2.5-.8.6-1.3.4-.5-.3-.6-.9-.4-1.3.3-.4.8-.6,1.3-.3M194.2,192.8c.5.2.7.8.5,1.3s-.8.7-1.3.5-.7-.9-.5-1.3c.2-.5.8-.7,1.3-.5M195.7,194.5c.2-.5.8-.8,1.3-.6.3.1.5.3.6.5s.1.5,0,.8c0,.3-.3.5-.5.6s-.5.1-.8,0c-.6-.2-.8-.8-.6-1.3M222.2,193.5h0M225,192h.1c0,.2,0,.1-.1.1h0M227.5,190.2h.1c0,.1-.1.1-.1.1h0M230,188.3h.2v.2h-.2v-.2M232.2,186.1h.3v.3h-.3v-.3M234.2,183.7c0-.1.2-.1.3,0,0,0,.1.2,0,.3s-.2.1-.3,0c0,0-.1-.2,0-.3M236,181.2c0-.1.2-.2.4,0s.1.2,0,.4-.2.2-.4,0-.1-.2,0-.4M237.6,178.5c0-.1.3-.2.4-.1s.2.3.1.4c0,.1-.3.2-.4.1-.1,0-.2-.3-.1-.4M238.9,175.6c0-.2.3-.3.4-.2.2,0,.2.3.2.4,0,.2-.3.3-.4.2-.2,0-.2-.3-.2-.4M240,172.7c0-.2.3-.3.5-.3s.3.3.2.5-.3.3-.5.2-.3-.3-.2-.5M240.8,169.7c0-.2.3-.4.5-.3s.4.3.3.5c0,.2-.3.4-.5.3-.2,0-.4-.3-.3-.5M241.3,166.6c0-.2.3-.4.5-.4s.4.3.4.5c0,.3-.3.4-.5.4s-.4-.3-.4-.5M241.5,163.5c0-.3.2-.5.5-.5s.5.2.5.5-.2.5-.5.5-.5-.2-.5-.5M241.5,160.4c0-.3.2-.6.5-.6s.5.2.5.5-.2.6-.5.6-.5-.2-.5-.5M241.2,157.3c0-.3.2-.6.5-.7.3,0,.6.2.6.5s-.2.6-.5.7c-.3,0-.6-.2-.6-.5M240.6,154.2c0-.3.1-.7.4-.7s.6.1.7.5c0,.3-.1.7-.5.8s-.6-.1-.7-.5M239.7,151.3c-.1-.3,0-.7.4-.8.3-.1.7,0,.8.4s0,.7-.4.8-.7,0-.8-.4M238.6,148.4c-.1-.4,0-.8.3-.9s.8,0,.9.4c.1.4,0,.8-.3.9s-.7,0-.9-.4M237.2,145.7c-.2-.4,0-.8.3-1s.8,0,1,.3c.2.4,0,.8-.3,1-.4.2-.8,0-1-.3M235.8,142c.3-.2.8-.1,1,.2.2.4.2.8-.2,1.1-.4.2-.8.1-1-.2s-.1-.8.2-1.1M233.8,139.5c.3-.3.8-.2,1.1.1.3.4.2.9-.1,1.1s-.8.2-1.1-.1-.2-.9.1-1.1M231.7,137.1c.3-.3.8-.3,1.2,0,.3.3.3.9,0,1.2s-.9.3-1.2,0-.3-.9,0-1.2M229.3,135c.3-.4.8-.4,1.2,0,.4.3.4.9.1,1.2s-.9.4-1.2,0c-.4-.3-.4-.9-.1-1.2M227,134.4c-.4-.3-.5-.9-.2-1.3s.8-.5,1.3-.2.5.9.2,1.3c-.3.4-.9.5-1.3.2M224.5,132.8c-.5-.2-.6-.8-.4-1.3.2-.5.8-.6,1.3-.4.5.3.6.9.4,1.3-.3.4-.8.6-1.3.3M221.8,131.5c-.5-.2-.7-.8-.5-1.3s.8-.7,1.3-.5.7.9.5,1.3c-.2.5-.8.7-1.3.5"/>
      <path class="st14" d="M196.7,196.1h-.4c-.3-.1-.6-.4-.7-.7-.1-.3-.1-.6,0-.9h0c.2-.6.9-.9,1.5-.7.3.1.5.3.7.6.1.3.2.6,0,.9-.1.3-.3.6-.6.7-.2,0-.4.1-.5.1h0ZM195.9,194.5h0v.6c.1.2.3.4.5.5h.7c.2-.1.4-.3.4-.5v-.6c-.1-.2-.3-.4-.5-.4-.4-.1-.9,0-1.1.5h0ZM193.8,194.8c-.2,0-.3,0-.5-.1-.3-.1-.5-.4-.6-.7s0-.6,0-.9c.1-.3.4-.5.7-.6s.6,0,.9,0c.6.3.9.9.6,1.5-.1.3-.3.5-.6.6h-.4v.2ZM193.8,192.9h-.2c-.2,0-.4.2-.5.4,0,.2-.1.4,0,.6,0,.2.2.4.4.5.2,0,.4.1.6,0,.2,0,.4-.2.4-.4.2-.4,0-.9-.4-1.1h-.3ZM222.3,193.7h-.2c0-.2,0-.3.1-.4h.2v.3h-.2,0ZM222.2,193.5h0q0,.1.1.1h-.1ZM222.2,193.5h0s.1,0,0,0h-.1.1ZM222.2,193.4h.1-.1ZM191.1,193.4c-.2,0-.4,0-.6-.1-.3-.2-.5-.4-.6-.7,0-.3,0-.6.1-.9.3-.5,1-.7,1.5-.4s.7,1,.4,1.5c-.1.3-.4.4-.6.5h-.3.1ZM191,191.5c-.2,0-.5.1-.6.4-.1.2-.1.4,0,.6,0,.2.2.4.4.5s.4.1.6,0c.2,0,.3-.2.4-.4.2-.4,0-.8-.3-1h0c-.1,0-.3-.1-.4-.1h0ZM225,192.3h0s-.1,0-.2-.1v-.4h.2q0,0,.2.1v.4h-.2ZM225,191.9h0c0,.1,0,0,0,0-.1,0,0,.2,0,.2h0ZM188.5,191.7c-.2,0-.4,0-.6-.2-.2-.2-.4-.4-.5-.7,0-.3,0-.6.2-.8.4-.5,1-.6,1.5-.2h0c.5.3.6,1,.3,1.5-.1.2-.4.4-.7.5h-.2ZM188.4,189.8c-.2,0-.4.1-.6.3-.1.1-.2.4-.1.6,0,.2.1.4.3.5s.4.2.6.1c.2,0,.3-.1.4-.3.2-.3.1-.8-.2-1-.1,0-.3-.1-.4-.1h0ZM227.6,190.6h0s-.1,0-.2-.1v-.4h.2s.1,0,.2.1v.4h-.2ZM227.6,190.3h0c0-.1,0,0,0,0ZM227.6,190.3h0c0,.1,0,0,0,0h0ZM186,189.7c-.2,0-.5,0-.7-.3-.2-.2-.4-.4-.4-.7s0-.6.2-.8c.4-.4,1-.5,1.5-.1.4.4.5,1,.1,1.5-.2.2-.4.4-.7.4h-.1,0ZM186,187.9c-.2,0-.4,0-.5.2-.1.1-.2.3-.2.5s.1.4.2.5h0c.1.1.3.2.5.2s.3-.1.4-.2c.2-.3.2-.7-.1-1s-.3-.2-.5-.2h.2ZM230.1,188.7h0s-.2,0-.2-.1v-.2c0,0,0-.2.1-.2h0c.1-.1.4-.1.5,0v.2c0,0,0,.2-.1.2h-.3ZM230,188.4h0ZM230,188.4h0ZM183.7,187.5c-.3,0-.5-.1-.7-.3s-.3-.5-.3-.8.1-.5.3-.7h0c.4-.4,1-.4,1.4,0s.4,1,0,1.4-.4.3-.7.3h0ZM183.7,185.8c-.2,0-.3,0-.4.2h0c-.1.1-.2.3-.2.4s0,.4.2.5c.1.1.3.2.5.2h0c.2,0,.3,0,.4-.2.2-.3.2-.7,0-.9s-.3-.2-.5-.2h0ZM232.3,186.6h0c-.1,0-.2,0-.3-.1s-.1-.2-.1-.3,0-.2.1-.3c0,0,.2-.1.3-.1s.2,0,.3.1c0,0,.1.2.1.3s0,.2-.1.3c0,0-.2.1-.3.1h0ZM232.3,186.2h0ZM181.7,185.1h0c-.3,0-.5-.2-.7-.4s-.3-.5-.2-.8c0-.2.1-.5.4-.6h0c.4-.3,1-.3,1.4.2.3.4.3,1-.1,1.4-.2.1-.4.2-.6.2h-.2ZM181.2,183.7c-.1,0-.2.2-.2.4s0,.4.1.5.3.2.4.2c.2,0,.3,0,.4-.1.2-.2.3-.6,0-.9-.2-.3-.6-.3-.9-.1h.2ZM234.4,184.3h-.2c-.2-.1-.2-.4,0-.6.1-.2.4-.2.6,0s.2.4,0,.6c0,0-.2.1-.3.1h-.1ZM234.4,183.8h.2c0,.1-.1,0-.1,0h0ZM179.8,182.6h-.2c-.2,0-.5-.2-.6-.4s-.2-.5-.1-.8c0-.2.2-.4.4-.6.4-.3,1-.2,1.3.3.3.4.2,1-.2,1.3-.1.1-.3.2-.5.2h0ZM179.8,181h-.3c-.1,0-.2.2-.2.3v.5c0,.2.2.2.4.3h.4c.2-.2.3-.6.1-.8-.1-.2-.3-.3-.5-.3h.1ZM236.2,181.8h-.2c-.2-.1-.2-.4-.1-.6h0c0-.1.2-.2.3-.2h.3c.1,0,.2.2.2.3v.4c0,.2-.2.2-.3.2h-.2ZM236.2,181.3h0c0,.1,0,0,0,0ZM178.2,179.9h-.2c-.2,0-.4-.2-.6-.5-.1-.2-.1-.5,0-.7,0-.2.2-.4.4-.5s.4-.1.7,0,.4.2.5.4c.2.4,0,1-.3,1.2h0c-.1,0-.3.1-.4.1h0ZM178.2,178.4h-.2c-.1,0-.2.2-.2.3v.4c0,.1.2.2.3.3h.4c.2-.1.3-.5.2-.8,0-.1-.2-.2-.3-.3h-.2ZM237.8,179.1h-.2c-.2-.1-.3-.4-.2-.7h0c.1-.2.4-.3.6-.2.2.1.3.4.2.7,0,.1-.2.2-.3.2h-.1ZM237.8,178.6v.2h0v-.2h-.1.1ZM176.8,177h-.3c-.2,0-.4-.3-.5-.5-.2-.4,0-1,.4-1.2h.6c.2,0,.4.3.5.5.2.5,0,.9-.4,1.1h-.4,0ZM176.8,175.6h-.2c-.2.1-.4.4-.2.7,0,.1.1.2.3.3h.4c.2-.1.3-.4.2-.7,0-.1-.1-.2-.3-.3h-.2ZM239.2,176.3h-.2c-.3-.1-.4-.4-.3-.7,0-.1.2-.2.3-.3h.4c.3.1.4.4.3.7,0,.1-.2.2-.3.3h-.2ZM239.2,175.6h0v.2h.1v-.2h-.1ZM175.7,174h-.4c-.2-.1-.4-.3-.4-.5h0c-.1-.4.1-.9.5-1.1h.6c.2,0,.3.3.4.5.1.4,0,.9-.5,1.1h-.3,0ZM175.3,173.3c0,.1.1.2.2.3h.3c.2,0,.4-.4.3-.6,0-.1-.1-.2-.2-.3s-.2,0-.3,0c-.2,0-.4.3-.3.6h0ZM240.3,173.4h-.2c-.3-.1-.4-.4-.4-.7h0c0-.1.1-.3.3-.3h.4c.3,0,.5.4.4.7,0,.1-.1.3-.3.3h-.2ZM240.1,172.7c0,.1,0,.2.1.2h.2c0-.2,0-.3-.1-.4h-.2v.2ZM174.8,170.9c-.1,0-.3,0-.4-.1-.2-.1-.3-.3-.4-.5,0-.2,0-.4.1-.6.1-.2.3-.3.5-.3.4,0,.8.2.9.6.1.4-.1.9-.6,1h-.2,0ZM174.8,169.7h0c-.1,0-.2,0-.2.2v.3c0,.1.1.2.2.3h.3c.2,0,.4-.3.3-.5,0-.2-.2-.3-.4-.3h-.2ZM241.1,170.4h-.1c-.1,0-.3-.1-.4-.3s-.1-.3,0-.5c0-.2.1-.3.3-.4s.3-.1.4,0c.3,0,.5.4.5.7s-.3.5-.6.5h0ZM241.2,169.5h-.2v.3h.1c.1.1.2.1.3,0s0-.3-.2-.3h0ZM174.3,167.8c-.1,0-.3,0-.4-.1-.2-.1-.3-.3-.3-.5s0-.4.1-.6c.1-.2.3-.3.5-.3.4,0,.8.2.8.6s-.2.8-.6.9h-.1ZM174.3,166.6h0s-.2,0-.2.1v.3h0c0,.1,0,.2.2.3s.2,0,.3,0c.2,0,.3-.2.3-.4s-.2-.4-.4-.4h-.2ZM241.7,167.3h0c-.3,0-.6-.4-.5-.7h0c0-.4.4-.6.7-.6s.3.1.4.2.1.3.1.5-.1.3-.3.4c-.1,0-.2.1-.4.1h0ZM241.4,166.6c0,.1,0,.3.2.3h.2s.1-.1.1-.2v-.2h-.2c-.1,0-.3,0-.3.2h0ZM174,164.6c-.2,0-.3,0-.4-.2-.1-.1-.2-.3-.2-.5h0c0-.2,0-.4.2-.5.1-.1.3-.2.5-.2h0c.4,0,.7.3.7.7s-.3.7-.7.8h-.1ZM174,163.5h0s-.2,0-.2.1c0,0-.1.2,0,.3h0c0,.1,0,.2.1.3h.2c.2,0,.3-.2.3-.4s-.2-.3-.3-.3h-.1ZM242,164.2h0c-.4,0-.6-.3-.6-.7h0c0-.4.3-.7.7-.7s.3,0,.5.2.2.3.2.5,0,.4-.2.5c-.1.1-.3.2-.4.2h-.2ZM242,163.2c-.2,0-.3.1-.3.3h0c0,.2.1.3.3.3h.2s.1-.1.1-.2v-.2h-.2v-.2ZM174,161.4h0c-.2,0-.3,0-.4-.2-.1-.1-.2-.3-.2-.5h0c0-.2,0-.4.2-.5.1-.1.3-.2.5-.2.4,0,.6.3.6.7s-.3.7-.7.7h0ZM174,160.4h-.2s-.1.1-.1.2h0v.2h.2c.2,0,.3-.1.3-.3s-.1-.3-.3-.3h0v.2ZM242,161.1c-.4,0-.7-.3-.7-.7h0c0-.4.3-.7.7-.8s.4,0,.5.2c.1.1.2.3.2.5s0,.4-.2.5c-.1.1-.3.2-.5.2h0ZM241.7,160.4c0,.2.2.4.4.3,0,0,.2,0,.2-.1,0,0,.1-.2.1-.3s0-.2-.1-.3h-.2c-.2,0-.3.2-.3.4h0ZM174.3,158.2h0c-.2,0-.3-.1-.4-.2s-.1-.3-.1-.5.1-.3.3-.4c.1-.1.3-.1.5-.1.3,0,.6.4.5.7,0,.3-.3.6-.6.6h-.2ZM174.2,157.9c.1,0,.3,0,.3-.2s0-.3-.2-.3h-.2s-.1.1-.1.2v.2h.2ZM241.7,158c-.4,0-.7-.3-.7-.7h0c0-.4.2-.8.6-.9.2,0,.4,0,.5.1.2.1.3.3.3.5s0,.4-.1.6c-.1.2-.3.3-.5.3h-.1ZM241.3,157.3c0,.2.2.4.4.3.1,0,.2,0,.2-.1v-.3c0-.1,0-.2-.2-.3h-.3c-.2,0-.3.2-.3.4h.2ZM174.8,155.1h-.1c-.3,0-.5-.4-.4-.7,0-.3.4-.5.7-.5s.3.1.4.3c0,.1.1.3,0,.5,0,.1-.1.3-.3.4h-.3,0ZM174.8,154.2c-.1,0-.2,0-.2.2s0,.3.2.3h.2c0,0,0,0,.1-.1v-.2h-.1c0-.1-.2-.2-.2-.2ZM241.1,154.9c-.4,0-.7-.2-.8-.6-.1-.4.1-.9.6-1h.6c.2.1.3.3.4.5,0,.2,0,.4-.1.6-.1.2-.3.3-.5.3h-.2v.2ZM241.1,153.7h0c-.2,0-.4.3-.3.5h0c0,.2.3.4.5.3.1,0,.2,0,.2-.2v-.4c0-.1-.1-.2-.2-.3h-.2ZM175.7,152h-.2c-.3,0-.4-.4-.4-.7s.1-.3.3-.3h.4c.3.1.4.4.4.7s-.1.3-.3.3h-.2ZM175.7,151.2h-.1c0,.2,0,.3.1.3h.2c0-.2,0-.3-.1-.3h-.1ZM240.3,151.9h-.4c-.2-.1-.3-.3-.4-.5-.1-.4,0-.9.5-1.1h.6c.2.1.4.3.4.5.1.4-.1.9-.5,1.1h-.2ZM240.3,150.6h-.1c-.2,0-.4.4-.3.6h0c0,.1.1.2.2.3s.2,0,.3,0c.2,0,.4-.4.3-.6,0-.1-.1-.2-.2-.3s-.1,0-.2,0h0ZM239.2,149h-.3c-.2,0-.4-.3-.5-.5h0c-.2-.5,0-.9.4-1.1s.5-.1.7,0,.4.3.5.5c.2.4,0,1-.4,1.2h-.4ZM238.7,148.3c0,.1.1.2.3.3s.2,0,.4,0c.2-.1.4-.4.2-.7,0-.1-.1-.2-.3-.3s-.3,0-.4,0c-.2.1-.3.4-.2.7ZM176.8,149h-.2c-.3-.1-.4-.4-.3-.7,0-.1.2-.2.3-.3h.4c.3.1.4.4.3.7,0,.1-.2.2-.3.3h-.2ZM176.8,148.3h0v.2h.1v-.2h-.1ZM237.8,146.2h-.3c-.2,0-.4-.2-.5-.4h0c-.2-.4,0-1,.3-1.2.2-.1.5-.2.7,0,.2,0,.4.2.5.5.2.4,0,1-.4,1.2-.1,0-.3.1-.4.1h0v-.2ZM237.4,145.6c0,.1.2.2.3.3s.3,0,.4,0c.2-.1.3-.5.2-.8,0-.1-.2-.2-.3-.3h-.4c-.2.1-.3.5-.2.8ZM178.1,146.1h-.2c-.1,0-.2-.2-.2-.3v-.4c0-.1.2-.2.3-.2h.4c.2.1.3.4.2.7,0,.1-.2.2-.3.2h-.2ZM178.1,145.5h0c0,.1,0,0,0,0h0ZM236.2,143.6c-.3,0-.6-.1-.8-.4-.3-.4-.2-1,.2-1.3h0c.2-.1.4-.2.7-.2s.5.2.6.4.2.5.1.8c0,.2-.2.4-.4.6-.2.1-.3.1-.5.1h0ZM236.2,142c-.1,0-.2,0-.3.1h0c-.2.2-.3.6-.1.8.2.3.5.3.8.2.1,0,.2-.2.2-.3v-.5c0-.2-.2-.2-.4-.3h-.2ZM179.7,143.4h-.2c-.1,0-.2-.2-.2-.3v-.4c0-.1.2-.2.3-.2h.3c.2.1.2.4.1.6,0,.1-.2.2-.3.2h0ZM179.7,142.8h.1c0-.1-.1,0-.1,0ZM234.4,141.1c-.3,0-.6-.1-.8-.4-.3-.4-.3-1,.1-1.4h0c.2-.2.4-.2.7-.2s.5.2.7.4.3.5.2.8c0,.2-.1.5-.4.6-.2.1-.4.2-.6.2h.1ZM234.3,139.5c-.1,0-.3,0-.4.1h0c-.2.2-.3.6,0,.9.2.3.6.3.9.1.1,0,.2-.2.2-.4s0-.4-.1-.5-.3-.2-.4-.2h-.2ZM181.6,140.8h-.2s-.1-.2-.1-.3v-.3s.2-.1.3-.1h.3c.2.1.2.4,0,.6h0s-.2.1-.3.1h0ZM181.6,140.3h0l.2.2h-.1v-.2h0ZM232.3,138.8c-.3,0-.5-.1-.7-.3-.4-.4-.4-1,0-1.4s.4-.3.7-.3h0c.3,0,.5.1.7.3s.3.5.3.8-.1.5-.3.7-.4.3-.7.3h0ZM232.2,137.1h0c-.2,0-.3,0-.4.2-.2.3-.2.7,0,.9s.7.3.9,0c.1-.1.2-.3.2-.4s0-.4-.2-.5c-.1-.1-.3-.2-.5-.2h0ZM183.7,138.4s-.2,0-.3-.1c0,0-.1-.2-.1-.3s0-.2.1-.3.2-.1.3-.1h0c.1,0,.2,0,.3.1s.1.4,0,.5-.2.1-.3.1h0ZM183.7,138h0ZM230,136.7c-.2,0-.5,0-.7-.2-.4-.4-.5-1-.1-1.5.2-.2.4-.4.7-.4s.6,0,.8.3c.2.2.4.4.4.7s0,.6-.2.8-.5.4-.8.4h0ZM230,134.9h0c-.2,0-.3.1-.4.2-.2.3-.2.7.1,1,.3.2.7.2,1,0,.1-.1.2-.3.2-.5s-.1-.4-.2-.5-.3-.2-.5-.2h-.2ZM185.9,136.2s-.2,0-.2-.1v-.2s0-.2.1-.2h.2c0,0,.2,0,.2.1v.2s0,.2-.1.2h-.2ZM186,135.9h0ZM185.9,135.8h0ZM185.9,135.8h0ZM227.6,134.8c-.2,0-.4,0-.6-.2h0c-.5-.3-.6-1-.3-1.5.1-.2.4-.4.7-.5.3,0,.6,0,.9.2.2.2.4.4.5.7,0,.3,0,.6-.2.8-.2.3-.5.4-.9.4h0ZM227.1,134.3c.3.2.8.2,1-.1.1-.1.2-.4.1-.6,0-.2-.1-.4-.3-.5s-.4-.2-.6-.1c-.2,0-.3.1-.4.3-.2.3-.1.8.2,1h0ZM188.4,134.2h0s-.1,0-.2-.1v-.4h.2s.1,0,.2.1v.4h-.2ZM188.3,133.8h0c0,.1-.1.1-.1.1h.1ZM188.4,133.8h0c0,0,0,.1,0,.1h0ZM225,133.1c-.2,0-.4,0-.6-.2-.5-.3-.7-1-.5-1.5.1-.3.4-.4.6-.5.3,0,.6,0,.9.1.3.2.5.4.5.7s0,.6-.1.9c-.2.4-.6.5-1,.5h.2ZM224.9,131.2h-.2c-.2,0-.3.2-.4.4-.2.4,0,.8.3,1h0c.4.2.8.1,1-.2.1-.2.1-.4,0-.6,0-.2-.2-.4-.4-.5-.1,0-.3-.1-.4-.1h0ZM191,132.4h0s-.1,0-.1-.1v-.2s0-.1.1-.2h.2s.1,0,.2.1v.4h-.4ZM190.9,132.1h0c0,.1,0,0,0,0h0v.2-.2h0ZM222.2,131.7c-.2,0-.3,0-.5-.1-.6-.3-.9-.9-.6-1.5.1-.3.3-.5.6-.6s.6-.1.9,0c.3.1.5.4.6.7s0,.6,0,.9c-.2.4-.6.7-1,.7h0ZM222.2,129.8h-.3c-.2,0-.4.2-.4.4-.2.4,0,.9.4,1.1h0c.4.2.9,0,1-.4,0-.2.1-.4,0-.6,0-.2-.2-.4-.4-.5h-.3ZM193.8,131h-.2c0-.2,0-.3.1-.4h.3c0,.1,0,.2-.1.3h-.1ZM193.8,130.7h0c0,.1.1,0,0,0h-.1.1ZM193.7,130.6s-.1.1,0,.2h.1v-.2h-.1Z"/>
    </g>
  </g>
  <g>
    <path class="st14" d="M246.7,121.9l-1.3,3.4h-.6l-1.3-3.4v3.4h-1.3v-5h1.8l1,2.8,1-2.8h1.8v5h-1.3v-3.4h.2Z"/>
    <path class="st14" d="M252.1,124.5h-2.1l-.2.8h-1.4l1.9-5h1.6l1.9,5h-1.4l-.2-.8h-.1ZM250.4,123.5h1.4l-.7-2-.7,2h0ZM250.6,119.9l1-1.1h1l-1.2,1.1h-.8Z"/>
    <path class="st14" d="M254.4,123.6c.4.4.9.7,1.6.7s.7-.2.7-.4-.3-.4-.9-.5c-.8-.2-2-.4-2-1.6s.7-1.6,2-1.6,1.5.2,2,.7l-.7.9c-.4-.3-1-.5-1.4-.5s-.6.2-.6.4.3.4.9.5c.8.2,2,.4,2,1.5s-.7,1.7-2.1,1.7-1.7-.3-2.2-.8l.7-1h0Z"/>
  </g>
  <g>
    <path class="st14" d="M242.3,127.8h3.7v1.1h-2.4v.8h2.3v1.1h-2.3v2h-1.3v-5h0Z"/>
    <path class="st14" d="M248.6,131.1h-.7v1.7h-1.3v-5h2.5c1.1,0,1.7.7,1.7,1.7s-.5,1.3-1,1.5l1,1.8h-1.5l-.8-1.7h.1ZM249,128.9h-1v1.1h1c.3,0,.6-.2.6-.6s-.3-.6-.6-.6h0Z"/>
    <path class="st14" d="M251.6,127.8h3.7v1.1h-2.4v.8h2.3v1.1h-2.3v.9h2.4v1.1h-3.7v-5h0Z"/>
    <path class="st14" d="M255.8,130.3c0-1.5,1.2-2.6,2.7-2.6s1.9.7,2.2,1.3l-1.1.5c-.2-.4-.6-.7-1.1-.7-.8,0-1.4.6-1.4,1.4s.6,1.4,1.4,1.4.9-.3,1.1-.7l1.1.5c-.3.6-1,1.3-2.2,1.3s-2.7-1.1-2.7-2.6v.2Z"/>
    <path class="st14" d="M261.2,127.8h1.3v2.9c0,.6.3,1,1,1s1-.4,1-1v-2.9h1.3v3c0,1.2-.7,2.1-2.3,2.1s-2.3-.9-2.3-2.1v-3h0Z"/>
    <path class="st14" d="M266.8,127.8h3.7v1.1h-2.4v.8h2.3v1.1h-2.3v.9h2.4v1.1h-3.7v-5h0Z"/>
    <path class="st14" d="M272.5,129.8v3h-1.3v-5h1.3l2,2.9v-2.9h1.3v5h-1.2l-2.1-3h0Z"/>
    <path class="st14" d="M277.9,128.9h-1.4v-1.1h4.1v1.1h-1.4v3.9h-1.3v-3.9h0Z"/>
    <path class="st14" d="M281.2,127.8h3.7v1.1h-2.4v.8h2.3v1.1h-2.3v.9h2.4v1.1h-3.7v-5h0Z"/>
    <path class="st14" d="M285.9,131.1c.4.4.9.7,1.6.7s.7-.2.7-.4-.3-.4-.9-.5c-.8-.2-2-.4-2-1.6s.7-1.6,2-1.6,1.5.2,2,.7l-.7.9c-.4-.3-1-.5-1.4-.5s-.6.2-.6.4.3.4.9.5c.8.2,2,.4,2,1.5s-.7,1.7-2.1,1.7-1.7-.3-2.2-.8l.7-1h0Z"/>
  </g>
  <g>
    <path class="st14" d="M154.7,136.2l-1.3,3.4h-.6l-1.3-3.4v3.4h-1.3v-5h1.8l1,2.8,1.1-2.8h1.8v5h-1.3v-3.4h.1Z"/>
    <path class="st14" d="M160.1,138.8h-2.1l-.2.8h-1.4l1.9-5h1.6l1.9,5h-1.4l-.2-.8h-.1ZM158.3,137.7h1.4l-.7-2-.7,2ZM158.6,134.2l.9-1.1h1l-1.2,1.1h-.8.1Z"/>
    <path class="st14" d="M162.4,137.9c.4.4.9.7,1.6.7s.7-.2.7-.4-.3-.4-.9-.5c-.8-.2-2-.4-2-1.6s.7-1.6,2-1.6,1.5.2,2,.7l-.7.9c-.4-.3-1-.5-1.4-.5s-.6.2-.6.4.3.4.9.5c.8.2,2,.4,2,1.5s-.7,1.7-2.1,1.7-1.7-.3-2.2-.8l.7-1h0Z"/>
  </g>
  <g>
    <path class="st14" d="M129.7,142.1h1.3v5h-1.3v-5Z"/>
    <path class="st14" d="M133.1,144.1v3h-1.3v-5h1.3l2,2.9v-2.9h1.3v5h-1.2l-2.1-3h0Z"/>
    <path class="st14" d="M138.5,143.2h-1.4v-1.1h4.1v1.1h-1.4v3.9h-1.3v-3.9h0Z"/>
    <path class="st14" d="M141.8,142.1h3.7v1.1h-2.4v.8h2.3v1.1h-2.3v.9h2.4v1.1h-3.7v-5h0Z"/>
    <path class="st14" d="M147.5,144.1v3h-1.3v-5h1.3l2,2.9v-2.9h1.3v5h-1.2l-2.1-3h0Z"/>
    <path class="st14" d="M152.1,145.4c.4.4.9.7,1.6.7s.7-.2.7-.4-.3-.4-.9-.5c-.8-.2-2-.4-2-1.6s.7-1.6,2-1.6,1.5.2,2,.7l-.7.9c-.4-.3-1-.5-1.4-.5s-.6.2-.6.4.3.4.9.5c.8.2,2,.4,2,1.5s-.7,1.7-2.1,1.7-1.7-.3-2.2-.8l.7-1h0Z"/>
    <path class="st14" d="M158.8,142c1.5,0,2.7,1.1,2.7,2.6s-1.1,2.6-2.7,2.6-2.7-1.1-2.7-2.6,1.1-2.6,2.7-2.6ZM158.8,143.1c-.8,0-1.4.6-1.4,1.4s.5,1.4,1.4,1.4,1.4-.6,1.4-1.4-.5-1.4-1.4-1.4Z"/>
    <path class="st14" d="M162.4,145.4c.4.4.9.7,1.6.7s.7-.2.7-.4-.3-.4-.9-.5c-.8-.2-2-.4-2-1.6s.7-1.6,2-1.6,1.5.2,2,.7l-.7.9c-.4-.3-1-.5-1.4-.5s-.6.2-.6.4.3.4.9.5c.8.2,2,.4,2,1.5s-.7,1.7-2.1,1.7-1.7-.3-2.2-.8l.7-1h0Z"/>
  </g>
</svg>