<?xml version="1.0" encoding="UTF-8"?>
<svg id="Layer_1" xmlns="http://www.w3.org/2000/svg" version="1.1" viewBox="0 0 530.2 281.8">
  <!-- Generator: Adobe Illustrator 29.7.1, SVG Export Plug-In . SVG Version: 2.1.1 Build 8)  -->
  <defs>
    <style>
      .st0 {
        fill: #00808d;
      }

      .st1 {
        fill: #fff;
      }

      .st2 {
        fill: #eb5f28;
      }

      .st3 {
        fill: #005059;
      }

      .st4 {
        fill: #00aabe;
      }
    </style>
  </defs>
  <polygon class="st3" points="361.2 129.6 170.8 129.6 126.2 71.6 266 71.6 405.8 71.6 361.2 129.6"/>
  <polygon class="st0" points="194.9 163.8 172.8 131.9 359.2 131.9 337.1 163.8 314.4 196.5 217.6 196.5 194.9 163.8"/>
  <polygon class="st4" points="311.3 199.8 266 269.9 220.7 199.8 311.3 199.8"/>
  <g>
    <path class="st1" d="M199.5,99.6h2.9c1.4,0,2.1.9,2.1,2s-.8,2-2.1,2h-1.6v2.2h-1.3v-6.3h0ZM202.2,100.7h-1.4v1.7h1.4c.5,0,.9-.3.9-.9s-.4-.9-.9-.9h0Z"/>
    <path class="st1" d="M205.3,101.3h1.2v.6c.3-.4.9-.7,1.4-.7v1.2h-.3c-.4,0-.9.2-1.1.5v3h-1.2v-4.5h0Z"/>
    <path class="st1" d="M210.7,101.2c1.4,0,2.3,1,2.3,2.5v.3h-3.4c0,.6.5,1.1,1.3,1.1s.9-.2,1.2-.5l.5.8c-.5.4-1.2.6-1.9.6-1.4,0-2.4-.9-2.4-2.4s1-2.4,2.3-2.4h0ZM209.6,103.1h2.2c0-.4-.3-1-1.1-1s-1.1.6-1.1,1h0Z"/>
    <path class="st1" d="M213.9,107.6v-6.3h1.2v.6c.3-.4.8-.7,1.4-.7,1.2,0,2,.9,2,2.4s-.8,2.4-2,2.4-1-.2-1.4-.7v2.3s-1.2,0-1.2,0ZM216.1,102.3c-.4,0-.8.2-1,.5v1.6c.2.3.6.5,1,.5.7,0,1.1-.5,1.1-1.3s-.5-1.3-1.1-1.3Z"/>
    <path class="st1" d="M222.1,105.4c-.3.4-.8.6-1.4.6s-1.6-.5-1.6-1.5.9-1.4,1.6-1.4,1.1.2,1.4.6v-.6c0-.5-.4-.8-1-.8s-.9.2-1.3.5l-.5-.8c.6-.5,1.3-.7,2-.7,1,0,2,.4,2,1.7v2.9h-1.2s0-.5,0-.5ZM222.1,104.2c-.2-.3-.6-.4-1-.4s-.9.3-.9.7.4.7.9.7.8,0,1-.4c0,0,0-.6,0-.6Z"/>
    <path class="st1" d="M224.5,101.3h1.2v.6c.3-.4.9-.7,1.4-.7v1.2h-.3c-.4,0-.9.2-1.1.5v3h-1.2v-4.5h0Z"/>
    <path class="st1" d="M230.6,105.4c-.3.4-.8.6-1.4.6s-1.6-.5-1.6-1.5.9-1.4,1.6-1.4,1.1.2,1.4.6v-.6c0-.5-.4-.8-1-.8s-.9.2-1.3.5l-.5-.8c.6-.5,1.3-.7,2-.7,1,0,2,.4,2,1.7v2.9h-1.2s0-.5,0-.5ZM230.6,104.2c-.2-.3-.6-.4-1-.4s-.9.3-.9.7.4.7.9.7.8,0,1-.4c0,0,0-.6,0-.6Z"/>
    <path class="st1" d="M232.9,101.3h1.2v.6c.3-.4.9-.7,1.4-.7v1.2h-.3c-.4,0-.9.2-1.1.5v3h-1.2v-4.5h0Z"/>
    <path class="st1" d="M236.5,104.4c.3.3,1,.6,1.6.6s.8-.2.8-.5-.4-.4-.9-.5c-.8-.2-1.8-.3-1.8-1.4s.7-1.4,1.9-1.4,1.4.3,1.8.6l-.5.8c-.3-.3-.8-.5-1.3-.5s-.7.2-.7.4.4.4.9.5c.8.2,1.8.4,1.8,1.5s-.7,1.5-2,1.5-1.5-.3-2-.7l.5-.8h-.1Z"/>
    <path class="st1" d="M242.9,101.2c1.4,0,2.3,1,2.3,2.5v.3h-3.4c0,.6.5,1.1,1.3,1.1s.9-.2,1.2-.5l.5.8c-.5.4-1.2.6-1.9.6-1.4,0-2.4-.9-2.4-2.4s1-2.4,2.3-2.4h0ZM241.8,103.1h2.2c0-.4-.3-1-1.1-1s-1.1.6-1.1,1h0Z"/>
    <path class="st1" d="M248.4,107.6v-6.3h1.2v.6c.3-.4.8-.7,1.4-.7,1.2,0,2,.9,2,2.4s-.8,2.4-2,2.4-1-.2-1.4-.7v2.3s-1.2,0-1.2,0ZM250.6,102.3c-.4,0-.8.2-1,.5v1.6c.2.3.6.5,1,.5.7,0,1.1-.5,1.1-1.3s-.5-1.3-1.1-1.3Z"/>
    <path class="st1" d="M256.6,105.4c-.3.4-.8.6-1.4.6s-1.6-.5-1.6-1.5.9-1.4,1.6-1.4,1.1.2,1.4.6v-.6c0-.5-.4-.8-1-.8s-.9.2-1.3.5l-.5-.8c.6-.5,1.3-.7,2-.7,1,0,2,.4,2,1.7v2.9h-1.2s0-.5,0-.5ZM256.6,104.2c-.2-.3-.6-.4-1-.4s-.9.3-.9.7.4.7.9.7.8,0,1-.4c0,0,0-.6,0-.6Z"/>
    <path class="st1" d="M259,101.3h1.2v.6c.3-.4.9-.7,1.4-.7v1.2h-.3c-.4,0-.9.2-1.1.5v3h-1.2v-4.5h0Z"/>
    <path class="st1" d="M265.1,105.4c-.3.4-.8.6-1.4.6s-1.6-.5-1.6-1.5.9-1.4,1.6-1.4,1.1.2,1.4.6v-.6c0-.5-.4-.8-1-.8s-.9.2-1.3.5l-.5-.8c.6-.5,1.3-.7,2-.7,1,0,2,.4,2,1.7v2.9h-1.2s0-.5,0-.5ZM265.1,104.2c-.2-.3-.6-.4-1-.4s-.9.3-.9.7.4.7.9.7.8,0,1-.4c0,0,0-.6,0-.6Z"/>
    <path class="st1" d="M269.9,99.6h1.2v6.3h-1.2v-6.3Z"/>
    <path class="st1" d="M272,103.6c0-1.3.9-2.4,2.4-2.4s2.4,1.1,2.4,2.4-.9,2.4-2.4,2.4-2.4-1.1-2.4-2.4ZM275.5,103.6c0-.7-.4-1.3-1.2-1.3s-1.2.6-1.2,1.3.4,1.3,1.2,1.3,1.2-.6,1.2-1.3Z"/>
    <path class="st1" d="M283.2,105.3c-.4.4-.9.7-1.4.7-1.1,0-2-.9-2-2.4s.9-2.4,2-2.4,1,.2,1.4.7v-2.3h1.2v6.3h-1.2s0-.6,0-.6ZM283.2,102.8c-.2-.3-.6-.5-1-.5-.7,0-1.1.5-1.1,1.3s.5,1.3,1.1,1.3.8-.2,1-.5v-1.6Z"/>
    <path class="st1" d="M287.6,101.2c1.4,0,2.3,1,2.3,2.5v.3h-3.4c0,.6.5,1.1,1.3,1.1s.9-.2,1.2-.5l.5.8c-.5.4-1.2.6-1.9.6-1.4,0-2.4-.9-2.4-2.4s1-2.4,2.3-2.4h.1ZM286.5,103.1h2.2c0-.4-.3-1-1.1-1s-1.1.6-1.1,1Z"/>
    <path class="st1" d="M290.9,104.4c.3.3,1,.6,1.6.6s.8-.2.8-.5-.4-.4-.9-.5c-.8-.2-1.8-.3-1.8-1.4s.7-1.4,1.9-1.4,1.4.3,1.8.6l-.5.8c-.3-.3-.8-.5-1.3-.5s-.7.2-.7.4.4.4.9.5c.8.2,1.8.4,1.8,1.5s-.7,1.5-2,1.5-1.5-.3-2-.7l.5-.8h0Z"/>
    <path class="st1" d="M297.4,101.2c.9,0,1.5.4,1.8.8l-.8.7c-.2-.3-.5-.5-1-.5s-1.2.5-1.2,1.3.5,1.3,1.2,1.3.7-.2,1-.5l.8.7c-.3.4-.9.8-1.8.8-1.4,0-2.4-1-2.4-2.4s1-2.4,2.4-2.4v.2Z"/>
    <path class="st1" d="M299.7,103.6c0-1.3.9-2.4,2.4-2.4s2.4,1.1,2.4,2.4-.9,2.4-2.4,2.4-2.4-1.1-2.4-2.4ZM303.2,103.6c0-.7-.4-1.3-1.2-1.3s-1.2.6-1.2,1.3.4,1.3,1.2,1.3,1.2-.6,1.2-1.3Z"/>
    <path class="st1" d="M308.4,103.1c0-.6-.3-.8-.8-.8s-.8.3-1,.5v3.1h-1.2v-4.5h1.2v.6c.3-.3.8-.7,1.6-.7s1.5.6,1.5,1.4v3.2h-1.2v-2.7h-.1Z"/>
    <path class="st1" d="M310.5,103.6c0-1.3.9-2.4,2.4-2.4s2.4,1.1,2.4,2.4-.9,2.4-2.4,2.4-2.4-1.1-2.4-2.4ZM314,103.6c0-.7-.4-1.3-1.2-1.3s-1.2.6-1.2,1.3.4,1.3,1.2,1.3,1.2-.6,1.2-1.3Z"/>
    <path class="st1" d="M318.3,101.2c.9,0,1.5.4,1.8.8l-.8.7c-.2-.3-.5-.5-1-.5s-1.2.5-1.2,1.3.5,1.3,1.2,1.3.7-.2,1-.5l.8.7c-.3.4-.9.8-1.8.8-1.4,0-2.4-1-2.4-2.4s1-2.4,2.4-2.4v.2Z"/>
    <path class="st1" d="M320.7,99.9c0-.4.3-.7.7-.7s.7.3.7.7-.3.7-.7.7-.7-.3-.7-.7ZM320.9,101.3h1.2v4.5h-1.2v-4.5Z"/>
    <path class="st1" d="M326.4,105.3c-.4.4-.9.7-1.4.7-1.1,0-2-.9-2-2.4s.9-2.4,2-2.4,1,.2,1.4.7v-2.3h1.2v6.3h-1.2s0-.6,0-.6ZM326.4,102.8c-.2-.3-.6-.5-1-.5-.7,0-1.1.5-1.1,1.3s.5,1.3,1.1,1.3.8-.2,1-.5v-1.6Z"/>
    <path class="st1" d="M328.5,103.6c0-1.3.9-2.4,2.4-2.4s2.4,1.1,2.4,2.4-.9,2.4-2.4,2.4-2.4-1.1-2.4-2.4ZM332,103.6c0-.7-.4-1.3-1.2-1.3s-1.2.6-1.2,1.3.4,1.3,1.2,1.3,1.2-.6,1.2-1.3Z"/>
  </g>
  <g>
    <path class="st1" d="M246.2,162h-1v2.2h-1.3v-6.3h2.9c1.3,0,2.1.9,2.1,2s-.7,1.7-1.4,1.9l1.4,2.4h-1.5l-1.2-2.2h0ZM246.6,159.2h-1.4v1.7h1.4c.5,0,.9-.3.9-.9s-.4-.9-.9-.9h0Z"/>
    <path class="st1" d="M251.7,159.6c1.4,0,2.3,1,2.3,2.5v.3h-3.4c0,.6.5,1.1,1.3,1.1s.9-.2,1.2-.5l.5.8c-.5.4-1.2.6-1.9.6-1.4,0-2.4-.9-2.4-2.4s1-2.4,2.3-2.4h0ZM250.6,161.6h2.2c0-.4-.3-1-1.1-1s-1.1.6-1.1,1h0Z"/>
    <path class="st1" d="M255,162.9c.3.3,1,.6,1.6.6s.8-.2.8-.5-.4-.4-.9-.5c-.8-.2-1.8-.3-1.8-1.4s.7-1.4,1.9-1.4,1.4.3,1.8.6l-.5.8c-.3-.3-.8-.5-1.3-.5s-.7.2-.7.4.4.4.9.5c.8.2,1.8.4,1.8,1.5s-.7,1.5-2,1.5-1.5-.3-2-.7l.5-.8h0Z"/>
    <path class="st1" d="M259.3,166v-6.3h1.2v.6c.3-.4.8-.7,1.4-.7,1.2,0,2,.9,2,2.4s-.8,2.4-2,2.4-1-.2-1.4-.7v2.3h-1.2ZM261.5,160.7c-.4,0-.8.2-1,.5v1.6c.2.3.6.5,1,.5.7,0,1.1-.5,1.1-1.3s-.5-1.3-1.1-1.3Z"/>
    <path class="st1" d="M264.5,162c0-1.3.9-2.4,2.4-2.4s2.4,1.1,2.4,2.4-.9,2.4-2.4,2.4-2.4-1.1-2.4-2.4ZM268.1,162c0-.7-.4-1.3-1.2-1.3s-1.2.6-1.2,1.3.4,1.3,1.2,1.3,1.2-.6,1.2-1.3Z"/>
    <path class="st1" d="M273.3,161.5c0-.6-.3-.8-.8-.8s-.8.3-1,.5v3.1h-1.2v-4.5h1.2v.6c.3-.3.8-.7,1.6-.7s1.5.6,1.5,1.4v3.2h-1.2v-2.7h-.1Z"/>
    <path class="st1" d="M278.8,163.7c-.4.4-.9.7-1.4.7-1.1,0-2-.9-2-2.4s.9-2.4,2-2.4,1,.2,1.4.7v-2.3h1.2v6.3h-1.2v-.6ZM278.8,161.2c-.2-.3-.6-.5-1-.5-.7,0-1.1.5-1.1,1.3s.5,1.3,1.1,1.3.8-.2,1-.5v-1.6Z"/>
    <path class="st1" d="M283.2,159.6c1.4,0,2.3,1,2.3,2.5v.3h-3.4c0,.6.5,1.1,1.3,1.1s.9-.2,1.2-.5l.5.8c-.5.4-1.2.6-1.9.6-1.4,0-2.4-.9-2.4-2.4s1-2.4,2.3-2.4h.1ZM282.1,161.6h2.2c0-.4-.3-1-1.1-1s-1.1.6-1.1,1Z"/>
    <path class="st1" d="M286.4,159.7h1.2v.6c.3-.4.9-.7,1.4-.7v1.2h-.3c-.4,0-.9.2-1.1.5v3h-1.2v-4.5h0Z"/>
  </g>
  <g>
    <path class="st1" d="M242.5,212.7h-1v2.2h-1.3v-6.3h2.9c1.3,0,2.1.9,2.1,2s-.7,1.7-1.4,1.9l1.4,2.4h-1.5l-1.2-2.2h0ZM242.9,209.8h-1.4v1.7h1.4c.5,0,.9-.3.9-.9s-.4-.9-.9-.9h0Z"/>
    <path class="st1" d="M248,210.3c1.4,0,2.3,1,2.3,2.5v.3h-3.4c0,.6.5,1.1,1.3,1.1s.9-.2,1.2-.5l.5.8c-.5.4-1.2.6-1.9.6-1.4,0-2.4-.9-2.4-2.4s1-2.4,2.3-2.4h0ZM246.9,212.2h2.2c0-.4-.3-1-1.1-1s-1.1.6-1.1,1h0Z"/>
    <path class="st1" d="M253.2,210.3c.9,0,1.5.4,1.8.8l-.8.7c-.2-.3-.5-.5-1-.5s-1.2.5-1.2,1.3.5,1.3,1.2,1.3.7-.2,1-.5l.8.7c-.3.4-.9.8-1.8.8-1.4,0-2.4-1-2.4-2.4s1-2.4,2.4-2.4v.2Z"/>
    <path class="st1" d="M258.9,214.3c-.3.3-.9.7-1.6.7s-1.5-.5-1.5-1.4v-3.2h1.2v2.8c0,.6.3.8.8.8s.8-.3,1-.5v-3.1h1.2v4.5h-1.2v-.6h.1Z"/>
    <path class="st1" d="M261.2,216.6v-6.3h1.2v.6c.3-.4.8-.7,1.4-.7,1.2,0,2,.9,2,2.4s-.8,2.4-2,2.4-1-.2-1.4-.7v2.3h-1.2ZM263.5,211.3c-.4,0-.8.2-1,.5v1.6c.2.3.6.5,1,.5.7,0,1.1-.5,1.1-1.3s-.5-1.3-1.1-1.3Z"/>
    <path class="st1" d="M268.8,210.3c1.4,0,2.3,1,2.3,2.5v.3h-3.4c0,.6.5,1.1,1.3,1.1s.9-.2,1.2-.5l.5.8c-.5.4-1.2.6-1.9.6-1.4,0-2.4-.9-2.4-2.4s1-2.4,2.3-2.4h.1ZM267.7,212.2h2.2c0-.4-.3-1-1.1-1s-1.1.6-1.1,1Z"/>
    <path class="st1" d="M271.9,210.4h1.2v.6c.3-.4.9-.7,1.4-.7v1.2h-.3c-.4,0-.9.2-1.1.5v3h-1.2v-4.5h0Z"/>
    <path class="st1" d="M278,214.4c-.3.4-.8.6-1.4.6s-1.6-.5-1.6-1.5.9-1.4,1.6-1.4,1.1.2,1.4.6v-.6c0-.5-.4-.8-1-.8s-.9.2-1.3.5l-.5-.8c.6-.5,1.3-.7,2-.7,1,0,2,.4,2,1.7v2.9h-1.2v-.5ZM278,213.2c-.2-.3-.6-.4-1-.4s-.9.3-.9.7.4.7.9.7.8-.1,1-.4v-.6Z"/>
    <path class="st1" d="M280.4,210.4h1.2v.6c.3-.4.9-.7,1.4-.7v1.2h-.3c-.4,0-.9.2-1.1.5v3h-1.2v-4.5h0Z"/>
    <path class="st1" d="M283.9,213.5c.3.3,1,.6,1.6.6s.8-.2.8-.5-.4-.4-.9-.5c-.8-.2-1.8-.3-1.8-1.4s.7-1.4,1.9-1.4,1.4.3,1.8.6l-.5.8c-.3-.3-.8-.5-1.3-.5s-.7.2-.7.4.4.4.9.5c.8.2,1.8.4,1.8,1.5s-.7,1.5-2,1.5-1.5-.3-2-.7l.5-.8h0Z"/>
    <path class="st1" d="M290.3,210.3c1.4,0,2.3,1,2.3,2.5v.3h-3.4c0,.6.5,1.1,1.3,1.1s.9-.2,1.2-.5l.5.8c-.5.4-1.2.6-1.9.6-1.4,0-2.4-.9-2.4-2.4s1-2.4,2.3-2.4h.1ZM289.2,212.2h2.2c0-.4-.3-1-1.1-1s-1.1.6-1.1,1Z"/>
  </g>
  <path class="st1" d="M264.8,224.3c.3,0,.5,0,.6-.3l.2-.4-1.8-4.6h1.3l1.2,3.2,1.2-3.2h1.3l-2.1,5.3c-.3.9-.9,1.1-1.7,1.1h-.6l.2-1.1h.4-.2Z"/>
  <g>
    <path class="st1" d="M246.2,233.9v-6.3h1.2v.6c.3-.4.8-.7,1.4-.7,1.2,0,2,.9,2,2.4s-.8,2.4-2,2.4-1-.2-1.4-.7v2.3h-1.2ZM248.4,228.6c-.4,0-.8.2-1,.5v1.6c.2.3.6.5,1,.5.7,0,1.1-.5,1.1-1.3s-.5-1.3-1.1-1.3Z"/>
    <path class="st1" d="M251.7,227.6h1.2v.6c.3-.4.9-.7,1.4-.7v1.2h-.3c-.4,0-.9.2-1.1.5v3h-1.2v-4.5h0Z"/>
    <path class="st1" d="M254.7,229.9c0-1.3.9-2.4,2.4-2.4s2.4,1.1,2.4,2.4-.9,2.4-2.4,2.4-2.4-1.1-2.4-2.4h0ZM258.3,229.9c0-.7-.4-1.3-1.2-1.3s-1.2.6-1.2,1.3.4,1.3,1.2,1.3,1.2-.6,1.2-1.3Z"/>
    <path class="st1" d="M260.6,230.7c.3.3,1,.6,1.6.6s.8-.2.8-.5-.4-.4-.9-.5c-.8-.2-1.8-.3-1.8-1.4s.7-1.4,1.9-1.4,1.4.3,1.8.6l-.5.8c-.3-.3-.8-.5-1.3-.5s-.7.2-.7.4.4.4.9.5c.8.2,1.8.4,1.8,1.5s-.7,1.5-2,1.5-1.5-.3-2-.7l.5-.8h0Z"/>
    <path class="st1" d="M264.9,233.9v-6.3h1.2v.6c.3-.4.8-.7,1.4-.7,1.2,0,2,.9,2,2.4s-.8,2.4-2,2.4-1-.2-1.4-.7v2.3h-1.2ZM267.1,228.6c-.4,0-.8.2-1,.5v1.6c.2.3.6.5,1,.5.7,0,1.1-.5,1.1-1.3s-.5-1.3-1.1-1.3Z"/>
    <path class="st1" d="M272.5,227.5c1.4,0,2.3,1,2.3,2.5v.3h-3.4c0,.6.5,1.1,1.3,1.1s.9-.2,1.2-.5l.5.8c-.5.4-1.2.6-1.9.6-1.4,0-2.4-.9-2.4-2.4s1-2.4,2.3-2.4h.1ZM271.3,229.5h2.2c0-.4-.3-1-1.1-1s-1.1.6-1.1,1Z"/>
    <path class="st1" d="M275.6,227.6h1.2v.6c.3-.4.9-.7,1.4-.7v1.2h-.3c-.4,0-.9.2-1.1.5v3h-1.2v-4.5h0Z"/>
    <path class="st1" d="M281.7,231.7c-.3.4-.8.6-1.4.6s-1.6-.5-1.6-1.5.9-1.4,1.6-1.4,1.1.2,1.4.6v-.6c0-.5-.4-.8-1-.8s-.9.2-1.3.5l-.5-.8c.6-.5,1.3-.7,2-.7,1,0,2,.4,2,1.7v2.9h-1.2v-.5ZM281.7,230.5c-.2-.3-.6-.4-1-.4s-.9.3-.9.7.4.7.9.7.8-.1,1-.4v-.6Z"/>
    <path class="st1" d="M284.1,227.6h1.2v.6c.3-.4.9-.7,1.4-.7v1.2h-.3c-.4,0-.9.2-1.1.5v3h-1.2v-4.5h0Z"/>
  </g>
  <polygon class="st2" points="157.8 23.2 157.8 82.9 227.7 59.9 227.7 23.2 157.8 23.2"/>
  <polygon class="st2" points="308.4 23 308.4 82.4 378.3 60.3 378.3 23 308.4 23"/>
  <polygon class="st2" points="233.1 23.2 233.1 82.9 303 59.9 303 23.2 233.1 23.2"/>
  <g>
    <path class="st1" d="M312.4,37.5h1.3v6.3h-1.3v-6.3Z"/>
    <path class="st1" d="M318,41c0-.6-.3-.8-.8-.8s-.8.3-1,.5v3.1h-1.2v-4.5h1.2v.6c.3-.3.8-.7,1.6-.7s1.5.6,1.5,1.4v3.2h-1.2v-2.7h-.1Z"/>
    <path class="st1" d="M320.6,40.3h-.8v-1h.8v-.2c0-1,.6-1.6,1.5-1.6s.6,0,.9.2l-.2.8h-.4c-.3,0-.6.2-.6.7v.2h.9v1h-.9v3.5h-1.2v-3.5h0Z"/>
    <path class="st1" d="M323.5,39.3h1.2v.6c.3-.4.9-.7,1.4-.7v1.2h-.3c-.4,0-.9.2-1.1.5v3h-1.2v-4.5h0Z"/>
    <path class="st1" d="M329.6,43.3c-.3.4-.8.6-1.4.6s-1.6-.5-1.6-1.5.9-1.4,1.6-1.4,1.1.2,1.4.6v-.6c0-.5-.4-.8-1-.8s-.9.2-1.3.5l-.5-.8c.6-.5,1.3-.7,2-.7,1,0,2,.4,2,1.7v2.9h-1.2v-.5ZM329.6,42.1c-.2-.3-.6-.4-1-.4s-.9.3-.9.7.4.7.9.7.8,0,1-.4v-.6Z"/>
    <path class="st1" d="M334,39.1c1.4,0,2.3,1,2.3,2.5v.3h-3.4c0,.6.5,1.1,1.3,1.1s.9-.2,1.2-.5l.5.8c-.5.4-1.2.6-1.9.6-1.4,0-2.4-.9-2.4-2.4s1-2.4,2.3-2.4h.1ZM332.9,41.1h2.2c0-.4-.3-1-1.1-1s-1.1.6-1.1,1Z"/>
    <path class="st1" d="M337.3,42.4c.3.3,1,.6,1.6.6s.8-.2.8-.5-.4-.4-.9-.5c-.8-.2-1.8-.3-1.8-1.4s.7-1.4,1.9-1.4,1.4.3,1.8.6l-.5.8c-.3-.3-.8-.5-1.3-.5s-.7.2-.7.4.4.4.9.5c.8.2,1.8.4,1.8,1.5s-.7,1.5-2,1.5-1.5-.3-2-.7l.5-.8h0Z"/>
    <path class="st1" d="M341.9,42.7v-2.4h-.8v-1h.8v-1.2h1.2v1.2h.9v1h-.9v2c0,.3.2.5.4.5s.3,0,.4,0l.3.9c-.2.2-.5.3-1,.3-.8,0-1.3-.4-1.3-1.2Z"/>
    <path class="st1" d="M344.8,39.3h1.2v.6c.3-.4.9-.7,1.4-.7v1.2h-.3c-.4,0-.9.2-1.1.5v3h-1.2v-4.5h0Z"/>
    <path class="st1" d="M351.2,43.2c-.3.3-.9.7-1.6.7s-1.5-.5-1.5-1.4v-3.2h1.2v2.8c0,.6.3.8.8.8s.8-.3,1-.5v-3.1h1.2v4.5h-1.2v-.6h.1Z"/>
    <path class="st1" d="M355.7,39.1c.9,0,1.5.4,1.8.8l-.8.7c-.2-.3-.5-.5-1-.5s-1.2.5-1.2,1.3.5,1.3,1.2,1.3.7-.2,1-.5l.8.7c-.3.4-.9.8-1.8.8-1.4,0-2.4-1-2.4-2.4s1-2.4,2.4-2.4v.2Z"/>
    <path class="st1" d="M358.5,42.7v-2.4h-.8v-1h.8v-1.2h1.2v1.2h.9v1h-.9v2c0,.3.2.5.4.5s.3,0,.4,0l.3.9c-.2.2-.5.3-1,.3-.8,0-1.3-.4-1.3-1.2Z"/>
    <path class="st1" d="M364.5,43.2c-.3.3-.9.7-1.6.7s-1.5-.5-1.5-1.4v-3.2h1.2v2.8c0,.6.3.8.8.8s.8-.3,1-.5v-3.1h1.2v4.5h-1.2v-.6h.1Z"/>
    <path class="st1" d="M366.9,39.3h1.2v.6c.3-.4.9-.7,1.4-.7v1.2h-.3c-.4,0-.9.2-1.1.5v3h-1.2v-4.5h0Z"/>
    <path class="st1" d="M373,43.3c-.3.4-.8.6-1.4.6s-1.6-.5-1.6-1.5.9-1.4,1.6-1.4,1.1.2,1.4.6v-.6c0-.5-.4-.8-1-.8s-.9.2-1.3.5l-.5-.8c.6-.5,1.3-.7,2-.7,1,0,2,.4,2,1.7v2.9h-1.2v-.5ZM373,42.1c-.2-.3-.6-.4-1-.4s-.9.3-.9.7.4.7.9.7.8,0,1-.4v-.6Z"/>
  </g>
  <g>
    <path class="st1" d="M243,37.5h1.3v6.3h-1.3v-6.3Z"/>
    <path class="st1" d="M248.6,41c0-.6-.3-.8-.8-.8s-.8.3-1,.5v3.1h-1.2v-4.5h1.2v.6c.3-.3.8-.7,1.6-.7s1.5.6,1.5,1.4v3.2h-1.2v-2.7h-.1Z"/>
    <path class="st1" d="M251.1,42.4c.3.3,1,.6,1.6.6s.8-.2.8-.5-.4-.4-.9-.5c-.8-.2-1.8-.3-1.8-1.4s.7-1.4,1.9-1.4,1.4.3,1.8.6l-.5.8c-.3-.3-.8-.5-1.3-.5s-.7.2-.7.4.4.4.9.5c.8.2,1.8.4,1.8,1.5s-.7,1.5-2,1.5-1.5-.3-2-.7l.5-.8h-.1Z"/>
    <path class="st1" d="M255.7,42.7v-2.4h-.8v-1h.8v-1.2h1.2v1.2h.9v1h-.9v2c0,.3.2.5.4.5s.3,0,.4,0l.3.9c-.2.2-.5.3-1,.3-.8,0-1.3-.4-1.3-1.2h0Z"/>
    <path class="st1" d="M258.6,37.9c0-.4.3-.7.7-.7s.7.3.7.7-.3.7-.7.7-.7-.3-.7-.7ZM258.7,39.3h1.2v4.5h-1.2v-4.5Z"/>
    <path class="st1" d="M261.3,42.7v-2.4h-.8v-1h.8v-1.2h1.2v1.2h.9v1h-.9v2c0,.3.2.5.4.5s.3,0,.4,0l.3.9c-.2.2-.5.3-1,.3-.8,0-1.3-.4-1.3-1.2Z"/>
    <path class="st1" d="M267.3,43.2c-.3.3-.9.7-1.6.7s-1.5-.5-1.5-1.4v-3.2h1.2v2.8c0,.6.3.8.8.8s.8-.3,1-.5v-3.1h1.2v4.5h-1.2v-.6h.1Z"/>
    <path class="st1" d="M271.8,39.1c.9,0,1.5.4,1.8.8l-.8.7c-.2-.3-.5-.5-1-.5s-1.2.5-1.2,1.3.5,1.3,1.2,1.3.7-.2,1-.5l.8.7c-.3.4-.9.8-1.8.8-1.4,0-2.4-1-2.4-2.4s1-2.4,2.4-2.4v.2Z"/>
    <path class="st1" d="M274.2,37.9c0-.4.3-.7.7-.7s.7.3.7.7-.3.7-.7.7-.7-.3-.7-.7ZM274.4,39.3h1.2v4.5h-1.2v-4.5Z"/>
    <path class="st1" d="M276.4,41.5c0-1.3.9-2.4,2.4-2.4s2.4,1.1,2.4,2.4-.9,2.4-2.4,2.4-2.4-1.1-2.4-2.4ZM280,41.5c0-.7-.4-1.3-1.2-1.3s-1.2.6-1.2,1.3.4,1.3,1.2,1.3,1.2-.6,1.2-1.3Z"/>
    <path class="st1" d="M285.2,41c0-.6-.3-.8-.8-.8s-.8.3-1,.5v3.1h-1.2v-4.5h1.2v.6c.3-.3.8-.7,1.6-.7s1.5.6,1.5,1.4v3.2h-1.2v-2.7h-.1Z"/>
    <path class="st1" d="M289.6,39.1c1.4,0,2.3,1,2.3,2.5v.3h-3.4c0,.6.5,1.1,1.3,1.1s.9-.2,1.2-.5l.5.8c-.5.4-1.2.6-1.9.6-1.4,0-2.4-.9-2.4-2.4s1-2.4,2.3-2.4h.1ZM288.5,41.1h2.2c0-.4-.3-1-1.1-1s-1.1.6-1.1,1Z"/>
    <path class="st1" d="M292.9,42.4c.3.3,1,.6,1.6.6s.8-.2.8-.5-.4-.4-.9-.5c-.8-.2-1.8-.3-1.8-1.4s.7-1.4,1.9-1.4,1.4.3,1.8.6l-.5.8c-.3-.3-.8-.5-1.3-.5s-.7.2-.7.4.4.4.9.5c.8.2,1.8.4,1.8,1.5s-.7,1.5-2,1.5-1.5-.3-2-.7l.5-.8h0Z"/>
  </g>
  <g>
    <path class="st1" d="M165.1,37.5h1.3v6.3h-1.3v-6.3Z"/>
    <path class="st1" d="M170.7,41c0-.6-.3-.8-.8-.8s-.8.3-1,.5v3.1h-1.2v-4.5h1.2v.6c.3-.3.8-.7,1.6-.7s1.5.6,1.5,1.4v3.2h-1.2v-2.7h-.1Z"/>
    <path class="st1" d="M173.2,42.4c.3.3,1,.6,1.6.6s.8-.2.8-.5-.4-.4-.9-.5c-.8-.2-1.8-.3-1.8-1.4s.7-1.4,1.9-1.4,1.4.3,1.8.6l-.5.8c-.3-.3-.8-.5-1.3-.5s-.7.2-.7.4.4.4.9.5c.8.2,1.8.4,1.8,1.5s-.7,1.5-2,1.5-1.5-.3-2-.7l.5-.8h-.1Z"/>
    <path class="st1" d="M177.8,42.7v-2.4h-.8v-1h.8v-1.2h1.2v1.2h.9v1h-.9v2c0,.3.2.5.4.5s.3,0,.4,0l.3.9c-.2.2-.5.3-1,.3-.8,0-1.3-.4-1.3-1.2h0Z"/>
    <path class="st1" d="M180.8,39.3h1.2v.6c.3-.4.9-.7,1.4-.7v1.2h-.3c-.4,0-.9.2-1.1.5v3h-1.2v-4.5h0Z"/>
    <path class="st1" d="M187.2,43.2c-.3.3-.9.7-1.6.7s-1.5-.5-1.5-1.4v-3.2h1.2v2.8c0,.6.3.8.8.8s.8-.3,1-.5v-3.1h1.2v4.5h-1.2v-.6h.1Z"/>
    <path class="st1" d="M195.2,40.9c0-.4-.2-.7-.7-.7s-.8.3-.9.5v3.1h-1.2v-2.9c0-.4-.2-.7-.7-.7s-.8.3-.9.5v3.1h-1.2v-4.5h1.2v.6c.2-.3.8-.7,1.5-.7s1.1.3,1.3.8c.3-.4.9-.8,1.6-.8s1.3.4,1.3,1.4v3.3h-1.2v-2.9h-.1Z"/>
    <path class="st1" d="M199.6,39.1c1.4,0,2.3,1,2.3,2.5v.3h-3.4c0,.6.5,1.1,1.3,1.1s.9-.2,1.2-.5l.5.8c-.5.4-1.2.6-1.9.6-1.4,0-2.4-.9-2.4-2.4s1-2.4,2.3-2.4h0ZM198.5,41.1h2.2c0-.4-.3-1-1.1-1s-1.1.6-1.1,1h0Z"/>
    <path class="st1" d="M205.8,41c0-.6-.3-.8-.8-.8s-.8.3-1,.5v3.1h-1.2v-4.5h1.2v.6c.3-.3.8-.7,1.6-.7s1.5.6,1.5,1.4v3.2h-1.2v-2.7h-.1Z"/>
    <path class="st1" d="M208.4,42.7v-2.4h-.8v-1h.8v-1.2h1.2v1.2h.9v1h-.9v2c0,.3.2.5.4.5s.3,0,.4,0l.3.9c-.2.2-.5.3-1,.3-.8,0-1.3-.4-1.3-1.2h0Z"/>
    <path class="st1" d="M211.1,41.5c0-1.3.9-2.4,2.4-2.4s2.4,1.1,2.4,2.4-.9,2.4-2.4,2.4-2.4-1.1-2.4-2.4ZM214.7,41.5c0-.7-.4-1.3-1.2-1.3s-1.2.6-1.2,1.3.4,1.3,1.2,1.3,1.2-.6,1.2-1.3Z"/>
    <path class="st1" d="M216.9,42.4c.3.3,1,.6,1.6.6s.8-.2.8-.5-.4-.4-.9-.5c-.8-.2-1.8-.3-1.8-1.4s.7-1.4,1.9-1.4,1.4.3,1.8.6l-.5.8c-.3-.3-.8-.5-1.3-.5s-.7.2-.7.4.4.4.9.5c.8.2,1.8.4,1.8,1.5s-.7,1.5-2,1.5-1.5-.3-2-.7l.5-.8h-.1Z"/>
  </g>
</svg>