<?xml version="1.0" encoding="UTF-8"?>
<svg id="Layer_1" xmlns="http://www.w3.org/2000/svg" version="1.1" viewBox="0 0 467.3 281.8">
  <!-- Generator: Adobe Illustrator 29.7.1, SVG Export Plug-In . SVG Version: 2.1.1 Build 8)  -->
  <defs>
    <style>
      .st0 {
        fill: #00808d;
      }

      .st1 {
        fill: #fff;
      }

      .st2 {
        fill: #eb5f28;
      }

      .st3 {
        fill: #005059;
      }

      .st4 {
        fill: #00aabe;
      }
    </style>
  </defs>
  <polygon class="st3" points="338.3 122.5 130.8 122.5 82.2 59.3 234.5 59.3 386.9 59.3 338.3 122.5"/>
  <polygon class="st0" points="157.1 159.8 133 125 336.1 125 312 159.8 287.3 195.4 181.8 195.4 157.1 159.8"/>
  <polygon class="st4" points="283.9 199 234.5 275.4 185.2 199 283.9 199"/>
  <g>
    <path class="st1" d="M162.1,89.9h3.2c1.5,0,2.3,1,2.3,2.2s-.9,2.2-2.3,2.2h-1.7v2.4h-1.4v-6.9h0ZM165,91.1h-1.5v1.9h1.5c.5,0,1-.3,1-1s-.4-1-1-1h0Z"/>
    <path class="st1" d="M168.4,91.7h1.3v.7c.3-.4,1-.8,1.5-.8v1.3h-.3c-.4,0-1,.2-1.2.5v3.3h-1.3v-4.9h0Z"/>
    <path class="st1" d="M174.3,91.6c1.5,0,2.5,1.1,2.5,2.7v.3h-3.7c0,.7.5,1.2,1.4,1.2s1-.2,1.3-.5l.5.9c-.5.4-1.3.7-2.1.7-1.5,0-2.6-1-2.6-2.6s1.1-2.6,2.5-2.6h.1ZM173.1,93.7h2.4c0-.4-.3-1.1-1.2-1.1s-1.2.7-1.2,1.1h0Z"/>
    <path class="st1" d="M177.8,98.6v-6.9h1.3v.7c.3-.4.9-.8,1.5-.8,1.3,0,2.2,1,2.2,2.6s-.9,2.6-2.2,2.6-1.1-.2-1.5-.8v2.5s-1.3,0-1.3,0ZM180.2,92.8c-.4,0-.9.2-1.1.5v1.7c.2.3.7.5,1.1.5.8,0,1.2-.5,1.2-1.4s-.5-1.4-1.2-1.4Z"/>
    <path class="st1" d="M186.7,96.2c-.3.4-.9.7-1.5.7s-1.7-.5-1.7-1.6,1-1.5,1.7-1.5,1.2.2,1.5.7v-.7c0-.5-.4-.9-1.1-.9s-1,.2-1.4.5l-.5-.9c.7-.5,1.4-.8,2.2-.8,1.1,0,2.2.4,2.2,1.9v3.2h-1.3s0-.5,0-.5ZM186.7,94.9c-.2-.3-.7-.4-1.1-.4s-1,.3-1,.8.4.8,1,.8.9,0,1.1-.4c0,0,0-.7,0-.7Z"/>
    <path class="st1" d="M189.3,91.7h1.3v.7c.3-.4,1-.8,1.5-.8v1.3h-.3c-.4,0-1,.2-1.2.5v3.3h-1.3v-4.9h0Z"/>
    <path class="st1" d="M196,96.2c-.3.4-.9.7-1.5.7s-1.7-.5-1.7-1.6,1-1.5,1.7-1.5,1.2.2,1.5.7v-.7c0-.5-.4-.9-1.1-.9s-1,.2-1.4.5l-.5-.9c.7-.5,1.4-.8,2.2-.8,1.1,0,2.2.4,2.2,1.9v3.2h-1.3s0-.5,0-.5ZM196,94.9c-.2-.3-.7-.4-1.1-.4s-1,.3-1,.8.4.8,1,.8.9,0,1.1-.4c0,0,0-.7,0-.7Z"/>
    <path class="st1" d="M198.5,91.7h1.3v.7c.3-.4,1-.8,1.5-.8v1.3h-.3c-.4,0-1,.2-1.2.5v3.3h-1.3v-4.9h0Z"/>
    <path class="st1" d="M202.4,95.1c.3.3,1.1.7,1.7.7s.9-.2.9-.5-.4-.4-1-.5c-.9-.2-2-.3-2-1.5s.8-1.5,2.1-1.5,1.5.3,2,.7l-.5.9c-.3-.3-.9-.5-1.4-.5s-.8.2-.8.4.4.4,1,.5c.9.2,2,.4,2,1.6s-.8,1.6-2.2,1.6-1.6-.3-2.2-.8l.5-.9h-.1Z"/>
    <path class="st1" d="M209.4,91.6c1.5,0,2.5,1.1,2.5,2.7v.3h-3.7c0,.7.5,1.2,1.4,1.2s1-.2,1.3-.5l.5.9c-.5.4-1.3.7-2.1.7-1.5,0-2.6-1-2.6-2.6s1.1-2.6,2.5-2.6h.1ZM208.2,93.7h2.4c0-.4-.3-1.1-1.2-1.1s-1.2.7-1.2,1.1h0Z"/>
    <path class="st1" d="M215.4,98.6v-6.9h1.3v.7c.3-.4.9-.8,1.5-.8,1.3,0,2.2,1,2.2,2.6s-.9,2.6-2.2,2.6-1.1-.2-1.5-.8v2.5s-1.3,0-1.3,0ZM217.8,92.8c-.4,0-.9.2-1.1.5v1.7c.2.3.7.5,1.1.5.8,0,1.2-.5,1.2-1.4s-.5-1.4-1.2-1.4Z"/>
    <path class="st1" d="M224.3,96.2c-.3.4-.9.7-1.5.7s-1.7-.5-1.7-1.6,1-1.5,1.7-1.5,1.2.2,1.5.7v-.7c0-.5-.4-.9-1.1-.9s-1,.2-1.4.5l-.5-.9c.7-.5,1.4-.8,2.2-.8,1.1,0,2.2.4,2.2,1.9v3.2h-1.3v-.5h0ZM224.3,94.9c-.2-.3-.7-.4-1.1-.4s-1,.3-1,.8.4.8,1,.8.9,0,1.1-.4c0,0,0-.7,0-.7Z"/>
    <path class="st1" d="M226.9,91.7h1.3v.7c.3-.4,1-.8,1.5-.8v1.3h-.3c-.4,0-1,.2-1.2.5v3.3h-1.3v-4.9h0Z"/>
    <path class="st1" d="M233.6,96.2c-.3.4-.9.7-1.5.7s-1.7-.5-1.7-1.6,1-1.5,1.7-1.5,1.2.2,1.5.7v-.7c0-.5-.4-.9-1.1-.9s-1,.2-1.4.5l-.5-.9c.7-.5,1.4-.8,2.2-.8,1.1,0,2.2.4,2.2,1.9v3.2h-1.3s0-.5,0-.5ZM233.6,94.9c-.2-.3-.7-.4-1.1-.4s-1,.3-1,.8.4.8,1,.8.9,0,1.1-.4c0,0,0-.7,0-.7Z"/>
    <path class="st1" d="M238.8,89.9h1.3v6.9h-1.3v-6.9Z"/>
    <path class="st1" d="M241.1,94.2c0-1.4,1-2.6,2.6-2.6s2.6,1.2,2.6,2.6-1,2.6-2.6,2.6-2.6-1.2-2.6-2.6ZM244.9,94.2c0-.8-.4-1.4-1.3-1.4s-1.3.7-1.3,1.4.4,1.4,1.3,1.4,1.3-.7,1.3-1.4Z"/>
    <path class="st1" d="M253.3,96.1c-.4.4-1,.8-1.5.8-1.2,0-2.2-1-2.2-2.6s1-2.6,2.2-2.6,1.1.2,1.5.8v-2.5h1.3v6.9h-1.3s0-.7,0-.7ZM253.3,93.3c-.2-.3-.7-.5-1.1-.5-.8,0-1.2.5-1.2,1.4s.5,1.4,1.2,1.4.9-.2,1.1-.5v-1.7Z"/>
    <path class="st1" d="M258.1,91.6c1.5,0,2.5,1.1,2.5,2.7v.3h-3.7c0,.7.5,1.2,1.4,1.2s1-.2,1.3-.5l.5.9c-.5.4-1.3.7-2.1.7-1.5,0-2.6-1-2.6-2.6s1.1-2.6,2.5-2.6h.1ZM256.9,93.7h2.4c0-.4-.3-1.1-1.2-1.1s-1.2.7-1.2,1.1Z"/>
    <path class="st1" d="M261.7,95.1c.3.3,1.1.7,1.7.7s.9-.2.9-.5-.4-.4-1-.5c-.9-.2-2-.3-2-1.5s.8-1.5,2.1-1.5,1.5.3,2,.7l-.5.9c-.3-.3-.9-.5-1.4-.5s-.8.2-.8.4.4.4,1,.5c.9.2,2,.4,2,1.6s-.8,1.6-2.2,1.6-1.6-.3-2.2-.8l.5-.9h-.1Z"/>
    <path class="st1" d="M268.8,91.6c1,0,1.6.4,2,.9l-.9.8c-.2-.3-.5-.5-1.1-.5s-1.3.5-1.3,1.4.5,1.4,1.3,1.4.8-.2,1.1-.5l.9.8c-.3.4-1,.9-2,.9-1.5,0-2.6-1.1-2.6-2.6s1.1-2.6,2.6-2.6v.2Z"/>
    <path class="st1" d="M271.3,94.2c0-1.4,1-2.6,2.6-2.6s2.6,1.2,2.6,2.6-1,2.6-2.6,2.6-2.6-1.2-2.6-2.6ZM275.1,94.2c0-.8-.4-1.4-1.3-1.4s-1.3.7-1.3,1.4.4,1.4,1.3,1.4,1.3-.7,1.3-1.4Z"/>
    <path class="st1" d="M280.7,93.7c0-.7-.3-.9-.9-.9s-.9.3-1.1.5v3.4h-1.3v-4.9h1.3v.7c.3-.3.9-.8,1.7-.8s1.6.7,1.6,1.5v3.5h-1.3v-2.9h-.1Z"/>
    <path class="st1" d="M283,94.2c0-1.4,1-2.6,2.6-2.6s2.6,1.2,2.6,2.6-1,2.6-2.6,2.6-2.6-1.2-2.6-2.6ZM286.8,94.2c0-.8-.4-1.4-1.3-1.4s-1.3.7-1.3,1.4.4,1.4,1.3,1.4,1.3-.7,1.3-1.4Z"/>
    <path class="st1" d="M291.5,91.6c1,0,1.6.4,2,.9l-.9.8c-.2-.3-.5-.5-1.1-.5s-1.3.5-1.3,1.4.5,1.4,1.3,1.4.8-.2,1.1-.5l.9.8c-.3.4-1,.9-2,.9-1.5,0-2.6-1.1-2.6-2.6s1.1-2.6,2.6-2.6v.2Z"/>
    <path class="st1" d="M294.1,90.2c0-.4.3-.8.8-.8s.8.3.8.8-.3.8-.8.8-.8-.3-.8-.8ZM294.4,91.7h1.3v4.9h-1.3v-4.9Z"/>
    <path class="st1" d="M300.3,96.1c-.4.4-1,.8-1.5.8-1.2,0-2.2-1-2.2-2.6s1-2.6,2.2-2.6,1.1.2,1.5.8v-2.5h1.3v6.9h-1.3s0-.7,0-.7ZM300.3,93.3c-.2-.3-.7-.5-1.1-.5-.8,0-1.2.5-1.2,1.4s.5,1.4,1.2,1.4.9-.2,1.1-.5v-1.7Z"/>
    <path class="st1" d="M302.6,94.2c0-1.4,1-2.6,2.6-2.6s2.6,1.2,2.6,2.6-1,2.6-2.6,2.6-2.6-1.2-2.6-2.6ZM306.4,94.2c0-.8-.4-1.4-1.3-1.4s-1.3.7-1.3,1.4.4,1.4,1.3,1.4,1.3-.7,1.3-1.4Z"/>
  </g>
  <g>
    <path class="st1" d="M213,157.8h-1.1v2.4h-1.4v-6.9h3.2c1.4,0,2.3,1,2.3,2.2s-.8,1.9-1.5,2.1l1.5,2.6h-1.6l-1.3-2.4h0ZM213.4,154.8h-1.5v1.9h1.5c.5,0,1-.3,1-1s-.4-1-1-1h0Z"/>
    <path class="st1" d="M219,155.2c1.5,0,2.5,1.1,2.5,2.7v.3h-3.7c0,.7.5,1.2,1.4,1.2s1-.2,1.3-.5l.5.9c-.5.4-1.3.7-2.1.7-1.5,0-2.6-1-2.6-2.6s1.1-2.6,2.5-2.6h.1ZM217.8,157.4h2.4c0-.4-.3-1.1-1.2-1.1s-1.2.7-1.2,1.1h0Z"/>
    <path class="st1" d="M222.6,158.8c.3.3,1.1.7,1.7.7s.9-.2.9-.5-.4-.4-1-.5c-.9-.2-2-.3-2-1.5s.8-1.5,2.1-1.5,1.5.3,2,.7l-.5.9c-.3-.3-.9-.5-1.4-.5s-.8.2-.8.4.4.4,1,.5c.9.2,2,.4,2,1.6s-.8,1.6-2.2,1.6-1.6-.3-2.2-.8l.5-.9h-.1Z"/>
    <path class="st1" d="M227.2,162.2v-6.9h1.3v.7c.3-.4.9-.8,1.5-.8,1.3,0,2.2,1,2.2,2.6s-.9,2.6-2.2,2.6-1.1-.2-1.5-.8v2.5h-1.3ZM229.6,156.4c-.4,0-.9.2-1.1.5v1.7c.2.3.7.5,1.1.5.8,0,1.2-.5,1.2-1.4s-.5-1.4-1.2-1.4Z"/>
    <path class="st1" d="M232.9,157.8c0-1.4,1-2.6,2.6-2.6s2.6,1.2,2.6,2.6-1,2.6-2.6,2.6-2.6-1.2-2.6-2.6ZM236.8,157.8c0-.8-.4-1.4-1.3-1.4s-1.3.7-1.3,1.4.4,1.4,1.3,1.4,1.3-.7,1.3-1.4Z"/>
    <path class="st1" d="M242.5,157.3c0-.7-.3-.9-.9-.9s-.9.3-1.1.5v3.4h-1.3v-4.9h1.3v.7c.3-.3.9-.8,1.7-.8s1.6.7,1.6,1.5v3.5h-1.3v-2.9h-.1Z"/>
    <path class="st1" d="M248.5,159.7c-.4.4-1,.8-1.5.8-1.2,0-2.2-1-2.2-2.6s1-2.6,2.2-2.6,1.1.2,1.5.8v-2.5h1.3v6.9h-1.3v-.7ZM248.5,157c-.2-.3-.7-.5-1.1-.5-.8,0-1.2.5-1.2,1.4s.5,1.4,1.2,1.4.9-.2,1.1-.5v-1.7Z"/>
    <path class="st1" d="M253.3,155.2c1.5,0,2.5,1.1,2.5,2.7v.3h-3.7c0,.7.5,1.2,1.4,1.2s1-.2,1.3-.5l.5.9c-.5.4-1.3.7-2.1.7-1.5,0-2.6-1-2.6-2.6s1.1-2.6,2.5-2.6h.1ZM252.1,157.4h2.4c0-.4-.3-1.1-1.2-1.1s-1.2.7-1.2,1.1Z"/>
    <path class="st1" d="M256.8,155.3h1.3v.7c.3-.4,1-.8,1.5-.8v1.3h-.3c-.4,0-1,.2-1.2.5v3.3h-1.3v-4.9h0Z"/>
  </g>
  <g>
    <path class="st1" d="M208.9,213.1h-1.1v2.4h-1.4v-6.9h3.2c1.4,0,2.3,1,2.3,2.2s-.8,1.9-1.5,2.1l1.5,2.6h-1.6l-1.3-2.4h0ZM209.4,209.9h-1.5v1.9h1.5c.5,0,1-.3,1-1s-.4-1-1-1h0Z"/>
    <path class="st1" d="M214.9,210.5c1.5,0,2.5,1.1,2.5,2.7v.3h-3.7c0,.7.5,1.2,1.4,1.2s1-.2,1.3-.5l.5.9c-.5.4-1.3.7-2.1.7-1.5,0-2.6-1-2.6-2.6s1.1-2.6,2.5-2.6h.1ZM213.7,212.5h2.4c0-.4-.3-1.1-1.2-1.1s-1.2.7-1.2,1.1h0Z"/>
    <path class="st1" d="M220.6,210.5c1,0,1.6.4,2,.9l-.9.8c-.2-.3-.5-.5-1.1-.5s-1.3.5-1.3,1.4.5,1.4,1.3,1.4.8-.2,1.1-.5l.9.8c-.3.4-1,.9-2,.9-1.5,0-2.6-1.1-2.6-2.6s1.1-2.6,2.6-2.6v.2h0Z"/>
    <path class="st1" d="M226.8,214.8c-.3.3-1,.8-1.7.8s-1.6-.5-1.6-1.5v-3.5h1.3v3.1c0,.7.3.9.9.9s.9-.3,1.1-.5v-3.4h1.3v4.9h-1.3v-.7h.1Z"/>
    <path class="st1" d="M229.3,217.3v-6.9h1.3v.7c.3-.4.9-.8,1.5-.8,1.3,0,2.2,1,2.2,2.6s-.9,2.6-2.2,2.6-1.1-.2-1.5-.8v2.5h-1.3ZM231.8,211.6c-.4,0-.9.2-1.1.5v1.7c.2.3.7.5,1.1.5.8,0,1.2-.5,1.2-1.4s-.5-1.4-1.2-1.4Z"/>
    <path class="st1" d="M237.6,210.5c1.5,0,2.5,1.1,2.5,2.7v.3h-3.7c0,.7.5,1.2,1.4,1.2s1-.2,1.3-.5l.5.9c-.5.4-1.3.7-2.1.7-1.5,0-2.6-1-2.6-2.6s1.1-2.6,2.5-2.6h.1ZM236.4,212.5h2.4c0-.4-.3-1.1-1.2-1.1s-1.2.7-1.2,1.1Z"/>
    <path class="st1" d="M241,210.6h1.3v.7c.3-.4,1-.8,1.5-.8v1.3h-.3c-.4,0-1,.2-1.2.5v3.3h-1.3v-4.9h0Z"/>
    <path class="st1" d="M247.6,214.9c-.3.4-.9.7-1.5.7s-1.7-.5-1.7-1.6,1-1.5,1.7-1.5,1.2.2,1.5.7v-.7c0-.5-.4-.9-1.1-.9s-1,.2-1.4.5l-.5-.9c.7-.5,1.4-.8,2.2-.8,1.1,0,2.2.4,2.2,1.9v3.2h-1.3v-.5ZM247.6,213.6c-.2-.3-.7-.4-1.1-.4s-1,.3-1,.8.4.8,1,.8.9-.1,1.1-.4v-.7Z"/>
    <path class="st1" d="M250.2,210.6h1.3v.7c.3-.4,1-.8,1.5-.8v1.3h-.3c-.4,0-1,.2-1.2.5v3.3h-1.3v-4.9h0Z"/>
    <path class="st1" d="M254,214c.3.3,1.1.7,1.7.7s.9-.2.9-.5-.4-.4-1-.5c-.9-.2-2-.3-2-1.5s.8-1.5,2.1-1.5,1.5.3,2,.7l-.5.9c-.3-.3-.9-.5-1.4-.5s-.8.2-.8.4.4.4,1,.5c.9.2,2,.4,2,1.6s-.8,1.6-2.2,1.6-1.6-.3-2.2-.8l.5-.9h-.1Z"/>
    <path class="st1" d="M261,210.5c1.5,0,2.5,1.1,2.5,2.7v.3h-3.7c0,.7.5,1.2,1.4,1.2s1-.2,1.3-.5l.5.9c-.5.4-1.3.7-2.1.7-1.5,0-2.6-1-2.6-2.6s1.1-2.6,2.5-2.6h.1ZM259.8,212.5h2.4c0-.4-.3-1.1-1.2-1.1s-1.2.7-1.2,1.1Z"/>
  </g>
  <path class="st1" d="M233.2,225.7c.3,0,.5,0,.7-.3l.2-.4-2-5h1.4l1.3,3.5,1.3-3.5h1.4l-2.3,5.8c-.3,1-1,1.2-1.9,1.2h-.7l.2-1.2h.4-.2Z"/>
  <g>
    <path class="st1" d="M213,236.2v-6.9h1.3v.7c.3-.4.9-.8,1.5-.8,1.3,0,2.2,1,2.2,2.6s-.9,2.6-2.2,2.6-1.1-.2-1.5-.8v2.5h-1.3ZM215.4,230.4c-.4,0-.9.2-1.1.5v1.7c.2.3.7.5,1.1.5.8,0,1.2-.5,1.2-1.4s-.5-1.4-1.2-1.4Z"/>
    <path class="st1" d="M219,229.3h1.3v.7c.3-.4,1-.8,1.5-.8v1.3h-.3c-.4,0-1,.2-1.2.5v3.3h-1.3v-4.9h0Z"/>
    <path class="st1" d="M222.2,231.8c0-1.4,1-2.6,2.6-2.6s2.6,1.2,2.6,2.6-1,2.6-2.6,2.6-2.6-1.2-2.6-2.6h0ZM226.2,231.8c0-.8-.4-1.4-1.3-1.4s-1.3.7-1.3,1.4.4,1.4,1.3,1.4,1.3-.7,1.3-1.4Z"/>
    <path class="st1" d="M228.7,232.7c.3.3,1.1.7,1.7.7s.9-.2.9-.5-.4-.4-1-.5c-.9-.2-2-.3-2-1.5s.8-1.5,2.1-1.5,1.5.3,2,.7l-.5.9c-.3-.3-.9-.5-1.4-.5s-.8.2-.8.4.4.4,1,.5c.9.2,2,.4,2,1.6s-.8,1.6-2.2,1.6-1.6-.3-2.2-.8l.5-.9h-.1Z"/>
    <path class="st1" d="M233.3,236.2v-6.9h1.3v.7c.3-.4.9-.8,1.5-.8,1.3,0,2.2,1,2.2,2.6s-.9,2.6-2.2,2.6-1.1-.2-1.5-.8v2.5h-1.3ZM235.7,230.4c-.4,0-.9.2-1.1.5v1.7c.2.3.7.5,1.1.5.8,0,1.2-.5,1.2-1.4s-.5-1.4-1.2-1.4Z"/>
    <path class="st1" d="M241.6,229.2c1.5,0,2.5,1.1,2.5,2.7v.3h-3.7c0,.7.5,1.2,1.4,1.2s1-.2,1.3-.5l.5.9c-.5.4-1.3.7-2.1.7-1.5,0-2.6-1-2.6-2.6s1.1-2.6,2.5-2.6h.1ZM240.3,231.4h2.4c0-.4-.3-1.1-1.2-1.1s-1.2.7-1.2,1.1Z"/>
    <path class="st1" d="M245,229.3h1.3v.7c.3-.4,1-.8,1.5-.8v1.3h-.3c-.4,0-1,.2-1.2.5v3.3h-1.3v-4.9h0Z"/>
    <path class="st1" d="M251.6,233.8c-.3.4-.9.7-1.5.7s-1.7-.5-1.7-1.6,1-1.5,1.7-1.5,1.2.2,1.5.7v-.7c0-.5-.4-.9-1.1-.9s-1,.2-1.4.5l-.5-.9c.7-.5,1.4-.8,2.2-.8,1.1,0,2.2.4,2.2,1.9v3.2h-1.3v-.5ZM251.6,232.5c-.2-.3-.7-.4-1.1-.4s-1,.3-1,.8.4.8,1,.8.9-.1,1.1-.4v-.7Z"/>
    <path class="st1" d="M254.3,229.3h1.3v.7c.3-.4,1-.8,1.5-.8v1.3h-.3c-.4,0-1,.2-1.2.5v3.3h-1.3v-4.9h0Z"/>
  </g>
  <polygon class="st2" points="116.7 6.6 116.7 71.7 192.8 46.6 192.8 6.6 116.7 6.6"/>
  <polygon class="st2" points="280.7 6.4 280.7 71.1 356.9 47 356.9 6.4 280.7 6.4"/>
  <polygon class="st2" points="198.7 6.6 198.7 71.7 274.9 46.6 274.9 6.6 198.7 6.6"/>
  <g>
    <path class="st1" d="M285.1,22.2h1.4v6.9h-1.4v-6.9Z"/>
    <path class="st1" d="M291.2,26c0-.7-.3-.9-.9-.9s-.9.3-1.1.5v3.4h-1.3v-4.9h1.3v.7c.3-.3.9-.8,1.7-.8s1.6.7,1.6,1.5v3.5h-1.3v-2.9h-.1Z"/>
    <path class="st1" d="M294,25.2h-.9v-1.1h.9v-.2c0-1.1.7-1.7,1.6-1.7s.7,0,1,.2l-.2.9h-.4c-.3,0-.7.2-.7.8v.2h1v1.1h-1v3.8h-1.3v-3.8h0Z"/>
    <path class="st1" d="M297.2,24.2h1.3v.7c.3-.4,1-.8,1.5-.8v1.3h-.3c-.4,0-1,.2-1.2.5v3.3h-1.3v-4.9h0Z"/>
    <path class="st1" d="M303.8,28.5c-.3.4-.9.7-1.5.7s-1.7-.5-1.7-1.6,1-1.5,1.7-1.5,1.2.2,1.5.7v-.7c0-.5-.4-.9-1.1-.9s-1,.2-1.4.5l-.5-.9c.7-.5,1.4-.8,2.2-.8,1.1,0,2.2.4,2.2,1.9v3.2h-1.3v-.5ZM303.8,27.2c-.2-.3-.7-.4-1.1-.4s-1,.3-1,.8.4.8,1,.8.9,0,1.1-.4v-.7Z"/>
    <path class="st1" d="M308.6,23.9c1.5,0,2.5,1.1,2.5,2.7v.3h-3.7c0,.7.5,1.2,1.4,1.2s1-.2,1.3-.5l.5.9c-.5.4-1.3.7-2.1.7-1.5,0-2.6-1-2.6-2.6s1.1-2.6,2.5-2.6c0,0,.1,0,.1,0ZM307.4,26.1h2.4c0-.4-.3-1.1-1.2-1.1s-1.2.7-1.2,1.1Z"/>
    <path class="st1" d="M312.2,27.5c.3.3,1.1.7,1.7.7s.9-.2.9-.5-.4-.4-1-.5c-.9-.2-2-.3-2-1.5s.8-1.5,2.1-1.5,1.5.3,2,.7l-.5.9c-.3-.3-.9-.5-1.4-.5s-.8.2-.8.4.4.4,1,.5c.9.2,2,.4,2,1.6s-.8,1.6-2.2,1.6-1.6-.3-2.2-.8l.5-.9h-.1Z"/>
    <path class="st1" d="M317.2,27.9v-2.6h-.9v-1.1h.9v-1.3h1.3v1.3h1v1.1h-1v2.2c0,.3.2.5.4.5h.4l.3,1c-.2.2-.5.3-1.1.3-.9,0-1.4-.4-1.4-1.3h0Z"/>
    <path class="st1" d="M320.4,24.2h1.3v.7c.3-.4,1-.8,1.5-.8v1.3h-.3c-.4,0-1,.2-1.2.5v3.3h-1.3v-4.9h0Z"/>
    <path class="st1" d="M327.4,28.4c-.3.3-1,.8-1.7.8s-1.6-.5-1.6-1.5v-3.5h1.3v3.1c0,.7.3.9.9.9s.9-.3,1.1-.5v-3.4h1.3v4.9h-1.3v-.7h.1Z"/>
    <path class="st1" d="M332.3,23.9c1,0,1.6.4,2,.9l-.9.8c-.2-.3-.5-.5-1.1-.5s-1.3.5-1.3,1.4.5,1.4,1.3,1.4.8-.2,1.1-.5l.9.8c-.3.4-1,.9-2,.9-1.5,0-2.6-1.1-2.6-2.6s1.1-2.6,2.6-2.6v.2Z"/>
    <path class="st1" d="M335.3,27.9v-2.6h-.9v-1.1h.9v-1.3h1.3v1.3h1v1.1h-1v2.2c0,.3.2.5.4.5h.4l.3,1c-.2.2-.5.3-1.1.3-.9,0-1.4-.4-1.4-1.3h0Z"/>
    <path class="st1" d="M341.9,28.4c-.3.3-1,.8-1.7.8s-1.6-.5-1.6-1.5v-3.5h1.3v3.1c0,.7.3.9.9.9s.9-.3,1.1-.5v-3.4h1.3v4.9h-1.3v-.7h.1Z"/>
    <path class="st1" d="M344.5,24.2h1.3v.7c.3-.4,1-.8,1.5-.8v1.3h-.3c-.4,0-1,.2-1.2.5v3.3h-1.3v-4.9h0Z"/>
    <path class="st1" d="M351.1,28.5c-.3.4-.9.7-1.5.7s-1.7-.5-1.7-1.6,1-1.5,1.7-1.5,1.2.2,1.5.7v-.7c0-.5-.4-.9-1.1-.9s-1,.2-1.4.5l-.5-.9c.7-.5,1.4-.8,2.2-.8,1.1,0,2.2.4,2.2,1.9v3.2h-1.3v-.5ZM351.1,27.2c-.2-.3-.7-.4-1.1-.4s-1,.3-1,.8.4.8,1,.8.9,0,1.1-.4v-.7Z"/>
  </g>
  <g>
    <path class="st1" d="M209.5,22.2h1.4v6.9h-1.4v-6.9Z"/>
    <path class="st1" d="M215.6,26c0-.7-.3-.9-.9-.9s-.9.3-1.1.5v3.4h-1.3v-4.9h1.3v.7c.3-.3.9-.8,1.7-.8s1.6.7,1.6,1.5v3.5h-1.3v-2.9h-.1Z"/>
    <path class="st1" d="M218.3,27.5c.3.3,1.1.7,1.7.7s.9-.2.9-.5-.4-.4-1-.5c-.9-.2-2-.3-2-1.5s.8-1.5,2.1-1.5,1.5.3,2,.7l-.5.9c-.3-.3-.9-.5-1.4-.5s-.8.2-.8.4.4.4,1,.5c.9.2,2,.4,2,1.6s-.8,1.6-2.2,1.6-1.6-.3-2.2-.8l.5-.9h-.1Z"/>
    <path class="st1" d="M223.3,27.9v-2.6h-.9v-1.1h.9v-1.3h1.3v1.3h1v1.1h-1v2.2c0,.3.2.5.4.5h.4l.3,1c-.2.2-.5.3-1.1.3-.9,0-1.4-.4-1.4-1.3h0Z"/>
    <path class="st1" d="M226.5,22.6c0-.4.3-.8.8-.8s.8.3.8.8-.3.8-.8.8-.8-.3-.8-.8ZM226.6,24.2h1.3v4.9h-1.3v-4.9Z"/>
    <path class="st1" d="M229.4,27.9v-2.6h-.9v-1.1h.9v-1.3h1.3v1.3h1v1.1h-1v2.2c0,.3.2.5.4.5h.4l.3,1c-.2.2-.5.3-1.1.3-.9,0-1.4-.4-1.4-1.3h0Z"/>
    <path class="st1" d="M236,28.4c-.3.3-1,.8-1.7.8s-1.6-.5-1.6-1.5v-3.5h1.3v3.1c0,.7.3.9.9.9s.9-.3,1.1-.5v-3.4h1.3v4.9h-1.3v-.7h.1Z"/>
    <path class="st1" d="M240.9,23.9c1,0,1.6.4,2,.9l-.9.8c-.2-.3-.5-.5-1.1-.5s-1.3.5-1.3,1.4.5,1.4,1.3,1.4.8-.2,1.1-.5l.9.8c-.3.4-1,.9-2,.9-1.5,0-2.6-1.1-2.6-2.6s1.1-2.6,2.6-2.6v.2Z"/>
    <path class="st1" d="M243.5,22.6c0-.4.3-.8.8-.8s.8.3.8.8-.3.8-.8.8-.8-.3-.8-.8ZM243.7,24.2h1.3v4.9h-1.3v-4.9Z"/>
    <path class="st1" d="M245.9,26.6c0-1.4,1-2.6,2.6-2.6s2.6,1.2,2.6,2.6-1,2.6-2.6,2.6-2.6-1.2-2.6-2.6ZM249.8,26.6c0-.8-.4-1.4-1.3-1.4s-1.3.7-1.3,1.4.4,1.4,1.3,1.4,1.3-.7,1.3-1.4Z"/>
    <path class="st1" d="M255.5,26c0-.7-.3-.9-.9-.9s-.9.3-1.1.5v3.4h-1.3v-4.9h1.3v.7c.3-.3.9-.8,1.7-.8s1.6.7,1.6,1.5v3.5h-1.3v-2.9h-.1Z"/>
    <path class="st1" d="M260.3,23.9c1.5,0,2.5,1.1,2.5,2.7v.3h-3.7c0,.7.5,1.2,1.4,1.2s1-.2,1.3-.5l.5.9c-.5.4-1.3.7-2.1.7-1.5,0-2.6-1-2.6-2.6s1.1-2.6,2.5-2.6c0,0,.1,0,.1,0ZM259.1,26.1h2.4c0-.4-.3-1.1-1.2-1.1s-1.2.7-1.2,1.1Z"/>
    <path class="st1" d="M263.8,27.5c.3.3,1.1.7,1.7.7s.9-.2.9-.5-.4-.4-1-.5c-.9-.2-2-.3-2-1.5s.8-1.5,2.1-1.5,1.5.3,2,.7l-.5.9c-.3-.3-.9-.5-1.4-.5s-.8.2-.8.4.4.4,1,.5c.9.2,2,.4,2,1.6s-.8,1.6-2.2,1.6-1.6-.3-2.2-.8l.5-.9h-.1Z"/>
  </g>
  <g>
    <path class="st1" d="M124.6,22.2h1.4v6.9h-1.4v-6.9Z"/>
    <path class="st1" d="M130.7,26c0-.7-.3-.9-.9-.9s-.9.3-1.1.5v3.4h-1.3v-4.9h1.3v.7c.3-.3.9-.8,1.7-.8s1.6.7,1.6,1.5v3.5h-1.3v-2.9h-.1Z"/>
    <path class="st1" d="M133.4,27.5c.3.3,1.1.7,1.7.7s.9-.2.9-.5-.4-.4-1-.5c-.9-.2-2-.3-2-1.5s.8-1.5,2.1-1.5,1.5.3,2,.7l-.5.9c-.3-.3-.9-.5-1.4-.5s-.8.2-.8.4.4.4,1,.5c.9.2,2,.4,2,1.6s-.8,1.6-2.2,1.6-1.6-.3-2.2-.8l.5-.9h-.1Z"/>
    <path class="st1" d="M138.4,27.9v-2.6h-.9v-1.1h.9v-1.3h1.3v1.3h1v1.1h-1v2.2c0,.3.2.5.4.5h.4l.3,1c-.2.2-.5.3-1.1.3-.9,0-1.4-.4-1.4-1.3h0Z"/>
    <path class="st1" d="M141.7,24.2h1.3v.7c.3-.4,1-.8,1.5-.8v1.3h-.3c-.4,0-1,.2-1.2.5v3.3h-1.3v-4.9h0Z"/>
    <path class="st1" d="M148.7,28.4c-.3.3-1,.8-1.7.8s-1.6-.5-1.6-1.5v-3.5h1.3v3.1c0,.7.3.9.9.9s.9-.3,1.1-.5v-3.4h1.3v4.9h-1.3v-.7h.1Z"/>
    <path class="st1" d="M157.4,25.9c0-.4-.2-.8-.8-.8s-.9.3-1,.5v3.4h-1.3v-3.2c0-.4-.2-.8-.8-.8s-.9.3-1,.5v3.4h-1.3v-4.9h1.3v.7c.2-.3.9-.8,1.6-.8s1.2.3,1.4.9c.3-.4,1-.9,1.7-.9s1.4.4,1.4,1.5v3.6h-1.3v-3.2h-.1Z"/>
    <path class="st1" d="M162.2,23.9c1.5,0,2.5,1.1,2.5,2.7v.3h-3.7c0,.7.5,1.2,1.4,1.2s1-.2,1.3-.5l.5.9c-.5.4-1.3.7-2.1.7-1.5,0-2.6-1-2.6-2.6s1.1-2.6,2.5-2.6h.1ZM161,26.1h2.4c0-.4-.3-1.1-1.2-1.1s-1.2.7-1.2,1.1h0Z"/>
    <path class="st1" d="M169,26c0-.7-.3-.9-.9-.9s-.9.3-1.1.5v3.4h-1.3v-4.9h1.3v.7c.3-.3.9-.8,1.7-.8s1.6.7,1.6,1.5v3.5h-1.3v-2.9h-.1Z"/>
    <path class="st1" d="M171.8,27.9v-2.6h-.9v-1.1h.9v-1.3h1.3v1.3h1v1.1h-1v2.2c0,.3.2.5.4.5h.4l.3,1c-.2.2-.5.3-1.1.3-.9,0-1.4-.4-1.4-1.3h0Z"/>
    <path class="st1" d="M174.7,26.6c0-1.4,1-2.6,2.6-2.6s2.6,1.2,2.6,2.6-1,2.6-2.6,2.6-2.6-1.2-2.6-2.6ZM178.6,26.6c0-.8-.4-1.4-1.3-1.4s-1.3.7-1.3,1.4.4,1.4,1.3,1.4,1.3-.7,1.3-1.4Z"/>
    <path class="st1" d="M181,27.5c.3.3,1.1.7,1.7.7s.9-.2.9-.5-.4-.4-1-.5c-.9-.2-2-.3-2-1.5s.8-1.5,2.1-1.5,1.5.3,2,.7l-.5.9c-.3-.3-.9-.5-1.4-.5s-.8.2-.8.4.4.4,1,.5c.9.2,2,.4,2,1.6s-.8,1.6-2.2,1.6-1.6-.3-2.2-.8l.5-.9h-.1Z"/>
  </g>
</svg>