<?xml version="1.0" encoding="UTF-8"?>
<svg id="Layer_1" xmlns="http://www.w3.org/2000/svg" version="1.1" viewBox="0 0 467.29999 281.79999">
  <!-- Generator: Adobe Illustrator 29.7.1, SVG Export Plug-In . SVG Version: 2.1.1 Build 8)  -->
  <defs>
    <style>
      .st0 {
        fill: #00808d;
      }

      .st1 {
        fill: #fff;
      }

      .st2 {
        fill: #eb5f28;
      }

      .st3 {
        fill: #005059;
      }

      .st4 {
        fill: #00aabe;
      }
    </style>
  </defs>
  <polygon class="st3" points="339.57371 122.39454 130.42627 122.39454 81.43197 58.66661 234.99999 58.66661 388.56803 58.66661 339.57371 122.39454"/>
  <polygon class="st0" points="156.94281 159.94594 132.62108 124.91386 337.3789 124.91386 313.05586 159.94594 288.13306 195.84481 181.86564 195.84481 156.94281 159.94594"/>
  <polygon class="st4" points="284.72645 199.53093 234.99946 276.52584 185.27248 199.53093 284.72645 199.53093"/>
  <g>
    <path class="st1" d="M161.9097,89.39871h3.21791c1.49527,0,2.31029,1.01091,2.31029,2.21771,0,1.19609-.8251,2.19629-2.31029,2.19629h-1.75351v2.46524h-1.4644v-6.87923ZM164.93172,90.65715h-1.55762v1.89774h1.55762c.57757,0,1.01028-.37161,1.01028-.94919,0-.5675-.43271-.94856-1.01028-.94856Z"/>
    <path class="st1" d="M168.3178,91.29645h1.30946v.68087c.35083-.44404.96934-.79424,1.58848-.79424v1.2786c-.09259-.02016-.21667-.03086-.3609-.03086-.43334,0-1.01091.23745-1.22758.55679v3.29034h-1.30946v-4.98149Z"/>
    <path class="st1" d="M174.29131,91.17237c1.48519,0,2.49547,1.11421,2.49547,2.74363v.2891h-3.70226c.08251.62859.58765,1.15515,1.43354,1.15515.4642,0,1.01091-.18581,1.33025-.49506l.57757.84526c-.50514.4642-1.2786.69158-2.05205.69158-1.51605,0-2.66112-1.02162-2.66112-2.62018,0-1.44362,1.06256-2.60947,2.57861-2.60947ZM173.06373,93.31764h2.45453c-.03086-.47428-.3609-1.1035-1.22695-1.1035-.81503,0-1.16585.60844-1.22758,1.1035Z"/>
    <path class="st1" d="M177.73974,98.17568v-6.87923h1.30946v.62922c.38169-.48499.9284-.7533,1.53684-.7533,1.27923,0,2.207.94919,2.207,2.60947,0,1.66092-.92777,2.62018-2.207,2.62018-.58765,0-1.13436-.24816-1.53684-.76338v2.53704h-1.30946ZM180.17349,92.33822c-.42263,0-.90762.24753-1.12428.56687v1.76358c.21667.30989.70165.5675,1.12428.5675.75267,0,1.25844-.58765,1.25844-1.45433,0-.85597-.50577-1.44362-1.25844-1.44362Z"/>
    <path class="st1" d="M186.76677,95.76209c-.34012.40247-.92777.63993-1.57778.63993-.79424,0-1.73272-.53663-1.73272-1.65021,0-1.16585.93848-1.58848,1.73272-1.58848.66008,0,1.24773.20596,1.57778.60844v-.69095c0-.50577-.43271-.83581-1.09279-.83581-.53663,0-1.0317.19651-1.45433.58828l-.49506-.87675c.60844-.53663,1.39197-.78416,2.17614-.78416,1.13436,0,2.17614.45412,2.17614,1.88766v3.21791h-1.31009v-.51585ZM186.76677,94.46271c-.21604-.2891-.62922-.43334-1.05185-.43334-.51585,0-.93848.27839-.93848.7533,0,.4642.42263.73189.93848.73189.42263,0,.83581-.14424,1.05185-.43271v-.61914Z"/>
    <path class="st1" d="M189.38002,91.29645h1.30946v.68087c.35083-.44404.96934-.79424,1.58848-.79424v1.2786c-.09259-.02016-.21667-.03086-.3609-.03086-.43334,0-1.01091.23745-1.22758.55679v3.29034h-1.30946v-4.98149Z"/>
    <path class="st1" d="M196.08541,95.76209c-.34012.40247-.92777.63993-1.57778.63993-.79424,0-1.73272-.53663-1.73272-1.65021,0-1.16585.93848-1.58848,1.73272-1.58848.66008,0,1.24773.20596,1.57778.60844v-.69095c0-.50577-.43271-.83581-1.09279-.83581-.53663,0-1.0317.19651-1.45433.58828l-.49506-.87675c.60844-.53663,1.39197-.78416,2.17614-.78416,1.13436,0,2.17614.45412,2.17614,1.88766v3.21791h-1.31009v-.51585ZM196.08541,94.46271c-.21667-.2891-.62859-.43334-1.05185-.43334-.51585,0-.93848.27839-.93848.7533,0,.4642.42263.73189.93848.73189.42326,0,.83518-.14424,1.05185-.43271v-.61914Z"/>
    <path class="st1" d="M198.69803,91.29645h1.30946v.68087c.35083-.44404.96934-.79424,1.58848-.79424v1.2786c-.09259-.02016-.21667-.03086-.3609-.03086-.43334,0-1.01091.23745-1.22758.55679v3.29034h-1.30946v-4.98149Z"/>
    <path class="st1" d="M202.54642,94.71024c.36153.34012,1.10476.68087,1.72327.68087.56687,0,.83518-.19588.83518-.50577,0-.3502-.43334-.47428-1.0002-.58765-.8566-.16502-1.9601-.37098-1.9601-1.55762,0-.83518.73189-1.5677,2.04198-1.5677.84652,0,1.51668.2891,2.00167.68087l-.51648.89754c-.29855-.31996-.86542-.57757-1.47511-.57757-.47365,0-.78353.1751-.78353.4642,0,.30926.39177.42263.94856.536.8566.16502,2.00167.39177,2.00167,1.62942,0,.91832-.77346,1.59919-2.15535,1.59919-.86667,0-1.70186-.2891-2.22841-.77409l.56687-.91769Z"/>
    <path class="st1" d="M209.59445,91.17237c1.48519,0,2.49547,1.11421,2.49547,2.74363v.2891h-3.70226c.08188.62859.58702,1.15515,1.43354,1.15515.46357,0,1.01028-.18581,1.33025-.49506l.57694.84526c-.50514.4642-1.2786.69158-2.05205.69158-1.51542,0-2.66049-1.02162-2.66049-2.62018,0-1.44362,1.06193-2.60947,2.57861-2.60947ZM208.36624,93.31764h2.45516c-.03149-.47428-.36153-1.1035-1.22695-1.1035-.81503,0-1.16648.60844-1.22821,1.1035Z"/>
    <path class="st1" d="M215.68385,98.17568v-6.87923h1.31009v.62922c.38169-.48499.9284-.7533,1.53684-.7533,1.2786,0,2.207.94919,2.207,2.60947,0,1.66092-.9284,2.62018-2.207,2.62018-.58828,0-1.13499-.24816-1.53684-.76338v2.53704h-1.31009ZM218.1176,92.33822c-.422,0-.90699.24753-1.12365.56687v1.76358c.21667.30989.70165.5675,1.12365.5675.7533,0,1.25844-.58765,1.25844-1.45433,0-.85597-.50514-1.44362-1.25844-1.44362Z"/>
    <path class="st1" d="M224.71088,95.76209c-.34012.40247-.92714.63993-1.57715.63993-.79487,0-1.73335-.53663-1.73335-1.65021,0-1.16585.93848-1.58848,1.73335-1.58848.66008,0,1.2471.20596,1.57715.60844v-.69095c0-.50577-.43208-.83581-1.09216-.83581-.53663,0-1.0317.19651-1.45496.58828l-.49506-.87675c.60844-.53663,1.39197-.78416,2.17676-.78416,1.13373,0,2.17551.45412,2.17551,1.88766v3.21791h-1.31009v-.51585ZM224.71088,94.46271c-.21667-.2891-.62859-.43334-1.05185-.43334-.51522,0-.93848.27839-.93848.7533,0,.4642.42326.73189.93848.73189.42326,0,.83518-.14424,1.05185-.43271v-.61914Z"/>
    <path class="st1" d="M227.32476,91.29645h1.30883v.68087c.35146-.44404.96997-.79424,1.58848-.79424v1.2786c-.09196-.02016-.21667-.03086-.36027-.03086-.43334,0-1.01154.23745-1.22821.55679v3.29034h-1.30883v-4.98149Z"/>
    <path class="st1" d="M234.03015,95.76209c-.34012.40247-.9284.63993-1.57841.63993-.79361,0-1.73209-.53663-1.73209-1.65021,0-1.16585.93848-1.58848,1.73209-1.58848.66008,0,1.24836.20596,1.57841.60844v-.69095c0-.50577-.43334-.83581-1.09342-.83581-.53663,0-1.0317.19651-1.4537.58828l-.49506-.87675c.60844-.53663,1.39197-.78416,2.17551-.78416,1.13499,0,2.17676.45412,2.17676,1.88766v3.21791h-1.31009v-.51585ZM234.03015,94.46271c-.21667-.2891-.62985-.43334-1.05185-.43334-.51648,0-.93848.27839-.93848.7533,0,.4642.422.73189.93848.73189.422,0,.83518-.14424,1.05185-.43271v-.61914Z"/>
    <path class="st1" d="M239.28437,89.39871h1.31009v6.87923h-1.31009v-6.87923Z"/>
    <path class="st1" d="M241.57451,93.78184c0-1.41276.99013-2.60947,2.63026-2.60947,1.65021,0,2.64034,1.19672,2.64034,2.60947,0,1.42346-.99013,2.62018-2.64034,2.62018-1.64013,0-2.63026-1.19672-2.63026-2.62018ZM245.48336,93.78184c0-.77346-.46357-1.44362-1.2786-1.44362s-1.26852.67016-1.26852,1.44362c0,.78416.45349,1.45433,1.26852,1.45433s1.2786-.67016,1.2786-1.45433Z"/>
    <path class="st1" d="M253.88431,95.64872c-.39177.48499-.93848.7533-1.53684.7533-1.25844,0-2.207-.94919-2.207-2.60947,0-1.63005.93848-2.62018,2.207-2.62018.58828,0,1.14507.25824,1.53684.76338v-2.53704h1.32017v6.87923h-1.32017v-.62922ZM253.88431,92.90509c-.22675-.33004-.69158-.56687-1.13499-.56687-.74196,0-1.25844.58765-1.25844,1.45433,0,.85597.51648,1.44362,1.25844,1.44362.44342,0,.90825-.23745,1.13499-.5675v-1.76358Z"/>
    <path class="st1" d="M258.76566,91.17237c1.48519,0,2.49547,1.11421,2.49547,2.74363v.2891h-3.70226c.08314.62859.58828,1.15515,1.43354,1.15515.46483,0,1.01154-.18581,1.33025-.49506l.5782.84526c-.50514.4642-1.2786.69158-2.05205.69158-1.51668,0-2.66175-1.02162-2.66175-2.62018,0-1.44362,1.06319-2.60947,2.57861-2.60947ZM257.53871,93.31764h2.4539c-.03023-.47428-.36027-1.1035-1.22695-1.1035-.81503,0-1.16522.60844-1.22695,1.1035Z"/>
    <path class="st1" d="M262.34699,94.71024c.36153.34012,1.10476.68087,1.72327.68087.56687,0,.83518-.19588.83518-.50577,0-.3502-.43334-.47428-1.0002-.58765-.8566-.16502-1.9601-.37098-1.9601-1.55762,0-.83518.73189-1.5677,2.04198-1.5677.84652,0,1.51668.2891,2.00167.68087l-.51648.89754c-.29855-.31996-.86542-.57757-1.47511-.57757-.47365,0-.78353.1751-.78353.4642,0,.30926.39177.42263.94856.536.8566.16502,2.00167.39177,2.00167,1.62942,0,.91832-.77346,1.59919-2.15535,1.59919-.86667,0-1.70186-.2891-2.22841-.77409l.56687-.91769Z"/>
    <path class="st1" d="M269.45675,91.17237c1.02036,0,1.64013.44404,1.97017.90762l-.8566.79424c-.23682-.34012-.59836-.536-1.05185-.536-.79487,0-1.35166.57757-1.35166,1.44362,0,.86667.55679,1.45433,1.35166,1.45433.45349,0,.81503-.20596,1.05185-.536l.8566.79361c-.33004.4642-.94982.90825-1.97017.90825-1.53684,0-2.64034-1.08334-2.64034-2.62018,0-1.52613,1.1035-2.60947,2.64034-2.60947Z"/>
    <path class="st1" d="M271.96607,93.78184c0-1.41276.99013-2.60947,2.63026-2.60947,1.65021,0,2.64034,1.19672,2.64034,2.60947,0,1.42346-.99013,2.62018-2.64034,2.62018-1.64013,0-2.63026-1.19672-2.63026-2.62018ZM275.87493,93.78184c0-.77346-.46483-1.44362-1.2786-1.44362-.81503,0-1.26978.67016-1.26978,1.44362,0,.78416.45475,1.45433,1.26978,1.45433.81377,0,1.2786-.67016,1.2786-1.45433Z"/>
    <path class="st1" d="M281.5713,93.26663c0-.69158-.36153-.9284-.91832-.9284-.51522,0-.91832.28847-1.13499.58765v3.35207h-1.30883v-4.98149h1.30883v.65001c.31996-.38169.9284-.77409,1.74343-.77409,1.09342,0,1.61872.61914,1.61872,1.58848v3.51709h-1.30883v-3.01132Z"/>
    <path class="st1" d="M283.86396,93.78184c0-1.41276.99013-2.60947,2.63026-2.60947,1.65021,0,2.64034,1.19672,2.64034,2.60947,0,1.42346-.99013,2.62018-2.64034,2.62018-1.64013,0-2.63026-1.19672-2.63026-2.62018ZM287.77281,93.78184c0-.77346-.46483-1.44362-1.2786-1.44362-.81503,0-1.26978.67016-1.26978,1.44362,0,.78416.45475,1.45433,1.26978,1.45433.81377,0,1.2786-.67016,1.2786-1.45433Z"/>
    <path class="st1" d="M292.42741,91.17237c1.02162,0,1.64013.44404,1.97017.90762l-.8566.79424c-.23682-.34012-.5971-.536-1.05185-.536-.79361,0-1.3504.57757-1.3504,1.44362,0,.86667.55679,1.45433,1.3504,1.45433.45475,0,.81503-.20596,1.05185-.536l.8566.79361c-.33004.4642-.94856.90825-1.97017.90825-1.53684,0-2.64034-1.08334-2.64034-2.62018,0-1.52613,1.1035-2.60947,2.64034-2.60947Z"/>
    <path class="st1" d="M295.12191,89.7804c0-.43334.36153-.78416.78353-.78416.43334,0,.78479.35083.78479.78416,0,.43271-.35146.78353-.78479.78353-.422,0-.78353-.35083-.78353-.78353ZM295.2567,91.29645h1.30883v4.98149h-1.30883v-4.98149Z"/>
    <path class="st1" d="M301.29067,95.64872c-.39177.48499-.93848.7533-1.53684.7533-1.25844,0-2.207-.94919-2.207-2.60947,0-1.63005.93848-2.62018,2.207-2.62018.58828,0,1.14507.25824,1.53684.76338v-2.53704h1.32017v6.87923h-1.32017v-.62922ZM301.29067,92.90509c-.22675-.33004-.69032-.56687-1.13373-.56687-.74322,0-1.25844.58765-1.25844,1.45433,0,.85597.51522,1.44362,1.25844,1.44362.44342,0,.90699-.23745,1.13373-.5675v-1.76358Z"/>
    <path class="st1" d="M303.59467,93.78184c0-1.41276.99013-2.60947,2.63026-2.60947,1.65021,0,2.64034,1.19672,2.64034,2.60947,0,1.42346-.99013,2.62018-2.64034,2.62018-1.64013,0-2.63026-1.19672-2.63026-2.62018ZM307.50352,93.78184c0-.77346-.46483-1.44362-1.2786-1.44362-.81503,0-1.26978.67016-1.26978,1.44362,0,.78416.45475,1.45433,1.26978,1.45433.81377,0,1.2786-.67016,1.2786-1.45433Z"/>
  </g>
  <g>
    <path class="st1" d="M213.269,158.00019h-1.07327v2.46524h-1.46377v-6.87923h3.21728c1.43354,0,2.31029.93848,2.31029,2.21708,0,1.2175-.76338,1.86688-1.50534,2.04261l1.54691,2.61955h-1.6817l-1.3504-2.46524ZM213.73257,154.84463h-1.53684v1.89774h1.53684c.58828,0,1.0317-.37161,1.0317-.94919s-.44342-.94856-1.0317-.94856Z"/>
    <path class="st1" d="M219.29542,155.35985c1.48519,0,2.49547,1.11421,2.49547,2.74363v.2891h-3.70226c.08314.62922.58828,1.15515,1.43354,1.15515.46483,0,1.01154-.18581,1.33025-.49506l.5782.84526c-.50514.4642-1.2786.69095-2.05205.69095-1.51668,0-2.66175-1.02099-2.66175-2.61955,0-1.44362,1.06319-2.60947,2.57861-2.60947ZM218.06847,157.50512h2.4539c-.03023-.47428-.36027-1.1035-1.22695-1.1035-.81503,0-1.16522.60844-1.22695,1.1035Z"/>
    <path class="st1" d="M222.87675,158.89772c.36153.34012,1.10476.68087,1.72327.68087.56687,0,.83518-.19588.83518-.50577,0-.3502-.43334-.47428-1.0002-.58765-.8566-.16502-1.9601-.37161-1.9601-1.55762,0-.83518.73189-1.5677,2.04198-1.5677.84652,0,1.51668.2891,2.00167.68087l-.51648.89754c-.29855-.31996-.86542-.57757-1.47511-.57757-.47365,0-.78353.1751-.78353.4642,0,.30926.39177.42263.94856.536.8566.16502,2.00167.39177,2.00167,1.62942,0,.91832-.77346,1.59856-2.15535,1.59856-.86667,0-1.70186-.28847-2.22841-.77346l.56687-.91769Z"/>
    <path class="st1" d="M227.66614,162.36316v-6.87923h1.30883v.62922c.38169-.48499.9284-.7533,1.53684-.7533,1.27986,0,2.207.94919,2.207,2.60947,0,1.66092-.92714,2.61955-2.207,2.61955-.58702,0-1.13373-.2469-1.53684-.76275v2.53704h-1.30883ZM230.09988,156.52571c-.42326,0-.90825.24753-1.12491.56687v1.76421c.21667.30926.70165.56687,1.12491.56687.75204,0,1.25844-.58765,1.25844-1.45433,0-.85597-.5064-1.44362-1.25844-1.44362Z"/>
    <path class="st1" d="M233.38266,157.96932c0-1.41276.99013-2.60947,2.63026-2.60947,1.65021,0,2.64034,1.19672,2.64034,2.60947,0,1.42346-.99013,2.61955-2.64034,2.61955-1.64013,0-2.63026-1.19609-2.63026-2.61955ZM237.29152,157.96932c0-.77346-.46483-1.44362-1.2786-1.44362-.81503,0-1.26978.67016-1.26978,1.44362,0,.78416.45475,1.45433,1.26978,1.45433.81377,0,1.2786-.67016,1.2786-1.45433Z"/>
    <path class="st1" d="M242.98789,157.45348c0-.69095-.36027-.92777-.91832-.92777-.51522,0-.91706.28847-1.13373.58765v3.35207h-1.31009v-4.98149h1.31009v.64938c.31996-.38106.9284-.77346,1.74343-.77346,1.09216,0,1.61872.61914,1.61872,1.58848v3.51709h-1.31009v-3.01195Z"/>
    <path class="st1" d="M249.02438,159.8362c-.39177.48499-.93848.75267-1.53684.75267-1.25844,0-2.207-.94856-2.207-2.60884,0-1.63005.93848-2.62018,2.207-2.62018.58828,0,1.14507.25824,1.53684.76338v-2.53704h1.32017v6.87923h-1.32017v-.62922ZM249.02438,157.09257c-.22675-.33004-.69032-.56687-1.13373-.56687-.74322,0-1.25844.58765-1.25844,1.45433,0,.85597.51522,1.44362,1.25844,1.44362.44342,0,.90699-.23682,1.13373-.56687v-1.76421Z"/>
    <path class="st1" d="M253.90699,155.35985c1.48519,0,2.49547,1.11421,2.49547,2.74363v.2891h-3.70226c.08188.62922.58702,1.15515,1.43354,1.15515.46357,0,1.01028-.18581,1.33025-.49506l.57694.84526c-.50514.4642-1.2786.69095-2.05205.69095-1.51542,0-2.66049-1.02099-2.66049-2.61955,0-1.44362,1.06193-2.60947,2.57861-2.60947ZM252.67878,157.50512h2.45516c-.03149-.47428-.36153-1.1035-1.22695-1.1035-.81503,0-1.16648.60844-1.22821,1.1035Z"/>
    <path class="st1" d="M257.35479,155.48393h1.30883v.68087c.35146-.44342.96997-.79424,1.58848-.79424v1.2786c-.09196-.02079-.21667-.03086-.36027-.03086-.43334,0-1.01154.23745-1.22821.55679v3.29034h-1.30883v-4.98149Z"/>
  </g>
  <g>
    <path class="st1" d="M209.17119,213.60154h-1.07201v2.46524h-1.46503v-6.87923h3.21854c1.43354,0,2.31029.93848,2.31029,2.21834,0,1.21687-.76338,1.86562-1.5066,2.04198l1.54691,2.61892h-1.68044l-1.35166-2.46524ZM209.63602,210.44599h-1.53684v1.89837h1.53684c.58702,0,1.03044-.37161,1.03044-.94982,0-.57694-.44342-.94856-1.03044-.94856Z"/>
    <path class="st1" d="M215.19887,210.9612c1.48519,0,2.49547,1.11484,2.49547,2.74363v.28973h-3.70226c.08188.62859.58702,1.15515,1.43354,1.15515.46357,0,1.01028-.18644,1.33025-.49506l.57694.84526c-.50514.46357-1.2786.69158-2.05205.69158-1.51542,0-2.66049-1.02162-2.66049-2.62018,0-1.44362,1.06193-2.6101,2.57861-2.6101ZM213.97066,213.10648h2.45516c-.03149-.47365-.36153-1.1035-1.22695-1.1035-.81503,0-1.16648.60844-1.22821,1.1035Z"/>
    <path class="st1" d="M220.96704,210.9612c1.02036,0,1.64013.44467,1.97017.90825l-.8566.79361c-.23682-.34012-.59836-.53537-1.05185-.53537-.79487,0-1.35166.57694-1.35166,1.44362s.55679,1.4537,1.35166,1.4537c.45349,0,.81503-.20533,1.05185-.53537l.8566.79361c-.33004.46357-.94982.90825-1.97017.90825-1.53684,0-2.64034-1.08334-2.64034-2.62018,0-1.52676,1.1035-2.6101,2.64034-2.6101Z"/>
    <path class="st1" d="M227.15722,215.43818c-.34012.38169-.93848.7533-1.75351.7533-1.09342,0-1.60864-.59836-1.60864-1.56833v-3.53724h1.31009v3.02202c0,.69032.36027.91706.91832.91706.50514,0,.90699-.27839,1.13373-.56687v-3.37222h1.31009v4.98086h-1.31009v-.62859Z"/>
    <path class="st1" d="M229.7711,217.96515v-6.87923h1.30883v.62859c.38169-.48499.9284-.7533,1.53684-.7533,1.27986,0,2.207.94982,2.207,2.6101s-.92714,2.62018-2.207,2.62018c-.58702,0-1.13373-.24816-1.53684-.76338v2.53704h-1.30883ZM232.20484,212.12769c-.42326,0-.90825.2469-1.12491.56687v1.76358c.21667.30989.70165.56687,1.12491.56687.75204,0,1.25844-.58702,1.25844-1.4537,0-.8566-.5064-1.44362-1.25844-1.44362Z"/>
    <path class="st1" d="M238.06624,210.9612c1.48519,0,2.49547,1.11484,2.49547,2.74363v.28973h-3.70226c.08188.62859.58702,1.15515,1.43354,1.15515.46357,0,1.01028-.18644,1.33025-.49506l.57694.84526c-.50514.46357-1.2786.69158-2.05205.69158-1.51542,0-2.66049-1.02162-2.66049-2.62018,0-1.44362,1.06193-2.6101,2.57861-2.6101ZM236.83803,213.10648h2.45516c-.03149-.47365-.36153-1.1035-1.22695-1.1035-.81503,0-1.16648.60844-1.22821,1.1035Z"/>
    <path class="st1" d="M241.51404,211.08591h1.30883v.68024c.35146-.44342.96997-.79361,1.58848-.79361v1.2786c-.09196-.02016-.21667-.03149-.36027-.03149-.43334,0-1.01154.23808-1.22821.55679v3.29034h-1.30883v-4.98086Z"/>
    <path class="st1" d="M248.21943,215.55156c-.34012.40184-.9284.63993-1.57841.63993-.79361,0-1.73209-.53663-1.73209-1.65021,0-1.16648.93848-1.58848,1.73209-1.58848.66008,0,1.24836.20533,1.57841.60844v-.69158c0-.50514-.43334-.83518-1.09342-.83518-.53663,0-1.0317.19651-1.4537.58828l-.49506-.87675c.60844-.53663,1.39197-.78479,2.17551-.78479,1.13499,0,2.17676.45475,2.17676,1.88829v3.21728h-1.31009v-.51522ZM248.21943,214.25155c-.21667-.28847-.62985-.43334-1.05185-.43334-.51648,0-.93848.27839-.93848.7533,0,.46483.422.73189.93848.73189.422,0,.83518-.14361,1.05185-.43208v-.61977Z"/>
    <path class="st1" d="M250.83205,211.08591h1.31009v.68024c.3502-.44342.96871-.79361,1.58848-.79361v1.2786c-.09322-.02016-.21667-.03149-.36153-.03149-.43334,0-1.01028.23808-1.22695.55679v3.29034h-1.31009v-4.98086Z"/>
    <path class="st1" d="M254.68044,214.49971c.36153.34012,1.10476.68024,1.72327.68024.56687,0,.83518-.19525.83518-.50514,0-.3502-.43334-.47491-1.0002-.58828-.8566-.16502-1.9601-.37035-1.9601-1.55699,0-.83518.73189-1.56833,2.04198-1.56833.84652,0,1.51668.28973,2.00167.6815l-.51648.89691c-.29855-.31996-.86542-.57694-1.47511-.57694-.47365,0-.78353.1751-.78353.46357,0,.30989.39177.42326.94856.53663.8566.16502,2.00167.39177,2.00167,1.62879,0,.91832-.77346,1.59982-2.15535,1.59982-.86667,0-1.70186-.28973-2.22841-.77472l.56687-.91706Z"/>
    <path class="st1" d="M261.72848,210.9612c1.48519,0,2.49547,1.11484,2.49547,2.74363v.28973h-3.70226c.08188.62859.58702,1.15515,1.43354,1.15515.46357,0,1.01028-.18644,1.33025-.49506l.57694.84526c-.50514.46357-1.2786.69158-2.05205.69158-1.51542,0-2.66049-1.02162-2.66049-2.62018,0-1.44362,1.06193-2.6101,2.57861-2.6101ZM260.50027,213.10648h2.45516c-.03149-.47365-.36153-1.1035-1.22695-1.1035-.81503,0-1.16648.60844-1.22821,1.1035Z"/>
  </g>
  <path class="st1" d="M233.66106,226.39633c.34012,0,.56687-.09322.69032-.36153l.18644-.422-2.02182-5.05392h1.40331l1.29875,3.46544,1.30001-3.46544h1.41339l-2.34179,5.79589c-.37161.93848-1.0317,1.18664-1.88703,1.20679-.15494,0-.48499-.03149-.65001-.0718l.19525-1.17656c.11337.05165.28973.08314.41318.08314Z"/>
  <g>
    <path class="st1" d="M213.20854,236.91106v-6.87923h1.30883v.62985c.38169-.48499.9284-.7533,1.53684-.7533,1.27986,0,2.207.94856,2.207,2.60884,0,1.66155-.92714,2.62018-2.207,2.62018-.58702,0-1.13373-.2469-1.53684-.76338v2.53704h-1.30883ZM215.64228,231.0736c-.42326,0-.90825.24816-1.12491.56687v1.76484c.21667.30863.70165.56687,1.12491.56687.75204,0,1.25844-.58828,1.25844-1.45496,0-.85534-.5064-1.44362-1.25844-1.44362Z"/>
    <path class="st1" d="M219.24503,230.03183h1.31009v.6815c.3502-.44342.96871-.79487,1.58848-.79487v1.2786c-.09322-.02016-.21667-.03023-.36153-.03023-.43334,0-1.01028.23682-1.22695.55679v3.29034h-1.31009v-4.98212Z"/>
    <path class="st1" d="M222.63993,232.51722c0-1.41213.99013-2.60884,2.63026-2.60884,1.65021,0,2.64034,1.19672,2.64034,2.60884,0,1.42346-.99013,2.62018-2.64034,2.62018-1.64013,0-2.63026-1.19672-2.63026-2.62018ZM226.54878,232.51722c0-.77346-.46357-1.44362-1.2786-1.44362s-1.26852.67016-1.26852,1.44362c0,.78479.45349,1.45496,1.26852,1.45496s1.2786-.67016,1.2786-1.45496Z"/>
    <path class="st1" d="M229.01654,233.44562c.36153.34012,1.10476.6815,1.72327.6815.56687,0,.83518-.19651.83518-.5064,0-.3502-.43334-.47365-1.0002-.58702-.8566-.16502-1.9601-.37161-1.9601-1.55825,0-.83518.73189-1.56707,2.04198-1.56707.84652,0,1.51668.28847,2.00167.68024l-.51648.89817c-.29855-.31996-.86542-.5782-1.47511-.5782-.47365,0-.78353.1751-.78353.46483,0,.30863.39177.422.94856.53537.8566.16502,2.00167.39177,2.00167,1.63005,0,.91832-.77346,1.59856-2.15535,1.59856-.86667,0-1.70186-.28847-2.22841-.77346l.56687-.91832Z"/>
    <path class="st1" d="M233.80592,236.91106v-6.87923h1.30883v.62985c.38169-.48499.9284-.7533,1.53684-.7533,1.27986,0,2.207.94856,2.207,2.60884,0,1.66155-.92714,2.62018-2.207,2.62018-.58702,0-1.13373-.2469-1.53684-.76338v2.53704h-1.30883ZM236.23967,231.0736c-.42326,0-.90825.24816-1.12491.56687v1.76484c.21667.30863.70165.56687,1.12491.56687.75204,0,1.25844-.58828,1.25844-1.45496,0-.85534-.5064-1.44362-1.25844-1.44362Z"/>
    <path class="st1" d="M242.10106,229.90838c1.48519,0,2.49547,1.11358,2.49547,2.74363v.28847h-3.70226c.08188.62985.58702,1.15515,1.43354,1.15515.46357,0,1.01028-.18518,1.33025-.49506l.57694.84526c-.50514.46483-1.2786.69158-2.05205.69158-1.51542,0-2.66049-1.02162-2.66049-2.62018,0-1.44362,1.06193-2.60884,2.57861-2.60884ZM240.87285,232.05365h2.45516c-.03149-.47491-.36153-1.1035-1.22695-1.1035-.81503,0-1.16648.60844-1.22821,1.1035Z"/>
    <path class="st1" d="M245.54887,230.03183h1.31009v.6815c.3502-.44342.96871-.79487,1.58848-.79487v1.2786c-.09322-.02016-.21667-.03023-.36153-.03023-.43334,0-1.01028.23682-1.22695.55679v3.29034h-1.31009v-4.98212Z"/>
    <path class="st1" d="M252.25426,234.49747c-.34012.4031-.92714.63993-1.57715.63993-.79487,0-1.73335-.53663-1.73335-1.65021,0-1.16522.93848-1.58848,1.73335-1.58848.66008,0,1.2471.20659,1.57715.60844v-.69032c0-.5064-.43208-.83644-1.09216-.83644-.53663,0-1.0317.19651-1.45496.58828l-.49506-.87675c.60844-.53663,1.39197-.78353,2.17676-.78353,1.13373,0,2.17551.45349,2.17551,1.88703v3.21854h-1.31009v-.51648ZM252.25426,233.19872c-.21667-.28847-.62859-.43334-1.05185-.43334-.51522,0-.93848.27839-.93848.7533,0,.46357.42326.73189.93848.73189.42326,0,.83518-.14487,1.05185-.43334v-.61851Z"/>
    <path class="st1" d="M254.86688,230.03183h1.31009v.6815c.3502-.44342.96871-.79487,1.58848-.79487v1.2786c-.09322-.02016-.21667-.03023-.36153-.03023-.43334,0-1.01028.23682-1.22695.55679v3.29034h-1.31009v-4.98212Z"/>
  </g>
  <polygon class="st2" points="116.19661 5.52475 116.19661 71.09082 192.98383 45.8197 192.98383 5.52475 116.19661 5.52475"/>
  <polygon class="st2" points="281.61166 5.27415 281.61166 70.55261 358.39887 46.21021 358.39887 5.27415 281.61166 5.27415"/>
  <polygon class="st2" points="198.90052 5.52475 198.90052 71.09082 275.68775 45.8197 275.68775 5.52475 198.90052 5.52475"/>
  <g>
    <path class="st1" d="M285.96262,21.24002h1.46503v6.87923h-1.46503v-6.87923Z"/>
    <path class="st1" d="M292.1213,25.10793c0-.69158-.36027-.9284-.91832-.9284-.51522,0-.91706.28847-1.13373.58765v3.35207h-1.31009v-4.98149h1.31009v.65001c.31996-.38169.9284-.77409,1.74343-.77409,1.09216,0,1.61872.61914,1.61872,1.58848v3.51709h-1.31009v-3.01132Z"/>
    <path class="st1" d="M295.0224,24.28283h-.8251v-1.14507h.8251v-.26832c0-1.08271.70165-1.73272,1.6817-1.73272.37161,0,.71173.08251.94856.20659l-.26832.92777c-.11337-.0718-.26832-.10267-.422-.10267-.37161,0-.61977.24753-.61977.72181v.24753h1.01154v1.14507h-1.01154v3.83642h-1.32017v-3.83642Z"/>
    <path class="st1" d="M298.10867,23.13776h1.31009v.68087c.3502-.44404.96871-.79424,1.58848-.79424v1.2786c-.09322-.02016-.21667-.03086-.36153-.03086-.43334,0-1.01028.23745-1.22695.55679v3.29034h-1.31009v-4.98149Z"/>
    <path class="st1" d="M304.81406,27.6034c-.34012.40247-.92714.63993-1.57715.63993-.79487,0-1.73335-.53663-1.73335-1.65021,0-1.16585.93848-1.58848,1.73335-1.58848.66008,0,1.2471.20596,1.57715.60844v-.69095c0-.50577-.43208-.83581-1.09216-.83581-.53663,0-1.0317.19651-1.45496.58828l-.49506-.87675c.60844-.53663,1.39197-.78416,2.17676-.78416,1.13373,0,2.17551.45412,2.17551,1.88766v3.21791h-1.31009v-.51585ZM304.81406,26.30402c-.21667-.2891-.62859-.43334-1.05185-.43334-.51522,0-.93848.27839-.93848.7533,0,.4642.42326.73189.93848.73189.42326,0,.83518-.14424,1.05185-.43271v-.61914Z"/>
    <path class="st1" d="M309.68533,23.01368c1.48519,0,2.49547,1.11421,2.49547,2.74363v.2891h-3.70226c.08314.62859.58828,1.15515,1.43354,1.15515.46483,0,1.01154-.18581,1.33025-.49506l.5782.84526c-.50514.4642-1.2786.69158-2.05205.69158-1.51668,0-2.66175-1.02162-2.66175-2.62018,0-1.44362,1.06319-2.60947,2.57861-2.60947ZM308.45838,25.15895h2.4539c-.03023-.47428-.36027-1.1035-1.22695-1.1035-.81503,0-1.16522.60844-1.22695,1.1035Z"/>
    <path class="st1" d="M313.26666,26.55155c.36153.34012,1.10476.68087,1.72327.68087.56687,0,.83518-.19588.83518-.50577,0-.3502-.43334-.47428-1.0002-.58765-.8566-.16502-1.9601-.37098-1.9601-1.55762,0-.83518.73189-1.5677,2.04198-1.5677.84652,0,1.51668.2891,2.00167.68087l-.51648.89754c-.29855-.31996-.86542-.57757-1.47511-.57757-.47365,0-.78353.1751-.78353.4642,0,.30926.39177.42263.94856.536.8566.16502,2.00167.39177,2.00167,1.62942,0,.91832-.77346,1.59919-2.15535,1.59919-.86667,0-1.70186-.2891-2.22841-.77409l.56687-.91769Z"/>
    <path class="st1" d="M318.31429,26.88159v-2.59877h-.8251v-1.14507h.8251v-1.36174h1.32017v1.36174h1.01028v1.14507h-1.01028v2.24794c0,.30926.16502.54671.45349.54671.19651,0,.38169-.07243.45349-.14424l.27839.99013c-.19525.1751-.54671.31996-1.09342.31996-.91706,0-1.41213-.47491-1.41213-1.36174Z"/>
    <path class="st1" d="M321.54416,23.13776h1.30883v.68087c.35146-.44404.96997-.79424,1.58848-.79424v1.2786c-.09196-.02016-.21667-.03086-.36027-.03086-.43334,0-1.01154.23745-1.22821.55679v3.29034h-1.30883v-4.98149Z"/>
    <path class="st1" d="M328.62117,27.49003c-.34138.38169-.93848.7533-1.75351.7533-1.09342,0-1.60864-.59836-1.60864-1.56833v-3.53724h1.30883v3.02202c0,.69095.36153.91769.91832.91769.50514,0,.90825-.27839,1.13499-.5675v-3.37222h1.30883v4.98149h-1.30883v-.62922Z"/>
    <path class="st1" d="M333.55416,23.01368c1.02162,0,1.64013.44404,1.97017.90762l-.8566.79424c-.23682-.34012-.5971-.536-1.05185-.536-.79361,0-1.3504.57757-1.3504,1.44362,0,.86667.55679,1.45433,1.3504,1.45433.45475,0,.81503-.20596,1.05185-.536l.8566.79361c-.33004.4642-.94856.90825-1.97017.90825-1.53684,0-2.64034-1.08334-2.64034-2.62018,0-1.52613,1.1035-2.60947,2.64034-2.60947Z"/>
    <path class="st1" d="M336.64043,26.88159v-2.59877h-.8251v-1.14507h.8251v-1.36174h1.32017v1.36174h1.01154v1.14507h-1.01154v2.24794c0,.30926.16502.54671.45349.54671.19651,0,.38169-.07243.45475-.14424l.27839.99013c-.19651.1751-.54671.31996-1.09342.31996-.91832,0-1.41339-.47491-1.41339-1.36174Z"/>
    <path class="st1" d="M343.23371,27.49003c-.34138.38169-.93848.7533-1.75351.7533-1.09342,0-1.60864-.59836-1.60864-1.56833v-3.53724h1.30883v3.02202c0,.69095.36153.91769.91832.91769.50514,0,.90825-.27839,1.13499-.5675v-3.37222h1.30883v4.98149h-1.30883v-.62922Z"/>
    <path class="st1" d="M345.84633,23.13776h1.30883v.68087c.35146-.44404.96997-.79424,1.58848-.79424v1.2786c-.09196-.02016-.21667-.03086-.36027-.03086-.43334,0-1.01154.23745-1.22821.55679v3.29034h-1.30883v-4.98149Z"/>
    <path class="st1" d="M352.55172,27.6034c-.34012.40247-.9284.63993-1.57841.63993-.79361,0-1.73209-.53663-1.73209-1.65021,0-1.16585.93848-1.58848,1.73209-1.58848.66008,0,1.24836.20596,1.57841.60844v-.69095c0-.50577-.43334-.83581-1.09342-.83581-.53663,0-1.0317.19651-1.4537.58828l-.49506-.87675c.60844-.53663,1.39197-.78416,2.17551-.78416,1.13499,0,2.17676.45412,2.17676,1.88766v3.21791h-1.31009v-.51585ZM352.55172,26.30402c-.21667-.2891-.62985-.43334-1.05185-.43334-.51648,0-.93848.27839-.93848.7533,0,.4642.422.73189.93848.73189.422,0,.83518-.14424,1.05185-.43271v-.61914Z"/>
  </g>
  <g>
    <path class="st1" d="M209.77459,21.24002h1.46377v6.87923h-1.46377v-6.87923Z"/>
    <path class="st1" d="M215.93327,25.10793c0-.69158-.36153-.9284-.91832-.9284-.51522,0-.91832.28847-1.13499.58765v3.35207h-1.30883v-4.98149h1.30883v.65001c.31996-.38169.9284-.77409,1.74343-.77409,1.09342,0,1.61872.61914,1.61872,1.58848v3.51709h-1.30883v-3.01132Z"/>
    <path class="st1" d="M218.67942,26.55155c.36153.34012,1.1035.68087,1.72201.68087.56813,0,.83518-.19588.83518-.50577,0-.3502-.43208-.47428-1.0002-.58765-.85534-.16502-1.95884-.37098-1.95884-1.55762,0-.83518.73189-1.5677,2.04198-1.5677.84526,0,1.51542.2891,2.00041.68087l-.51522.89754c-.29981-.31996-.86667-.57757-1.47511-.57757-.47491,0-.78353.1751-.78353.4642,0,.30926.39177.42263.94856.536.8566.16502,2.00041.39177,2.00041,1.62942,0,.91832-.77346,1.59919-2.15535,1.59919-.86667,0-1.70186-.2891-2.22715-.77409l.56687-.91769Z"/>
    <path class="st1" d="M223.72579,26.88159v-2.59877h-.8251v-1.14507h.8251v-1.36174h1.32017v1.36174h1.01028v1.14507h-1.01028v2.24794c0,.30926.16502.54671.45349.54671.19651,0,.38169-.07243.45349-.14424l.27839.99013c-.19525.1751-.54671.31996-1.09342.31996-.91706,0-1.41213-.47491-1.41213-1.36174Z"/>
    <path class="st1" d="M226.82214,21.62171c0-.43334.36027-.78416.78353-.78416.43334,0,.78353.35083.78353.78416,0,.43271-.3502.78353-.78353.78353-.42326,0-.78353-.35083-.78353-.78353ZM226.95566,23.13776h1.31009v4.98149h-1.31009v-4.98149Z"/>
    <path class="st1" d="M229.82401,26.88159v-2.59877h-.8251v-1.14507h.8251v-1.36174h1.32017v1.36174h1.01154v1.14507h-1.01154v2.24794c0,.30926.16502.54671.45349.54671.19651,0,.38169-.07243.45475-.14424l.27839.99013c-.19651.1751-.54671.31996-1.09342.31996-.91832,0-1.41339-.47491-1.41339-1.36174Z"/>
    <path class="st1" d="M236.41729,27.49003c-.34138.38169-.93848.7533-1.75351.7533-1.09342,0-1.60864-.59836-1.60864-1.56833v-3.53724h1.30883v3.02202c0,.69095.36153.91769.91832.91769.50514,0,.90825-.27839,1.13499-.5675v-3.37222h1.30883v4.98149h-1.30883v-.62922Z"/>
    <path class="st1" d="M241.35028,23.01368c1.02036,0,1.64013.44404,1.97017.90762l-.8566.79424c-.23682-.34012-.59836-.536-1.05185-.536-.79487,0-1.35166.57757-1.35166,1.44362,0,.86667.55679,1.45433,1.35166,1.45433.45349,0,.81503-.20596,1.05185-.536l.8566.79361c-.33004.4642-.94982.90825-1.97017.90825-1.53684,0-2.64034-1.08334-2.64034-2.62018,0-1.52613,1.1035-2.60947,2.64034-2.60947Z"/>
    <path class="st1" d="M244.04478,21.62171c0-.43334.36027-.78416.78353-.78416.43334,0,.78353.35083.78353.78416,0,.43271-.3502.78353-.78353.78353-.42326,0-.78353-.35083-.78353-.78353ZM244.17831,23.13776h1.31009v4.98149h-1.31009v-4.98149Z"/>
    <path class="st1" d="M246.46971,25.62315c0-1.41276.99013-2.60947,2.63026-2.60947,1.65021,0,2.64034,1.19672,2.64034,2.60947,0,1.42346-.99013,2.62018-2.64034,2.62018-1.64013,0-2.63026-1.19672-2.63026-2.62018ZM250.37856,25.62315c0-.77346-.46357-1.44362-1.2786-1.44362s-1.26852.67016-1.26852,1.44362c0,.78416.45349,1.45433,1.26852,1.45433s1.2786-.67016,1.2786-1.45433Z"/>
    <path class="st1" d="M256.07493,25.10793c0-.69158-.36027-.9284-.91832-.9284-.51522,0-.91706.28847-1.13373.58765v3.35207h-1.31009v-4.98149h1.31009v.65001c.31996-.38169.9284-.77409,1.74343-.77409,1.09216,0,1.61872.61914,1.61872,1.58848v3.51709h-1.31009v-3.01132Z"/>
    <path class="st1" d="M260.9462,23.01368c1.48519,0,2.49547,1.11421,2.49547,2.74363v.2891h-3.70226c.08314.62859.58828,1.15515,1.43354,1.15515.46483,0,1.01154-.18581,1.33025-.49506l.5782.84526c-.50514.4642-1.2786.69158-2.05205.69158-1.51668,0-2.66175-1.02162-2.66175-2.62018,0-1.44362,1.06319-2.60947,2.57861-2.60947ZM259.71925,25.15895h2.4539c-.03023-.47428-.36027-1.1035-1.22695-1.1035-.81503,0-1.16522.60844-1.22695,1.1035Z"/>
    <path class="st1" d="M264.52753,26.55155c.36153.34012,1.10476.68087,1.72327.68087.56687,0,.83518-.19588.83518-.50577,0-.3502-.43334-.47428-1.0002-.58765-.8566-.16502-1.9601-.37098-1.9601-1.55762,0-.83518.73189-1.5677,2.04198-1.5677.84652,0,1.51668.2891,2.00167.68087l-.51648.89754c-.29855-.31996-.86542-.57757-1.47511-.57757-.47365,0-.78353.1751-.78353.4642,0,.30926.39177.42263.94856.536.8566.16502,2.00167.39177,2.00167,1.62942,0,.91832-.77346,1.59919-2.15535,1.59919-.86667,0-1.70186-.2891-2.22841-.77409l.56687-.91769Z"/>
  </g>
  <g>
    <path class="st1" d="M124.18414,21.24002h1.4644v6.87923h-1.4644v-6.87923Z"/>
    <path class="st1" d="M130.34283,25.10793c0-.69158-.3609-.9284-.91832-.9284-.51522,0-.91769.28847-1.13436.58765v3.35207h-1.30946v-4.98149h1.30946v.65001c.31996-.38169.9284-.77409,1.74343-.77409,1.09279,0,1.61935.61914,1.61935,1.58848v3.51709h-1.31009v-3.01132Z"/>
    <path class="st1" d="M133.08898,26.55155c.36153.34012,1.10413.68087,1.72264.68087.5675,0,.83581-.19588.83581-.50577,0-.3502-.43334-.47428-1.00083-.58765-.85597-.16502-1.95947-.37098-1.95947-1.55762,0-.83518.73189-1.5677,2.04198-1.5677.84589,0,1.51605.2891,2.00104.68087l-.51585.89754c-.29918-.31996-.86605-.57757-1.47511-.57757-.47428,0-.78353.1751-.78353.4642,0,.30926.39177.42263.94856.536.8566.16502,2.00104.39177,2.00104,1.62942,0,.91832-.77346,1.59919-2.15535,1.59919-.86667,0-1.70186-.2891-2.22778-.77409l.56687-.91769Z"/>
    <path class="st1" d="M138.13534,26.88159v-2.59877h-.8251v-1.14507h.8251v-1.36174h1.32017v1.36174h1.01091v1.14507h-1.01091v2.24794c0,.30926.16502.54671.45349.54671.19651,0,.38169-.07243.45412-.14424l.27839.99013c-.19588.1751-.54671.31996-1.09342.31996-.91769,0-1.41276-.47491-1.41276-1.36174Z"/>
    <path class="st1" d="M141.36585,23.13776h1.30946v.68087c.35083-.44404.96997-.79424,1.58848-.79424v1.2786c-.09259-.02016-.21667-.03086-.3609-.03086-.43334,0-1.01091.23745-1.22758.55679v3.29034h-1.30946v-4.98149Z"/>
    <path class="st1" d="M148.44285,27.49003c-.34075.38169-.93848.7533-1.75351.7533-1.09342,0-1.60864-.59836-1.60864-1.56833v-3.53724h1.30946v3.02202c0,.69095.3609.91769.91832.91769.50514,0,.90762-.27839,1.13436-.5675v-3.37222h1.30946v4.98149h-1.30946v-.62922Z"/>
    <path class="st1" d="M157.23305,24.97378c0-.4642-.20596-.79424-.74259-.79424-.4642,0-.84526.30926-1.03107.57757v3.36214h-1.32017v-3.14548c0-.4642-.20659-.79424-.74259-.79424-.45412,0-.83581.30926-1.0317.58765v3.35207h-1.30946v-4.98149h1.30946v.65001c.20659-.29918.86667-.77409,1.63005-.77409.73189,0,1.19609.34075,1.38189.90762.28847-.45349.94856-.90762,1.71193-.90762.91769,0,1.4644.48499,1.4644,1.50597v3.5996h-1.32017v-3.14548Z"/>
    <path class="st1" d="M162.10621,23.01368c1.48519,0,2.49547,1.11421,2.49547,2.74363v.2891h-3.70226c.08251.62859.58765,1.15515,1.43354,1.15515.4642,0,1.01091-.18581,1.33025-.49506l.57757.84526c-.50514.4642-1.2786.69158-2.05205.69158-1.51605,0-2.66112-1.02162-2.66112-2.62018,0-1.44362,1.06256-2.60947,2.57861-2.60947ZM160.87863,25.15895h2.45453c-.03086-.47428-.3609-1.1035-1.22695-1.1035-.81503,0-1.16585.60844-1.22758,1.1035Z"/>
    <path class="st1" d="M168.91616,25.10793c0-.69158-.3609-.9284-.91832-.9284-.51522,0-.91769.28847-1.13436.58765v3.35207h-1.30946v-4.98149h1.30946v.65001c.31996-.38169.9284-.77409,1.74343-.77409,1.09279,0,1.61935.61914,1.61935,1.58848v3.51709h-1.31009v-3.01132Z"/>
    <path class="st1" d="M171.78702,26.88159v-2.59877h-.8251v-1.14507h.8251v-1.36174h1.32017v1.36174h1.01091v1.14507h-1.01091v2.24794c0,.30926.16502.54671.45349.54671.19651,0,.38169-.07243.45412-.14424l.27839.99013c-.19588.1751-.54671.31996-1.09342.31996-.91769,0-1.41276-.47491-1.41276-1.36174Z"/>
    <path class="st1" d="M174.69693,25.62315c0-1.41276.99013-2.60947,2.63026-2.60947,1.65021,0,2.64034,1.19672,2.64034,2.60947,0,1.42346-.99013,2.62018-2.64034,2.62018-1.64013,0-2.63026-1.19672-2.63026-2.62018ZM178.60579,25.62315c0-.77346-.4642-1.44362-1.2786-1.44362-.81503,0-1.26852.67016-1.26852,1.44362,0,.78416.45349,1.45433,1.26852,1.45433.8144,0,1.2786-.67016,1.2786-1.45433Z"/>
    <path class="st1" d="M181.0748,26.55155c.3609.34012,1.1035.68087,1.72201.68087.5675,0,.83518-.19588.83518-.50577,0-.3502-.43271-.47428-1.0002-.58765-.85597-.16502-1.95947-.37098-1.95947-1.55762,0-.83518.73252-1.5677,2.04198-1.5677.84589,0,1.51605.2891,2.00104.68087l-.51585.89754c-.29918-.31996-.86605-.57757-1.47448-.57757-.47491,0-.78416.1751-.78416.4642,0,.30926.39177.42263.94919.536.85597.16502,2.00041.39177,2.00041,1.62942,0,.91832-.77346,1.59919-2.15535,1.59919-.86667,0-1.70186-.2891-2.22778-.77409l.5675-.91769Z"/>
  </g>
</svg>